<?xml version="1.0" encoding="UTF-8"?>
<svg id="_Слой_2" data-name="Слой 2" xmlns="http://www.w3.org/2000/svg" viewBox="0 0 135 135">
  <defs>
    <style>
      .cls-1 {
        fill: #bee396;
      }

      .cls-2, .cls-3 {
        fill: #262626;
      }

      .cls-3 {
        font-family: CourierNewPSMT, 'Courier New';
        font-size: 14.19px;
      }

      .cls-4 {
        stroke: #faf8f8;
        stroke-width: .75px;
      }

      .cls-4, .cls-5 {
        fill: none;
        stroke-miterlimit: 10;
      }

      .cls-5 {
        stroke: #262626;
      }
    </style>
  </defs>
  <g id="_Слой_1-2" data-name="Слой 1">
    <g>
      <g>
        <circle class="cls-1" cx="67.5" cy="67.5" r="67.5"/>
        <circle class="cls-4" cx="67.5" cy="67.5" r="60.5"/>
        <text class="cls-3" transform="translate(26.62 59.28) rotate(-72.31)"><tspan x="0" y="0">☼</tspan></text>
        <text class="cls-3" transform="translate(29.09 51.43) rotate(-60.91)"><tspan x="0" y="0"> </tspan></text>
        <text class="cls-3" transform="translate(33.06 44.23) rotate(-49.49)"><tspan x="0" y="0">T</tspan></text>
        <text class="cls-3" transform="translate(38.38 37.96) rotate(-38.18)"><tspan x="0" y="0">H</tspan></text>
        <text class="cls-3" transform="translate(44.83 32.86) rotate(-26.9)"><tspan x="0" y="0">A</tspan></text>
        <text class="cls-3" transform="translate(52.15 29.11) rotate(-15.57)"><tspan x="0" y="0"> </tspan></text>
        <text class="cls-3" transform="translate(60.04 26.88) rotate(-4.18)"><tspan x="0" y="0">C</tspan></text>
        <text class="cls-3" transform="translate(68.26 26.25) rotate(7.23)"><tspan x="0" y="0">H</tspan></text>
        <text class="cls-3" transform="translate(76.41 27.25) rotate(18.42)"><tspan x="0" y="0">A</tspan></text>
        <text class="cls-3" transform="translate(84.24 29.83) rotate(29.84)"><tspan x="0" y="0">I</tspan></text>
        <text class="cls-3" transform="translate(91.38 33.9) rotate(41.24)"><tspan x="0" y="0"> </tspan></text>
        <text class="cls-3" transform="translate(97.58 39.29) rotate(52.55)"><tspan x="0" y="0">B</tspan></text>
        <text class="cls-3" transform="translate(102.6 45.8) rotate(63.83)"><tspan x="0" y="0">A</tspan></text>
        <text class="cls-3" transform="translate(106.26 53.18) rotate(75.17)"><tspan x="0" y="0">L</tspan></text>
        <text class="cls-3" transform="translate(108.39 61.11) rotate(86.58)"><tspan x="0" y="0">I</tspan></text>
        <text class="cls-3" transform="translate(108.91 69.32) rotate(97.95)"><tspan x="0" y="0"> </tspan></text>
        <text class="cls-3" transform="translate(107.8 77.45) rotate(109.14)"><tspan x="0" y="0">☼</tspan></text>
        <text class="cls-3" transform="translate(105.13 85.23) rotate(120.55)"><tspan x="0" y="0"> </tspan></text>
        <text class="cls-3" transform="translate(100.98 92.32) rotate(131.93)"><tspan x="0" y="0">T</tspan></text>
        <text class="cls-3" transform="translate(95.49 98.47) rotate(143.28)"><tspan x="0" y="0">H</tspan></text>
        <text class="cls-3" transform="translate(88.92 103.41) rotate(154.56)"><tspan x="0" y="0">A</tspan></text>
        <text class="cls-3" transform="translate(81.52 106.96) rotate(165.87)"><tspan x="0" y="0"> </tspan></text>
        <text class="cls-3" transform="translate(73.56 109) rotate(177.29)"><tspan x="0" y="0">C</tspan></text>
        <text class="cls-3" transform="translate(65.33 109.41) rotate(-171.32)"><tspan x="0" y="0">H</tspan></text>
        <text class="cls-3" transform="translate(57.19 108.2) rotate(-160.1)"><tspan x="0" y="0">A</tspan></text>
        <text class="cls-3" transform="translate(49.45 105.43) rotate(-148.69)"><tspan x="0" y="0">I</tspan></text>
        <text class="cls-3" transform="translate(42.43 101.19) rotate(-137.33)"><tspan x="0" y="0"> </tspan></text>
        <text class="cls-3" transform="translate(36.36 95.63) rotate(-126.01)"><tspan x="0" y="0">B</tspan></text>
        <text class="cls-3" transform="translate(31.5 89) rotate(-114.73)"><tspan x="0" y="0">A</tspan></text>
        <text class="cls-3" transform="translate(28.03 81.54) rotate(-103.37)"><tspan x="0" y="0">L</tspan></text>
        <text class="cls-3" transform="translate(26.1 73.56) rotate(-91.97)"><tspan x="0" y="0">I</tspan></text>
        <circle class="cls-5" cx="67.33" cy="67.9" r="55.4"/>
      </g>
      <path class="cls-2" d="m99.45,66.09c-.75.29-1.73.32-2.53.43-1.1.14-2.25.16-3.35.08-.14-.01-.27,0-.4.04-.06-1.37-.2-2.74-.42-4.08.1,0,.21-.01.33-.04,2.03-.55,4.04-1.17,6.09-1.65.53-.12.8-.81.63-1.28-.2-.56-.75-.72-1.28-.6-2.05.47-4.05,1.09-6.09,1.64-.02,0-.03.01-.05.02-.34-1.49-.82-2.93-1.45-4.3.31.23.73.3,1.14.04,1.41-.9,2.93-1.51,4.37-2.35,1.13-.66,0-2.28-1.14-1.63-1.43.84-2.96,1.45-4.37,2.35-.3.18-.43.43-.44.69-.54-1.05-1.2-2.04-1.91-2.99-.25-.33-.48-.67-.74-.99.37-.15.68-.48.68-.98,0-.31,1.08-1.13,1.42-1.49.18-.2.38-.38.57-.58.6-.59,1.21-1.17,1.67-1.89.3-.45.35-1.03-.12-1.41t-.01,0c-.39-.31-1.11-.3-1.41.15-.7,1.06-1.69,1.97-2.61,2.84-.62.58-1.24,1.19-1.45,2,0,0-.01-.01-.01-.02-.05-.04-.1-.09-.15-.13-1.08-1.05-2.26-2-3.52-2.82.1-.11.19-.23.25-.38.02-.02.06-.09.13-.22.14-.25.3-.48.46-.71.31-.43.64-.84.95-1.26.55-.74,1.16-1.4,1.32-2.33.23-1.28-1.75-1.6-1.98-.33-.13.71-.85,1.39-1.28,1.95-.55.72-1.19,1.44-1.49,2.3-1.42-.78-2.91-1.42-4.44-1.92.06-.1.11-.22.13-.35.08-.41.32-.8.48-1.19.17-.43.31-.86.45-1.3.28-.84.6-1.64.79-2.5.27-1.29-1.72-1.59-1.98-.34-.19.88-.51,1.7-.8,2.54-.28.82-.76,1.6-.92,2.45,0,.05-.01.1-.01.14-1.67-.42-3.38-.66-5.08-.74.2-.8.06-1.74.08-2.56.01-.9.21-1.78.23-2.69.02-1.3-1.98-1.09-2.01.18-.02.81-.17,1.62-.21,2.42-.05.76.13,1.67-.09,2.39-.02.09-.03.17-.04.25-1.46.04-2.91.2-4.35.46.07-.19.06-.41-.06-.65-.37-.75-.78-1.56-.95-2.39-.15-.82-.26-1.7-.46-2.45-.33-1.25-2.24-.54-1.91.69.02.08.19.62.17.5.1.58.13,1.16.24,1.74.18.91.59,1.77.99,2.59.06.14.16.26.26.35-1.7.42-3.36.99-4.96,1.7-.12-.69-.64-1.3-1.01-1.88-.61-.96-1.1-1.92-1.89-2.77-.88-.93-2.19.62-1.31,1.55.58.62.98,1.41,1.4,2.15.23.41.83.97.82,1.45,0,.16.03.3.08.42-.35.18-.7.37-1.04.57-.88.52-1.74,1.09-2.55,1.71-.06-.07-.12-.14-.21-.2-.67-.49-1.31-1.02-1.94-1.56-.23-.2-.52-.39-.7-.63-.24-.3-.5-.54-.86-.68-1.19-.47-2.08,1.34-.87,1.82.16.07.27.3.41.41.31.26.61.52.91.78.55.48,1.11.94,1.7,1.37-1.33,1.23-2.5,2.62-3.47,4.16-.13-.12-.28-.22-.49-.27-1.4-.38-2.64-1.26-4.13-1.33-.55-.02-1.07.23-1.18.82-.09.49.26,1.13.81,1.16,1.44.07,2.69.92,4.06,1.31-.73,1.53-1.22,3.15-1.5,4.82-.9-.05-1.79-.22-2.71-.22s-1.99-.16-2.89.13c-1.23.42-.58,2.3.65,1.89.37-.13.88-.02,1.26-.02h1.4c.67,0,1.34.12,2.03.19-.14,1.64-.11,3.3.05,4.92.02.15.03.3.05.44-.09-.02-.2-.03-.31-.04-.59-.03-1.16-.17-1.75-.17h-1.92c-.34,0-.94.17-1.24,0-1.14-.58-2.02,1.23-.87,1.83.81.41,1.91.16,2.78.16.54,0,1.1-.03,1.63.05.28.04.55.08.82.1.21.01.66.17.32-.05.27.17.56.2.82.14.26,1.45.63,2.92,1.09,4.35-1.06.41-2.13.79-3.17,1.26-1.03.46-2.14.82-3.11,1.39-1.13.67.02,2.3,1.13,1.64.88-.53,1.95-.84,2.88-1.26.96-.43,1.96-.77,2.94-1.15.47,1.18,1,2.33,1.62,3.44-.95.57-1.85,1.2-2.8,1.73-1,.55-1.85,1.3-2.8,1.92-1.09.72.04,2.35,1.13,1.63.96-.62,1.81-1.36,2.81-1.92.91-.52,1.78-1.12,2.68-1.66.83,1.29,1.76,2.5,2.8,3.6-.38.22-.67.59-.96.9-.35.38-.77.69-1.17,1.03-.75.65-1.3,1.68-2.14,2.18-1.12.67.02,2.3,1.13,1.64.82-.49,1.31-1.34,1.96-2.01.37-.38.79-.7,1.19-1.04.38-.33.7-.84,1.14-1.08.12-.07.21-.15.29-.23,1,.89,2.1,1.68,3.27,2.36-.54.76-.7,1.7-1.15,2.52-.53.96-1.14,1.81-1.46,2.87-.38,1.25,1.61,1.55,1.98.34.26-.86.86-1.62,1.31-2.38.42-.72.5-1.67,1.04-2.3.05-.05.07-.09.1-.13,1.31.55,2.7.91,4.11,1.12-.02.05-.03.08-.04.08-.04.2,0,.41-.03.62-.08.5-.27.98-.35,1.49,0,.02-.01.04-.01.06-.19,1.1-.53,2.1-.48,3.24.04.81.82,1.03,1.4.79.34-.13.58-.44.6-.87,0-.04.02-.06.02-.1-.09-1.66.83-3.22.86-4.85.04-.08.07-.17.11-.27.86.04,1.73.03,2.59-.02.86-.05,1.72-.16,2.55-.3,0,.05,0,.11,0,.16,0,1.12.02,2.23-.02,3.34-.03.84-.27,1.89.06,2.69.49,1.2,2.4.5,1.91-.68-.12-.28-.02-.69-.02-.99,0-.5.05-1,.06-1.5.03-.89.01-1.79,0-2.69.06-.23.04-.49-.09-.72,1.45-.34,2.88-.8,4.26-1.36.05.76.33,1.45.62,2.15.4.96.53,1.92.53,2.96.02,1.31,2.03,1.1,2.02-.17-.01-.94-.13-1.85-.37-2.75-.23-.94-.82-1.7-.81-2.71,0-.14-.01-.26-.05-.37.93-.47,1.81-1,2.66-1.6.2.54.32,1.1.58,1.61.27.53.63.95,1.03,1.39.43.46.72.95,1.01,1.5.27.49.57.91.7,1.48.28,1.26,2.18.55,1.91-.69-.24-1.05-.99-2.19-1.6-3.08-.33-.47-.79-.83-1.12-1.31-.34-.49-.43-1.15-.64-1.7-.07-.18-.18-.32-.3-.41.05-.04.1-.08.14-.12,6.47-5.61,8.83-15.83,5.5-23.72-.41-.97-.93-1.88-1.5-2.75-.61-.95-1.31-1.82-2.08-2.64-3.27-3.51-7.78-5.9-12.43-7.05-6.05-1.49-12.94-.75-17.53,3.79-5.86,5.8-5.61,15.41-2.17,22.36,1.77,3.57,4.47,6.66,8.06,8.44,2.25,1.12,4.79,1.61,7.31,1.58,1.18,0,2.35-.12,3.49-.35.14-.03.28-.08.42-.11,3.48-.81,6.63-2.64,8.99-5.32,2.46-2.78,3.79-6.53,3.99-10.21.11-1.9-.1-3.81-.63-5.62-.36-1.24-.88-2.44-1.58-3.55-.19-.31-.38-.61-.6-.91-1.89-2.54-4.65-4.41-7.63-5.42-2.98-1-6.21-1.12-9.23-.19-3.33,1.03-6.05,3.51-7.59,6.61-3.24,6.54-.99,16.78,6.31,19.55,2.37.9,5.1.69,7.62-.13,1.67-.55,3.24-1.36,4.54-2.34.33-.25.64-.51.91-.78,1.1-1.08,1.82-2.39,2.25-3.81.38-1.23.54-2.54.51-3.88-.02-.87-.16-1.76-.36-2.63-.45-2.01-1.33-3.95-2.7-5.45-2.07-2.27-4.98-3.11-7.96-2.45-5.87,1.32-10.8,9.18-6.14,14.28,2.52,2.75,6.92,3.96,10.11,1.59,2.78-2.07,3.67-6.75.94-9.22-2.63-2.37-7.3-.12-7.96,3.08-.36,1.74.96,3.05,2.55,3.39,1.06.23,4.03-.07,3.83-1.73-.12-.99-1.06-1.55-1.88-1.97-.73-.38-1.32.52-.98,1.14.13.22.31.32.54.38.22.13.43.27.63.44-.02,0-.05.01-.08.02-.16.07-.32.13-.49.16-.75.16-1.6.09-2.21-.4-.66-.53-.39-1.52,0-2.11.5-.74,1.27-1.29,2.09-1.61,1.69-.7,3.3.19,3.88,1.85.6,1.75-.18,3.77-1.41,5.03-2.78,2.86-7.87.65-9.38-2.49-1.37-2.85.17-6.04,2.24-8.08,2.16-2.1,5.46-3.18,8.31-1.92,2.6,1.14,4.09,4.03,4.63,6.69.1.51.16,1.03.2,1.55.2,2.54-.37,5.13-2.2,6.99-.85.87-1.92,1.51-3.04,2.02-.81.37-1.65.68-2.47.92-2.24.66-4.61.66-6.76-.33-3.49-1.61-5.29-5.62-5.81-9.22-.58-3.99.5-8.07,3.34-11,4.59-4.73,12.34-3.89,17.2-.07,1.45,1.14,2.57,2.54,3.37,4.1.65,1.25,1.09,2.6,1.33,3.99.68,3.84-.15,8.02-2.34,11.33-1.84,2.78-4.6,4.75-7.68,5.79-1.32.44-2.71.71-4.1.81-2.76.19-5.57-.34-8.06-1.61-3.63-1.87-6.15-5.44-7.65-9.14-1.58-3.92-2.03-8.33-1.02-12.45.85-3.47,2.98-6.56,6.01-8.45,2.62-1.63,5.78-2.17,8.82-2.12,6.21.11,12.76,2.96,16.89,7.68.22.25.46.48.66.74.5.64.94,1.33,1.33,2.02,3.92,6.91,2.57,16.22-2.61,22.18-2.96,3.41-7.3,5.39-11.6,6.43-.96.23-1.93.38-2.91.49-1.24.15-2.49.19-3.73.12-2.38-.15-4.73-.72-6.89-1.85-3.72-1.95-6.4-5.39-8.37-9.02-2.2-4.05-3.42-8.76-3.53-13.36-.12-4.38,1.11-8.7,3.89-12.11,2.36-2.9,5.62-4.98,9.04-6.41,3.49-1.46,7.29-2.28,11.08-2.22,4.13.05,8.22,1.28,11.8,3.31,1.77,1,3.38,2.27,4.81,3.73.78.8,1.5,1.64,2.13,2.56.1.14.22.27.31.42,1.87,2.85,2.85,6.21,3.27,9.57.43,3.5.29,7.14-.42,10.59-.38,1.85-.98,3.66-1.72,5.4-.77,1.77-1.67,3.52-3.02,4.91-.65.67.33,1.55,1.03,1.1.5.51,1.07.94,1.67,1.34.73.5,1.31,1.16,2.01,1.7,1,.79,2.32-.75,1.31-1.55-.63-.49-1.17-1.07-1.79-1.56-.64-.5-1.3-.9-1.87-1.47.81-1.14,1.45-2.42,2.02-3.7.78.41,1.6.79,2.39,1.19,1.05.54,2.16.97,3.34,1.14,1.26.19,1.67-1.78.37-1.97-1.02-.14-1.93-.53-2.84-.99-.82-.41-1.7-.81-2.49-1.26.38-1.05.7-2.14.96-3.23.03.02.06.02.09.04.69.26,1.38.31,2.12.39.99.11,1.98.31,2.96.46,1.27.2,1.67-1.77.38-1.97-.79-.12-1.58-.25-2.37-.38-.72-.11-1.54-.08-2.23-.33-.2-.07-.4-.08-.57-.05.02-.12.04-.23.06-.35.27-1.6.42-3.24.44-4.88,1.2.09,2.41.06,3.61-.03,1.04-.08,2.33-.19,3.3-.56,1.22-.46.57-2.35-.65-1.88Z"/>
    </g>
  </g>
</svg>