<?xml version="1.0" encoding="UTF-8"?>
<svg id="_Слой_2" data-name="Слой 2" xmlns="http://www.w3.org/2000/svg" viewBox="0 0 373.7 169.25">
  <defs>
    <style>
      .cls-1, .cls-2 {
        font-family: Dreamcast, Dreamcast;
        font-size: 30px;
      }

      .cls-3 {
        font-family: CourierNewPS-BoldMT, 'Courier New';
        font-size: 88.42px;
        font-weight: 700;
      }

      .cls-3, .cls-4 {
        fill: #262626;
      }

      .cls-5, .cls-6 {
        font-family: KozGoPr6N-Regular-90ms-RKSJ-H, 'Kozuka Gothic Pr6N';
        font-size: 24px;
      }

      .cls-6 {
        letter-spacing: 0em;
      }

      .cls-2 {
        letter-spacing: 0em;
      }

      .cls-7 {
        fill: #ede3d8;
      }
    </style>
  </defs>
  <g id="_Слой_1-2" data-name="Слой 1">
    <g>
      <rect class="cls-7" y="51.04" width="310" height="97"/>
      <text class="cls-4" transform="translate(41.06 90.13)"><tspan class="cls-5" x="0" y="0">聊天 | </tspan><tspan class="cls-2" x="65.3" y="0">chat bot </tspan><tspan class="cls-6" x="170.21" y="0">| </tspan><tspan class="cls-1"><tspan x="0" y="36">Instagram </tspan></tspan></text>
      <g>
        <path class="cls-4" d="m285.65,114.75h-19.16c-8.5,0-15.42-6.92-15.42-15.42v-16.88c0-8.5,6.92-15.42,15.42-15.42h19.16c8.5,0,15.42,6.92,15.42,15.42v16.88c0,8.5-6.92,15.42-15.42,15.42Zm-19.16-44.3c-6.61,0-11.99,5.38-11.99,11.99v16.88c0,6.61,5.38,11.99,11.99,11.99h19.16c6.61,0,11.99-5.38,11.99-11.99v-16.88c0-6.61-5.38-11.99-11.99-11.99h-19.16Z"/>
        <path class="cls-4" d="m276.07,104.61c-7.57,0-13.73-6.16-13.73-13.73s6.16-13.73,13.73-13.73,13.73,6.16,13.73,13.73-6.16,13.73-13.73,13.73Zm0-24.03c-5.68,0-10.3,4.62-10.3,10.3s4.62,10.3,10.3,10.3,10.3-4.62,10.3-10.3-4.62-10.3-10.3-10.3Z"/>
        <path class="cls-4" d="m292.43,77.58c0,1.57-1.28,2.85-2.85,2.85s-2.85-1.28-2.85-2.85,1.27-2.85,2.85-2.85,2.85,1.27,2.85,2.85Z"/>
      </g>
      <g id="Twitch">
        <path id="Twitch-2" data-name="Twitch" class="cls-4" d="m233.11,51.41v58.92s37.88,37.87,37.88,37.87h16.83s21.04,21.04,21.04,21.04v-21.04h25.25s0-75.75,0-75.75l-21.04-21.04h-79.96Zm8.42,8.42h67.33v63.13h-18.94s0,14.73,0,14.73l-14.73-14.73h-16.83s-16.83-16.83-16.83-16.83v-46.29Z"/>
      </g>
      <g>
        <path class="cls-7" d="m365.86,42.62v-.04s.02-.04.02-.04v-.04s.02-.04.02-.04v-.04s.02-.04.02-.04v-.04s.02-.04.02-.04v-.04s.02-.04.02-.04v-.05s.02-.05.02-.05v-.04s0,0,0,0l-.12-.02v-.04s.13.02.13.02v-.04s.01-.04.01-.04v-.04s-.11-.02-.11-.02v-.04s.13.02.13.02v-.04s.01-.04.01-.04v-.04s.01-.04.01-.04l-.12-.02v-.04s.01-.04.01-.04v-.04s.13.02.13.02v-.04s.01-.04.01-.04v-.04s.01-.04.01-.04l-.12-.02v-.04s.01-.04.01-.04v-.04s.13.02.13.02v-.04s-.11-.02-.11-.02v-.04s.01-.04.01-.04v-.04s.01-.04.01-.04v-.04s.01-.04.01-.04v-.04s.12.02.12.02v-.04s.01-.04.01-.04v-.04s.01-.04.01-.04v-.04s-.11-.01-.11-.01v-.04s.12.01.12.01v-.04s-.11-.01-.11-.01v-.04s.12.01.12.01v-.04s.01-.04.01-.04v-.04s0-.04,0-.04h-.12s0-.06,0-.06v-.04s0-.04,0-.04v-.04s.12.01.12.01v-.04s-.11-.01-.11-.01v-.04s0-.04,0-.04v-.04s0-.04,0-.04v-.04s0-.04,0-.04v-.04s0-.04,0-.04v-.04s0-.04,0-.04v-.04s.12,0,.12,0v-.04s-.12,0-.12,0v-.04s0-.04,0-.04h.12s0-.03,0-.03h-.12s0-.05,0-.05v-.04s.12,0,.12,0v-.04s0-.04,0-.04h-.12s0-.05,0-.05v-.04s0-.04,0-.04v-.04s0-.04,0-.04v-.04s.01-.17.01-.17v-.04s0-.04,0-.04v-.04s.12,0,.12,0v-.04s0-.04,0-.04v-.04s-.12,0-.12,0v-.04s0-.04,0-.04v-.04s.12,0,.12,0v-.04s0-.04,0-.04v-.04s0-.04,0-.04v-.04s0-.04,0-.04v-.04s-.12,0-.12,0v-.04s0-.04,0-.04v-.04s.12,0,.12,0v-.04s0-.04,0-.04h-.12s0-.05,0-.05v-.04s0-.04,0-.04v-.04s0-.04,0-.04v-.04s0-.04,0-.04v-.04s-.12,0-.12,0v-.04s.12,0,.12,0v-.04s0-.04,0-.04v-.04s0-.04,0-.04v-.04s0-.04,0-.04h.12s0-.05,0-.05h-.12s0-.04,0-.04v-.04s.12,0,.12,0v-.04s0-.04,0-.04h-.12s0-.04,0-.04v-.04s0-.09,0-.09h.12s0-.05,0-.05h.12s0-.05,0-.05h-.12s0-.04,0-.04v-.04s0-.04,0-.04v-.04s0-.04,0-.04v-.04s0-.04,0-.04v-.04s-.12,0-.12,0v-.04s.12,0,.12,0v-.04s0-.04,0-.04h-.12s0-.04,0-.04v-.04s0-.04,0-.04h.12s0-.05,0-.05v-.04s-.12,0-.12,0v-.04s0-.04,0-.04v-.04s.12,0,.12,0v-.04s0-.04,0-.04v-.04s-.12,0-.12,0v-.04s0-.04,0-.04v-.04s.12-.01.12-.01v-.04s0-.04,0-.04v-.04s-.12.01-.12.01v-.04s.12-.01.12-.01v-.04s0-.04,0-.04h-.12s0-.03,0-.03v-.04s0-.04,0-.04v-.04s-.01-.04-.01-.04h.12s0-.06,0-.06v-.04s-.12.01-.12.01v-.04s-.02-.09-.02-.09v-.04s.11-.01.11-.01v-.04s-.01-.04-.01-.04h-.12s0-.03,0-.03v-.04s.11-.02.11-.02v-.04s-.01-.04-.01-.04v-.04s-.01-.04-.01-.04v-.04s-.13.02-.13.02v-.04s.11-.02.11-.02v-.04s-.01-.04-.01-.04v-.04s-.01-.04-.01-.04l-.12.02v-.04s.11-.02.11-.02v-.04s-.01-.04-.01-.04v-.04s-.12.02-.12.02v-.04s.11-.02.11-.02v-.04s-.01-.04-.01-.04l-.12.02v-.04s-.01-.04-.01-.04v-.04s-.01-.04-.01-.04l.12-.02v-.04s-.01-.04-.01-.04v-.04s-.13.02-.13.02v-.04s-.01-.04-.01-.04v-.04s-.02-.04-.02-.04l.12-.02v-.04s-.13.02-.13.02v-.04s-.02-.04-.02-.04v-.04s.11-.02.11-.02v-.04s-.02-.04-.02-.04v-.04s-.02-.04-.02-.04l-.12.02v-.04s-.02-.04-.02-.04v-.04s-.02-.04-.02-.04v-.04s-.02-.04-.02-.04v-.04s.11-.03.11-.03v-.04s-.02-.04-.02-.04v-.04s-.02-.04-.02-.04l-.12.03v-.04s-.02-.04-.02-.04v-.04s-.02-.04-.02-.04v-.04s.11-.03.11-.03v-.04s-.02-.04-.02-.04l-.11.03v-.04s-.02-.04-.02-.04v-.04s-.02-.04-.02-.04v-.04s-.02-.04-.02-.04v-.04s-.02-.04-.02-.04v-.04s.1-.03.1-.03v-.04s-.02-.04-.02-.04v-.04s-.02-.04-.02-.04l-.11.03v-.04s.1-.03.1-.03v-.04s-.13.03-.13.03v-.04s.1-.03.1-.03v-.04s-.13.03-.13.03v-.04s-.02-.04-.02-.04v-.04s-.02-.04-.02-.04l.11-.03v-.04s-.02-.04-.02-.04l-.11.03v-.04s-.02-.04-.02-.04v-.04s-.03-.04-.03-.04l-.05-.17v-.04s-.03-.04-.03-.04v-.04s-.03-.04-.03-.04l.11-.04v-.04s-.03-.04-.03-.04v-.04s-.13.04-.13.04v-.04s-.03-.04-.03-.04v-.04s.1-.04.1-.04v-.04s-.13.04-.13.04v-.04s.1-.04.1-.04v-.04s-.03-.04-.03-.04v-.04s-.13.04-.13.04v-.04s.1-.04.1-.04v-.04s-.03-.04-.03-.04l-.11.04v-.04s-.03-.04-.03-.04l-.02-.04-.02-.04-.02-.04-.02-.04.11-.04-.02-.04-.02-.04-.02-.04-.02-.04-.02-.04-.11.04-.02-.04-.02-.04-.02-.04-.02-.04.11-.04-.02-.04-.02-.04-.11.04-.02-.04-.02-.04-.02-.04-.02-.04-.02-.04-.02-.04-.02-.04-.02-.04-.02-.04-.02-.04-.02-.04.11-.05-.02-.04-.02-.04-.02-.04-.11.05-.02-.04-.02-.04-.02-.04-.02-.04-.02-.04.11-.05-.02-.04-.11.05-.02-.04-.02-.04-.02-.04-.02-.04-.02-.04-.02-.04-.02-.04-.02-.04-.02-.04.11-.05-.02-.04-.02-.04-.11.05-.02-.04-.02-.04-.02-.04-.02-.04-.02-.04.11-.05-.02-.04-.02-.04-.02-.04-.11.05-.02-.04-.02-.04.11-.05-.02-.04-.11.05-.02-.04-.02-.04-.02-.04-.02-.04.11-.05-.02-.04-.02-.04-.11.05-.02-.04.11-.05-.02-.04-.02-.04-.11.05-.02-.04-.02-.04-.02-.04-.02-.04-.02-.04.11-.06-.02-.04-.11.06-.02-.04-.02-.04-.02-.04-.02-.04-.02-.04-.02-.04-.02-.04-.02-.04-.02-.04-.02-.04-.02-.04-.02-.04-.09-.15-.02-.04-.04-.08-.1.06-.02-.04.1-.06-.02-.04.1-.06-.02-.04-.1.06-.02-.04-.09-.15-.02-.04-.02-.04-.02-.04-.02-.04-.02-.04-.02-.04-.02-.04-.02-.04.1-.06-.02-.04-.02-.04-.02-.04-.1.06-.02-.04-.1.06-.02-.04.1-.06-.02-.04-.02-.04-.02-.04-.02-.04.1-.06-.02-.04-.02-.04-.1.06-.02-.04-.02-.04-.02-.04-.02-.04-.02-.04-.1.07-.02-.04.1-.07-.02-.04-.02-.04-.02-.04-.03-.04-.02-.04.1-.07-.03-.04-.03-.04-.03-.04-.1.07-.02-.04-.03-.04-.03-.04-.03-.04-.02-.04.1-.07-.03-.04-.03-.04-.1.07-.03-.04-.03-.04-.03-.04-.03-.04-.1-.14-.03-.04-.03-.04-.03-.04.1-.07-.03-.04-.03-.04-.03-.04-.1.07-.03-.04.1-.07-.03-.04-.1.07-.03-.03-.03-.03-.03-.03-.03-.04-.03-.03.1-.07-.03-.04-.03-.04-.03-.04-.09.07-.03-.04-.03-.04-.03-.03-.03-.04-.03-.03-.06-.07-.03-.03-.06-.07-.03-.03-.06-.07-.03-.03.09-.08-.03-.03-.09.08-.03-.03.09-.08-.03-.03-.03-.03-.03-.03-.03-.03-.09.08-.03-.03-.03-.03-.03-.03-.06-.07-.03-.03-.06-.07-.03-.03-.03-.03-.03-.03-.03-.03-.03-.03-.03-.03-.03-.03-.03-.03-.03-.03-.03-.03-.03-.03.09-.08-.03-.03.09-.08-.06-.07-.09.08-.03-.03-.09.08-.03-.03-.03-.03-.03-.03-.03-.03-.03-.03-.03-.03.09-.08-.03-.03-.09.08-.03-.03.09-.08-.03-.03-.09.08-.03-.03-.03-.03-.03-.03-.03-.03-.03-.03-.03-.03-.03-.03-.03-.03-.09.08-.03-.03.09-.08-.03-.03-.08.09-.03-.03.08-.09-.03-.03-.03-.03-.03-.03-.03-.03-.03-.03-.03-.03-.08.09-.03-.03-.03-.03.08-.09-.03-.03-.03-.03-.03-.03-.08.09-.03-.03.08-.09-.03-.03-.03-.03-.06-.06-.03-.03-.08.09-.03-.03.08-.09-.03-.03-.03-.03-.03-.03-.03-.03-.03-.03-.08.09-.03-.03.08-.09-.03-.03-.03-.03-.03-.03-.08.09-.03-.03.08-.09-.03-.03-.03-.03-.03-.03-.03-.03.08-.09-.03-.03-.08.09-.03-.03-.03-.03-.03-.03-.08.09-.03-.03-.03-.03.08-.09-.03-.03-.08.09-.03-.03-.03-.03.08-.09-.03-.03-.03-.03.08-.09-.03-.03-.08.09-.03-.03-.03-.03-.03-.03-.03-.03-.03-.03-.14-.11-.03-.03-.03-.03-.03-.03-.03-.03-.03-.03-.03-.03-.03-.03-.07.09-.03-.03-.03-.03.07-.1-.04-.03-.07.1-.03-.03.07-.1-.03-.03-.04-.03-.04-.03-.07.1-.03-.03-.03-.03-.03-.03-.03-.03-.04-.03-.04-.03-.04-.03.07-.1-.04-.03-.04-.03-.04-.02-.07.1-.04-.03-.04-.03.07-.1-.04-.03-.04-.03-.04-.03-.04-.03-.04-.03-.04-.03-.07.1-.04-.03.07-.1-.04-.02-.07-.05-.04-.02-.04-.02-.04-.02-.04-.02-.07.1-.04-.02.07-.1-.04-.02-.04-.02-.07.1-.04-.02-.04-.02-.04-.02-.04-.02.07-.1-.04-.02-.04-.02-.04-.02-.04-.02-.04-.02-.06.1-.04-.02.06-.1-.04-.02-.06.1-.04-.02-.04-.02-.04-.02.06-.1-.04-.02-.04-.02-.06.1-.04-.02.06-.1-.04-.02-.04-.02-.04-.02-.06.1-.04-.02-.04-.02-.04-.02-.04-.02-.04-.02-.04-.02.06-.1-.04-.02-.04-.02-.04-.02-.04-.02-.04-.02-.04-.02-.04-.02-.04-.02-.04-.02-.04-.02-.06.1-.04-.02-.04-.02-.04-.02-.04-.02-.04-.02-.04-.02.06-.1-.04-.02-.06.1-.04-.02-.04-.02-.04-.02.06-.1-.04-.02-.06.1-.04-.02-.04-.02.06-.1-.04-.02-.06.1-.04-.02-.04-.02-.04-.02.06-.11-.04-.02.06-.11-.04-.02-.06.11-.04-.02-.06.11-.04-.02.06-.11-.04-.02-.04-.02-.04-.02-.06.11-.04-.02-.04-.02.05-.11-.04-.02-.04-.02-.05.11-.04-.02-.04-.02-.04-.02-.04-.02.05-.11-.04-.02-.04-.02-.05.11-.04-.02-.04-.02-.04-.02-.04-.02-.04-.02-.04-.02-.04-.02.05-.11-.04-.02-.05.11-.04-.02-.04-.02.05-.11-.04-.02-.04-.02-.05.11-.04-.02-.04-.02-.04-.02-.04-.02.05-.11-.04-.02-.04-.02-.04-.02-.05.11-.04-.02-.04-.02-.04-.02-.04-.02-.04-.02-.04-.02.05-.11-.04-.02-.04-.02-.04-.02-.04-.02-.04-.02-.04-.02-.04-.02-.16-.07-.04-.02-.04-.02-.04-.02-.05.11-.04-.02-.04-.02.04-.11-.04-.02-.04-.02-.04.11-.04-.02-.04-.02-.04-.02.04-.11-.04-.02-.04-.02.04-.11-.08-.03-.04.11-.04-.02-.04-.02-.04-.02-.04.11h-.04s.04-.13.04-.13l-.04-.02h-.04s-.04-.03-.04-.03h-.04s-.04-.03-.04-.03h-.04s-.04-.03-.04-.03l-.04.11h-.04s-.04-.03-.04-.03l.04-.11h-.04s-.04-.03-.04-.03h-.04s-.16-.07-.16-.07h-.04s-.04-.03-.04-.03h-.04s-.04-.03-.04-.03h-.04s-.04.1-.04.1h-.04s-.04-.03-.04-.03h-.04s.04-.13.04-.13h-.04s-.04.1-.04.1h-.04s.04-.13.04-.13h-.04s-.04-.03-.04-.03h-.04s-.04-.03-.04-.03h-.04s-.04-.03-.04-.03l-.04.11h-.04s-.04-.03-.04-.03h-.04s-.04-.03-.04-.03h-.04s-.04-.03-.04-.03l.04-.12h-.04s-.04-.03-.04-.03h-.04s-.03.1-.03.1h-.04s-.04-.02-.04-.02h-.04s.03-.13.03-.13h-.04s-.03.1-.03.1h-.04s.03-.13.03-.13h-.04s-.04-.02-.04-.02h-.04s-.04-.02-.04-.02h-.04s-.03.1-.03.1h-.04s-.04-.02-.04-.02h-.04s-.04-.02-.04-.02l.03-.11h-.04s-.04-.02-.04-.02l-.03.11h-.04s-.04-.02-.04-.02h-.04s-.04-.02-.04-.02l.03-.12h-.04s-.04-.02-.04-.02l-.03.12h-.04s-.04-.02-.04-.02h-.04s.03-.13.03-.13h-.04s-.04-.02-.04-.02l-.03.12h-.04s-.04-.02-.04-.02h-.04s-.04-.02-.04-.02l.03-.12h-.04s-.03.11-.03.11h-.04s-.04-.02-.04-.02h-.04s-.04-.02-.04-.02h-.04s.03-.13.03-.13h-.04s-.04-.02-.04-.02h-.04s-.03.11-.03.11h-.04s-.04-.02-.04-.02l.03-.12h-.04s-.04-.02-.04-.02h-.04s-.04-.02-.04-.02h-.04s-.03.11-.03.11h-.04s-.04-.02-.04-.02l.03-.12h-.04s-.04-.02-.04-.02h-.04s-.04-.02-.04-.02h-.04s-.04-.02-.04-.02h-.04s-.04-.02-.04-.02l-.02.12h-.04s-.04-.02-.04-.02h-.04s.02-.13.02-.13h-.04s-.02.11-.02.11h-.04s-.04-.02-.04-.02h-.04s-.04-.02-.04-.02h-.04s.02-.13.02-.13h-.04s-.02.11-.02.11h-.04s-.04-.02-.04-.02l.02-.12h-.04s-.04-.02-.04-.02l-.02.12h-.04s-.04-.02-.04-.02l-.08-.02h-.04s-.04-.02-.04-.02h-.04s-.04-.02-.04-.02l.02-.12h-.04s-.04-.01-.04-.01l-.02.12h-.04s-.04-.01-.04-.01h-.04s.02-.12.02-.12h-.04s-.04-.01-.04-.01l-.02.12h-.04s-.04-.01-.04-.01h-.04s-.04-.01-.04-.01l.02-.12h-.04s-.04-.01-.04-.01h-.04s-.02.11-.02.11h-.04s-.04-.01-.04-.01l.02-.12h-.04s-.04-.01-.04-.01h-.04s-.02.11-.02.11h-.04s-.04-.01-.04-.01h-.04s-.04-.01-.04-.01l-.17-.03h-.04s-.04-.01-.04-.01h-.04s-.04-.01-.04-.01h-.04s-.04-.01-.04-.01l.02-.12h-.04s-.04-.01-.04-.01l-.02.12h-.04s-.04-.01-.04-.01h-.04s.02-.12.02-.12h-.04s-.04-.01-.04-.01l-.02.12h-.04s-.04-.01-.04-.01v-.12s-.03,0-.03,0h-.04s-.01.11-.01.11h-.04s-.04-.01-.04-.01h-.04s-.04-.01-.04-.01v-.12s-.03,0-.03,0v.12s-.06,0-.06,0h-.04s.01-.12.01-.12h-.04s-.04,0-.04,0h-.04s-.04,0-.04,0h-.04s-.04,0-.04,0v.12s-.06,0-.06,0v-.12s-.03,0-.03,0v.12s-.05,0-.05,0h-.04s-.04,0-.04,0h-.04s-.04,0-.04,0v-.12s-.03,0-.03,0h-.04s-.04,0-.04,0v.12s-.05,0-.05,0h-.04s.01-.12.01-.12h-.04s-.04,0-.04,0v.12s-.05,0-.05,0v-.12s-.03,0-.03,0h-.04s-.04,0-.04,0h-.04s-.04,0-.04,0h-.04s0,.12,0,.12h-.04s0-.12,0-.12h-.04s-.04,0-.04,0v.12s-.05,0-.05,0h-.04s-.04,0-.04,0h-.04s-.08-.01-.08-.01h-.04s-.04,0-.04,0h-.04s-.04,0-.04,0v-.12s-.03,0-.03,0h-.04s0,.12,0,.12h-.04s-.04,0-.04,0h-.04s-.04,0-.04,0h-.04s0-.12,0-.12h-.04s-.04,0-.04,0h-.04s0,.12,0,.12h-.04s0-.12,0-.12h-.04s-.04,0-.04,0v.12s-.05,0-.05,0h-.04s-.04,0-.04,0h-.04s0-.12,0-.12h-.04s0,.12,0,.12h-.04s0-.12,0-.12h-.04s-.04,0-.04,0h-.04s0,.12,0,.12h-.04s-.04,0-.04,0h-.04s-.04,0-.04,0h-.04s0-.12,0-.12h-.04s-.04,0-.04,0v.12s-.05,0-.05,0h-.04s-.04,0-.04,0v-.12s-.04,0-.04,0h-.04s-.04,0-.04,0h-.04s-.09,0-.09,0h-.04s-.04,0-.04,0h-.04s-.04,0-.04,0v.12s-.04,0-.04,0v-.12s-.04,0-.04,0h-.04s-.04,0-.04,0h-.04s-.04,0-.04,0h-.04s-.04,0-.04,0v.12s-.04,0-.04,0h-.04s0-.12,0-.12h-.04s-.04,0-.04,0v.12s-.04,0-.04,0h-.04s-.04,0-.04,0v-.12s-.04,0-.04,0h-.04s-.04,0-.04,0v.12s-.04,0-.04,0v-.12s-.04,0-.04,0v.12s-.04,0-.04,0v-.12s-.04,0-.04,0h-.04s-.04,0-.04,0v.12s-.04,0-.04,0v-.12s-.04,0-.04,0v.12s-.04,0-.04,0v-.12s-.04,0-.04,0h-.04s0,.12,0,.12h-.04s-.04,0-.04,0h-.04s-.04,0-.04,0v-.12s-.05,0-.05,0h-.04s0,.12,0,.12h-.04s-.04,0-.04,0v-.12s-.05,0-.05,0v.12s-.04,0-.04,0h-.04s-.04,0-.04,0h-.04s-.04,0-.04,0h-.09s-.17.01-.17.01h-.04s-.17,0-.17,0h-.04s-.04,0-.04,0h-.04s-.04,0-.04,0v-.12s-.05,0-.05,0h-.04s-.04,0-.04,0h-.04s-.04,0-.04,0v.12s-.04,0-.04,0h-.04s0-.12,0-.12h-.04s0,.12,0,.12h-.04s-.18.01-.18.01h-.05s-.05,0-.05,0h-.04s-.04.01-.04.01v-.12s-.05,0-.05,0v.12s-.03,0-.03,0h-.04s-.04.01-.04.01h-.09s-.04.02-.04.02h-.04s-.04.01-.04.01h-.04s-.04.01-.04.01v-.12s-.06,0-.06,0h-.04s-.04.01-.04.01v.12s-.03,0-.03,0h-.04s-.04.01-.04.01v-.12s-.06,0-.06,0h-.04s-.04.01-.04.01h-.04s-.04.01-.04.01h-.04s-.04.01-.04.01l.02.12h-.04s-.04.01-.04.01h-.04s-.09.02-.09.02h-.04s-.04.01-.04.01h-.04s-.04.01-.04.01h-.04s-.04.01-.04.01h-.04s-.02-.11-.02-.11h-.04s.02.13.02.13h-.04s-.04.01-.04.01l-.02-.12h-.04s.02.13.02.13h-.04s-.04.01-.04.01h-.04s-.16.04-.16.04h-.04s-.04.02-.04.02h-.04s-.08.02-.08.02h-.04s-.04.02-.04.02h-.04s-.02-.11-.02-.11h-.04s.02.13.02.13h-.04s-.04.02-.04.02h-.04s-.02-.11-.02-.11h-.04s.02.13.02.13h-.04s-.04.02-.04.02h-.04s-.04.02-.04.02h-.04s-.04.02-.04.02l-.16.03h-.04s-.04.02-.04.02h-.04s-.16.04-.16.04h-.04s-.04.02-.04.02h-.04s-.04.02-.04.02l-.02-.12h-.04s.02.13.02.13h-.04s-.04.02-.04.02h-.04s-.16.04-.16.04h-.04s-.04.02-.04.02h-.04s-.04.02-.04.02l-.02-.12h-.04s-.04.02-.04.02h-.04s.02.13.02.13h-.04s-.08.03-.08.03h-.04s-.08.02-.08.02h-.04s-.16.04-.16.04h-.04s-.04.02-.04.02h-.04s-.16.04-.16.04h-.04s-.04.02-.04.02h-.04s-.04.02-.04.02h-.04s-.04.02-.04.02l-.03-.12h-.04s-.04.02-.04.02h-.04s.03.13.03.13h-.04s-.04.02-.04.02l-.03-.12h-.04s.03.13.03.13h-.04s-.04.02-.04.02h-.04s-.04.02-.04.02h-.04s-.04.02-.04.02h-.04s-.04.02-.04.02h-.04s-.03-.11-.03-.11h-.04s-.04.02-.04.02h-.04s-.04.02-.04.02h-.04s-.04.02-.04.02l.03.12h-.04s-.04.02-.04.02h-.04s-.04.02-.04.02h-.04s-.04.02-.04.02h-.04s-.03-.11-.03-.11h-.04s-.04.02-.04.02h-.04s.03.13.03.13h-.04s-.04.02-.04.02h-.04s-.04.02-.04.02h-.04s-.04.02-.04.02h-.04s-.03-.11-.03-.11h-.04s-.04.02-.04.02h-.04s.03.13.03.13h-.04s-.04.02-.04.02h-.04s-.04.02-.04.02l-.03-.12h-.04s-.04.02-.04.02l.03.12h-.04s-.04.02-.04.02h-.04s-.04.02-.04.02h-.04s-.04.02-.04.02l-.16.04h-.04s-.04.02-.04.02h-.04s-.04.02-.04.02h-.04s-.04.02-.04.02h-.04s-.04.02-.04.02l-.03-.12h-.04s-.04.02-.04.02l.03.12h-.04s-.04.02-.04.02h-.04s-.04.02-.04.02h-.04s-.04.02-.04.02l-.03-.12h-.04s.03.13.03.13h-.04s-.04.02-.04.02l-.16.04h-.04s-.04.02-.04.02h-.04s-.08.03-.08.03l-.16.04h-.04s-.16.05-.16.05h-.04s-.04.02-.04.02h-.04s-.08.03-.08.03h-.04s-.04.02-.04.02h-.04s-.04.02-.04.02l.03.11h-.04s-.03-.11-.03-.11h-.04s-.04.02-.04.02h-.04s-.04.02-.04.02l-.08.02-.16.04h-.04s-.16.05-.16.05h-.04s-.04.02-.04.02h-.04s-.04.02-.04.02l.03.12h-.04s-.03-.11-.03-.11h-.04s-.04.02-.04.02h-.04s-.04.02-.04.02l.03.12h-.04s-.04.02-.04.02l-.03-.12h-.04s-.16.05-.16.05h-.04s-.04.02-.04.02l.03.12h-.04s-.04.02-.04.02h-.04s-.04.02-.04.02l-.03-.12h-.04s-.04.02-.04.02h-.04s-.04.02-.04.02h-.04s-.04.02-.04.02l.03.12h-.04s-.04.02-.04.02l-.03-.12h-.04s-.04.02-.04.02h-.04s-.04.02-.04.02h-.04s-.04.02-.04.02h-.04s-.04.02-.04.02h-.04s-.04.02-.04.02h-.04s.03.13.03.13h-.04s-.03-.11-.03-.11h-.04s-.04.02-.04.02h-.04s-.04.02-.04.02l.03.12h-.04s-.03-.11-.03-.11h-.04s.03.13.03.13h-.04s-.04.02-.04.02l-.03-.12h-.04s.03.13.03.13h-.04s-.03-.11-.03-.11h-.04s-.04.02-.04.02h-.04s-.04.02-.04.02h-.04s-.04.02-.04.02h-.04s.03.13.03.13h-.04s-.03-.11-.03-.11h-.04s-.04.02-.04.02h-.04s-.04.02-.04.02h-.04s-.04.02-.04.02h-.04s-.04.02-.04.02h-.04s-.04.02-.04.02h-.04s-.04.02-.04.02l.03.12h-.04s-.04.02-.04.02l-.03-.12h-.04s-.04.02-.04.02h-.04s-.04.02-.04.02h-.04s-.04.02-.04.02h-.04s-.04.02-.04.02h-.04s.03.13.03.13h-.04s-.04.02-.04.02l-.03-.12h-.04s-.04.02-.04.02h-.04s-.04.02-.04.02l.03.12h-.04s-.04.02-.04.02h-.04s-.03-.11-.03-.11h-.04s.03.13.03.13h-.04s-.03-.11-.03-.11h-.04s-.04.02-.04.02l.03.12h-.04s-.03-.11-.03-.11h-.04s-.04.02-.04.02h-.04s.03.13.03.13h-.04s-.04.02-.04.02h-.04s-.03-.11-.03-.11h-.04s-.04.02-.04.02h-.04s-.04.02-.04.02h-.04s-.02.02-.02.02l-.95.24-.17.97v.02s-.01.04-.01.04l-.03.16v.04s-.01.04-.01.04v.04s-.01.04-.01.04l.12.02v.04s-.12-.02-.12-.02v.04s-.01.04-.01.04v.04s-.01.04-.01.04v.04s-.01.04-.01.04v.04s.11.02.11.02v.04s-.01.04-.01.04l-.12-.02v.04s-.01.04-.01.04l-.12-.02v.04s.11.02.11.02v.04s-.02.08-.02.08v.04s-.01.04-.01.04v.04s-.01.04-.01.04l.12.02v.04s-.13-.02-.13-.02v.04s-.01.04-.01.04v.04s-.01.04-.01.04l.12.02v.04s-.13-.02-.13-.02v.04s-.01.04-.01.04v.08s-.02.04-.02.04v.04s-.01.04-.01.04v.04s-.02.08-.02.08v.04s-.02.08-.02.08v.04s-.02.08-.02.08v.04s-.01.04-.01.04v.04s-.13-.02-.13-.02v.04s-.01.04-.01.04l.12.02v.04s-.01.04-.01.04v.04s-.02.08-.02.08v.04s-.01.04-.01.04v.04s-.01.04-.01.04v.08s-.02.04-.02.04v.08s-.02.04-.02.04v.08s-.02.04-.02.04v.04s-.01.04-.01.04v.04s-.01.04-.01.04v.04s.11.02.11.02v.04s-.01.04-.01.04v.04s-.01.04-.01.04l-.12-.02v.04s-.01.04-.01.04v.04s-.01.04-.01.04v.08s-.02.04-.02.04v.08s-.02.04-.02.04v.08s-.02.04-.02.04v.04s-.01.04-.01.04v.04s-.01.04-.01.04v.04s-.13-.02-.13-.02v.04s.11.02.11.02v.04s-.01.04-.01.04v.04s-.01.04-.01.04v.04s-.01.04-.01.04l.12.02v.04s-.12-.02-.12-.02v.04s-.01.04-.01.04v.04s-.12-.02-.12-.02v.04s.11.02.11.02v.08s-.02.04-.02.04v.08s-.03.08-.03.08v.04s-.01.04-.01.04v.04s.11.02.11.02v.04s-.02.04-.02.04l-.12-.02v.04s-.01.04-.01.04v.04s-.01.04-.01.04v.04s.11.02.11.02v.04s-.13-.02-.13-.02v.04s-.01.04-.01.04v.04s.11.02.11.02v.04s-.01.04-.01.04v.04s-.01.04-.01.04l-.12-.02v.04s-.01.04-.01.04l.12.02v.04s-.13-.02-.13-.02v.04s-.01.04-.01.04v.04s-.01.04-.01.04v.04s-.12-.02-.12-.02v.08s-.02.04-.02.04l.12.02.12.02v.04s-.12-.02-.12-.02v.04s-.02.08-.02.08v.04s-.01.04-.01.04v.04s.11.02.11.02v.04s-.01.04-.01.04l-.12-.02v.04s-.01.04-.01.04v.04s-.01.04-.01.04v.04s-.01.04-.01.04l.12.02v.04s-.01.04-.01.04v.04s-.01.04-.01.04l-.12-.02v.04s-.01.04-.01.04v.04s-.01.04-.01.04l.12.02v.04s-.01.04-.01.04l-.12-.02v.04s-.01.04-.01.04l.12.02v.04s-.12-.02-.12-.02v.04s-.01.04-.01.04l.12.02v.04s-.12-.02-.12-.02v.04s-.01.04-.01.04l.12.02v.04s-.01.04-.01.04v.04s-.01.04-.01.04l-.12-.02v.04s.11.02.11.02v.04s-.01.04-.01.04v.04s-.13-.02-.13-.02v.04s-.02.08-.02.08v.04s-.02.08-.02.08v.04s-.04.16-.04.16v.04s-.01.04-.01.04v.04s-.01.04-.01.04v.04s-.01.04-.01.04v.04s-.01.04-.01.04l.12.02v.04s-.13-.02-.13-.02v.04s-.01.04-.01.04v.04s-.01.04-.01.04v.04s-.01.04-.01.04v.08s-.02.04-.02.04v.04s-.01.04-.01.04v.04s-.01.04-.01.04v.04s.11.02.11.02v.04s-.01.04-.01.04v.04s-.13-.02-.13-.02v.04s-.01.04-.01.04v.04s.11.02.11.02v.04s-.01.04-.01.04l-.12-.02v.04s-.01.04-.01.04l.12.02v.04s-.01.04-.01.04l.12.02v.04s-.13-.02-.13-.02v.04s-.01.04-.01.04v.04s-.01.04-.01.04v.04s-.02.08-.02.08v.04s-.01.04-.01.04v.04s-.13-.02-.13-.02v.05s-.01.04-.01.04v.04s.11.02.11.02v.04s-.01.04-.01.04v.09s-.02.04-.02.04v.04s-.01.04-.01.04l-.12-.02v.05s-.01.05-.01.05v.05s-.01.05-.01.05h.12s0,.06,0,.06v.05s0,.05,0,.05h-.12s0,.03,0,.03v.05s0,.05,0,.05h.12s0,.06,0,.06v.05s0,.05,0,.05v.05s-.12,0-.12,0v.05s.12,0,.12,0v.05s0,.05,0,.05v.05s-.12,0-.12,0v.05s0,.05,0,.05v.05s0,.09,0,.09h.12s0,.05,0,.05v.05s-.12,0-.12,0v.05s0,.05,0,.05h.12s0,.05,0,.05v.05s-.12,0-.12,0v.05s0,.05,0,.05v.05s.12,0,.12,0v.05s0,.05,0,.05v.05s-.12,0-.12,0v.05s.12,0,.12,0v.05s-.12,0-.12,0v.05s0,.05,0,.05v.05s0,.05,0,.05v.05s0,.05,0,.05h.12s0,.04,0,.04v.05s-.12,0-.12,0v.05s0,.05,0,.05v.05s0,.05,0,.05v.05s.12,0,.12,0v.05s-.12,0-.12,0v.05s0,.05,0,.05h.12s0,.04,0,.04h-.12s0,.06,0,.06v.05s.01.1.01.1v.05s.12-.01.12-.01v.05s-.11.01-.11.01v.05s.13-.01.13-.01v.05s-.11.02-.11.02v.05s.01.05.01.05v.05s.13-.02.13-.02v.05s-.11.02-.11.02v.05s.01.05.01.05v.05s.02.05.02.05v.05s.02.05.02.05v.05s.02.05.02.05l.12-.02v.05s-.11.02-.11.02v.05s.13-.02.13-.02v.05s.02.05.02.05v.05s-.11.03-.11.03v.05s.13-.03.13-.03v.05s.02.05.02.05v.05s-.11.03-.11.03v.05s.02.05.02.05v.05s.02.05.02.05v.05s.02.05.02.05v.05s.03.05.03.05v.05s.13-.03.13-.03v.05s.03.05.03.05v.05s-.1.03-.1.03v.05s.03.05.03.05v.05s.03.05.03.05l.02.05.11-.04.02.05.02.05.02.05.02.05.02.05.02.05.02.05.02.04.02.04-.11.04.02.05.02.05.02.05.11-.05.02.04.02.04.02.04.02.04.02.04-.11.05.02.04.02.04.02.04.04.09.02.04.02.04.02.04.11-.05.02.04.02.04.02.04.02.04.02.04.02.04.02.04h0s-.03.01-.03.01h0s.03,0,.03,0h0s-.03.02-.03.02h0s0,0,0,0h-.12s0,.02,0,.02h.12s0-.01,0-.01h0s.04,0,.04,0h0s-.04.01-.04.01h0s.04,0,.04,0h0s0,0,0,0h-.04s0,0,0,0h0s.04,0,.04,0l.02.03h-.06s0,.01,0,.01h0s.06,0,.06,0h0s.02.05.02.05l-.1.06.02.04.02.04v.02s0,0,0,0h0s0,0,0,0v.02s-.09.06-.09.06l.05.09.1-.06.1-.06v.02s-.02.01-.02.01h0s.03-.01.03-.01h0s-.03.02-.03.02h0s.03-.01.03-.01h0s-.03.02-.03.02h0s.03-.01.03-.01h0s-.03.02-.03.02h0s0,0,0,0h.03s0,0,0,0l-.04.02h0s0,0,0,0l.04-.02h0s0,.02,0,.02l-.04.02h0s0,0,0,0l.04-.02v.02s-.03.02-.03.02h0s.04-.02.04-.02h0s0,.01,0,.01l-.05.02h0s.05-.02.05-.02l.02.03h0s-.05.03-.05.03h0s.05-.03.05-.03h0s-.05.03-.05.03h0s0,0,0,0h0s0,0,0,0h0s0,0,0,0l.05-.03h0s-.05.04-.05.04h0s.05-.03.05-.03h0s-.05.04-.05.04h0s.05-.03.05-.03h0s0,0,0,0l-.06.03h0s.06-.03.06-.03v.02s-.05.03-.05.03h0s.06-.03.06-.03h0s-.06.03-.06.03h0s.06-.03.06-.03v.02s-.05.04-.05.04h0s.06-.04.06-.04h0s-.06.04-.06.04h0s.06-.04.06-.04l.03.04-.09.06h0s0,0,0,0h0s-.1.06-.1.06h0s-.03.02-.03.02h0s0,0,0,0h0s0,0,0,0h0s-.1.06-.1.06h0s.1-.06.1-.06h0s0,0,0,0h0s0,0,0,0h0s0,0,0,0h0s-.1.07-.1.07h0s.1-.07.1-.07h0s0,0,0,0h0s0,0,0,0h0s0,0,0,0l.1-.06-.1.06h0s-.1.06-.1.06h0s.1-.06.1-.06h0s0,0,0,0h0s-.1.06-.1.06l.1-.06h0s.1-.06.1-.06h0s-.1.06-.1.06h0s0,0,0,0h0s0,0,0,0h0s0,0,0,0h0s0,0,0,0h0s0,0,0,0h0s0,0,0,0h0s0,0,0,0h0s.1-.06.1-.06h0s-.1.06-.1.06h0s0,0,0,0h0s0,0,0,0h0s0,0,0,0h0s0,0,0,0l-.1.06h0s0,0,0,0l.1-.06h0s0,0,0,0h0s0,0,0,0l-.1.07h0s.1-.06.1-.06h0s0,0,0,0h0s-.1.07-.1.07h0s0,0,0,0l.1-.06h0s0,0,0,0h0s-.1.07-.1.07h0s0,0,0,0l.1-.07h0s0,0,0,0h0s0,0,0,0l-.1.07.1-.07h0s-.1.07-.1.07h0s0,0,0,0l.1-.07h0s-.1.07-.1.07l.1-.07h0s0,0,0,0h0s0,0,0,0h0s-.1.07-.1.07l.1-.07h0s0,0,0,0h0s0,0,0,0h0s-.1.07-.1.07h0s.1-.07.1-.07h0s-.1.07-.1.07h0s0,0,0,0h0s.1-.06.1-.06h0s0,0,0,0h0s0,0,0,0h0s-.1.07-.1.07h0s0,0,0,0l.1-.07h0s0,0,0,0h0s0,0,0,0l-.1.07h0s.1-.07.1-.07h0s0,0,0,0h0s-.1.07-.1.07h0s.1-.06.1-.06h0s0,0,0,0h0s0,0,0,0l-.1.07h0s.1-.07.1-.07h0s0,0,0,0h0s0,0,0,0h0s-.1.07-.1.07l.1-.07h0s0,0,0,0h0s0,0,0,0h0s0,0,0,0h0s0,0,0,0h0s0,0,0,0h0s0,0,0,0h0s-.1.07-.1.07h0s.1-.06.1-.06h0s0,0,0,0h0s0,0,0,0h0s0,0,0,0h0s-.1.07-.1.07h0s.1-.06.1-.06h0s-.1.06-.1.06h0s0,0,0,0h0s.1-.07.1-.07h0s-.1.07-.1.07h0s0,0,0,0l.1-.07h0s-.1.07-.1.07h0s.1-.07.1-.07h0s-.1.07-.1.07h0s.1-.06.1-.06h0s0,0,0,0h0s-.1.07-.1.07h0s.1-.07.1-.07h0s0,0,0,0l-.1.07h0s0,0,0,0l.1-.07h0s0,0,0,0h0s-.1.07-.1.07h0s0,0,0,0h0s0,0,0,0h0s.1-.07.1-.07h0s0,0,0,0l-.1.07h0s0,0,0,0l.1-.07h0s0,0,0,0l-.1.07h0s.1-.07.1-.07l-.1.07h0s0,0,0,0l.1-.07h0s-.1.07-.1.07h0s.1-.07.1-.07h0s0,0,0,0h0s0,0,0,0h0s0,0,0,0h0s0,0,0,0h0s0,0,0,0h0s0,0,0,0h0s-.1.07-.1.07h0s0,0,0,0l.1-.07h0s-.1.07-.1.07h0s.1-.07.1-.07h0s-.1.07-.1.07h0s.1-.07.1-.07h0s0,0,0,0h0s0,0,0,0h0s0,0,0,0h0s0,0,0,0h0s0,0,0,0h0s0,0,0,0l-.1.07h0s.1-.07.1-.07l-.1.07.1-.07h0s0,0,0,0h0s0,0,0,0h0s0,0,0,0l-.1.07h0s0,0,0,0l.1-.07h0s0,0,0,0h0s0,0,0,0h0s0,0,0,0h0s0,0,0,0l-.1.07h0s.1-.07.1-.07h0s0,0,0,0h0s-.1.07-.1.07l.1-.07h0s-.1.07-.1.07h0s0,0,0,0h0s0,0,0,0h0s.1-.07.1-.07l-.1.07.1-.07-.1.07h0s0,0,0,0l.1-.07h0s0,0,0,0l-.1.07h0s0,0,0,0h0s.1-.07.1-.07l-.1.07h0s0,0,0,0l.1-.07-.1.07h0s0,0,0,0h0s.1-.07.1-.07h0s0,0,0,0l-.1.07h0s0,0,0,0h0s.1-.07.1-.07h0s-.1.07-.1.07l.1-.07-.1.07h0s0,0,0,0h0s0,0,0,0h0s.1-.07.1-.07l-.1.07h0s0,0,0,0l.1-.07h0s-.1.07-.1.07h0s0,0,0,0h0s0,0,0,0h0s0,0,0,0h0s.1-.07.1-.07h0s-.1.07-.1.07h0s.1-.07.1-.07h0s-.1.07-.1.07h0s0,0,0,0h0s0,0,0,0h0s.1-.07.1-.07h0s0,0,0,0h0s0,0,0,0h0s0,0,0,0h0s-.1.07-.1.07h0s0,0,0,0h0s.1-.06.1-.06l-.1.06h0s0,0,0,0h0s0,0,0,0l-.1.07.1-.07h0s0,0,0,0h0s0,0,0,0l.1-.07h0s0,0,0,0h0s0,0,0,0l-.1.07h0s.26-.17.26-.17v.02s-.08.06-.08.06h0s.09-.06.09-.06h0s.02.05.02.05l-.09.06h0s.09-.06.09-.06h0s.01,0,.01,0h0s0,0,0,0h0s.04-.03.04-.03l.04-.03-.08.06h0s0,0,0,0l.08-.06h0s-.08.06-.08.06h0s0,0,0,0h0s0,0,0,0h0s.08-.06.08-.06h0s-.08.07-.08.07h0s0,0,0,0h0s0,0,0,0h0s0,0,0,0l.08-.06h0s-.08.07-.08.07h0s0,0,0,0h0s0,0,0,0h0s0,0,0,0h0s0,0,0,0h0s.08-.06.08-.06h0s-.08.07-.08.07h0s0,0,0,0h0s0,0,0,0h0s0,0,0,0l.08-.06h0s-.08.07-.08.07h0s0,0,0,0h0s0,0,0,0h0s0,0,0,0h0s0,0,0,0h0s0,0,0,0h0s0,0,0,0h0s0,0,0,0h0s0,0,0,0h0s0,0,0,0h0s0,0,0,0h0s0,0,0,0h0s0,0,0,0h0s-.09.08-.09.08h0s.09-.08.09-.08h0s-.09.08-.09.08h0s0,0,0,0h0s0,0,0,0l.09-.08h0s0,0,0,0h0s0,0,0,0h0s0,0,0,0h0s0,0,0,0h0s0,0,0,0h0s0,0,0,0h0s0,0,0,0h0s0,0,0,0l.06-.06h0s-.06.06-.06.06h0s.06-.06.06-.06h0s-.06.06-.06.06h0s0,0,0,0l.06-.06h0s-.06.06-.06.06h0s0,0,0,0h0s0,0,0,0h0s0,0,0,0h0s0,0,0,0h0s0,0,0,0h0s0,0,0,0h0s0,0,0,0h0s0,0,0,0h0s0,0,0,0h0s-.08.09-.08.09h0s.08-.09.08-.09h0s0,0,0,0h0s0,0,0,0l.04-.05h0s-.04.05-.04.05h0s0,0,0,0h0s-.08.09-.08.09h0s0,0,0,0l.08-.09h0s0,0,0,0h0s0,0,0,0h0s0,0,0,0h0s.04-.04.04-.04h0s-.04.05-.04.05h0s-.08.09-.08.09h0s0,0,0,0l.08-.09h0s0,0,0,0h0s0,0,0,0h0s.03-.04.03-.04h0s-.03.04-.03.04h0s0,0,0,0h0s.03-.04.03-.04h0s-.03.04-.03.04h0s0,0,0,0h0s0,0,0,0h0s0,0,0,0h0s0,0,0,0h0s0,0,0,0h0s0,0,0,0h0s0,0,0,0h0s0,0,0,0l.02-.03h0s-.02.03-.02.03h0s0,0,0,0h0s0,0,0,0h0s.02-.03.02-.03h0s-.02.03-.02.03h0s0,0,0,0l.02-.02h0s0,0,0,0l-.02.02h0s0,0,0,0h0s.02-.02.02-.02h0s-.01.03-.01.03h0s0,0,0,0h0s.01-.02.01-.02h0s-.01.02-.01.02h0s0,0,0,0h0s0,0,0,0h0s0,0,0,0h0s0,0,0,0h0s0,0,0,0h0s0,0,0,0h0s0,.01,0,.01h0s0,0,0,0h0s0,0,0,0h0s0,0,0,0h0s0,0,0,0h0s0,0,0,0h0s0,0,0,0h0s0,0,0,0h0s0,0,0,0h0s.02.03.02.03l-.03.05-.05.04.03.04.1-.07.03.04-.09.07.03.04.03.04.09-.07.03.04.03.04.03.04.03.04.03.04.03.04.03.04.03.04.03.04.03.04.03.04.03.04.03.04.03.04.03.04.03.04-.09.08.03.04.03.03.03.04.03.03.09-.08.03.03.03.03.03.03.03.03.03.03.03.03-.08.08.03.03.08-.09.03.03.04.03.03.03.03.03.04.03.04.03.04.03.04.03.04.03.15.13.04.03.04.03.04.03.04.03.04.03.04.03.04.03.04.03.04.03.04.03-.07.1.04.03.04.03.04.03.07-.1.04.03-.07.1.04.03.04.03.04.03.07-.1.04.03.04.03-.07.1.04.03.04.03.07-.1.04.03-.07.1.04.03.04.03.04.03.04.03.06-.1.04.03.04.03-.06.1.04.03.04.03.04.03.04.03.06-.1.04.02.04.02.04.02.04.02.04.02.04.02.04.02.06-.11.04.02.04.02-.06.11.04.02.04.02.04.02.04.02.05-.11.04.02-.05.11.04.02.04.02.04.02.04.02.04.02.18.08.04.02.04.02.04.02.04.02.04.02.04.02.04.02.04.02-.04.11.05.02.05.02.05.02.05.02.05.02.05.02.04-.11.05.02-.04.11.05.02.04-.11.05.02h.05s.05.03.05.03h.05s.05.03.05.03l.18.05h.05s.05.03.05.03h.05s-.03.13-.03.13h.05s.05.02.05.02l.03-.12h.05s.05.02.05.02h.05s.05.02.05.02l-.03.12h.05s.05.02.05.02h.05s.03-.11.03-.11h.05s.05.02.05.02h.05s.05.02.05.02h.05s.05.02.05.02h.05s.05.02.05.02l.19.03h.05s.05.01.05.01h.05s.05.01.05.01h.05s.05.01.05.01h.05s.05.01.05.01h.05s-.01.13-.01.13h.05s.05,0,.05,0h.05s.01-.12.01-.12h.05s.05,0,.05,0h.1s.05.01.05.01h.05s.05,0,.05,0h.05s0,.12,0,.12h.05s0,.12,0,.12h.05s0-.12,0-.12h.05s0-.12,0-.12h.05s.05,0,.05,0v.12s0,.12,0,.12h.05s0-.12,0-.12h.05s0-.12,0-.12h.05s.05,0,.05,0v-.12s.05,0,.05,0v.12s.05,0,.05,0h.05s.05,0,.05,0h.05s.19,0,.19,0h.05s.05,0,.05,0h.05s.05,0,.05,0h.05s.05,0,.05,0v.12s.06,0,.06,0h.05s.05,0,.05,0v-.12s.04,0,.04,0v.12s.06,0,.06,0h.05s.05,0,.05,0h.05s-.01-.12-.01-.12h.05s.05-.01.05-.01l.19-.03h.05s.05-.01.05-.01l.02.12h.05s-.02-.12-.02-.12h.05s.05-.02.05-.02h.05s.05-.02.05-.02h.05s.05-.02.05-.02h.05s.05-.02.05-.02h.05s.05-.02.05-.02h.05s.05-.02.05-.02l-.03-.12h.05s.03.11.03.11h.05s.05-.02.05-.02h.05s.05-.02.05-.02h.05s.05-.02.05-.02l-.03-.12h.05s.03.1.03.1h.05s.05-.03.05-.03l-.03-.12h.05s.05-.03.05-.03l.03.12h.05s.05-.03.05-.03l.04.11h.05s-.04-.13-.04-.13h.05s.04.1.04.1h.05s-.04-.13-.04-.13l.05-.02.05-.02.05-.02.05-.02.05-.02.05-.02.04-.02.05-.02.04.11.05-.02-.04-.11.04-.02.04-.02.04-.02.04-.02.04-.02.04-.02.05.11.04-.02.04-.02-.05-.11.04-.02.04-.02.04-.02.04-.02.04-.02.04-.02.04-.02-.05-.11.04-.02.05.11.04-.02.17-.09.04-.02.04-.02.04-.02.04-.02.04-.02.04-.02.04-.02-.06-.1.04-.02.06.1.04-.02.04-.02.04-.02.04-.02.04-.03.04-.03.16-.1.04-.03.04-.03.04-.03-.07-.1.04-.03.04-.03.07.1.04-.03.04-.03.07.1.04-.03-.07-.1.04-.03.04-.03.04-.03.04-.03.04-.03.15-.12.04-.03.04-.03.04-.03.04-.03.04-.03.04-.03.04-.03.08.09.04-.03.04-.03-.08-.09.04-.03.04-.03.04-.03.04-.03.04-.03.04-.03.14-.13.03-.03.03-.03.03-.03.07-.07.03-.03.03-.03.03-.03.03-.04.03-.04-.09-.08.03-.03.03-.03.09.08.03-.04.03-.04.06-.07.13-.15.03-.04.12-.15.03-.04.03-.04.03-.04.06-.08.11-.15.03-.04.05-.08.11-.16.03-.04.05-.08.1-.16.02-.04.1-.16.02-.04.02-.04.02-.04.02-.04.11.06.02-.04.02-.04.02-.04.02-.04.02-.04-.11-.06.02-.04.02-.04.02-.04.02-.04.02-.04.02-.04.08-.17.02-.04.02-.04.02-.04.02-.04.02-.04.02-.04.11.05.02-.04-.11-.05.02-.04.03-.08,2.47-1.42h.04s.04,0,.04,0h.07s.15,0,.15,0h.04s.15.01.15.01h.04s.04,0,.04,0h.04s.04,0,.04,0h.04s.04,0,.04,0h.04s.04,0,.04,0v.12s.03,0,.03,0h.04s.04,0,.04,0v-.12s.05,0,.05,0h.04s.04,0,.04,0h.04s.07.01.07.01l.15.02h.04s.15.02.15.02h.04s.04,0,.04,0h.04s.04.01.04.01l.02-.12h.04s-.02.12-.02.12h.04s.04.01.04.01l.02-.12h.04s-.02.12-.02.12h.04s.04.01.04.01l.02-.12h.04s-.02.12-.02.12h.04s.04.01.04.01h.04s.04.01.04.01l.02-.12h.04s.04.01.04.01l-.02.12h.04s.02-.11.02-.11h.04s.04.01.04.01l-.02.12h.04s.04.01.04.01h.04s.04.01.04.01l.02-.12h.04s-.02.12-.02.12h.04s.02-.11.02-.11h.04s.04.01.04.01l-.02.12h.04s.04.01.04.01h.04s.04.01.04.01h.04s.03.02.03.02h.03s.03.02.03.02l.03-.12h.04s-.03.12-.03.12h.03s.03.02.03.02h.03s.03-.11.03-.11h.03s-.03.13-.03.13h.03s.03.02.03.02l-.03.12h.03s.03.02.03.02l-.03.12h.03s.03-.11.03-.11l.03-.11h.03s.03.02.03.02h.03s.03.02.03.02h.03s-.03.12-.03.12h.03s.03.02.03.02h.03s.03.02.03.02h.03s.03.02.03.02h.03s.04-.1.04-.1h.03s.03.02.03.02h.03s.03.02.03.02h.03s.03.02.03.02l.04-.11h.03s-.04.12-.04.12h.03s.03.02.03.02h.03s.03.02.03.02l.04-.11h.03s.03.03.03.03l-.05.11h.03s.03.03.03.03h.03s.03.03.03.03l.12.05h.03s.03.03.03.03h.03s.06.04.06.04l.12.06.22.12c.14.09.29.18.42.28l.02.02.05.04.09.08.09.08.05.04.02.02.02.02.02.02.02.02.02.02.02.02.02.02.02.02.02.02.09-.08.02.02-.09.08.02.02.02.02.02.02.02.02.02.02.02.02.02.02.02.02.02.02.02.02.02.03.09-.08.02.03-.1.07.02.02.02.03.08.1.02.03.02.03.02.03.02.03.08.11.02.03.02.03.02.03.02.03.02.03.1-.06.02.03-.1.06.02.03.02.03.02.03.02.03.02.03.1-.06.02.03.02.03-.11.06.02.03.02.03.06.11v.03s.03.03.03.03v.03s.03.03.03.03l.05.11v.03s.02.03.02.03v.03s.02.03.02.03v.03s.02.03.02.03v.03s.12-.04.12-.04v.03s.02.03.02.03l-.11.04v.03s.12-.04.12-.04v.03s-.1.04-.1.04v.03s.12-.04.12-.04v.03s-.11.04-.11.04v.03s.02.03.02.03l.12-.03v.03s-.11.03-.11.03v.03s.02.03.02.03v.03s.12-.03.12-.03v.03s.01.03.01.03l-.12.03v.03s.01.03.01.03v.03s.01.03.01.03l.12-.02v.03s-.11.02-.11.02v.03s.01.03.01.03l.12-.02v.03s.01.03.01.03v.03s-.11.02-.11.02v.03s0,.03,0,.03h.12s0,.02,0,.02h-.12s0,.04,0,.04v.03s0,.03,0,.03v.03s0,.03,0,.03v.03s0,.03,0,.03v.03s0,.06,0,.06v.12s0,.12,0,.12v.06s0,.03,0,.03v.03s0,.03,0,.03v.03s-.01.13-.01.13v.03s0,.03,0,.03v.03s0,.03,0,.03h.12s0,.05,0,.05v.03s-.12-.02-.12-.02v.03s0,.03,0,.03v.03s0,.03,0,.03v.03s.02.04.02.04h.04s-.06-.09-.06-.09l.03-.02.03-.02.03-.02.07.1.03-.02.03-.02-.07-.1.03-.02.03-.02h0s.04-.03.04-.03l.08.09h0s0,0,0,0h0s0,0,0,0h-.02s-.02.03-.02.03h0s-.1.12-.1.12l-.07.1v.02s-.03.04-.03.04l-.11-.04h0s-.11-.03-.11-.03h0s.11.03.11.03h0s0-.02,0-.02v-.02s0-.02,0-.02l.12.03v-.02s-.11-.02-.11-.02v-.02s.06,0,.06,0l-.02-.03h-.03s0-.04,0-.04l-.02-.03-.03.02-.03.02-.03.02-.03.02-.03.02-.03.02-.03.02-.12.07-.03.02-.03.02-.03.02-.03.02.06.11-.03.02-.06-.11-.03.02-.03.02-.03.02-.03.02-.03.02-.03.02-.05-.11-.03.02-.03.02.05.11-.03.02-.03.02-.03.02-.03.02-.03.02-.03.02-.03.02-.03.02-.05-.11-.03.02-.03.02.05.11-.03.02-.03.02-.03.02-.14.06-.03.02-.03.02-.03.02-.07.03-.14.06-.14.06-.07.03-.03.02h-.04s-.04.03-.04.03l-.14.06h-.04s-.04.03-.04.03h-.04s-.04-.1-.04-.1h-.04s.04.13.04.13h-.04s-.04.03-.04.03h-.04s-.04.03-.04.03h-.04s-.04.03-.04.03h-.04s-.04-.1-.04-.1h-.04s.04.13.04.13h-.04s-.04.03-.04.03h-.04s-.04.03-.04.03l.04.11h-.04s-.04-.1-.04-.1h-.04s-.04.03-.04.03h-.04s-.07.04-.07.04l-.15.05h-.04s-.15.06-.15.06h-.04s-.04.02-.04.02h-.04s-.04.02-.04.02h-.04s-.04.02-.04.02h-.04s.04.13.04.13h-.04s-.04-.1-.04-.1h-.04s.04.13.04.13h-.04s-.04.02-.04.02l-.04-.11h-.04s-.04.02-.04.02h-.04s-.15.06-.15.06h-.04s-.04.02-.04.02h-.04s-.04.02-.04.02h-.04s.04.13.04.13h-.04s-.04-.1-.04-.1h-.04s.04.13.04.13h-.04s-.03-.1-.03-.1h-.04s-.04.02-.04.02l.03.12h-.04s-.04.02-.04.02l-.03-.12h-.04s-.04.02-.04.02l.03.12h-.04s-.04.02-.04.02h-.04s-.03-.1-.03-.1h-.04s.03.13.03.13h-.04s-.04.02-.04.02h-.04s-.04.02-.04.02l-.03-.12h-.04s-.04.02-.04.02h-.04s.03.13.03.13h-.04s-.04.02-.04.02h-.04s-.04.02-.04.02l-.03-.12h-.04s.03.13.03.13h-.04s-.03-.11-.03-.11h-.04s-.04.02-.04.02h-.04s-.04.02-.04.02h-.04s-.04.02-.04.02l.03.12h-.04s-.03-.1-.03-.1h-.04s-.04.02-.04.02h-.04s.03.12.03.12h-.04s-.04.02-.04.02h-.04s-.03-.1-.03-.1h-.04s-.04.02-.04.02l.03.11h-.04s-.04.02-.04.02h-.04s-.04.02-.04.02h-.04s-.03-.11-.03-.11h-.04s-.04.02-.04.02h-.04s-.04.02-.04.02l.03.12h-.04s-.04.02-.04.02l-.03-.12h-.04s-.03-.11-.03-.11h-.04s.03.13.03.13h-.04s-.04.02-.04.02h-.04s.03.13.03.13h-.04s-.04.02-.04.02h-.04s-.04.02-.04.02l-.03-.12h-.04s-.04.02-.04.02l.03.12h-.04s-.04.02-.04.02h-.04s-.03-.11-.03-.11h-.04s-.04.02-.04.02h-.04s.03.13.03.13h-.04s-.04.02-.04.02l-.03-.12h-.04s-.04.02-.04.02h-.04s.03.13.03.13h-.04s-.04.02-.04.02l-.03-.12h-.04s-.04.02-.04.02l.03.12h-.04s-.03-.11-.03-.11h-.04s.03.13.03.13h-.04s-.08.03-.08.03h-.04s-.04.02-.04.02h-.04s-.03-.11-.03-.11h-.04s-.04.02-.04.02h-.04s-.04.02-.04.02h-.04s.03.13.03.13h-.04s-.04.02-.04.02h-.04s-.04.02-.04.02l-.03-.12h-.04s.03.13.03.13h-.04s-.04.02-.04.02l-.03-.12h-.04s-.04.02-.04.02l.03.12h-.04s-.04.02-.04.02h-.04s-.04.02-.04.02h-.04s-.04.02-.04.02h-.04s-.04.02-.04.02h-.04s-.04.02-.04.02l-.03-.12h-.04s-.04.02-.04.02h-.04s.03.13.03.13h-.04s-.04.02-.04.02l-.02-.12h-.04s-.04.02-.04.02h-.04s-.04.02-.04.02h-.04s-.04.02-.04.02h-.04s-.04.02-.04.02h-.04s.02.13.02.13h-.04s-.04.02-.04.02l-.08.02h-.04s-.04.02-.04.02h-.04s-.04.02-.04.02h-.04s-.04.02-.04.02h-.04s-.04.02-.04.02l-.02-.12h-.04s.02.13.02.13h-.04s-.04.02-.04.02h-.04s-.04.02-.04.02h-.04s-.02-.11-.02-.11h-.04s-.04.02-.04.02h-.04s-.04.02-.04.02h-.04s-.04.02-.04.02h-.04s-.04.02-.04.02h-.04s-.04.02-.04.02h-.04s-.04.02-.04.02h-.04s.02.13.02.13h-.04s-.04.02-.04.02l-.02-.12h-.04s-.04.01-.04.01l.02.12h-.04s-.02-.11-.02-.11h-.04s-.04.02-.04.02l-.02-.12h-.04s.02.13.02.13h-.04s.02.12.02.12h-.04s-.04.01-.04.01l-.02-.12-.02-.12h-.04s.02.13.02.13h-.04s-.04.01-.04.01h-.04s.02.12.02.12h-.04s-.04.01-.04.01l-.02-.12h-.04s-.04.01-.04.01h-.04s.02.12.02.12h-.04s-.04.01-.04.01h-.04s-.02-.11-.02-.11h-.04s-.04.01-.04.01l.02.12h-.04s-.02-.11-.02-.11h-.04s-.04.01-.04.01h-.04s-.04.01-.04.01h-.04s-.08.02-.08.02h-.04s-.08.02-.08.02h-.04s-.08.02-.08.02h-.04s-.04.01-.04.01h-.04s-.04.01-.04.01h-.08s-.04.02-.04.02h-.04s-.04.01-.04.01h-.04s-.04.01-.04.01l-.02-.12h-.04s.02.12.02.12h-.04s-.04.01-.04.01l-.02-.12h-.04s.02.12.02.12h-.04s-.04.01-.04.01h-.04s-.04.01-.04.01h-.08s-.04.02-.04.02h-.04s-.04.01-.04.01h-.04s-.04.02-.04.02h-.04s-.04.01-.04.01l.02.12h-.04s-.04.01-.04.01l-.02-.12h-.04s.02.13.02.13h-.04s-.02-.11-.02-.11h-.04s-.04.01-.04.01h-.08s-.04.02-.04.02h-.08s-.04.02-.04.02h-.08s-.04.02-.04.02h-.04s-.04.01-.04.01h-.04s-.08.02-.08.02h-.04s-.04.01-.04.01h-.04s.02.13.02.13h-.04s-.02-.11-.02-.11h-.04s-.02-.11-.02-.11h-.04s.02.13.02.13h-.04s-.08.02-.08.02h-.04s-.04.01-.04.01h-.04s-.04.01-.04.01h-.04s-.04.01-.04.01h-.04s-.04.01-.04.01l.02.12h-.04s-.02-.11-.02-.11h-.04s-.04.01-.04.01h-.04s-.04.01-.04.01h-.04s-.04.02-.04.02h-.04s-.02-.11-.02-.11h-.04s.02.12.02.12h-.04s-.04.01-.04.01l.02.12h-.04s-.04.01-.04.01l-.02-.12h-.04s-.04.01-.04.01h-.04s.02.13.02.13h0s-1.14.41-1.14.41l.18.56v.03s-.02.04-.02.04l-.12-.02v.04s-.01.04-.01.04v.04s-.01.04-.01.04l-.03.16v.04s-.01.04-.01.04v.04s-.01.04-.01.04v.04s-.01.04-.01.04v.04s-.01.04-.01.04v.04s-.12-.02-.12-.02v.04s.11.02.11.02v.04s-.01.04-.01.04v.04s-.01.04-.01.04v.04s.11.02.11.02v.04s-.12-.02-.12-.02v.04s-.01.04-.01.04v.04s.11.02.11.02v.04s-.12-.02-.12-.02v.04s-.01.04-.01.04l-.03.16v.04s-.01.04-.01.04v.04s-.01.04-.01.04v.04s-.01.04-.01.04l-.12-.02v.04s-.01.04-.01.04v.04s-.01.04-.01.04v.04s-.01.04-.01.04l.12.02v.04s-.01.04-.01.04l-.12-.02v.04s.11.02.11.02v.04s-.01.04-.01.04v.04s-.01.04-.01.04v.04s-.01.04-.01.04v.04s-.01.04-.01.04v.04s.11.02.11.02v.04s-.13-.02-.13-.02v.04s-.01.04-.01.04v.04s-.01.04-.01.04l.12.02v.04s-.01.04-.01.04v.04s-.01.04-.01.04l-.12-.02v.04s-.01.04-.01.04v.04s-.01.04-.01.04v.04s.11.02.11.02v.04s-.13-.02-.13-.02v.04s-.01.04-.01.04v.04s-.01.04-.01.04v.04s.11.02.11.02v.04s-.01.04-.01.04l-.12-.02v.04s-.01.04-.01.04v.04s-.01.04-.01.04v.04s-.01.04-.01.04v.08s-.02.04-.02.04v.08s-.02.04-.02.04l-.03.16v.04s-.01.04-.01.04l.12.02v.04s-.01.04-.01.04l-.12-.02v.04s-.01.04-.01.04v.04s-.01.04-.01.04l.12.02v.04s-.01.04-.01.04l-.12-.02v.04s-.01.04-.01.04l.12.02v.04s-.13-.02-.13-.02v.04s.11.02.11.02v.04s-.13-.02-.13-.02v.04s-.01.04-.01.04l.12.02v.04s-.01.04-.01.04l-.12-.02v.04s-.01.04-.01.04v.04s-.01.04-.01.04v.04s-.01.04-.01.04l.12.02v.04s-.12-.02-.12-.02v.04s-.01.04-.01.04v.04s-.13-.02-.13-.02v.04s.11.02.11.02v.04s-.01.04-.01.04v.04s-.01.04-.01.04v.04s-.04.16-.04.16v.04s-.01.04-.01.04v.04s.11.02.11.02v.04s-.01.04-.01.04l-.12-.02v.04s-.01.04-.01.04v.04s-.01.04-.01.04v.04s-.01.04-.01.04v.04s-.12-.02-.12-.02v.08s.1.02.1.02v.04s-.01.04-.01.04v.04s-.01.04-.01.04l.12.02v.04s-.13-.02-.13-.02v.04s-.01.04-.01.04v.04s-.01.04-.01.04v.04s-.01.04-.01.04v.04s-.01.04-.01.04v.04s-.01.04-.01.04l.12.02v.04s-.13-.02-.13-.02v.04s-.01.04-.01.04v.04s-.01.04-.01.04v.04s-.01.04-.01.04v.08s-.02.04-.02.04v.08s-.02.04-.02.04l-.03.16v.04s-.01.04-.01.04v.04s-.04.16-.04.16v.04s-.01.04-.01.04v.04s-.13-.02-.13-.02v.04s-.01.04-.01.04l.12.02v.04s-.01.04-.01.04v.04s-.02.08-.02.08v.04s-.02.08-.02.08v.04s-.02.08-.02.08l-.03.16v.04s-.02.08-.02.08l-.03.16v.04s-.04.16-.04.16v.04s-.01.04-.01.04v.04s-.01.04-.01.04v.04s-.01.04-.01.04v.04s-.13-.02-.13-.02v.04s-.01.04-.01.04l.12.02v.04s-.01.04-.01.04v.04s-.01.04-.01.04v.04s-.01.04-.01.04v.04s-.01.04-.01.04v.04s-.12-.02-.12-.02v.04s-.01.04-.01.04l.12.02v.04s-.01.04-.01.04v.04s-.02.08-.02.08l.12.02v.04s-.13-.02-.13-.02l-.12-.02v.04s.11.02.11.02v.04s-.01.04-.01.04v.04s-.01.04-.01.04l.12.02v.04s-.13-.02-.13-.02v.04s-.01.04-.01.04v.04s-.01.04-.01.04v.04s-.02.09-.02.09l-.12-.02v.04s.11.02.11.02v.04s.11.02.11.02v.04s-.13-.02-.13-.02v.04s-.01.05-.01.05l-.12-.02v.04s.11.01.11.01v.05s-.01.04-.01.04v.05s0,.04,0,.04v.05s0,.05,0,.05v.05s-.02.18-.02.18v.05s0,.05,0,.05v.05s0,.05,0,.05v.05s0,.05,0,.05v.18s-.01.05-.01.05v.19s0,.05,0,.05v.09s0,.05,0,.05v.09s0,.05,0,.05v.05s0,.05,0,.05v.05s-.12,0-.12,0v.05s.12,0,.12,0v.05s0,.05,0,.05v.05s0,.05,0,.05v.05s0,.05,0,.05v.05s0,.05,0,.05v.05s0,.05,0,.05v.05s0,.05,0,.05h.12s0,.04,0,.04h-.12s0,.06,0,.06v.05s0,.05,0,.05v.05s0,.05,0,.05l.02.19v.05s.01.05.01.05v.05s.01.05.01.05l-.12.02v.05s.12-.02.12-.02v.05s.01.05.01.05l.02.09v.05s.02.05.02.05v.05s.02.05.02.05v.05s.02.05.02.05v.05s.02.05.02.05v.05s.02.05.02.05v.05s.02.05.02.05l-.12.03v.05s.13-.03.13-.03v.05s.02.05.02.05v.05s.02.05.02.05v.05s-.1.03-.1.03v.05s.03.05.03.05l.12-.03v.05s.03.05.03.05v.05s.07.18.07.18l.02.05v.04s-1.06.54-1.06.54l.15.06h-.01s-.04.03-.04.03l-.04.02-.05-.11-.04.02-.04.02-.04.02.05.11-.04.02-.04.02-.04.02-.04.02-.04.02-.04.02-.04.02-.06-.11-.04.02-.04.02-.04.02-.04.02-.04.02.06.1-.04.02-.04.02-.06-.1-.04.02.06.1-.04.02-.04.02v-.05s0,0,0,0v.05s0,0,0,0v-.05s0,0,0,0v.05s0,0,0,0l-.04.02-.03.02v-.09s-.01,0-.01,0v.09s0,0,0,0h0s-.01-.09-.01-.09h0s0,0,0,0l-.02-.12h0s.02.12.02.12h0s0,0,0,0v.1s0,0,0,0v-.1s-.02,0-.02,0l.02.1h0s-.02-.1-.02-.1h0s0,0,0,0l.02.11h0s-.01.01-.01.01h0s0,0,0,0h0s0,0,0,0h0s0,0,0,0h0s0,0,0,0h0s0,0,0,0h0s-.02-.12-.02-.12h0s0,0,0,0l.02.12h0s0,0,0,0h0s0,0,0,0h0s0,0,0,0h0s0,0,0,0h0s0,0,0,0h0s0,0,0,0h0s0,0,0,0h0s0,0,0,0h0s0,0,0,0h0s0,0,0,0h0s0,.01,0,.01h0s0-.01,0-.01h0s0,0,0,0h0s0,.01,0,.01h0s0-.01,0-.01h0s0,.02,0,.02h0s0-.02,0-.02h0s0,0,0,0v.02s0,0,0,0v-.02s0,0,0,0v.02s0,0,0,0v-.02s0,0,0,0v.02s0,0,0,0v-.03s0,0,0,0v.03s0,0,0,0v-.03s0,0,0,0h0s0,0,0,0h0s0,.03,0,.03h0s0-.03,0-.03h0s0,0,0,0h0s0,0,0,0h0s0,0,0,0h0s0,0,0,0v.03s0,0,0,0v-.03s0,0,0,0v.03s0,0,0,0v-.04s0,0,0,0h0s0,0,0,0h0s0,0,0,0v.04s0,0,0,0v-.04s-.01,0-.01,0h0s.01.04.01.04h0s0,0,0,0v-.05s-.01,0-.01,0h0s0,0,0,0h0s.01.05.01.05h0s-.01-.05-.01-.05h0s.01.05.01.05h0s-.01-.05-.01-.05h0s.01.05.01.05h-.01s-.02-.05-.02-.05h0s.02.06.02.06h0s-.02-.05-.02-.05h0s.02.06.02.06h0s-.02-.05-.02-.05h0s.02.06.02.06h0s-.02-.06-.02-.06h0s0,0,0,0h0s0,0,0,0h0s.02.06.02.06h0s-.02-.06-.02-.06h0s0,0,0,0h0s.02.06.02.06h0s-.02-.06-.02-.06h0s0,0,0,0l.02.07h0s-.02-.06-.02-.06h0s0,0,0,0l.02.07h0s-.02-.06-.02-.06h0s0,0,0,0h0s.02.07.02.07h0s-.02-.07-.02-.07h0s0,0,0,0l.02.07h0s-.02-.07-.02-.07h0s-.04-.12-.04-.12h0s.04.12.04.12h0s.02.07.02.07h0s-.02-.07-.02-.07h0s.02.07.02.07h0s-.02-.07-.02-.07h0s0,0,0,0l.02.07h0s-.02-.07-.02-.07h0s0,0,0,0h0s.02.07.02.07h0s-.02-.07-.02-.07h0s0,0,0,0h0s0,0,0,0l.02.07h0s-.03-.07-.03-.07h0s.03.08.03.08l-.03.02-.03-.09h0s0,0,0,0l.03.09h0s0,0,0,0l-.03-.09h0s.03.09.03.09h0s-.03-.08-.03-.08h0s.03.09.03.09h-.01s-.04-.08-.04-.08h0s.04.09.04.09h-.01s0,.01,0,.01l-.04-.1h0s.04.1.04.1h0s-.04-.1-.04-.1h0s.04.1.04.1h0s-.04-.1-.04-.1h0s.04.1.04.1h0s-.04-.1-.04-.1h0s0,0,0,0l.04.1h0s-.04-.1-.04-.1h0s0,0,0,0l.04.1h-.01s0,.01,0,.01l-.05-.11h0s0,0,0,0l.05.11h-.01s0,0,0,0h0s0,0,0,0h0s0,0,0,0h0s0,0,0,0h0s0,0,0,0h0s0,0,0,0h0s0,0,0,0h0s0,0,0,0l-.05-.11h0s.05.11.05.11h0s0,0,0,0h0s0,0,0,0h0s0,0,0,0h0s0,0,0,0h0s0,0,0,0h0s0,0,0,0h0s0,0,0,0h0s0,0,0,0h0s-.05-.11-.05-.11h0s.04.09.04.09l-.05-.08-.03.02h0s0-.01,0-.01h0s0,.01,0,.01h0s0-.01,0-.01h0s0,0,0,0h0s0,0,0,0h0s0,.01,0,.01h0s.04.06.04.06l.02.04h0s0,0,0,0h0s0,0,0,0h0s0,0,0,0h0s0,0,0,0h0s0,.01,0,.01h0s0-.01,0-.01h0s0,0,0,0h0s0,.01,0,.01h0s0-.01,0-.01h0s0,0,0,0h0s0,0,0,0h0s-.06-.1-.06-.1h0s.06.1.06.1h0s0,0,0,0h0s0,0,0,0h0s0,0,0,0h0s0,0,0,0h0s0,0,0,0h0s0,0,0,0h0s0,0,0,0h0s0,.02,0,.02h0s0-.01,0-.01h0s0,0,0,0h0s0,.02,0,.02h0s0-.01,0-.01h0s-.06-.1-.06-.1h0s.06.1.06.1h0s0,0,0,0h0s0,0,0,0h0s0,0,0,0h0s0,.02,0,.02h0s0-.02,0-.02h0s0,0,0,0h0s0,0,0,0h0s0,0,0,0h0s0,0,0,0h0s0,0,0,0l-.06-.1h0s.06.1.06.1h0s0,.02,0,.02h0s0-.02,0-.02h0s0,0,0,0h0s0,0,0,0h0s0,0,0,0h0s0,0,0,0h0s0,0,0,0h0s0,0,0,0h0s0,0,0,0h0s.01.02.01.02h0s-.01-.02-.01-.02h0s.01.02.01.02h0s-.01-.02-.01-.02h0s0,0,0,0h0s0,0,0,0h0s0,0,0,0h0s0,0,0,0h0s0,0,0,0h0s0,0,0,0l-.06-.1h0s.06.1.06.1h0s0,0,0,0l-.06-.1h0s.06.1.06.1h0s0,0,0,0h0s0,0,0,0h0s0,0,0,0h0s0,0,0,0h0s0,0,0,0h0s0,0,0,0h0s0,0,0,0h0s0,0,0,0h0s0,0,0,0h0s0,0,0,0v.02s.01,0,.01,0v-.02s-.01,0-.01,0h0s.01.02.01.02h0s-.01-.02-.01-.02h0s0,0,0,0h0s.01.02.01.02h0s-.01-.02-.01-.02h0s0,0,0,0h0s-.06-.1-.06-.1h0s.06.1.06.1v.02s.01,0,.01,0v-.02s-.01,0-.01,0l-.06-.1h0s.06.1.06.1h0s0,0,0,0v.02s.01,0,.01,0v-.02s-.01,0-.01,0h0s.01.02.01.02h0s-.01-.02-.01-.02h0s0,0,0,0h0s0,0,0,0h0s0,0,0,0h0s0,0,0,0h0s0,0,0,0h0s0,0,0,0h0s.01.02.01.02h0s-.01-.02-.01-.02h0s.01.02.01.02h0s-.01-.02-.01-.02h0s0,0,0,0h0s0,0,0,0h0s0,0,0,0h0s0,0,0,0h0s.01.02.01.02h0s-.02-.02-.02-.02h0s0,0,0,0h0s.02.02.02.02h0s-.02-.02-.02-.02h0s0,0,0,0l.02.02h0s-.02-.02-.02-.02h0s.02.02.02.02h0s-.02-.02-.02-.02h0s0,0,0,0h0s0,0,0,0h0s.02.02.02.02h0s-.02-.02-.02-.02h0s.02.02.02.02h0s-.02-.02-.02-.02h0s.01.02.02.02h-.01s-.02.02-.02.02l-.14-.21-.05-.07h0s0,0,0,0h0s.07.1.07.1h0s0,0,0,0h0s0,0,0,0l-.07-.1h0s0,0,0,0h0s-.07-.1-.07-.1h0s.07.1.07.1h0s.07.1.07.1h0s0,0,0,0h0s-.07-.1-.07-.1h0s0,0,0,0h0s0,0,0,0h0s.07.1.07.1h0s0,0,0,0l-.07-.1h0s0,0,0,0h0s0,0,0,0h0s0,0,0,0h0s0,0,0,0h0s0,0,0,0h0s0,0,0,0h0s0,0,0,0l.07.1h0s0,0,0,0h0s0,0,0,0h0s0,0,0,0l-.07-.1h0s0,0,0,0h0s.07.1.07.1h0s-.07-.1-.07-.1h0s0,0,0,0h0s0,0,0,0l.07.1h0s0,0,0,0l-.07-.1h0s0,0,0,0h0s0,0,0,0l.07.1h0s-.07-.1-.07-.1h0s0,0,0,0h0s0,0,0,0h0s-.07-.1-.07-.1h0s.07.1.07.1h0s0,0,0,0h0s0,0,0,0h0s0,0,0,0h0s0,0,0,0h0s.07.1.07.1h0s-.07-.09-.07-.09h0s0,0,0,0h0s0,0,0,0h0s0,0,0,0h0s0,0,0,0h0s.07.1.07.1h0s-.07-.09-.07-.09h0s-.07-.09-.07-.09h0s.07.1.07.1h0s0,0,0,0l.07.09h0s0,0,0,0l-.07-.09h0s0,0,0,0l.07.09h0s-.07-.09-.07-.09h0s0,0,0,0h0s0,0,0,0h0s0,0,0,0h0s0,0,0,0h0s0,0,0,0h0s0,0,0,0h0s0,0,0,0h0s-.08-.09-.08-.09h0s.08.09.08.09h0s0,0,0,0h0s0,0,0,0h0s0,0,0,0h0s0,0,0,0h0s0,0,0,0h0s0,0,0,0h0s.08.09.08.09h0s-.08-.09-.08-.09h0s0,0,0,0h0s0,0,0,0l.08.09h0s0,0,0,0h0s-.08-.09-.08-.09h0s0,0,0,0h0s0,0,0,0h0s0,0,0,0h0s0,0,0,0h0s0,0,0,0h0s0,0,0,0h0s0,0,0,0h0s0,0,0,0l.08.09h0s-.08-.09-.08-.09h0s0,0,0,0l.08.09h0s-.08-.09-.08-.09h0s0,0,0,0h0s0,0,0,0h0s0,0,0,0h0s0,0,0,0h0s0,0,0,0h0s0,0,0,0l.08.09h0s-.08-.09-.08-.09h0s0,0,0,0h0s0,0,0,0h0s0,0,0,0h0s0,0,0,0h0s0,0,0,0l.08.09h0s0,0,0,0l-.08-.09h0s0,0,0,0h0s.08.09.08.09h0s-.08-.09-.08-.09h0s.08.09.08.09h0s0,0,0,0h0s-.08-.09-.08-.09h0s.08.09.08.09h0s0,0,0,0h0s-.08-.09-.08-.09h0s0,0,0,0l.08.09h0s0,0,0,0l-.08-.09h0s.08.09.08.09h0s0,0,0,0l-.08-.09h0s.08.09.08.09h0s0,0,0,0l-.08-.09h0s0,0,0,0l.08.09h0s0,0,0,0h0s0,0,0,0l-.08-.09h0s0,0,0,0h0s0,0,0,0l.08.09h0s0,0,0,0l-.08-.09h0s.08.09.08.09h0s0,0,0,0h0s0,0,0,0h0s-.08-.09-.08-.09h0s0,0,0,0l.08.09h0s0,0,0,0h0s0,0,0,0h0s0,0,0,0h0s0,0,0,0l-.08-.09h0s.08.09.08.09h0s0,0,0,0l-.08-.09h0s0,0,0,0l.08.09h0s0,0,0,0h0s0,0,0,0h0s0,0,0,0h0s0,0,0,0h0s0,0,0,0h0s-.08-.09-.08-.09h0s0,0,0,0h0s.08.09.08.09h0s0,0,0,0h0s0,0,0,0h0s-.08-.08-.08-.08h0s.08.09.08.09h0s0,0,0,0h0s0,0,0,0h0s0,0,0,0h0s0,0,0,0l-.08-.08h0s.08.08.08.08h0s0,0,0,0h0s0,0,0,0h0s0,0,0,0h0s0,0,0,0h0s-.09-.08-.09-.08h0s0,0,0,0l.09.08h0s0,0,0,0l-.09-.08h0s0,0,0,0h0s0,0,0,0h0s0,0,0,0h0s0,0,0,0l.09.08h0s0,0,0,0h0s0,0,0,0h0s0,0,0,0h0s0,0,0,0h0s0,0,0,0h0s0,0,0,0l-.09-.08h0s0,0,0,0h0s0,0,0,0l.09.08h0s0,0,0,0h0s0,0,0,0h0s-.09-.08-.09-.08h0s.09.08.09.08h0s0,0,0,0h0s-.09-.08-.09-.08h0s0,0,0,0h0s0,0,0,0h0s0,0,0,0h0s0,0,0,0h0s0,0,0,0h0s0,0,0,0l.09.08h0s0,0,0,0l-.09-.08h0s.09.08.09.08h0s-.09-.08-.09-.08h0s.09.08.09.08h0s0,0,0,0h0s0,0,0,0h0s-.09-.08-.09-.08h0s0,0,0,0h0s0,0,0,0h0s.09.08.09.08h0s0,0,0,0h0s-.09-.08-.09-.08h0s0,0,0,0h0s0,0,0,0l.09.08h0s0,0,0,0h0s-.09-.08-.09-.08h0s.09.08.09.08h0s0,0,0,0l-.09-.08h0s0,0,0,0h0s0,0,0,0h0s0,0,0,0h0s0,0,0,0h0s.09.08.09.08h0s0,0,0,0l-.09-.08h0s0,0,0,0h0s0,0,0,0h0s0,0,0,0h0s.09.08.09.08h0s0,0,0,0h0s0,0,0,0h0s-.09-.08-.09-.08h0s.09.08.09.08h0s0,0,0,0h0s0,0,0,0h0s-.09-.08-.09-.08h0s.09.08.09.08h0s0,0,0,0h0s0,0,0,0l-.09-.08h0s.09.08.09.08h0s0,0,0,0h0s0,0,0,0h0s0,0,0,0l-.09-.07h0s0,0,0,0l.09.07h0s-.09-.07-.09-.07h0s0,0,0,0h0s0,0,0,0h0s0,0,0,0h0s.09.07.09.07h0s-.09-.07-.09-.07h0s0,0,0,0l.09.07h0s-.09-.07-.09-.07h0s0,0,0,0h0s0,0,0,0l.1.07h0s0,0,0,0h0s0,0,0,0l-.1-.07h0s0,0,0,0h0s.1.07.1.07h0s0,0,0,0h0s-.1-.07-.1-.07h0s0,0,0,0l.1.07h0s0,0,0,0h0s0,0,0,0h0s0,0,0,0h0s0,0,0,0h0s0,0,0,0l-.1-.07h0s.1.07.1.07h0s0,0,0,0h0s0,0,0,0h0s-.1-.07-.1-.07h0s0,0,0,0h0s.1.07.1.07h0s0,0,0,0h0s0,0,0,0h0s0,0,0,0h0s0,0,0,0h0s0,0,0,0h0s0,0,0,0h0s0,0,0,0h0s-.1-.07-.1-.07h0s-.1-.07-.1-.07h0s.1.07.1.07h0s.1.07.1.07h0s0,0,0,0h0s0,0,0,0h0s0,0,0,0h0s0,0,0,0h0s0,0,0,0h0s0,0,0,0h0s0,0,0,0h0s0,0,0,0h0s0,0,0,0h0s0,0,0,0l-.1-.07h0s0,0,0,0h0s0,0,0,0l.1.07h0s0,0,0,0h0s0,0,0,0h0s0,0,0,0h0s0,0,0,0h0s0,0,0,0h0s0,0,0,0h0s0,0,0,0h0s-.1-.06-.1-.06h0s.1.06.1.06h0s0,0,0,0h0s0,0,0,0h0s0,0,0,0h0s0,0,0,0h0s0,0,0,0h0s0,0,0,0h0s0,0,0,0l-.1-.06h0s-.1-.06-.1-.06h0s.1.06.1.06h0s-.1-.06-.1-.06h0s0,0,0,0h0s.1.06.1.06h0s.1.06.1.06h0s-.1-.06-.1-.06h0s0,0,0,0l.1.06h0s-.1-.06-.1-.06h0s0,0,0,0l.1.06h0s-.1-.06-.1-.06h0s0,0,0,0l.1.06h0s0,0,0,0h0s-.1-.06-.1-.06h0s0,0,0,0h0s0,0,0,0l.1.06h0s-.1-.06-.1-.06h0s.1.06.1.06h0s0,0,0,0h0s0,0,0,0h0s0,0,0,0h0s0,0,0,0h0s-.1-.06-.1-.06h0s.11.06.11.06h0s0,0,0,0h0s0,0,0,0h0s0,0,0,0h0s0,0,0,0h0s0,0,0,0h0s0,0,0,0h0s0,0,0,0h0s0,0,0,0h0s0,0,0,0h0s-.11-.05-.11-.05h0s0,0,0,0l.11.06h0s0,0,0,0h0s0,0,0,0h0s0,0,0,0l-.11-.06h0s.11.06.11.06h0s0,0,0,0h0s-.11-.05-.11-.05h0s0,0,0,0l.11.05h0s0,0,0,0h0s0,0,0,0l-.11-.05h0s.11.06.11.06h0s0,0,0,0l-.11-.05h0s.11.05.11.05h0s0,0,0,0h0s0,0,0,0h0s0,0,0,0h0s0,0,0,0h0s0,0,0,0h0s0,0,0,0h0s0,0,0,0h0s0,0,0,0h0s0,0,0,0h0s-.02.02-.02.02l-.1-.04h0s0,0,0,0l.1.04h0s-.1-.04-.1-.04h0s0,0,0,0l.1.04-.04.03-.07-.03h0s.07.03.07.03h-.02s-.04.04-.04.04h0s-.04,0-.04,0h0s.03.01.03.01l-.02.02-.04.03-.08-.09-.04.03.08.09-.04.03-.04.03-.04.03-.08-.09-.04.03.08.09-.03.03-.04.03-.03.03-.08-.09-.04.03-.03.03-.03.03-.03.03.08.09-.03.03-.03.03-.03.03-.08-.09-.03.03-.03.03.08.09-.03.03-.03.03-.03.03-.03.03-.03.03.08.09-.03.03-.08-.09-.03.03-.03.03-.03.03-.03.03-.03.03-.03.03-.03.03-.03.03-.03.03-.03.03-.03.03-.03.03-.03.03-.03.03-.03.03-.03.03-.09-.08-.03.03-.03.04-.03.03-.03.03-.03.03.09.08-.03.03-.03.03-.03.03-.03.03-.03.03-.03.04-.03.04-.03.04-.03.04-.03.04.09.07-.03.04-.03.04-.09-.07-.03.04.09.07-.03.04-.03.04-.09-.07-.03.04-.03.04-.03.04-.03.04-.03.04-.03.04-.1-.07-.03.04.1.07-.03.04-.03.04-.03.04-.1-.07-.03.04-.03.04-.03.04-.03.04-.03.04-.03.04-.02.04-.03.04.1.07-.02.04-.1-.07-.03.04-.03.04-.03.04-.03.04.1.06-.02.04-.1-.06-.02.04.1.06-.02.04-.02.04-.05.08-.02.04-.02.04-.02.04-.1-.06-.02.04.1.06-.02.04-.02.04-.02.04-.02.04-.02.04-.02.04-.11-.06-.02.04.1.06-.02.04-.02.04-.02.04-.02.04-.02.04-.02.04-.04.08-.02.04-.02.04-.02.04-.02.04-.02.04-.11-.05-.02.04-.02.04.11.05-.02.04-.11-.05-.02.04.11.05-.02.04-.02.04-.11-.05-.02.04-.02.04-.02.04-.02.04.11.05-.02.04-.11-.05-.02.04-.02.04-.02.04-.02.04-.02.04-.02.04-.02.04-.02.04-.02.04-.02.04-.02.04-.02.04.11.04-.02.04-.02.04-.02.04-.02.04-.11-.04-.02.04-.02.04v.04s-.03.04-.03.04v.04s-.13-.04-.13-.04v.04s-.03.04-.03.04l.11.04v.04s.1.04.1.04v.04s-.03.04-.03.04v.04s-.03.04-.03.04l-.11-.03v.04s-.03.04-.03.04v.04s-.03.04-.03.04v.04s-.03.04-.03.04v.04s-.03.04-.03.04l.12.03v.04s-.02.04-.02.04l-.12-.03v.04s.1.03.1.03v.04s-.02.04-.02.04v.04s-.02.04-.02.04v.04s-.13-.03-.13-.03v.04s-.02.04-.02.04v.04s-.02.05-.02.05v.04s.11.03.11.03v.05s-.02.04-.02.04v.04s-.02.04-.02.04v.05s-.13-.02-.13-.02v.04s-.02.04-.02.04v.05s-.02.04-.02.04v.04s-.02.04-.02.04v.05s-.02.04-.02.04v.04s-.13-.02-.13-.02v.05s-.02.05-.02.05l.12.02v.05s-.02.04-.02.04v.05s-.01.05-.01.05v.05s.11.02.11.02v.05s-.13-.02-.13-.02v.09s.11.02.11.02v.05s-.13-.02-.13-.02v.05s-.01.05-.01.05h-.12s-.01.08-.01.08h.12s0,.06,0,.06v.05s0,.05,0,.05v.05s0,.05,0,.05h.12s0,.1,0,.1h-.12s0,.04,0,.04v.05s0,.05,0,.05h-.12s0,.04,0,.04v.05s-.12,0-.12,0v.05s.11,0,.11,0v.05s0,.05,0,.05h.12s0,.05,0,.05h.12s0,.1,0,.1v.05s-.12,0-.12,0v.05s0,.05,0,.05v.05s0,.05,0,.05h.12s0,.05,0,.05v.05s0,.05,0,.05h-.12s0,.04,0,.04v.05s0,.05,0,.05h-.12s0,.05,0,.05h.12s0,.05,0,.05h.12s0,.04,0,.04h-.12s0,.05,0,.05h.12s0,.04,0,.04v.05s0,.05,0,.05v.05s0,.05,0,.05v.05s-.12,0-.12,0v.05s.12,0,.12,0v.05s0,.05,0,.05v.05s0,.05,0,.05v.05s0,.05,0,.05v.05s0,.05,0,.05h-.12s0,.06,0,.06v.05s.12-.01.12-.01v.05s0,.05,0,.05v.05s0,.05,0,.05h-.12s0,.06,0,.06v.05s.03.18.03.18v.05s.01.05.01.05v.05s.01.05.01.05l.12-.02v.05s.01.05.01.05l-.12.02v.05s.01.05.01.05v.05s.13-.02.13-.02v.05s-.11.02-.11.02v.05s.02.05.02.05v.05s.13-.02.13-.02v.05s-.11.02-.11.02v.05s.02.05.02.05v.05s.02.05.02.05l.12-.02v.05s.02.04.02.04v.05s.02.04.02.04l-.12.03v.05s.02.04.02.04v.04s.02.05.02.05v.04s.13-.03.13-.03v.04s.02.04.02.04l-.12.03v.05s.02.04.02.04v.05s.02.04.02.04v.04s.02.05.02.05l.12-.03v.04s.02.04.02.04v.04s.03.04.03.04l-.12.03v.04s.03.04.03.04l.12-.03v.04s.03.04.03.04l-.11.04v.04s.13-.04.13-.04v.04s.03.04.03.04l.02.04v.04s-.1.04-.1.04v.04s.03.04.03.04l.02.04.02.04.02.04-.11.04.02.04.11-.04.02.04-.11.04.02.04.11-.04.02.04.02.04.02.04.02.04.11-.04.02.04-.11.04.02.04.02.04.02.04.11-.05.02.04.02.04.02.04.02.04-.11.05.02.04.11-.05.02.04.02.04-.11.05.02.04.02.04.11-.05.02.04.02.04-.11.05.02.04.02.04.02.04.02.04.02.04.11-.05.02.04-.11.05.02.04.02.04.11-.05.02.04-.11.05.02.04.11-.05.02.04.02.04-.11.05.02.04.02.04.02.04.02.04.11-.06.02.04.02.04.02.04.02.04.02.04.02.04.02.04.02.04.02.04.02.04-.1.06.02.04.1-.06.02.04.02.04.02.04.02.04h0s0,0,0,0h0s0,0,0,0h0s0,0,0,0h0s0,0,0,0h0s0,0,0,0h0s0,0,0,0h.01s.01.02.01.02l.02.04.02.03h-.07s0,0,0,0h.07s0,0,0,0h-.07s0,0,0,0h.07s0,0,0,0l-.1.06.02.03-.1.02h0s.1-.01.1-.01h0s.02.04.02.04h0s-.01.02-.01.02h0s0,0,0,0h.01s.01.02.01.02l.02.04.03.04.03.04.05-.03.06-.02h0s-.07.02-.07.02h0s.07-.02.07-.02h0s-.07.03-.07.03h0s.07-.02.07-.02h0s-.08.02-.08.02h0s0,0,0,0h0s0,0,0,0h0s.08-.02.08-.02h0s-.08.03-.08.03h0s0,0,0,0h0s.07-.02.07-.02h0s-.06.03-.06.03h0s0,0,0,0l.06-.02h0s-.05.02-.05.02h0s0,0,0,0h.04s-.02,0-.02,0h-.02s0,0,0,0h0s0,0,0,0h.02s0,0,0,0h-.01s0,0,0,0h0s0,0,0,0h-.02s-.1.05-.1.05h0s.1-.03.1-.03h0s.03.04.03.04l.03.04v.02s.01,0,.01,0h0s0,0,0,0h0s0,0,0,0h0s0,0,0,0h0s0,0,0,0h0s0,0,0,0h0s0,0,0,0h0s0,0,0,0h0s0,0,0,0h0s0,0,0,0h0s0,0,0,0h0s.01.02.01.02h-.01s0,0,0,0h0s.01,0,.01,0h0s0,.02,0,.02h-.02s0,0,0,0h.02s0,0,0,0h-.02s0,0,0,0h.02s.01,0,.01,0v.02s-.01.01-.01.01h0s.03-.01.03-.01h0s-.03.02-.03.02h0s0,0,0,0h0s0,0,0,0h0s0,0,0,0h.02s0-.02,0-.02h0s0,0,0,0l-.43.27.1-.06h0s0,0,0,0l.1-.06-.1.06h0s0,0,0,0l.1-.06h0s0,0,0,0h0s-.1.06-.1.06h0s0,0,0,0l.1-.06h0s-.1.06-.1.06h0s0,0,0,0l.1-.06h0s0,0,0,0h0s-.1.06-.1.06l.11-.06h0s0,0,0,0h0s0,0,0,0h0s0,0,0,0h0s0,0,0,0h0s-.03.02-.03.02l.05-.03h0s-.1.06-.1.06h0s.1-.06.1-.06h0s0,0,0,0l-.1.06.11-.06h0s0,0,0,0h0s0,0,0,0h0s0,0,0,0l-.1.06h0s.1-.06.1-.06h0s0,0,0,0h0s0,0,0,0h0s0,0,0,0h0s-.1.06-.1.06l.1-.06h0s0,0,0,0h0s-.1.06-.1.06l.1-.06h0s0,0,0,0h0s0,0,0,0h0s.08.12.08.12l.1-.07h0s0,0,0,0l-.1.07h0s0,0,0,0l.1-.07h0s0,0,0,0l-.1.07h0s0,0,0,0h0s0,0,0,0h0s.1-.07.1-.07h0s-.1.07-.1.07h0s0,0,0,0h0s0,0,0,0l.1-.07h0s-.1.07-.1.07h0s0,0,0,0h0s0,0,0,0h0s.1-.07.1-.07h0s0,0,0,0h0s0,0,0,0l-.1.07h0s0,0,0,0l.1-.07h0s-.1.07-.1.07h0s0,0,0,0h0s.1-.07.1-.07h0s0,0,0,0h0s0,0,0,0l-.1.07h0s0,0,0,0h0s-.1.07-.1.07h0s.1-.07.1-.07h0s.1-.07.1-.07h0s0,0,0,0h0s-.1.07-.1.07h0s0,0,0,0h0s0,0,0,0h0s.1-.07.1-.07h0s0,0,0,0l-.1.07h0s0,0,0,0h0s0,0,0,0h0s0,0,0,0h0s0,0,0,0h0s0,0,0,0h0s0,0,0,0h0s0,0,0,0l.09-.07h0s0,0,0,0h0s0,0,0,0h0s0,0,0,0l-.1.07h0s0,0,0,0h0s.1-.07.1-.07h0s-.1.07-.1.07h0s0,0,0,0h0s0,0,0,0l.1-.07h0s0,0,0,0l-.09.07h0s0,0,0,0h0s0,0,0,0l.09-.07h0s-.09.07-.09.07h0s0,0,0,0h0s0,0,0,0h0s-.1.08-.1.08h0s.1-.07.1-.07h0s0,0,0,0h0s0,0,0,0h0s0,0,0,0h0s0,0,0,0h0s.09-.07.09-.07h0s-.09.08-.09.08h0s0,0,0,0h0s0,0,0,0h0s0,0,0,0h0s0,0,0,0h0s.09-.07.09-.07h0s-.09.08-.09.08h0s-.09.08-.09.08h0s.09-.07.09-.07h0s0,0,0,0l.09-.08h0s0,0,0,0l-.09.08h0s0,0,0,0l.09-.08h0s-.09.08-.09.08h0s0,0,0,0h0s0,0,0,0h0s0,0,0,0h0s0,0,0,0h0s0,0,0,0h0s0,0,0,0h0s0,0,0,0h0s-.09.08-.09.08h0s.09-.08.09-.08h0s0,0,0,0h0s0,0,0,0h0s0,0,0,0h0s0,0,0,0h0s0,0,0,0h0s0,0,0,0h0s.09-.08.09-.08h0s-.09.08-.09.08h0s0,0,0,0h0s0,0,0,0l.09-.08h0s0,0,0,0h0s-.09.08-.09.08h0s0,0,0,0h0s0,0,0,0h0s0,0,0,0h0s0,0,0,0h0s0,0,0,0h0s0,0,0,0h0s0,0,0,0h0s0,0,0,0l.09-.08h0s-.09.08-.09.08h0s0,0,0,0l.09-.08h0s-.09.08-.09.08h0s0,0,0,0h0s0,0,0,0h0s0,0,0,0h0s0,0,0,0h0s0,0,0,0h0s0,0,0,0l.09-.08h0s-.09.08-.09.08h0s0,0,0,0h0s0,0,0,0h0s0,0,0,0h0s0,0,0,0h0s0,0,0,0l.09-.08h0s0,0,0,0l-.09.08h0s0,0,0,0h0s.09-.08.09-.08h0s-.09.08-.09.08h0s.09-.08.09-.08h0s0,0,0,0h0s-.09.08-.09.08h0s.09-.08.09-.08h0s0,0,0,0h0s-.09.08-.09.08h0s0,0,0,0l.09-.08h0s0,0,0,0l-.09.08h0s.09-.08.09-.08h0s0,0,0,0l-.09.08h0s.09-.08.09-.08h0s0,0,0,0l-.09.08h0s0,0,0,0l.09-.08h0s0,0,0,0h0s0,0,0,0l-.09.08h0s0,0,0,0h0s0,0,0,0l.09-.08h0s0,0,0,0l-.09.08h0s.09-.08.09-.08h0s0,0,0,0h0s0,0,0,0h0s-.09.08-.09.08h0s0,0,0,0l.09-.08h0s0,0,0,0h0s0,0,0,0h0s0,0,0,0h0s0,0,0,0l-.08.08h0s.08-.08.08-.08h0s0,0,0,0l-.08.08h0s0,0,0,0l.08-.08h0s0,0,0,0h0s0,0,0,0h0s0,0,0,0h0s0,0,0,0h0s0,0,0,0h0s-.08.09-.08.09h0s0,0,0,0h0s.08-.08.08-.08h0s0,0,0,0h0s0,0,0,0h0s-.08.09-.08.09h0s.08-.08.08-.08h0s0,0,0,0h0s0,0,0,0h0s0,0,0,0h0s0,0,0,0l-.08.09h0s.08-.09.08-.09h0s0,0,0,0h0s0,0,0,0h0s0,0,0,0h0s0,0,0,0h0s-.08.09-.08.09h0s0,0,0,0l.08-.09h0s0,0,0,0l-.08.09h0s0,0,0,0h0s0,0,0,0h0s0,0,0,0h0s0,0,0,0l.08-.09h0s0,0,0,0h0s0,0,0,0h0s0,0,0,0h0s0,0,0,0h0s0,0,0,0h0s0,0,0,0l-.08.09h0s0,0,0,0h0s0,0,0,0l.08-.09h0s0,0,0,0h0s0,0,0,0h0s-.08.09-.08.09h0s.08-.09.08-.09h0s0,0,0,0h0s-.08.09-.08.09h0s0,0,0,0h0s0,0,0,0h0s0,0,0,0h0s0,0,0,0h0s0,0,0,0h0s0,0,0,0l.08-.09h0s0,0,0,0l-.08.09h0s.08-.09.08-.09h0s-.08.09-.08.09h0s.08-.09.08-.09h0s0,0,0,0h0s0,0,0,0h0s-.08.09-.08.09h0s0,0,0,0h0s0,0,0,0h0s.08-.09.08-.09h0s0,0,0,0h0s-.08.09-.08.09h0s0,0,0,0h0s0,0,0,0l.08-.09h0s0,0,0,0h0s-.08.09-.08.09h0s.08-.09.08-.09h0s0,0,0,0l-.08.09h0s0,0,0,0h0s0,0,0,0h0s0,0,0,0h0s0,0,0,0h0s.08-.09.08-.09h0s0,0,0,0l-.08.09h0s0,0,0,0h0s0,0,0,0h0s0,0,0,0h0s.08-.09.08-.09h0s0,0,0,0h0s0,0,0,0h0s-.08.1-.08.1h0s.08-.09.08-.09h0s0,0,0,0h0s0,0,0,0h0s-.07.09-.07.09h0s.07-.09.07-.09h0s0,0,0,0h0s0,0,0,0l-.07.09h0s.07-.09.07-.09h0s0,0,0,0h0s0,0,0,0h0s0,0,0,0l-.07.09h0s0,0,0,0l.07-.09h0s-.07.1-.07.1h0s0,0,0,0h0s0,0,0,0h0s0,0,0,0h0s.07-.09.07-.09h0s-.07.1-.07.1h0s0,0,0,0l.07-.1h0s-.07.1-.07.1h0s0,0,0,0h0s0,0,0,0l.07-.1h0s0,0,0,0h0s0,0,0,0l-.07.1h0s0,0,0,0h0s.07-.1.07-.1h0s0,0,0,0h0s-.07.1-.07.1h0s0,0,0,0l.07-.1h0s0,0,0,0h0s0,0,0,0h0s0,0,0,0h0s0,0,0,0h0s0,0,0,0l-.07.1h0s.07-.1.07-.1h0s0,0,0,0h0s0,0,0,0h0s-.07.1-.07.1h0s0,0,0,0h0s.07-.1.07-.1h0s0,0,0,0h0s0,0,0,0h0s0,0,0,0h0s0,0,0,0h0s0,0,0,0h0s0,0,0,0h0s0,0,0,0h0s-.07.1-.07.1h0s-.07.1-.07.1h0s.07-.1.07-.1h0s.07-.1.07-.1h0s0,0,0,0h0s0,0,0,0h0s.01.03.01.03l-.06.09h0s0,0,0,0h0s0,0,0,0l.06-.09h.01s.01.03.01.03l-.05.08h0s.05-.08.05-.08l.02.02h0s-.04.07-.04.07h0s-.06.11-.06.11h0s.06-.1.06-.1h0s-.06.11-.06.11h0s0,0,0,0h0s.06-.1.06-.1h0s.04-.07.04-.07h0s-.04.07-.04.07h0s0,0,0,0l.04-.07h0s-.04.07-.04.07h0s0,0,0,0l.04-.06h0s-.04.07-.04.07h0s0,0,0,0l.03-.06h0s-.03.07-.03.07h0s0,0,0,0h0s0,0,0,0l.03-.06h0s-.03.06-.03.06h0s.03-.06.03-.06h0s0,.01,0,.01l-.03.05h0s.03-.05.03-.05l.02.03h0s-.02.04-.02.04h0s0,0,0,0l.02-.03h0s-.02.04-.02.04h0s.01-.03.01-.03h0s-.01.03-.01.03h0s0,0,0,0v-.03s.02,0,.02,0v.02s0,0,0,0v-.02s.01,0,.01,0v.02s0,0,0,0v-.02s.1-.07.1-.07h0s0,0,0,0h0s0,0,0,0h0s0,0,0,0l-.05.11h0s0,0,0,0l.05-.11h0s-.05.11-.05.11h0s0,0,0,0l.05-.11h0s0,0,0,0l.02.02h.01s-.03.1-.03.1h0s.03-.09.03-.09l.02.02.03.03-.09.08.03.04.03.04.03.04.09-.08.03.03-.09.08.03.03.03.04-.09.08.03.03.03.04.03.03.03.04.03.03.03.03.09-.08.03.03.03.03.03.03.03.03-.09.08.03.03.09-.08.03.03.03.03.03.03.03.03.03.03.03.03.03.03.03.03.03.03.08-.08.03.03-.08.08.03.03.03.03.03.03.03.03.03.03.03.03.13.13.03.03.03.03.03.03.03.03.03.03.14.12.03.03.07.06.14.12.07.06.04.03.04.03.04.03.04.03.04.03.04.03.07-.1.04.03.04.03-.07.1.04.03.04.03.04.03.04.03.04.03.04.03.04.03.04.03.04.03.07-.1.04.03-.07.1.04.03.04.03.04.03.04.03.04.03.07-.1.04.02.04.02-.06.1.04.03.04.02.04.02.04.02.04.02.04.02.04.02.04.02.06-.1.04.02.04.02-.06.1.04.02.06-.1.04.02.04.02-.06.1.04.02.06-.1.04.02.04.02.04.02.04.02-.06.11.04.02.04.02.06-.11.04.02.04.02-.06.11.04.02.06-.11.04.02.04.02.04.02.04.02-.05.11.04.02.05-.11.04.02.04.02-.05.11.04.02.04.02.04.02.05-.11.04.02.04.02.04.02-.05.11.04.02.05-.11.04.02.04.02.04.02-.05.11.04.02.04.02.04.02-.05.11.04.02.04.02.05-.11.04.02.05-.11.04.02-.05.11.04.02.04.02.04.02.04.02.04-.11.04.02.04.02.04.02-.04.11.04.02.04.02.04.02.04.02.04-.11.04.02-.04.11h.04s.04-.1.04-.1h.04s.04.03.04.03l-.04.11h.04s.04-.1.04-.1h.04s.04.03.04.03l-.04.12h.04s.04.03.04.03h.04s.04.03.04.03l.09.03.18.05.18.05.09.02h.04s.04.02.04.02h.04s.05.02.05.02h.04s.05.02.05.02h.04s.05.02.05.02l.03-.12h.04s.05.02.05.02h.04s.04.02.04.02l-.02.12h.05s.04.02.04.02l-.02.12h.05s.05.02.05.02l.02-.12h.05s.02-.11.02-.11h.04s.04.02.04.02l-.02.12h.05s.09.02.09.02h.04s.02-.11.02-.11h.04s.04.01.04.01h.04s-.02.13-.02.13l-.02.12h.04s.02-.11.02-.11h.04s.04.01.04.01h.04s.02-.11.02-.11h.04s-.02.13-.02.13h.04s.04.01.04.01h.04s.04.01.04.01l-.02.12h.08s.04.02.04.02l.02-.12h.04s.04.01.04.01h.04s.02-.11.02-.11h.04s-.02.13-.02.13h.08s.04.02.04.02h.08s.04.02.04.02h.08s.04.02.04.02h.04s.04.01.04.01l-.02.12h.04s.02-.11.02-.11h.04s.04.01.04.01h.04s-.02.13-.02.13h.04s.04.01.04.01l.02-.12h.04s.04.01.04.01h.04s.04.01.04.01h.08s.04.02.04.02h.08s.04.02.04.02h.04s.04.01.04.01h.04s.04.01.04.01h.04s.04.01.04.01h.04s.04.01.04.01h.04s.04.01.04.01h.04s.04.01.04.01l-.02.12h.04s.02-.11.02-.11h.04s.04.01.04.01h.04s.04.01.04.01h.04s.04.01.04.01l-.02.12h.04s.04.01.04.01h.04s.02-.11.02-.11h.04s.04.01.04.01h.04s.04.01.04.01h.04s.04.01.04.01l-.02.12h.04s.02-.11.02-.11h.04s.04.01.04.01l-.02.12h.04s.02-.11.02-.11h.04s.04.01.04.01h.04s-.02.12-.02.12h.04s.02-.11.02-.11h.04s.04.01.04.01h.04s.04.01.04.01h.04s-.02.12-.02.12h.04s.02-.11.02-.11h.04s.05.02.05.02h.04s.05.02.05.02h.04s.05.01.05.01h.05s.05.01.05.01h.05s-.02.12-.02.12h.05s.05.01.05.01h.05s.05.01.05.01v-.12s.06,0,.06,0h.05s-.01.12-.01.12h.05s.05.01.05.01h.05s.01-.11.01-.11h.05s.05,0,.05,0h.05s-.01.12-.01.12h.05s.01-.12.01-.12h.05s.05,0,.05,0h.05s.05,0,.05,0v.12s.04,0,.04,0v-.12s.05,0,.05,0h.05s.05,0,.05,0h.05s.05,0,.05,0v.12s.04,0,.04,0h.05s0-.12,0-.12h.05s.05,0,.05,0h.05s.05,0,.05,0h.05s.05,0,.05,0h.05s.05,0,.05,0h.05s0,.12,0,.12h.05s0-.12,0-.12h.05s.05,0,.05,0h.05s.05,0,.05,0v.12s.05,0,.05,0h.05s0-.12,0-.12h.05s.05,0,.05,0h.05s.05,0,.05,0h.05s.05,0,.05,0h.05s.05,0,.05,0v.12s.05,0,.05,0h.05s0-.12,0-.12h.05s.05,0,.05,0h.05s0,.12,0,.12h.05s0-.12,0-.12h.05s0,.12,0,.12h.05s.05,0,.05,0v-.12s.04,0,.04,0h.05s.05,0,.05,0h.05s-.01-.12-.01-.12h.09s.01.11.01.11v.12s.06,0,.06,0v-.12s.03,0,.03,0h.05s.05-.01.05-.01h.05s.05-.01.05-.01h.05s.05-.01.05-.01h.05s.09-.02.09-.02h.09s.05-.02.05-.02h.05s.05-.02.05-.02h.05s.05-.02.05-.02h.05s.09-.03.09-.03l.09-.02h.05s.04-.02.04-.02h.05s.04-.02.04-.02l.03.12h.04s.05-.02.05-.02l-.03-.12h.04s.05-.02.05-.02l-.03-.12h.04s.03.11.03.11l.09-.02h.04s.09-.03.09-.03l.09-.02h.04s.04-.03.04-.03h.04s.04-.03.04-.03h.04s.03.1.03.1h.05s-.03-.13-.03-.13h.04s.04-.03.04-.03h.04s.04.1.04.1h.05s-.04-.13-.04-.13h.04s.04-.03.04-.03h.04s.04-.03.04-.03h.04s.04-.03.04-.03l.04.11.04-.02-.04-.11h.04s.04.1.04.1l.04-.02-.04-.11.04-.02.04-.02.04-.02.04-.02.04-.02.04-.02.04-.02.04-.02.04-.02.09-.03.09-.03.04-.02.04-.02.04-.02.04-.02.04-.02.04-.02.05.11.04-.02.04-.02-.05-.11.04-.02.04-.02.04-.02.04-.02.04-.02.04-.02.04-.02.04-.02.04-.02.04-.02.05.11.04-.02-.05-.11.04-.02.04-.02.04-.02.04-.02.04-.02.05.11.04-.02.04-.02.04-.02.04-.02.04-.02.04-.02.04-.02.04-.02.04-.02-.06-.11.04-.02.04-.02.04-.02.04-.02.06.1.04-.02-.06-.1.04-.02h.02s.01.08.01.08h0s-.02-.1-.02-.1h.02s.02-.02.02-.02l.02.11h0s0,0,0,0l-.02-.12h0s.02.12.02.12h0s0,0,0,0l-.02-.12h0s0,0,0,0h0s0,0,0,0h0s0,0,0,0h0s0,0,0,0h0s0,0,0,0h0s0,0,0,0h0s0,0,0,0h0s0,0,0,0h0s0,0,0,0h0s0,0,0,0h0s0,0,0,0h0s0,0,0,0h0s0,0,0,0h0s0,0,0,0l.03.12h0s-.03-.12-.03-.12h0s0,0,0,0l.03.11h0s-.02-.11-.02-.11v.02s.03.09.03.09h0s0,0,0,0l-.02-.08h0s.02.08.02.08h0s-.01-.06-.01-.06l.02.03v.03s0,0,0,0h0s0-.03,0-.03l.03-.02v.04s.01,0,.01,0v-.04s0,0,0,0h0s-.02-.08-.02-.08h0s0,0,0,0h0s0,0,0,0h0s0,0,0,0h0s0,0,0,0h0s.03.11.03.11h0s-.03-.12-.03-.12h0s.03.11.03.11h0s0,0,0,0h0s0,0,0,0l-.03-.12h0s0,0,0,0h0s.03.11.03.11h0s0,0,0,0l-.03-.12h0s.03.11.03.11h0s0,0,0,0l-.03-.11h0s.04.11.04.11h0s0,0,0,0l-.04-.11h0s.04.11.04.11h0s.04.12.04.12h0s0,0,0,0h0s-.04-.12-.04-.12h0s.04.12.04.12h0s-.04-.12-.04-.12h0s-.04-.11-.04-.11h0s0,0,0,0h0s0,0,0,0h0s0,0,0,0h0s0,0,0,0h0s0,0,0,0h0s0,0,0,0h0s0,0,0,0l.04.11h0s-.04-.11-.04-.11h0s0,0,0,0h0s0,0,0,0h0s0,0,0,0h0s0,0,0,0h0s0,0,0,0h0s0,0,0,0h0s0,0,0,0h0s.04.11.04.11h0s0,0,0,0h0s0,0,0,0l-.04-.11h0s0,0,0,0h0s0,0,0,0h0s0,0,0,0h0s0,0,0,0h0s0,0,0,0h0s0,0,0,0h0s0,0,0,0h0s0,0,0,0h0s0,0,0,0h0s0,0,0,0l.04.11h0s.04.11.04.11h0s-.04-.11-.04-.11h0s-.04-.11-.04-.11h0s0,0,0,0h0s0,0,0,0h0s0,0,0,0h0s0,0,0,0h0s0,0,0,0h0s0,0,0,0h0s0,0,0,0h0s.05.11.05.11h0s0,0,0,0h0s-.05-.11-.05-.11h0s0,0,0,0h0s0,0,0,0h0s.05.11.05.11h0s-.05-.11-.05-.11h0s0,0,0,0h0s0,0,0,0h0s0,0,0,0h0s0,0,0,0h0s0,0,0,0l.05.11h0s0,0,0,0l-.05-.11h0s0,0,0,0h0s.05.11.05.11h0s0,0,0,0h0s-.05-.11-.05-.11h0s0,0,0,0h0s0,0,0,0l.05.11h0s0,0,0,0h0s0,0,0,0l-.05-.11h0s.05.11.05.11h0s0,0,0,0l-.05-.11h0s.05.11.05.11h0s0,0,0,0h0s0,0,0,0h0s0,0,0,0h0s-.05-.11-.05-.11h0s.05.11.05.11h0s0,0,0,0l-.05-.11h0s0,0,0,0h0s0,0,0,0h0s0,0,0,0l.05.11h0s-.05-.11-.05-.11h0s0,0,0,0h0s0,0,0,0l.05.11h0s-.05-.11-.05-.11h0s0,0,0,0h0s0,0,0,0h0s.05.11.05.11h0s-.05-.11-.05-.11h0s0,0,0,0h0s0,0,0,0h0s.05.11.05.11h0s0,0,0,0h0s0,0,0,0h0s0,0,0,0h0s-.05-.11-.05-.11h0s0,0,0,0l.05.11h0s0,0,0,0h0s0,0,0,0h0s0,0,0,0h0s0,0,0,0h0s-.05-.11-.05-.11h0s0,0,0,0l.05.11h0s-.05-.11-.05-.11h0s0,0,0,0h0s.06.11.06.11h0s0,0,0,0h0s0,0,0,0l-.06-.11h0s0,0,0,0h0s.06.11.06.11h0s0,0,0,0h0s0,0,0,0h0s-.06-.11-.06-.11h0s0,0,0,0h0s0,0,0,0h0s.06.11.06.11h0s-.06-.11-.06-.11h0s.06.11.06.11h0s-.06-.11-.06-.11h0s0,0,0,0l.06.11h0s0,0,0,0h0s0,0,0,0h0s0,0,0,0h0s0,0,0,0h0s0,0,0,0h0s0,0,0,0l-.06-.1h0s0,0,0,0h0s.06.1.06.1h0s-.06-.11-.06-.11h0s0,0,0,0h0s0,0,0,0h0s.06.1.06.1h0s0,0,0,0h0s0,0,0,0l-.06-.11h0s0,0,0,0h0s0,0,0,0h0s0,0,0,0h0s0,0,0,0h0s0,0,0,0h0s0,0,0,0l.06.1h0s0,0,0,0h0s0,0,0,0h0s0,0,0,0h0s0,0,0,0l-.06-.1h0s0,0,0,0l.06.1h0s0,0,0,0l-.06-.1h0s0,0,0,0h0s0,0,0,0h0s0,0,0,0h0s0,0,0,0h0s.06.1.06.1h0s-.06-.1-.06-.1h0s0,0,0,0h0s0,0,0,0h0s0,0,0,0h0s0,0,0,0l.06.1h0s-.06-.1-.06-.1l.1-.06h0s0,0,0,0h0s.03.05.03.05l.03.05h0s0,0,0,0h0s-.07-.1-.07-.1h0s.07.1.07.1h0s0,0,0,0h0s-.07-.1-.07-.1h0s.07.1.07.1h0s-.07-.1-.07-.1h0s.07.1.07.1h0s0,0,0,0h0s0,0,0,0h0s0,0,0,0h0s0,0,0,0h0s0,0,0,0h0s0,0,0,0h0s0,0,0,0h0s.04.06.04.06v.02s-.19-.3-.19-.3h0s.04.05.04.05h0s-.04-.05-.04-.05h.02s.04.04.04.04h0s-.04-.05-.04-.05h0s.04.05.04.05h0s-.04-.05-.04-.05h0s0-.01,0-.01l.03.05h0s-.04-.05-.04-.05h0s.03.04.03.04h0s-.03-.04-.03-.04h.01s.03.04.03.04h0s-.03-.04-.03-.04h0s.07.09.07.09l.04-.03.04-.03.04-.03.08-.05.04-.03.04-.03.04-.03-.07-.1.04-.03.04-.03h0s.07.1.07.1l.04-.03.07.1.04-.03.04-.03-.07-.1.04-.03.04-.03-.07-.1.04-.03.07.1.04-.03.04-.03-.07-.09.04-.03.04-.03.07.09.04-.03.04-.03.04-.03.04-.03.04-.03.04-.03-.08-.09.04-.03.04-.03.04-.03.08.09.03-.03-.08-.09.04-.03.03-.03.08.09.03-.03.04-.03.03-.03.08.09.04-.03.08.09.03-.03-.08-.09.03-.03.03-.03.03-.03.03-.03.03-.03-.08-.09.03-.03.03-.03.07-.06.03-.03.03-.03.03-.03.03-.03.07-.07.03-.03.03-.03.03-.03.03-.03.03-.03.03-.03.09.08.03-.04-.09-.08.03-.03.06-.07.03-.04.06-.07.03-.03.06-.07.03-.04.03-.04.03-.04.03-.04.03-.04.03-.04.03-.04.03-.04.09.07.03-.04-.09-.07.03-.04.03-.04.03-.04.03-.04.03-.04.03-.04.06-.08.03-.04.03-.04.03-.04.03-.04.03-.04.03-.04.03-.04.03-.04.1.07.03-.04-.1-.07.03-.04.03-.04.03-.04.03-.04.03-.04.03-.04.03-.04-.1-.07.03-.04.1.07.02-.04.05-.08.03-.04.02-.04.02-.04.02-.04-.1-.06.02-.04.1.06.02-.04-.1-.06.02-.04.1.06.02-.04.02-.04.02-.04.02-.04.02-.04.02-.04.02-.04.02-.04.1.06.02-.04.02-.04.02-.04-.11-.06.02-.04.02-.04.02-.04.02-.04-.11-.05.02-.04.11.05.02-.04.02-.04-.11-.05.02-.04.02-.04.02-.04.11.05.02-.04.02-.04.02-.04.02-.04.02-.04-.11-.05.02-.04.11.05.02-.04.02-.04.04-.09.07-.17.11.05.02-.04.02-.04-.11-.04.02-.04.02-.04.02-.04-.11-.04.03-.09.11.04.02-.04.02-.04.02-.04.02-.04.11.04.02-.04-.11-.04.02-.04.02-.04-.11-.04v-.04s.13.04.13.04l.02-.04v-.04s-.1-.04-.1-.04v-.04s.13.04.13.04v-.04s.03-.04.03-.04v-.04s.03-.04.03-.04l.11.04v-.05s.03-.04.03-.04v-.05s-.1-.03-.1-.03v-.04s.03-.05.03-.05v-.04s.02-.04.02-.04l.11.03v-.05s.03-.04.03-.04l-.11-.03v-.05s.02-.04.02-.04l.11.03v-.05s.02-.05.02-.05l-.12-.03v-.04s.02-.05.02-.05v-.04s.02-.05.02-.05l.04-.18v-.05s.02-.04.02-.04v-.05s.02-.05.02-.05l-.12-.03v-.05s.13.02.13.02v-.05s.02-.05.02-.05v-.05s.02-.05.02-.05v-.04s.02-.04.02-.04v-.05s.02-.04.02-.04l.03-.18v-.05s.03-.18.03-.18v-.05s.03-.18.03-.18v-.05s.03-.18.03-.18v-.05s.02-.19.02-.19v-.05s.02-.19.02-.19v-.05s.01-.19.01-.19v-.05s0-.05,0-.05v-.05s0-.05,0-.05v-.05s0-.19,0-.19v-.05s0-.05,0-.05v-.05s0-.05,0-.05v-.05s.12,0,.12,0v-.05s0-.05,0-.05h-.12s0-.05,0-.05v-.05s0-.05,0-.05v-.05s0-.05,0-.05v-.05s0-.05,0-.05v-.05s0-.05,0-.05v-.05s0-.05,0-.05v-.05s0-.05,0-.05h.12s0-.05,0-.05h-.12s0-.04,0-.04v-.05s0-.05,0-.05v-.05s.12,0,.12,0v-.05s-.12,0-.12,0v-.05s0-.05,0-.05v-.05s0-.05,0-.05v-.05s.11-.01.11-.01v-.05s-.12.01-.12.01v-.05s0-.05,0-.05v-.05s-.01-.05-.01-.05v-.05s-.01-.05-.01-.05l.12-.02v-.05s-.01-.05-.01-.05v-.05s-.01-.05-.01-.05v-.05s-.12.02-.12.02v-.05s.11-.02.11-.02v-.05s-.13.02-.13.02v-.05s-.01-.05-.01-.05l.12-.02v-.05s-.02-.05-.02-.05v-.05s-.02-.05-.02-.05v-.05s-.02-.05-.02-.05v-.05s-.02-.05-.02-.05l-.12.02v-.05s-.02-.05-.02-.05v-.05s-.02-.05-.02-.05l.11-.03v-.05s-.02-.05-.02-.05v-.05s-.02-.05-.02-.05v-.05s-.02-.05-.02-.05l-.11.03v-.04s-.02-.05-.02-.05v-.05s-.03-.05-.03-.05l.12-.03v-.05s-.02-.05-.02-.05v-.05s-.13.03-.13.03v-.04s.1-.03.1-.03v-.05s-.03-.05-.03-.05v-.05s-.03-.05-.03-.05v-.05s-.03-.04-.03-.04v-.04s-.13.04-.13.04v-.04s-.03-.04-.03-.04v-.04s.1-.04.1-.04v-.04s-.13.04-.13.04v-.04s-.03-.04-.03-.04l-.02-.04-.02-.04-.02-.04-.02-.04-.02-.04-.02-.04-.02-.04-.02-.04.11-.04-.02-.04-.02-.04-.02-.04-.11.04-.02-.04-.02-.04-.03-.09-.02-.04-.02-.04-.02-.04-.02-.04.11-.05-.02-.04-.02-.04-.11.05-.02-.04-.02-.04.11-.05-.02-.04-.02-.04-.02-.04-.02-.04-.02-.04-.02-.04-.11.05-.02-.04.11-.05-.02-.04-.11.05-.02-.04.11-.05-.02-.04-.02-.04-.02-.04-.02-.04-.02-.04-.02-.04-.11.05-.02-.04-.02-.04-.02-.04-.02-.04-.02-.04-.02-.04-.02-.04-.02-.04-.02-.04.1-.06-.02-.04-.1.06-.02-.04-.02-.04-.02-.04-.02-.04-.09-.16-.02-.04-.02-.04-.02-.04-.02-.04-.02-.04.1-.06-.02-.04-.1.06-.03-.04.1-.06-.03-.04-.03-.04-.1.06-.03-.04-.03-.04-.03-.04.1-.07-.03-.04-.03-.04-.03-.04-.03-.04-.1.07-.03-.04-.03-.04-.03-.04-.03-.04-.03-.04-.03-.04.1-.07-.03-.04-.03-.04-.03-.04-.1.07-.03-.04-.03-.04-.03-.04-.03-.04-.03-.04.1-.07-.03-.04-.1.07-.03-.04-.03-.04-.03-.04-.03-.04-.03-.04-.03-.04-.03-.04-.03-.04.09-.08.09-.08-.03-.04-.09.08-.03-.04-.09.08-.03-.04-.03-.04.09-.08-.03-.04-.03-.04-.03-.04-.09.08-.03-.03-.03-.04-.03-.03-.03-.03-.03-.03.09-.08-.03-.03-.09.08-.03-.03.09-.08-.03-.03-.03-.03-.03-.03-.09.08-.03-.03.09-.08-.03-.03-.03-.03-.03-.03.09-.08-.03-.03-.09.08-.03-.03-.03-.03-.08.08-.03-.03-.03-.03-.03-.03-.03-.03-.03-.03.08-.09-.03-.03-.08.09-.03-.03.08-.09-.03-.03-.03-.03.07-.41.05-.06.06-.08.03-.04.03-.04.03-.04.03-.04.1.07.03-.04-.1-.07.03-.04.03-.04.03-.04.03-.04.03-.04.03-.04.03-.04.03-.04.02-.04.03-.04.1.06.02-.04-.1-.06.02-.04.02-.04.02-.04.02-.04.02-.04.02-.04.02-.04.02-.04.02-.04.09-.17.02-.04.02-.04.02-.04.02-.04.11.05.02-.04.02-.04-.11-.05.02-.04.02-.04.02-.04.02-.04.02-.04.02-.04.02-.04.02-.04.02-.04.11.05.02-.04-.11-.05.02-.04.02-.04.02-.04.02-.05.02-.04.11.04.02-.05-.11-.04v-.04s.13.04.13.04v-.05s.03-.05.03-.05l-.11-.04v-.04s.03-.05.03-.05v-.04s.03-.05.03-.05v-.04s.03-.05.03-.05l.03-.09.05-.18.34-.3h0s.04-.01.04-.01h.04s-.01-.05-.01-.05l.15-.13h.03s.04-.02.04-.02h.04s.04-.03.04-.03h.04s.03.1.03.1h.04s.04-.03.04-.03l-.03-.11h.04s.04-.03.04-.03h.04s.04-.03.04-.03h.04s.04.1.04.1h.04s.04-.03.04-.03h.04s.04-.03.04-.03h.04s-.04-.13-.04-.13h.04s.08-.04.08-.04h.04s.04-.03.04-.03h.04s.04-.03.04-.03l.04.12h.04s.04-.03.04-.03h.04s-.04-.13-.04-.13h.04s.04-.03.04-.03l.08-.03h.04s.04-.03.04-.03l.04.11h.04s-.04-.13-.04-.13h.04s.04-.03.04-.03h.04s.04.1.04.1h.04s.04-.03.04-.03h.04s.04-.03.04-.03l-.04-.12h.04s.04-.02.04-.02h.04s.04-.03.04-.03h.04s.04-.03.04-.03h.04s.04.1.04.1h.04s.04-.02.04-.02h.04s-.04-.13-.04-.13h.04s.04.1.04.1h.04s.04-.03.04-.03l.04.11h.04s.04-.03.04-.03l-.04-.11h.04s.08-.04.08-.04h.04s.04-.03.04-.03h.04s.04-.03.04-.03l-.04-.11h.04s.04.1.04.1h.04s.04-.03.04-.03l-.04-.11h.04s.04-.02.04-.02h.04s.04.1.04.1h.04s-.04-.13-.04-.13h.04s.04-.03.04-.03l.04.11h.04s-.04-.13-.04-.13h.04s.04-.02.04-.02h.04s.04-.03.04-.03h.04s.04-.03.04-.03l.04.11h.04s.04-.03.04-.03l.16-.05h.04s.04-.03.04-.03h.04s.08-.04.08-.04l.16-.05h.04s.16-.06.16-.06h.04s.04-.03.04-.03h.04s.04-.03.04-.03h.04s.04-.03.04-.03h.04s.04.1.04.1l.04-.02.04-.02.04-.02-.04-.11.04-.02.04-.02.04-.02.04-.02.08-.03.04-.02.04-.02.04-.02.04-.02.04.11.04-.02-.04-.11.04-.02.04-.02.04-.02.04-.02.08-.03.04-.02.04-.02.04-.02.04-.02.04.11.04-.02.04-.02.04-.02.04-.02-.05-.11.04-.02.04-.02.04-.02.05.11.04-.02-.05-.11.04-.02.04-.02.05.11.04-.02.04-.02.04-.02.04-.02.04-.02.04-.02.04-.02.04-.02.04-.02-.05-.11.04-.02.04-.02.04-.02.04-.02.16-.07.04-.02.04-.02.04-.02.04-.02.04-.02.04-.02.04-.02.05.11.04-.02.04-.02-.05-.11.04-.02.04-.02.04-.02.04-.02.04-.02.04-.02.04-.02.04-.02.04-.02.16-.08.04-.02.04-.02.04-.02.04-.02.04-.02.04-.02.04-.02.05.11.04-.02.04-.02-.05-.11.04-.02.04-.02.04-.02.04-.02.04-.02.04-.02.04-.02.04-.02.04-.02.04-.02.04-.02.04-.02.04-.02-.06-.11.04-.02.06.11.04-.02.04-.02.06.1.04-.02-.06-.1.04-.02.04-.02.04-.02.04-.02.04-.02.06.1.04-.02.04-.02-.06-.1.04-.02.04-.02-.06-.11.04-.02.06.11.04-.02.04-.02.04-.02.06.1.04-.02-.06-.1.04-.02.04-.02.04-.02.04-.02.04-.02.04-.02.04-.02.04-.02.04-.02.06.1.04-.02.04-.02-.06-.1.04-.02.04-.02.04-.02.04-.02.04-.02.06.1.04-.02-.06-.1.04-.02.06.1.04-.02-.06-.1.04-.02.04-.02.04-.02.04-.02.04-.02.04-.02.04-.02.04-.03.04-.02.04-.02.04-.03.07.1.04-.03.04-.03-.07-.1.04-.03.04-.03.04-.03.04-.03.04-.03.04-.03.07.1.04-.03-.07-.1.04-.03.04-.03.04-.03.07.1.04-.03-.07-.1.04-.03.04-.03.07-.05.04-.03.04-.03.04-.03.04-.03.07.09.04-.03-.07-.09.04-.03.04-.03.04-.03.04-.03.04-.03.14-.11.03-.02v.02s0,0,0,0v-.02s0,0,0,0h.01s.01,0,.01,0h0s-.01-.02-.01-.02l.02-.02.02.03h0s-.02-.03-.02-.03l.03-.03.08.09.04-.03.04-.03.04-.03-.08-.09h0s.03.04.03.04h0s0,0,0,0h0s-.03-.05-.03-.05h0s.04.04.04.04h0s-.04-.05-.04-.05h0s.04.05.04.05h0s0,0,0,0h0s-.04-.05-.04-.05h0s.04.05.04.05h0s0,0,0,0h0s0,0,0,0l-.04-.05h0s.04.04.04.04h0s0,0,0,0l-.04-.05h0s.04.04.04.04h0s0,0,0,0l-.04-.05h0s.04.04.04.04h0s.1-.09.1-.09l-.03-.03h-.01s0-.01,0-.01l.04.04h0s0,0,0,0h0s-.04-.04-.04-.04h0s.04.04.04.04h0s-.04-.04-.04-.04h0s0,0,0,0l.04.04-.04-.04h0s.04.04.04.04h0s0,0,0,0h0s0,0,0,0h0s0,0,0,0h0s0,0,0,0h0s0,0,0,0h.01s0,.01,0,.01h0s0,0,0,0h0s-.01-.01-.01-.01h0s.02.02.02.02h0s-.02-.02-.02-.02l.02.02h0s0,0,0,0h0s0,0,0,0h0s0,0,0,0l-.02-.02.02.02h0s0,0,0,0l-.02-.02.02.03h0s0,0,0,0l.08.09-.14-.16.02-.02.03-.03.03-.03.03-.03.03-.03.03-.03.03-.03.03-.03.08.09.03-.03.03-.03-.08-.09.03-.03.03-.03.03-.03.03-.03.03-.03.08.09.03-.03.03-.03.03-.03.03-.03.03-.03.03-.03-.08-.09.03-.03.03-.03.03-.03.03-.03.03-.03.08.09.03-.03-.08-.09.03-.03.03-.03.08.09.03-.03.03-.03.03-.03-.08-.08.03-.03.03-.03.03-.03.06-.06.06-.06.03-.03.03-.03.03-.03.03-.03.03-.03.03-.03.09.08.03-.03.03-.03.03-.03-.09-.08.03-.03.03-.03.03-.03.03-.03.03-.03.09.08.03-.03.03-.03.03-.03.03-.03.03-.03-.09-.08.03-.03.03-.03.03-.03.09.08.03-.03-.09-.08.03-.03.03-.03.03-.03.03-.03.09.08.03-.03.03-.03-.09-.08.03-.03.03-.03.03-.03.09.08.03-.03.03-.03.03-.04.11-.14.03-.04.03-.03.03-.04.03-.04.03-.04-.09-.07.03-.03.03-.03.03-.04.09.07.03-.04.03-.04.03-.04.03-.04.03-.04.03-.04.03-.04.03-.04.03-.04.03-.04.03-.04-.09-.07.03-.04.09.07.03-.04.03-.04.03-.04.03-.04.03-.04.03-.04.03-.04.03-.04.03-.04.03-.04.03-.04.1.07.02-.04-.1-.07.03-.04.03-.04.03-.04.03-.04.03-.04.03-.04.1-.15.02-.04.1-.15.02-.04.1-.15.02-.04.02-.04.02-.04.02-.04.1.06.02-.04-.1-.06.02-.04.02-.04.02-.04.02-.04.02-.04.02-.04.02-.04.02-.04.02-.04.09-.16.02-.04.02-.04.02-.04.02-.04.02-.04-.1-.06.02-.04.1.06.02-.04.02-.04.02-.04.02-.04.02-.04.02-.04.02-.04.02-.04.02-.04.11.06.02-.04-.11-.06.02-.04.02-.04.11.05.02-.04.02-.04-.11-.05.02-.04.02-.04.02-.04.02-.04.02-.04.02-.04.02-.04.02-.04.02-.04.02-.04.02-.04.02-.04.02-.04-.11-.05.02-.04.02-.04.11.05.02-.04.02-.04.02-.04.11.05.02-.04.02-.04.04-.08-.11-.05.02-.04-.11-.05.02-.04.02-.04.11.05.07-.17.07-.17.07-.17.03-.08.02-.04.02-.04.02-.04.02-.04-.11-.04.02-.04.11.04.02-.04v-.04s.03-.04.03-.04l.02-.04.02-.04-.11-.04.02-.04.11.04.02-.04v-.04s.03-.04.03-.04v-.04s.03-.04.03-.04v-.04s.03-.04.03-.04v-.04s.13.04.13.04v-.04s-.1-.04-.1-.04v-.04s.03-.04.03-.04v-.04s.03-.04.03-.04v-.04s.03-.04.03-.04v-.04s.13.04.13.04v-.04s.03-.04.03-.04v-.04s-.1-.04-.1-.04v-.04s.02-.04.02-.04l.11.03v-.04s.03-.04.03-.04v-.04s.03-.04.03-.04v-.04s-.1-.03-.1-.03v-.04s.03-.04.03-.04v-.04s.06-.17.06-.17v-.04s.04-.09.04-.09l-.11-.03v-.04s.13.03.13.03v-.04s.02-.04.02-.04l.12.03v-.04s-.11-.03-.11-.03v-.04s.02-.04.02-.04v-.04s.02-.04.02-.04v-.04s.02-.04.02-.04l.12.03v-.04s.02-.04.02-.04v-.04s.02-.04.02-.04l-.12-.03v-.04s.13.03.13.03v-.04s-.11-.03-.11-.03v-.04s-.11-.03-.11-.03v-.04s.13.03.13.03v-.04s-.11-.03-.11-.03v-.04s.13.03.13.03v-.04s.13.03.13.03v-.04s-.11-.03-.11-.03v-.04s.02-.04.02-.04v-.04s.13.02.13.02v-.04s.02-.04.02-.04l-.12-.02Zm-44.03-5.95l.06-.04h0s-.06.04-.06.04Zm.63.33l.03-.04h0s-.04.04-.04.04Zm5.25,23.6h0s0,0,0,0h0Zm-3.36,16.21h0s0,0,0,0h0s0,0,0,0Zm-.05.03l.04-.03h.01s0,0,0,0l-.06.02Zm.1.31l.03-.02h0s-.03.02-.03.02h0Zm0,.01l.03-.02h0s-.03.02-.03.02h0Zm0,.01l.03-.02h0s-.03.02-.03.02h0Zm0,.02l.03-.02h0s-.03.02-.03.02h0Zm0,0h0s.03-.02.03-.02h0s-.03.02-.03.02Zm0,.02h0s.04-.02.04-.02h0s-.04.02-.04.02Zm0,0h0s.04-.02.04-.02h0s-.04.02-.04.02Zm20.2,3.87h0s0,0,0,0h0s0,0,0,0h0s0,0,0,0Zm-.14-.21l.04.05h0s-.04-.05-.04-.05h0Zm-.41.31h0s0,0,0,0h0s0,0,0,0h0s0,0,0,0h0s0,0,0,0h0s.02.06.02.06l-.03-.06h0Zm-13.71-22.15l.04-.02-.04.02h0Zm24.99-9.43h0s0,0,0,0h0Zm4.13,3.63l.03.03-.04-.04h0s.01.01.01.01Z"/>
        <text class="cls-3" transform="translate(309.23 69.3) rotate(10)"><tspan x="0" y="0">?</tspan></text>
      </g>
    </g>
  </g>
</svg>