<?xml version="1.0" encoding="UTF-8"?>
<svg id="_Слой_2" data-name="Слой 2" xmlns="http://www.w3.org/2000/svg" viewBox="0 0 135.03 135.03">
  <defs>
    <style>
      .cls-1, .cls-2 {
        fill: #262626;
      }

      .cls-3 {
        stroke: #262626;
      }

      .cls-3, .cls-4 {
        fill: none;
        stroke-miterlimit: 10;
        stroke-width: .75px;
      }

      .cls-4 {
        stroke: #faf8f8;
      }

      .cls-2 {
        font-family: CourierNewPSMT, 'Courier New';
        font-size: 15px;
      }

      .cls-5 {
        fill: #d0c7bc;
      }
    </style>
  </defs>
  <g id="_Слой_1-2" data-name="Слой 1">
    <g>
      <g>
        <circle class="cls-5" cx="67.52" cy="67.52" r="67.5"/>
        <text class="cls-2" transform="translate(24.19 76.55) rotate(-96.08)"><tspan x="0" y="0">☼</tspan></text>
        <text class="cls-2" transform="translate(23.24 68.12) rotate(-85.05)"><tspan x="0" y="0"> </tspan></text>
        <text class="cls-2" transform="translate(23.91 59.7) rotate(-74.01)"><tspan x="0" y="0"> </tspan></text>
        <text class="cls-2" transform="translate(26.2 51.53) rotate(-63.02)"><tspan x="0" y="0">S</tspan></text>
        <text class="cls-2" transform="translate(29.99 43.98) rotate(-52.13)"><tspan x="0" y="0">H</tspan></text>
        <text class="cls-2" transform="translate(35.15 37.25) rotate(-41.16)"><tspan x="0" y="0">U</tspan></text>
        <text class="cls-2" transform="translate(41.49 31.64) rotate(-30.13)"><tspan x="0" y="0"> </tspan></text>
        <text class="cls-2" transform="translate(48.79 27.35) rotate(-19.08)"><tspan x="0" y="0">P</tspan></text>
        <text class="cls-2" transform="translate(56.79 24.53) rotate(-8.21)"><tspan x="0" y="0">U</tspan></text>
        <text class="cls-2" transform="translate(65.15 23.27) rotate(2.77)"><tspan x="0" y="0">E</tspan></text>
        <text class="cls-2" transform="translate(73.61 23.63) rotate(13.83)"><tspan x="0" y="0">R</tspan></text>
        <text class="cls-2" transform="translate(81.86 25.61) rotate(24.84)"><tspan x="0" y="0"> </tspan></text>
        <text class="cls-2" transform="translate(89.55 29.11) rotate(35.74)"><tspan x="0" y="0">T</tspan></text>
        <text class="cls-2" transform="translate(96.45 34.01) rotate(46.67)"><tspan x="0" y="0">E</tspan></text>
        <text class="cls-2" transform="translate(102.3 40.14) rotate(57.71)"><tspan x="0" y="0">A</tspan></text>
        <text class="cls-2" transform="translate(106.87 47.27) rotate(68.75)"><tspan x="0" y="0"> </tspan></text>
        <text class="cls-2" transform="translate(109.98 55.15) rotate(79.66)"><tspan x="0" y="0"> </tspan></text>
        <text class="cls-2" transform="translate(111.56 63.48) rotate(90.62)"><tspan x="0" y="0">☼</tspan></text>
        <text class="cls-2" transform="translate(111.52 71.94) rotate(101.66)"><tspan x="0" y="0"> </tspan></text>
        <text class="cls-2" transform="translate(109.85 80.25) rotate(112.69)"><tspan x="0" y="0">S</tspan></text>
        <text class="cls-2" transform="translate(106.64 88.07) rotate(123.6)"><tspan x="0" y="0">H</tspan></text>
        <text class="cls-2" transform="translate(102 95.14) rotate(134.52)"><tspan x="0" y="0">U</tspan></text>
        <text class="cls-2" transform="translate(96.09 101.23) rotate(145.55)"><tspan x="0" y="0"> </tspan></text>
        <text class="cls-2" transform="translate(89.14 106.06) rotate(156.6)"><tspan x="0" y="0">P</tspan></text>
        <text class="cls-2" transform="translate(81.4 109.46) rotate(167.46)"><tspan x="0" y="0">U</tspan></text>
        <text class="cls-2" transform="translate(73.14 111.34) rotate(178.43)"><tspan x="0" y="0">E</tspan></text>
        <text class="cls-2" transform="translate(64.67 111.63) rotate(-170.5)"><tspan x="0" y="0">R</tspan></text>
        <text class="cls-2" transform="translate(56.31 110.28) rotate(-159.48)"><tspan x="0" y="0"> </tspan></text>
        <text class="cls-2" transform="translate(48.38 107.37) rotate(-148.56)"><tspan x="0" y="0">T</tspan></text>
        <text class="cls-2" transform="translate(41.11 102.98) rotate(-137.61)"><tspan x="0" y="0">E</tspan></text>
        <text class="cls-2" transform="translate(34.83 97.33) rotate(-126.65)"><tspan x="0" y="0">A</tspan></text>
        <circle class="cls-4" cx="67.52" cy="67.52" r="62.5"/>
        <circle class="cls-3" cx="67.52" cy="67.52" r="58.92"/>
      </g>
      <path class="cls-1" d="m95.19,73.15c-3.65-1.86-7.79-2.84-11.9-2.84,2.29-1.13,4.68-1.9,7.23-1.99.26,0,.58-.02.89-.19.62-.33.89-1.07.73-2.04-.57-3.45-3.94-6.22-7.82-6.44-3.2-.2-6.68,1.25-9.55,3.93-.05.05-.1.1-.15.15.95-2.55,2.28-5.1,3.43-7.17l.18-.33c.93-1.67,1.99-3.57,1.67-5.63-.03-.19-.15-.35-.31-.44-.17-.09-.37-.1-.54-.02-3.67,1.64-6.93,4.26-9.42,7.52-.01-.14-.02-.27-.04-.42-.17-1.48-.36-2.95-.58-4.42-.12-.79-.25-1.51-.61-2.17-.32-.58-.76-.62-.95-.6-.36.03-.59.28-.69.38-.82.91-1.5,1.95-2.01,3.08-.15-.26-.29-.53-.44-.79-.11-.19-.3-.31-.52-.31-.19,0-.42.1-.53.29-.85,1.35-1.46,2.85-1.79,4.42-.13-.2-.25-.4-.38-.6-1.34-2.01-2.94-3.84-4.49-5.6-.13-.15-.37-.42-.75-.48-.31-.05-.61.05-.83.28-.38.39-.41,1.05-.33,1.49.75,3.9,1.69,8.28,3.34,12.43-3.54-2.98-7.67-5.22-11.63-7.26-.75-.39-1.36-.38-1.79,0-.31.27-.39.65-.43.91-.3,2.12.97,4,2.27,5.57,2.11,2.56,5.33,5.43,7.81,7.51-4.18-1.18-8.96-1.59-14.57-1.25-1.65.1-2.63.65-2.92,1.64-.39,1.33.69,2.52,2.9,3.18,2.75.82,5.39,2.17,7.93,3.47,1.79.91,3.64,1.86,5.54,2.63,2.06.84,4.22,1.49,6.41,1.93.73.15,1.65.25,2.58.25,1.91,0,3.9-.41,4.6-1.68.09-.16.15-.34.19-.51.93.51,2.08.79,3.37.79.28,0,.57-.01.87-.04,2.4-.22,4.64-1.12,6.81-1.99.94-.38,1.9-.77,2.86-1.09,4.98-1.69,10.51-1.8,15.56-.34.3.09,1.1.32,1.63-.24.19-.21.3-.48.34-.83.16-1.55-.95-3.02-3.13-4.13Zm1.82,3.29c-3.06-1.33-6.76-1.78-10.74-1.28-3.8.47-7.51,1.72-10.96,3l-.06.02c-2.23.83-4.53,1.67-6.8,1.46.27-.07.55-.17.83-.28,2.28-.24,5.03-1.47,7.92-2.76,2.63-1.18,5.35-2.41,7.74-2.84,1.4-.25,2.92-.36,4.81-.33,1.4.02,3.03.12,4.52.64.12.06.25.12.37.18.8.41,2.03,1.18,2.38,2.2Zm-4.37-3.1c-1-.16-1.99-.21-2.89-.22-1.91-.03-3.45.08-4.87.33-2.42.44-5.16,1.67-7.81,2.86-2.43,1.09-4.76,2.14-6.77,2.57,1.43-.75,2.82-1.79,3.79-2.52l.97-.71c1.89-1.38,3.81-2.78,5.79-3.99,3.96-.41,8.07.19,11.79,1.68Zm-17.03-8.86c2.62-2.45,5.77-3.77,8.64-3.6,3.27.19,6.21,2.57,6.68,5.42.07.4,0,.7-.09.75-.06.03-.22.04-.38.05-6.09.22-11.18,3.96-16.11,7.56l-.98.72c-1.5,1.12-5,3.73-6.6,3.13-.18-.07-.23-.16-.26-.24-.29-.98,1.65-3.67,2.48-4.82.31-.43.56-.78.7-1.01,1.72-2.8,3.5-5.7,5.91-7.96Zm-11.68,11.78c-.97-1.79-2.1-3.17-3.19-4.38-.86-.96-1.82-1.87-2.67-2.67-3.84-3.62-7.35-6.89-10.7-9.94,3.76,1.98,7.59,4.19,10.78,7.09,3.49,3.18,5.83,6.94,6.72,10.74-.3-.29-.62-.57-.94-.84Zm14.33-22.81c-1.68,2.21-3.23,4.55-4.58,6.98-2.18,3.91-3.92,8.09-5.58,12.17-.03.05-.06.09-.1.14-.41.57-.81,1.13-1.17,1.68.29-1.52.61-3.06,1.07-4.54,1.19-3.76,3.34-7.21,5.49-10.37,1.7-2.5,3.51-4.99,5.27-7.41-.08.46-.22.91-.41,1.36Zm-1.29,2.51c-1.56,2.81-3.44,6.47-4.32,9.91-1.38,1.7-2.56,3.56-3.69,5.4,1.48-3.61,3.06-7.26,4.98-10.7,1.09-1.96,2.3-3.86,3.62-5.68-.13.24-.27.49-.4.73l-.19.34Zm1.56-4.22c-1.8,2.47-3.65,5.01-5.4,7.58-2.17,3.18-4.34,6.65-5.53,10.45-.55,1.74-.9,3.56-1.22,5.33-.19.32-.37.63-.52.94-.08-.29-.17-.57-.27-.86.01-.06.03-.11.02-.17-.24-3.7.37-7.47,1.74-10.9,0,0,0,0,0,0,.45-1.14.99-2.25,1.61-3.3,2.28-3.89,5.65-7.07,9.57-9.07Zm-11.1-.25c.18.43.26.92.35,1.5.22,1.46.41,2.92.57,4.38.09.76.14,1.44-.03,2.04-.01.04,0,.08-.01.11-.14.22-.28.44-.41.66-.14.23-.27.47-.4.71-.11-.94-.33-1.91-.67-2.92-.36-1.06-.83-2.07-1.34-3.05.41-1.23,1.06-2.4,1.93-3.43Zm-1.76,6.88c.66,1.92.84,3.71.53,5.3-.4,1-.73,2.02-1,3.06-.14-.73-.31-1.45-.5-2.16.1-1.36-.19-2.71-.47-4.02-.09-.4-.17-.81-.25-1.21-.3-1.59-.41-3.22-.36-4.84.04-.08.08-.17.12-.25.73,1.32,1.43,2.69,1.93,4.12Zm-2.37-3.16c0,1.4.12,2.8.38,4.18.08.41.16.81.25,1.22.2.96.41,1.94.47,2.93-.52-1.64-1.18-3.23-1.98-4.74.11-1.24.41-2.45.88-3.59Zm-7.45-3.26c1.45,1.66,2.94,3.37,4.18,5.23.42.63.81,1.28,1.17,1.95.03.09.07.17.13.23,1.87,3.53,2.97,7.54,3.12,11.53,0,0,0,.02,0,.02-.04.47-.08.93-.1,1.4-1.03-1.96-2.41-3.86-4.1-5.61-2.35-4.73-3.51-10.09-4.4-14.75,0,0,0,0,0,0Zm-10.48,6.35c.05,0,.18.03.42.15.16.08.33.17.49.26,3.6,3.28,7.39,6.79,11.55,10.72.84.8,1.8,1.7,2.65,2.65.94,1.05,1.91,2.21,2.78,3.66-.44-.34-.88-.65-1.33-.95-.23-.25-.46-.5-.68-.75-.23-.26-.46-.51-.69-.77-1.06-1.15-2.24-2.19-3.38-3.2l-5.88-5.21c-2.17-1.92-4.4-3.9-5.95-6.4,0,0-.01,0-.02-.01,0,0,0,0,0,0,.01-.08.02-.13.02-.15Zm1.98,4.76c-1-1.22-2-2.64-2.03-4.11,1.56,2.38,3.71,4.29,5.79,6.14l5.88,5.21c1.13,1,2.3,2.04,3.35,3.17.22.23.43.47.64.71-1.16-.68-2.31-1.23-3.4-1.68-2.16-1.7-7.32-5.9-10.24-9.44Zm-7.63,8.27c1.25-.08,2.46-.11,3.62-.11,4.44,0,8.3.55,11.72,1.67,2.72.89,6.55,2.57,9.41,5.56.42.44.73.85.94,1.22.02.09.06.17.12.25,0,0,0,0,.01.01.1.23.15.44.15.62-.52,0-1.03-.19-1.48-.39-.93-.42-1.83-.96-2.7-1.48-1.19-.71-2.41-1.45-3.76-1.9-1.09-.36-2.25-.52-3.36-.68l-.4-.06c-3.22-.46-6.46-1.13-9.59-1.77-1.33-.27-2.7-.56-4-1.03-.71-.26-1.69-.7-2.18-1.53.37-.25.98-.35,1.51-.38Zm20.03,10.41c-2.12-.43-4.2-1.05-6.19-1.86-1.85-.75-3.68-1.68-5.44-2.58-2.6-1.33-5.28-2.7-8.14-3.55-.24-.07-2.34-.73-2.07-1.66.02-.06.05-.11.08-.16.55.87,1.56,1.33,2.3,1.6,1.32.48,2.71.77,4.05,1.04,3.14.65,6.38,1.31,9.61,1.78l.4.06c1.1.15,2.24.32,3.31.67,1.31.43,2.52,1.16,3.7,1.87.88.53,1.78,1.07,2.74,1.5.46.21.99.41,1.55.42,0,.02-.01.05-.03.07-.53.96-3.27,1.34-5.86.82Zm37.34-4.6s0,.07,0,.09c-.06,0-.16,0-.39-.07-5.29-1.54-11.08-1.41-16.3.35-.99.34-1.98.73-2.93,1.12-2.18.88-4.24,1.71-6.46,1.91-.77.07-2.46.09-3.74-.73,0,0,0,0,0,0,.08,0,.16,0,.24-.01.55.12,1.11.18,1.66.18,2.08,0,4.16-.77,6.18-1.52l.05-.02c3.43-1.27,7.12-2.51,10.89-2.98,4.02-.5,7.74-.03,10.79,1.34.01.11.02.23,0,.35Z"/>
    </g>
  </g>
</svg>