<?xml version="1.0" encoding="UTF-8"?>
<svg id="_Слой_2" data-name="Слой 2" xmlns="http://www.w3.org/2000/svg" viewBox="0 0 135.03 135.03">
  <defs>
    <style>
      .cls-1, .cls-2 {
        fill: #262626;
      }

      .cls-3 {
        stroke: #262626;
      }

      .cls-3, .cls-4 {
        fill: none;
        stroke-miterlimit: 10;
        stroke-width: .75px;
      }

      .cls-4 {
        stroke: #faf8f8;
      }

      .cls-5 {
        fill: #d5b987;
      }

      .cls-2 {
        font-family: CourierNewPSMT, 'Courier New';
        font-size: 15.09px;
      }
    </style>
  </defs>
  <g id="_Слой_1-2" data-name="Слой 1">
    <g>
      <g>
        <circle class="cls-5" cx="67.52" cy="67.52" r="67.5"/>
        <text class="cls-2" transform="translate(24.18 76.54) rotate(-96.04)"><tspan x="0" y="0">☼</tspan></text>
        <text class="cls-2" transform="translate(23.23 67.86) rotate(-84.67)"><tspan x="0" y="0"> </tspan></text>
        <text class="cls-2" transform="translate(24.01 59.16) rotate(-73.27)"><tspan x="0" y="0">G</tspan></text>
        <text class="cls-2" transform="translate(26.5 50.78) rotate(-61.95)"><tspan x="0" y="0">A</tspan></text>
        <text class="cls-2" transform="translate(30.57 43.07) rotate(-50.72)"><tspan x="0" y="0">B</tspan></text>
        <text class="cls-2" transform="translate(36.08 36.28) rotate(-39.38)"><tspan x="0" y="0">A</tspan></text>
        <text class="cls-2" transform="translate(42.8 30.72) rotate(-28)"><tspan x="0" y="0"> </tspan></text>
        <text class="cls-2" transform="translate(50.49 26.6) rotate(-16.64)"><tspan x="0" y="0">T</tspan></text>
        <text class="cls-2" transform="translate(58.87 24.06) rotate(-5.43)"><tspan x="0" y="0">E</tspan></text>
        <text class="cls-2" transform="translate(67.54 23.2) rotate(5.93)"><tspan x="0" y="0">A</tspan></text>
        <text class="cls-2" transform="translate(76.24 24.08) rotate(17.34)"><tspan x="0" y="0"> </tspan></text>
        <text class="cls-2" transform="translate(84.6 26.65) rotate(28.65)"><tspan x="0" y="0">G</tspan></text>
        <text class="cls-2" transform="translate(92.27 30.81) rotate(39.91)"><tspan x="0" y="0">A</tspan></text>
        <text class="cls-2" transform="translate(98.99 36.39) rotate(51.22)"><tspan x="0" y="0">B</tspan></text>
        <text class="cls-2" transform="translate(104.49 43.17) rotate(62.62)"><tspan x="0" y="0">A</tspan></text>
        <text class="cls-2" transform="translate(108.53 50.92) rotate(73.99)"><tspan x="0" y="0"> </tspan></text>
        <text class="cls-2" transform="translate(110.97 59.31) rotate(85.18)"><tspan x="0" y="0">☼</tspan></text>
        <text class="cls-2" transform="translate(111.74 68) rotate(96.55)"><tspan x="0" y="0"> </tspan></text>
        <text class="cls-2" transform="translate(110.77 76.68) rotate(107.94)"><tspan x="0" y="0">T</tspan></text>
        <text class="cls-2" transform="translate(108.11 85) rotate(119.24)"><tspan x="0" y="0">H</tspan></text>
        <text class="cls-2" transform="translate(103.87 92.64) rotate(130.53)"><tspan x="0" y="0">A</tspan></text>
        <text class="cls-2" transform="translate(98.22 99.3) rotate(141.83)"><tspan x="0" y="0"> </tspan></text>
        <text class="cls-2" transform="translate(91.37 104.72) rotate(153.25)"><tspan x="0" y="0">C</tspan></text>
        <text class="cls-2" transform="translate(83.6 108.68) rotate(164.58)"><tspan x="0" y="0">H</tspan></text>
        <text class="cls-2" transform="translate(75.19 111.03) rotate(175.78)"><tspan x="0" y="0">A</tspan></text>
        <text class="cls-2" transform="translate(66.46 111.71) rotate(-172.81)"><tspan x="0" y="0">I</tspan></text>
        <text class="cls-2" transform="translate(57.8 110.65) rotate(-161.43)"><tspan x="0" y="0"> </tspan></text>
        <text class="cls-2" transform="translate(49.51 107.9) rotate(-150.14)"><tspan x="0" y="0">T</tspan></text>
        <text class="cls-2" transform="translate(41.92 103.57) rotate(-138.87)"><tspan x="0" y="0">E</tspan></text>
        <text class="cls-2" transform="translate(35.33 97.86) rotate(-127.56)"><tspan x="0" y="0">A</tspan></text>
        <circle class="cls-4" cx="67.52" cy="67.52" r="62.5"/>
        <circle class="cls-3" cx="67.52" cy="67.52" r="58.92"/>
      </g>
      <g>
        <path class="cls-1" d="m93.73,67.36c-.85,1.62-1.49,3.24-2.69,4.65-1.13,1.33-2.54,2.3-4.07,3.12-2.76,1.47-5.8,2.33-8.67,3.54-2.94,1.25-5.69,2.93-7.61,5.52-.76,1.02-1.45,2.12-1.93,3.31-.47-1.19-1.17-2.3-1.93-3.31-1.09-1.46-2.46-2.61-3.95-3.58-.8-.52-1.64-.98-2.51-1.39-.38-.18-.76-.38-1.14-.54-2.87-1.21-5.91-2.07-8.67-3.54-1.53-.82-2.94-1.79-4.07-3.12-1.2-1.41-1.84-3.03-2.69-4.65-.35-.65-1.5-.59-1.52.25-.08,3.75.19,7.58.99,11.25.71,3.26,1.99,6.45,4.54,8.7,2.16,1.9,4.88,3.21,7.61,4.21.55.2,1.09.4,1.63.58.35.12.71.22,1.07.34,1.45.45,2.92.88,4.39,1.24,1.83.45,3.68.81,5.47,1.41.32.11.6.02.79-.17.19.19.47.28.8.17,1.78-.6,3.63-.97,5.46-1.41,1.84-.44,3.66-.99,5.46-1.57,3.25-1.05,6.64-2.52,9.24-4.79,2.56-2.25,3.84-5.44,4.55-8.7.8-3.66,1.06-7.49.98-11.25-.02-.84-1.17-.91-1.51-.25Zm-30.46,25.14c-1.55-.38-3.08-.82-4.6-1.29-.2-.06-.4-.12-.6-.18-.7-.23-1.4-.46-2.11-.72-2.39-.88-4.76-1.98-6.71-3.58-2.58-2.11-3.84-5.18-4.48-8.37-.28-1.4-.49-2.82-.65-4.23.08.19.17.37.26.55.66,1.32,1.46,2.59,2.39,3.74,1.78,2.21,3.98,4.12,6.44,5.54,1.32.76,2.7,1.34,4.08,1.97.1.05.19.1.29.15.87.41,1.7.89,2.51,1.41.45.28.9.56,1.34.87,1.29.93,2.65,1.82,3.77,2.94.56.56,1.31,1.3,1.78,2.1-1.23-.34-2.47-.6-3.7-.9Zm4.42-.8c-.26-.33-.53-.63-.79-.9-1.04-1.11-2.24-2.05-3.48-2.94-.9-.65-1.81-1.27-2.75-1.86-.49-.31-.96-.62-1.47-.88-.34-.17-.7-.32-1.05-.48-1.08-.49-2.19-.96-3.24-1.52-2.58-1.39-4.94-3.23-6.78-5.52-.94-1.17-1.79-2.43-2.42-3.8-.08-.19-.16-.37-.24-.56.95,1.03,2.02,1.94,3.24,2.66,2.64,1.55,5.54,2.5,8.38,3.61.9.35,1.8.74,2.68,1.16.87.41,1.71.88,2.5,1.42.9.6,1.77,1.25,2.49,2.08,1.11,1.25,2.3,2.88,2.74,4.52.27,1,.29,2.02.18,3.03Zm2.32-3.03c.44-1.64,1.63-3.27,2.74-4.52,2.02-2.28,4.9-3.57,7.68-4.65,2.84-1.11,5.74-2.07,8.38-3.61,1.21-.71,2.3-1.62,3.24-2.66-.08.19-.16.37-.25.56-.62,1.37-1.47,2.63-2.41,3.8-1.84,2.29-4.19,4.13-6.78,5.52-1.39.75-2.88,1.29-4.29,2-1.5.77-2.86,1.76-4.22,2.75-1.23.89-2.44,1.82-3.48,2.94-.26.27-.53.57-.79.9-.12-1.01-.1-2.03.17-3.03Zm22.74-10.31c-.64,3.19-1.9,6.26-4.48,8.37-2.53,2.06-5.75,3.32-8.82,4.3-1.72.55-3.46,1.04-5.21,1.47-1.24.3-2.47.56-3.7.9.47-.8,1.21-1.54,1.78-2.1,1.13-1.12,2.48-2.01,3.77-2.94,1.32-.94,2.67-1.75,4.14-2.43,1.38-.63,2.76-1.21,4.07-1.97,2.46-1.42,4.66-3.33,6.44-5.54.92-1.15,1.73-2.42,2.38-3.74.1-.18.18-.37.27-.55-.15,1.42-.37,2.83-.65,4.23Z"/>
        <path class="cls-1" d="m60.74,78.31s.04.02.06.03c.85.38,1.74.67,2.64.91,5.56,1.51,11.82.44,16.09-3.57,2.86-2.68,4.58-6.44,4.9-10.34.36-4.29-.94-8.31-3.04-12-.89-1.57-1.89-3.08-2.92-4.57-.61-.86-1.22-1.7-1.85-2.54-2.42-3.25-4.95-6.41-7.17-9.78-.33-.5-.92-.39-1.23-.05-.17.03-.33.11-.47.29-2.84,3.64-5.75,7.24-8.4,11.01-2.53,3.61-4.77,7.36-6.12,11.58-1.25,3.89-1.58,8.14.1,11.95,1.45,3.28,4.2,5.62,7.42,7.07Zm-5.96-18.75c1.33-4.29,3.81-8.09,6.39-11.72,2.37-3.33,4.94-6.51,7.46-9.72,2.24,3.32,4.72,6.45,7.11,9.68,0,0,0,0,0,0,.62.83,1.24,1.68,1.85,2.54,1.87,2.68,3.58,5.51,4.56,8.61,1.25,3.97.94,8.31-.97,12-1.65,3.2-4.56,5.55-7.96,6.66-2.87.93-6.12.97-9.15.19-.93-.24-1.83-.55-2.7-.95-2.54-1.15-4.75-2.95-6.15-5.37-2.12-3.68-1.66-8.05-.45-11.94Z"/>
      </g>
    </g>
  </g>
</svg>