<?xml version="1.0" encoding="UTF-8"?>
<svg id="_Слой_2" data-name="Слой 2" xmlns="http://www.w3.org/2000/svg" viewBox="0 0 135.03 135.03">
  <defs>
    <style>
      .cls-1 {
        stroke: #000;
      }

      .cls-1, .cls-2, .cls-3 {
        fill: none;
        stroke-miterlimit: 10;
      }

      .cls-2 {
        stroke: #262626;
      }

      .cls-2, .cls-3 {
        stroke-width: .75px;
      }

      .cls-3 {
        stroke: #faf8f8;
      }

      .cls-4 {
        fill: #262626;
        font-family: CourierNewPSMT, 'Courier New';
        font-size: 15.09px;
      }

      .cls-5 {
        fill: #d7da93;
      }
    </style>
  </defs>
  <g id="_Слой_1-2" data-name="Слой 1">
    <g>
      <g>
        <circle class="cls-5" cx="67.52" cy="67.52" r="67.5"/>
        <text class="cls-4" transform="translate(24.18 76.54) rotate(-96.04)"><tspan x="0" y="0">☼</tspan></text>
        <text class="cls-4" transform="translate(23.23 67.86) rotate(-84.67)"><tspan x="0" y="0"> </tspan></text>
        <text class="cls-4" transform="translate(24.01 59.16) rotate(-73.27)"><tspan x="0" y="0">S</tspan></text>
        <text class="cls-4" transform="translate(26.5 50.78) rotate(-61.95)"><tspan x="0" y="0">H</tspan></text>
        <text class="cls-4" transform="translate(30.57 43.08) rotate(-50.72)"><tspan x="0" y="0">E</tspan></text>
        <text class="cls-4" transform="translate(36.08 36.28) rotate(-39.38)"><tspan x="0" y="0">N</tspan></text>
        <text class="cls-4" transform="translate(42.8 30.72) rotate(-28)"><tspan x="0" y="0">G</tspan></text>
        <text class="cls-4" transform="translate(50.49 26.6) rotate(-16.64)"><tspan x="0" y="0"> </tspan></text>
        <text class="cls-4" transform="translate(58.87 24.06) rotate(-5.43)"><tspan x="0" y="0">P</tspan></text>
        <text class="cls-4" transform="translate(67.54 23.2) rotate(5.93)"><tspan x="0" y="0">U</tspan></text>
        <text class="cls-4" transform="translate(76.24 24.08) rotate(17.34)"><tspan x="0" y="0">E</tspan></text>
        <text class="cls-4" transform="translate(84.6 26.65) rotate(28.65)"><tspan x="0" y="0">R</tspan></text>
        <text class="cls-4" transform="translate(92.27 30.81) rotate(39.91)"><tspan x="0" y="0">H</tspan></text>
        <text class="cls-4" transform="translate(98.99 36.39) rotate(51.22)"><tspan x="0" y="0"> </tspan></text>
        <text class="cls-4" transform="translate(104.49 43.17) rotate(62.62)"><tspan x="0" y="0">T</tspan></text>
        <text class="cls-4" transform="translate(108.53 50.93) rotate(73.99)"><tspan x="0" y="0">E</tspan></text>
        <text class="cls-4" transform="translate(110.97 59.31) rotate(85.18)"><tspan x="0" y="0">A</tspan></text>
        <text class="cls-4" transform="translate(111.74 68) rotate(96.55)"><tspan x="0" y="0"> </tspan></text>
        <text class="cls-4" transform="translate(110.77 76.68) rotate(107.94)"><tspan x="0" y="0">☼</tspan></text>
        <text class="cls-4" transform="translate(108.11 85) rotate(119.24)"><tspan x="0" y="0"> </tspan></text>
        <text class="cls-4" transform="translate(103.87 92.64) rotate(130.53)"><tspan x="0" y="0">S</tspan></text>
        <text class="cls-4" transform="translate(98.22 99.3) rotate(141.83)"><tspan x="0" y="0">H</tspan></text>
        <text class="cls-4" transform="translate(91.37 104.72) rotate(153.25)"><tspan x="0" y="0">E</tspan></text>
        <text class="cls-4" transform="translate(83.6 108.68) rotate(164.58)"><tspan x="0" y="0">N</tspan></text>
        <text class="cls-4" transform="translate(75.19 111.03) rotate(175.78)"><tspan x="0" y="0">G</tspan></text>
        <text class="cls-4" transform="translate(66.46 111.71) rotate(-172.81)"><tspan x="0" y="0"> </tspan></text>
        <text class="cls-4" transform="translate(57.8 110.65) rotate(-161.43)"><tspan x="0" y="0">P</tspan></text>
        <text class="cls-4" transform="translate(49.51 107.9) rotate(-150.14)"><tspan x="0" y="0">U</tspan></text>
        <text class="cls-4" transform="translate(41.92 103.57) rotate(-138.87)"><tspan x="0" y="0">E</tspan></text>
        <text class="cls-4" transform="translate(35.33 97.86) rotate(-127.56)"><tspan x="0" y="0">R</tspan></text>
        <text class="cls-4" transform="translate(29.97 90.94) rotate(-116.13)"><tspan x="0" y="0">H</tspan></text>
        <circle class="cls-3" cx="67.52" cy="67.52" r="62.5"/>
        <circle class="cls-2" cx="67.52" cy="67.52" r="58.92"/>
      </g>
      <g>
        <g>
          <path class="cls-1" d="m68.29,89.17s-19.67,1.7-20.67-16.48c-.99-18.18,21.03-18.03,20.67-38.13v54.6Z"/>
          <path class="cls-1" d="m47.85,74.95c0,6.22,20.93,5.57,20.43,14.22"/>
          <path class="cls-1" d="m48.59,65.58c0,9.37,20.2,5.56,19.7,14.22"/>
          <path class="cls-1" d="m53.3,58.47c-3.09,7.12,14.98,4.65,14.98,12.6"/>
          <path class="cls-1" d="m60.12,52.17s-1.98,3.33.86,4.67c2.84,1.34,7.33,2.37,7.32,5.03"/>
        </g>
        <g>
          <path class="cls-1" d="m68.3,89.17s19.67,1.7,20.67-16.48c.99-18.18-21.03-18.03-20.67-38.13"/>
          <path class="cls-1" d="m88.73,74.95c0,6.22-20.93,5.57-20.43,14.22"/>
          <path class="cls-1" d="m87.99,65.58c0,9.37-20.2,5.56-19.7,14.22"/>
          <path class="cls-1" d="m83.28,58.47c3.09,7.12-14.98,4.65-14.98,12.6"/>
          <path class="cls-1" d="m76.46,52.17s1.98,3.33-.86,4.67c-2.84,1.34-7.33,2.37-7.32,5.03"/>
        </g>
      </g>
    </g>
  </g>
</svg>