<?xml version="1.0" encoding="UTF-8"?>
<svg id="_Слой_2" data-name="Слой 2" xmlns="http://www.w3.org/2000/svg" viewBox="0 0 135.03 135.03">
  <defs>
    <style>
      .cls-1, .cls-2 {
        fill: #262626;
      }

      .cls-3 {
        stroke: #262626;
      }

      .cls-3, .cls-4 {
        fill: none;
        stroke-miterlimit: 10;
        stroke-width: .75px;
      }

      .cls-5 {
        fill: #beda9f;
      }

      .cls-4 {
        stroke: #faf8f8;
      }

      .cls-2 {
        font-family: CourierNewPSMT, 'Courier New';
        font-size: 15.09px;
      }
    </style>
  </defs>
  <g id="_Слой_1-2" data-name="Слой 1">
    <g>
      <g>
        <circle class="cls-5" cx="67.52" cy="67.52" r="67.5"/>
        <text class="cls-2" transform="translate(24.18 76.54) rotate(-96.04)"><tspan x="0" y="0">☼</tspan></text>
        <text class="cls-2" transform="translate(23.23 67.86) rotate(-84.67)"><tspan x="0" y="0"> </tspan></text>
        <text class="cls-2" transform="translate(24.01 59.16) rotate(-73.27)"><tspan x="0" y="0">G</tspan></text>
        <text class="cls-2" transform="translate(26.5 50.78) rotate(-61.95)"><tspan x="0" y="0">R</tspan></text>
        <text class="cls-2" transform="translate(30.57 43.07) rotate(-50.72)"><tspan x="0" y="0">E</tspan></text>
        <text class="cls-2" transform="translate(36.08 36.28) rotate(-39.38)"><tspan x="0" y="0">E</tspan></text>
        <text class="cls-2" transform="translate(42.8 30.72) rotate(-28)"><tspan x="0" y="0">N</tspan></text>
        <text class="cls-2" transform="translate(50.49 26.6) rotate(-16.64)"><tspan x="0" y="0"> </tspan></text>
        <text class="cls-2" transform="translate(58.87 24.06) rotate(-5.43)"><tspan x="0" y="0">T</tspan></text>
        <text class="cls-2" transform="translate(67.54 23.2) rotate(5.93)"><tspan x="0" y="0">E</tspan></text>
        <text class="cls-2" transform="translate(76.24 24.08) rotate(17.34)"><tspan x="0" y="0">A</tspan></text>
        <text class="cls-2" transform="translate(84.6 26.65) rotate(28.65)"><tspan x="0" y="0"> </tspan></text>
        <text class="cls-2" transform="translate(92.27 30.81) rotate(39.91)"><tspan x="0" y="0">☼</tspan></text>
        <text class="cls-2" transform="translate(98.99 36.39) rotate(51.22)"><tspan x="0" y="0"> </tspan></text>
        <text class="cls-2" transform="translate(104.49 43.17) rotate(62.62)"><tspan x="0" y="0">G</tspan></text>
        <text class="cls-2" transform="translate(108.53 50.92) rotate(73.99)"><tspan x="0" y="0">R</tspan></text>
        <text class="cls-2" transform="translate(110.97 59.31) rotate(85.18)"><tspan x="0" y="0">E</tspan></text>
        <text class="cls-2" transform="translate(111.74 68) rotate(96.55)"><tspan x="0" y="0">E</tspan></text>
        <text class="cls-2" transform="translate(110.77 76.68) rotate(107.94)"><tspan x="0" y="0">N</tspan></text>
        <text class="cls-2" transform="translate(108.11 85) rotate(119.24)"><tspan x="0" y="0"> </tspan></text>
        <text class="cls-2" transform="translate(103.87 92.64) rotate(130.53)"><tspan x="0" y="0">☼</tspan></text>
        <text class="cls-2" transform="translate(98.22 99.3) rotate(141.83)"><tspan x="0" y="0"> </tspan></text>
        <text class="cls-2" transform="translate(91.37 104.72) rotate(153.25)"><tspan x="0" y="0">T</tspan></text>
        <text class="cls-2" transform="translate(83.6 108.68) rotate(164.58)"><tspan x="0" y="0">H</tspan></text>
        <text class="cls-2" transform="translate(75.19 111.03) rotate(175.78)"><tspan x="0" y="0">A</tspan></text>
        <text class="cls-2" transform="translate(66.46 111.71) rotate(-172.81)"><tspan x="0" y="0"> </tspan></text>
        <text class="cls-2" transform="translate(57.8 110.65) rotate(-161.43)"><tspan x="0" y="0">C</tspan></text>
        <text class="cls-2" transform="translate(49.51 107.9) rotate(-150.14)"><tspan x="0" y="0">H</tspan></text>
        <text class="cls-2" transform="translate(41.92 103.57) rotate(-138.87)"><tspan x="0" y="0">A</tspan></text>
        <text class="cls-2" transform="translate(35.33 97.86) rotate(-127.56)"><tspan x="0" y="0">I</tspan></text>
        <text class="cls-2" transform="translate(29.97 90.94) rotate(-116.13)"><tspan x="0" y="0"> </tspan></text>
        <circle class="cls-4" cx="67.52" cy="67.52" r="62.5"/>
        <circle class="cls-3" cx="67.52" cy="67.52" r="58.92"/>
      </g>
      <path class="cls-1" d="m96.04,80.15c-.84-1.08-1.72-2.12-2.58-3.18-.98-1.21-1.94-2.43-2.94-3.62-1.77-2.1-3.67-4.19-6.23-5.31-1.46-.64-3.03-.96-4.62-1.15-1.12-.13-2.24-.2-3.36-.23-1.77-.04-3.52.07-5.25.29.32-.39.63-.78.94-1.18.66-.91,1.19-1.9,1.64-2.92.35-.79.65-1.59.92-2.4.02-.07.04-.14.07-.21.65-1.95,1.27-3.95,1.64-5.97.38-2.09.26-4.12-.19-6.19-.46-2.06-1.26-4.03-2.18-5.91-.92-1.9-1.95-3.71-3.17-5.44-.93-1.3-2.37-2.52-3.96-1.48-.65.42-1.03,1.19-1.42,1.83-.58.94-.99,1.97-1.4,2.99-1.11,2.7-2.17,5.42-3.18,8.17-.36.98-.72,1.99-.99,3-.25.93-.45,1.87-.54,2.81-.07.73-.08,1.47,0,2.22.29,2.7,1.47,5.24,2.75,7.6.59,1.1,1.24,2.15,1.94,3.17-.8-.13-1.6-.26-2.41-.33-1.97-.18-3.95.14-5.87.56-2.08.46-4.18.99-6.17,1.74-1.98.75-3.66,1.91-5.19,3.37-1.53,1.45-2.79,3.17-3.94,4.93-1.15,1.77-2.17,3.59-3.01,5.53-.64,1.47-.93,3.33.78,4.15.7.34,1.55.26,2.3.27,1.1,0,2.2-.18,3.28-.34,2.89-.45,5.76-.96,8.63-1.51,2.69-.52,5.44-1.16,7.67-2.85,2.17-1.65,3.72-3.97,5.09-6.29,1-1.69,1.83-3.46,2.52-5.29.18-.02.35-.1.46-.26.05-.08.1-.16.16-.24.51,1.32.92,2.67,1.5,3.96.81,1.81,2.04,3.39,3.36,4.86,1.42,1.59,2.89,3.17,4.52,4.55,1.62,1.36,3.45,2.26,5.47,2.89,2.01.63,4.12.89,6.22,1.03,2.11.14,4.19.15,6.3-.06,1.59-.16,3.36-.81,3.25-2.7-.04-.78-.52-1.49-.89-2.15-.53-.96-1.23-1.83-1.9-2.69Zm-34.8-.95c-1.39,1.69-3.05,2.93-5.1,3.69-2.04.75-4.24,1.07-6.36,1.46-2.17.4-4.34.76-6.51,1.1-1,.16-2.01.29-3.03.3-.66.02-1.92.15-1.91-.81.01-.82.46-1.64.78-2.37.46-1.03,1.01-2.01,1.59-2.98,1.09-1.82,2.3-3.58,3.71-5.16,1.38-1.55,2.99-2.87,4.89-3.72,1.98-.88,4.14-1.38,6.24-1.88,1.88-.45,3.82-.78,5.76-.65,1.31.1,2.59.36,3.88.57.01.02.02.03.03.04-1.81,1.09-3.57,2.25-5.35,3.38-.67-.21-1.45-.26-2.08-.37-1.39-.25-2.87-.25-4.28-.27-.99,0-.78,1.49.18,1.5,1.14.01,2.27.08,3.4.18.3.03.59.08.89.14-.58.36-1.18.72-1.77,1.08-1.18.69-2.36,1.38-3.54,2.06-.3.01-.65-.16-.94-.24-.5-.14-1.03-.15-1.54-.17-1.05-.05-2.17-.1-3.2.13-.95.21-.77,1.71.18,1.5.98-.21,2.05-.17,3.05-.13.17,0,.34.03.5.06-1.86,1.08-3.71,2.17-5.57,3.26-.85.5.08,1.72.9,1.23,1.77-1.04,3.54-2.07,5.31-3.11-.35.97-.76,1.9-1.4,2.68-.63.75.56,1.71,1.18.97,1.14-1.38,1.64-3.16,2.23-4.82,1.16-.68,2.32-1.36,3.49-2.04.63-.37,1.25-.75,1.87-1.13-.39.87-.76,1.75-1.18,2.6-.41.81-1.42,1.99-1.09,2.95.32.92,1.74.4,1.42-.53.1.29.12-.05.22-.24.09-.17.2-.34.29-.51.28-.49.52-.99.76-1.48.63-1.3,1.14-2.64,1.79-3.93.05-.1.06-.2.06-.3,1.72-1.1,3.42-2.21,5.17-3.26.03.04.07.08.1.12-1.21,3.26-2.86,6.4-5.06,9.08Zm7.04-11.78c0-1.96-.07-3.93-.12-5.89.46-.4.85-.93,1.22-1.38.06-.07.11-.14.17-.21.53-.61,1.01-1.29,1.46-1.98.33-.51.66-1.03.98-1.54.52-.84-.87-1.44-1.37-.63-.29.47-.61.9-.92,1.35-.33.48-.65.99-1,1.46-.18.24-.38.47-.58.69,0-.69-.01-1.38,0-2.08,0-.35,0-.71.01-1.06.02-1.01.03-2.03.04-3.04.16-.27.47-.48.7-.69.38-.35.66-.79.95-1.22.58-.87,1.21-1.81,1.54-2.8.31-.93-1.06-1.54-1.37-.62-.32.95-.91,1.84-1.47,2.68-.1.14-.2.27-.31.41.03-2.15.06-4.31.1-6.46.01-.98-1.5-.83-1.52.13-.03,2.05-.05,4.11-.09,6.16-.64-.79-1.24-1.64-1.56-2.58-.32-.92-1.76-.4-1.44.51.58,1.69,1.86,3.04,2.97,4.41,0,.74-.02,1.47-.03,2.21-.01.61-.02,1.22-.03,1.83,0,.44,0,.89,0,1.34,0,.29,0,.57,0,.85-.34-.49-.67-.98-1-1.47-.2-.29-.41-.58-.61-.88-.49-.77-.98-2.25-1.97-2.46-.95-.2-1.24,1.28-.28,1.48-.2-.04-.13.04-.04.15.05.05.09.11.13.17.1.17.19.35.29.52.27.48.57.95.88,1.42.78,1.2,1.67,2.34,2.43,3.56.06.1.13.16.22.21.04,1.83.1,3.66.11,5.49-.24-.02-.48-.05-.72-.08-1.92-2.53-3.53-5.32-4.59-8.3-.48-1.37-.71-2.74-.7-4.14,0-.71.05-1.41.19-2.14.05-.27.13-.53.19-.8.45-1.85,1.18-3.64,1.85-5.41.78-2.06,1.59-4.1,2.43-6.13.39-.94.8-1.87,1.31-2.75.33-.57.88-1.72,1.68-1.22.69.43,1.17,1.24,1.62,1.9.64.92,1.19,1.9,1.72,2.9.99,1.88,1.87,3.82,2.5,5.85.61,1.98.9,4.05.65,6.11-.26,2.1-.93,4.14-1.57,6.15-.02.05-.03.1-.05.16-.26.83-.56,1.66-.91,2.46-.42.98-.91,1.93-1.52,2.8-.62.88-1.34,1.68-2.04,2.5-.17.03-.34.06-.51.1Zm28.66,18.37c-.72.39-1.66.4-2.45.48-1.12.1-2.25.09-3.37.05-2.13-.07-4.24-.26-6.32-.72-2.03-.45-3.96-1.21-5.63-2.46-1.74-1.29-3.22-2.94-4.68-4.53-1.31-1.42-2.54-2.96-3.36-4.72-.57-1.22-.97-2.49-1.43-3.75,1.85,1.06,3.74,2.05,5.61,3.06.14.69.48,1.39.69,1.99.47,1.34,1.18,2.63,1.86,3.88.47.86,1.68-.04,1.22-.89-.54-1-1.04-2.02-1.5-3.05-.12-.27-.22-.56-.31-.85.61.34,1.21.68,1.8,1.02,1.18.7,2.35,1.39,3.53,2.08.16.27.18.65.25.94.11.5.36.97.59,1.42.47.94.97,1.94,1.67,2.73.65.73,1.87-.16,1.22-.89-.67-.75-1.15-1.7-1.6-2.6-.08-.15-.14-.31-.2-.47,1.85,1.1,3.71,2.19,5.56,3.28.85.5,1.46-.89.63-1.38-1.77-1.04-3.54-2.09-5.31-3.12,1.01-.17,2.03-.27,3.02-.08.96.18,1.21-1.33.27-1.51-1.76-.33-3.56.11-5.3.41-1.16-.69-2.32-1.37-3.48-2.05-.63-.37-1.26-.73-1.9-1.08.95-.09,1.89-.19,2.84-.23.91-.05,2.43.26,3.11-.5.65-.72-.5-1.72-1.16-.98.21-.23-.1-.09-.32-.08-.2,0-.4,0-.59-.01-.55,0-1.11.03-1.66.07-1.44.08-2.86.3-4.3.35-.11,0-.21.04-.29.09-1.86-1-3.73-1.99-5.55-3.04,3.51-.57,7.14-.67,10.64-.05.81.15,1.57.38,2.3.66,1.22.47,2.36,1.11,3.4,2,.63.54,1.21,1.14,1.77,1.76.91,1,1.76,2.06,2.61,3.09,1.4,1.69,2.78,3.41,4.13,5.15.63.8,1.23,1.61,1.74,2.49.33.57,1.06,1.61.22,2.06Z"/>
    </g>
  </g>
</svg>