<?xml version="1.0" encoding="UTF-8"?>
<svg id="_Слой_2" data-name="Слой 2" xmlns="http://www.w3.org/2000/svg" viewBox="0 0 135.03 135.03">
  <defs>
    <style>
      .cls-1, .cls-2 {
        fill: #262626;
      }

      .cls-3 {
        stroke: #262626;
      }

      .cls-3, .cls-4 {
        fill: none;
        stroke-miterlimit: 10;
        stroke-width: .75px;
      }

      .cls-4 {
        stroke: #faf8f8;
      }

      .cls-5 {
        fill: #cfd29d;
      }

      .cls-2 {
        font-family: CourierNewPSMT, 'Courier New';
        font-size: 15px;
      }
    </style>
  </defs>
  <g id="_Слой_1-2" data-name="Слой 1">
    <g>
      <g>
        <circle class="cls-5" cx="67.52" cy="67.52" r="67.5"/>
        <text class="cls-2" transform="translate(24.19 76.55) rotate(-96.08)"><tspan x="0" y="0">☼</tspan></text>
        <text class="cls-2" transform="translate(23.24 68.12) rotate(-85.05)"><tspan x="0" y="0"> </tspan></text>
        <text class="cls-2" transform="translate(23.91 59.7) rotate(-74.01)"><tspan x="0" y="0">O</tspan></text>
        <text class="cls-2" transform="translate(26.2 51.53) rotate(-63.02)"><tspan x="0" y="0">O</tspan></text>
        <text class="cls-2" transform="translate(29.99 43.98) rotate(-52.13)"><tspan x="0" y="0">L</tspan></text>
        <text class="cls-2" transform="translate(35.15 37.25) rotate(-41.16)"><tspan x="0" y="0">O</tspan></text>
        <text class="cls-2" transform="translate(41.49 31.64) rotate(-30.13)"><tspan x="0" y="0">N</tspan></text>
        <text class="cls-2" transform="translate(48.79 27.35) rotate(-19.08)"><tspan x="0" y="0">G</tspan></text>
        <text class="cls-2" transform="translate(56.79 24.53) rotate(-8.21)"><tspan x="0" y="0"> </tspan></text>
        <text class="cls-2" transform="translate(65.15 23.27) rotate(2.77)"><tspan x="0" y="0">T</tspan></text>
        <text class="cls-2" transform="translate(73.61 23.63) rotate(13.83)"><tspan x="0" y="0">E</tspan></text>
        <text class="cls-2" transform="translate(81.86 25.61) rotate(24.84)"><tspan x="0" y="0">A</tspan></text>
        <text class="cls-2" transform="translate(89.55 29.11) rotate(35.74)"><tspan x="0" y="0"> </tspan></text>
        <text class="cls-2" transform="translate(96.45 34.01) rotate(46.67)"><tspan x="0" y="0">☼</tspan></text>
        <text class="cls-2" transform="translate(102.3 40.14) rotate(57.71)"><tspan x="0" y="0"> </tspan></text>
        <text class="cls-2" transform="translate(106.87 47.27) rotate(68.75)"><tspan x="0" y="0">O</tspan></text>
        <text class="cls-2" transform="translate(109.98 55.15) rotate(79.66)"><tspan x="0" y="0">O</tspan></text>
        <text class="cls-2" transform="translate(111.56 63.48) rotate(90.62)"><tspan x="0" y="0">L</tspan></text>
        <text class="cls-2" transform="translate(111.52 71.94) rotate(101.66)"><tspan x="0" y="0">O</tspan></text>
        <text class="cls-2" transform="translate(109.85 80.25) rotate(112.69)"><tspan x="0" y="0">N</tspan></text>
        <text class="cls-2" transform="translate(106.64 88.07) rotate(123.6)"><tspan x="0" y="0">G</tspan></text>
        <text class="cls-2" transform="translate(102 95.14) rotate(134.52)"><tspan x="0" y="0"> </tspan></text>
        <text class="cls-2" transform="translate(96.09 101.23) rotate(145.55)"><tspan x="0" y="0">☼</tspan></text>
        <text class="cls-2" transform="translate(89.14 106.06) rotate(156.6)"><tspan x="0" y="0"> </tspan></text>
        <text class="cls-2" transform="translate(81.4 109.46) rotate(167.46)"><tspan x="0" y="0">T</tspan></text>
        <text class="cls-2" transform="translate(73.14 111.34) rotate(178.43)"><tspan x="0" y="0">H</tspan></text>
        <text class="cls-2" transform="translate(64.67 111.63) rotate(-170.5)"><tspan x="0" y="0">A</tspan></text>
        <text class="cls-2" transform="translate(56.31 110.28) rotate(-159.48)"><tspan x="0" y="0"> </tspan></text>
        <text class="cls-2" transform="translate(48.38 107.37) rotate(-148.56)"><tspan x="0" y="0">C</tspan></text>
        <text class="cls-2" transform="translate(41.11 102.98) rotate(-137.61)"><tspan x="0" y="0">H</tspan></text>
        <text class="cls-2" transform="translate(34.83 97.33) rotate(-126.65)"><tspan x="0" y="0">A</tspan></text>
        <text class="cls-2" transform="translate(29.73 90.56) rotate(-115.58)"><tspan x="0" y="0">I</tspan></text>
        <circle class="cls-4" cx="67.52" cy="67.52" r="62.5"/>
        <circle class="cls-3" cx="67.52" cy="67.52" r="58.92"/>
      </g>
      <path class="cls-1" d="m89.93,58.82c-.06-.66-.15-1.34-.27-2-.25-1.35-.31-3.45-.33-5.4-.02-1.25-.02-2.42-.04-3.3-.02-.82-.06-1.39-.15-1.46-.3-.34-7.13.02-10.16-.52-.58-.1-1.15-.19-1.72-.25-.51-.43-1.05-.83-1.61-1.23-2.53-1.76-7.1-6.84-7.55-6.82-.45-.02-5.02,5.06-7.55,6.82-.49.33-.95.68-1.39,1.04-.67.05-1.33.15-2.01.27-3.03.54-9.86.18-10.16.52-.33.3.03,7.13-.52,10.16-.11.58-.19,1.15-.25,1.72-.43.51-.84,1.05-1.23,1.61-1.76,2.53-6.84,7.1-6.82,7.55-.02.45,5.06,5.02,6.82,7.54.33.48.66.93,1.02,1.36,0,0,.01.02.02.02.06.67.15,1.34.27,2.01.07.37.12.81.16,1.28.31,3.34.06,8.62.36,8.88.3.34,7.13-.03,10.16.52.58.1,1.15.19,1.72.25.51.43,1.05.83,1.61,1.23,2.53,1.76,7.1,6.84,7.55,6.81.45.02,5.02-5.06,7.55-6.81.48-.34.95-.68,1.39-1.04.67-.06,1.33-.15,2.01-.27,3.03-.54,9.85-.19,10.16-.52.33-.31-.03-7.13.52-10.16.1-.58.19-1.15.24-1.72.43-.51.84-1.05,1.23-1.62,1.76-2.53,6.84-7.09,6.82-7.55.03-.45-5.06-5.02-6.82-7.55-.33-.48-.68-.95-1.04-1.39Zm-20.19,12.24c.58,1.11.92,2.33,1.07,3.58-.72-.94-1.29-1.98-1.64-3.11-.04-.13-.11-.24-.19-.31-.25.09-.52.15-.8.18-.03,0-.05,0-.08.01-.07,0-.14,0-.21,0-.04,0-.08,0-.12,0-.33,0-.64-.04-.95-.12h0c-.38,1.21-1,2.31-1.78,3.29.16-1.17.49-2.31,1.04-3.36.03-.06.06-.12.07-.18-.26-.12-.5-.28-.73-.46-.02-.02-.05-.04-.07-.06-.07-.06-.13-.12-.19-.18-.27-.26-.49-.57-.66-.9-1.09.56-2.28.89-3.5,1.03.94-.71,1.98-1.29,3.11-1.64.04-.01.08-.03.11-.05-.1-.34-.15-.7-.15-1.05v-.15c0-.27.06-.52.12-.78.02-.12.02-.24.06-.35-.95-.31-1.82-.81-2.64-1.38-.18-.13-.38-.23-.55-.37.28.04.55.12.83.18.88.18,1.74.44,2.53.86.04.02.08.04.12.05.17-.3.37-.58.62-.82.07-.08.15-.15.23-.22h0c.26-.22.54-.39.84-.53-.3-.57-.53-1.17-.7-1.79-.17-.58-.29-1.17-.36-1.78.34.45.64.92.91,1.41.3.54.55,1.11.74,1.7.03.09.06.15.1.22.28-.07.56-.11.85-.11.11,0,.22,0,.33.02h0c.12,0,.23.06.34.08.22.04.45.08.66.16.02-.04.04-.09.05-.14.08-.23.2-.45.29-.68.38-.93.86-1.81,1.48-2.6-.09.65-.25,1.3-.46,1.92-.16.49-.34.98-.58,1.43-.08.15-.1.3-.09.43.2.14.39.29.56.47.01,0,.02.02.03.02h0c.29.29.52.63.7,1,.09,0,.2-.03.3-.09,1.11-.58,2.33-.92,3.58-1.07-.94.72-1.98,1.29-3.11,1.64-.28.1-.43.27-.47.47.03.15.04.3.05.44.02.05.04.09.07.14-.02.02-.04.04-.07.06v.15c0,.32-.04.63-.12.93.07.08.17.13.3.17,1.2.38,2.3,1,3.28,1.78-1.17-.16-2.31-.5-3.36-1.04-.22-.11-.41-.11-.57-.04-.12.21-.25.41-.41.59-.07.07-.13.15-.21.22-.21.22-.45.4-.71.56.01.06.04.11.07.17Zm1.12,6.13c-.05.74-.16,1.48-.32,2.2-.33,1.5-.93,2.97-1.64,4.32-.29.57-.66,1.05-1.06,1.47-.35-.38-.65-.81-.91-1.31-.71-1.36-1.31-2.83-1.64-4.33-.17-.78-.29-1.6-.33-2.42,1.26-1.21,2.33-2.66,3-4.23.63,1.59,1.67,3.06,2.91,4.29Zm9.45-20.61c-.03.12-.05.23-.08.35-.46,1.47-1.08,2.92-1.9,4.22-.44.68-.93,1.34-1.48,1.95-1.75-.03-3.53.23-5.11.88.35-.83.6-1.71.76-2.62.14-.82.21-1.65.21-2.49.57-.49,1.16-.93,1.78-1.32,1.29-.83,2.75-1.45,4.22-1.9.61-.19,1.2-.28,1.79-.29-.02.4-.09.81-.2,1.22Zm-10.66,3.14c-.65.83-1.21,1.72-1.61,2.67-.17-.42-.37-.83-.58-1.23-.61-1.12-1.41-2.15-2.33-3.06.05-.74.16-1.48.32-2.2.33-1.5.92-2.97,1.63-4.32.3-.56.66-1.05,1.07-1.48.34.39.65.82.91,1.31.71,1.36,1.31,2.82,1.64,4.32.18.79.29,1.61.34,2.42-.5.49-.96,1.02-1.39,1.56Zm-5.33,4.17c-.21-.09-.44-.16-.66-.23-1.4-.49-2.92-.74-4.44-.74-.49-.56-.94-1.16-1.33-1.78-.82-1.29-1.44-2.75-1.9-4.22-.19-.61-.28-1.21-.29-1.79.52.03,1.04.12,1.57.28,1.46.45,2.92,1.07,4.22,1.9.68.44,1.34.93,1.95,1.47-.03,1.55.19,3.12.69,4.56.06.18.11.37.19.54Zm-5.81.71c.51.53,1.07,1.02,1.66,1.46.81.62,1.67,1.15,2.58,1.54-1.58.63-3.05,1.66-4.29,2.91-.74-.06-1.48-.16-2.2-.32-.46-.1-.92-.23-1.38-.38-1.01-.34-2.01-.77-2.94-1.26-.57-.3-1.05-.65-1.47-1.07.39-.35.81-.65,1.31-.91,1.36-.72,2.82-1.31,4.32-1.64.79-.17,1.6-.29,2.42-.33Zm.63,7.6c1.75.04,3.53-.23,5.11-.88-.68,1.57-.98,3.35-.97,5.1-.56.49-1.16.93-1.78,1.32-1.3.82-2.75,1.45-4.22,1.9-.61.19-1.21.28-1.79.29.02-.52.11-1.04.28-1.57.46-1.47,1.07-2.92,1.9-4.22.43-.68.93-1.34,1.47-1.95Zm17.63.17c.49.57.93,1.17,1.33,1.79.83,1.29,1.45,2.74,1.9,4.22.19.61.28,1.2.29,1.79-.52-.03-1.04-.12-1.57-.28-1.46-.45-2.92-1.07-4.22-1.9-.68-.43-1.34-.93-1.95-1.48.03-1.74-.23-3.53-.88-5.11,1.57.67,3.34.98,5.1.97Zm.71-1.67c-1.21-1.26-2.66-2.33-4.23-3,1.58-.63,3.05-1.67,4.29-2.91.75.05,1.48.16,2.2.32,1.5.34,2.97.93,4.32,1.64.57.3,1.05.66,1.47,1.07-.38.34-.81.65-1.31.91-1.36.72-2.82,1.31-4.32,1.64-.79.17-1.6.29-2.42.34Zm2.55-7.2c-.39-.09-.78-.17-1.18-.23.29-.39.57-.79.81-1.19,1.21-1.97,2.27-4.23,2.43-6.54.56.13,1.12.32,1.67.56,1.39.61,2.66,1.46,3.79,2.47.31.27.59.57.86.88.02.32.02.64,0,.96-.09,1.51-.39,3-.94,4.42-.25.64-.54,1.23-.9,1.76-1.77-1.63-4.21-2.53-6.55-3.09Zm.17-15.53c2.52.41,4.92.61,7.4.24-.05.3-.06.61-.09.91-.11,1.11-.11,2.23-.04,3.34.07,1.04.19,2.08.37,3.14.07.43.15.86.23,1.3-.14-.12-.29-.23-.43-.35-1.12-.87-2.38-1.58-3.7-2.11-.24-.1-.49-.2-.74-.29-.37-.12-.76-.22-1.14-.28-.06-.48-.17-.95-.33-1.42,0-.02-.01-.03-.02-.05-.54-1.57-1.36-3.07-2.38-4.38-.06-.08-.12-.16-.19-.23.36.07.71.13,1.06.19Zm-3.57-.57c.24.22.46.44.68.68,1,1.14,1.85,2.4,2.46,3.79.2.46.36.92.48,1.38.05.17.1.34.13.51-.43.02-.86.1-1.29.17-1.95.35-3.84,1.24-5.52,2.27-.33.21-.67.43-.99.66-.07-.48-.15-.95-.26-1.42-.54-2.25-1.39-4.59-2.91-6.34.49-.3,1.02-.56,1.58-.78,1.41-.54,2.91-.85,4.42-.93.41-.03.82-.02,1.23.01Zm-13.92-2.3c2.07-1.49,3.91-3.05,5.4-5.07,1.49,2.02,3.33,3.58,5.4,5.07.35.26.72.5,1.08.75-.19.02-.37.03-.56.05-1.66.22-3.32.7-4.83,1.45-.36.17-.7.38-1.01.61-.38-.29-.79-.55-1.23-.77-1.5-.74-3.16-1.22-4.83-1.44-.1-.01-.19-.02-.29-.03.3-.21.6-.41.88-.62Zm-2.93,2.12c.32-.02.64-.02.96,0,1.51.09,3,.38,4.41.93.64.25,1.23.54,1.77.9-1.64,1.76-2.53,4.21-3.09,6.55-.09.38-.17.77-.23,1.17-.39-.29-.79-.56-1.19-.81-1.97-1.21-4.23-2.27-6.54-2.43.13-.56.32-1.12.57-1.67.61-1.39,1.46-2.65,2.46-3.79.27-.3.57-.59.88-.86Zm-11.47,8.21c.41-2.52.61-4.92.24-7.4,2.48.37,4.88.17,7.39-.23.43-.07.86-.15,1.3-.23-.12.15-.24.29-.35.44-1.03,1.33-1.86,2.84-2.39,4.43-.13.38-.22.76-.29,1.15-.47.06-.94.17-1.41.33-1.59.54-3.11,1.36-4.44,2.39-.08.06-.16.12-.23.19.06-.35.13-.71.19-1.06Zm-.56,3.57c.22-.23.44-.46.68-.68,1.14-1,2.4-1.85,3.79-2.46.63-.28,1.25-.49,1.89-.61.09,2.4,1.19,4.77,2.45,6.81.21.34.43.67.67,1-.48.06-.96.15-1.42.26-2.25.54-4.6,1.39-6.35,2.91-.31-.49-.56-1.02-.78-1.58-.55-1.42-.84-2.91-.93-4.42-.03-.41-.02-.82.01-1.23Zm-2.3,13.92c-1.49-2.08-3.05-3.91-5.06-5.4,2.01-1.49,3.57-3.33,5.06-5.4.26-.35.5-.72.75-1.07.01.18.03.37.05.56.22,1.66.7,3.32,1.45,4.83.18.37.38.7.61,1.01-.29.38-.55.79-.76,1.23-.75,1.51-1.24,3.16-1.45,4.83-.01.1-.02.19-.03.3-.2-.3-.41-.59-.62-.88Zm2.12,1.96c.09-1.5.39-3,.93-4.42.25-.64.54-1.23.9-1.77,1.09,1.01,2.46,1.72,3.88,2.26.88.33,1.78.62,2.67.83.29.07.58.12.87.17.11.02.2.04.31.06-.3.39-.57.78-.82,1.19-1.21,1.98-2.27,4.23-2.43,6.54-.56-.13-1.11-.32-1.67-.57-1.01-.45-1.92-1.05-2.79-1.71-.34-.25-.68-.48-1-.76-.31-.27-.59-.57-.86-.88,0-.19,0-.39,0-.59,0-.12,0-.24,0-.36Zm8.21,12.43c-2.52-.41-4.92-.6-7.4-.23.37-2.47.17-4.88-.24-7.4-.06-.36-.12-.72-.19-1.07-.01-.08-.03-.15-.04-.22.05.05.11.08.16.13.09.08.18.15.28.23,1.33,1.02,2.84,1.86,4.44,2.39.38.13.76.22,1.14.29.06.47.17.95.33,1.42.54,1.59,1.37,3.11,2.39,4.43.07.08.13.16.19.23-.35-.07-.71-.13-1.06-.19Zm3.57.57c-.24-.21-.46-.44-.68-.68-1-1.14-1.85-2.4-2.46-3.79-.28-.63-.49-1.26-.62-1.89,2.41-.1,4.77-1.19,6.82-2.45.34-.21.67-.43,1-.67.06.48.15.96.26,1.42.54,2.25,1.39,4.6,2.91,6.34-.49.3-1.02.57-1.59.78-1.42.55-2.91.85-4.42.94-.41.02-.82.02-1.23-.02Zm13.92,2.31c-2.07,1.49-3.91,3.05-5.4,5.06-1.49-2.01-3.33-3.57-5.4-5.06-.35-.26-.71-.51-1.08-.75.18-.01.37-.03.56-.06,1.67-.22,3.32-.7,4.83-1.44.36-.18.69-.38,1.01-.61.38.29.79.55,1.23.77,1.51.74,3.17,1.23,4.83,1.44.1.02.19.02.3.03-.3.21-.59.41-.88.62Zm2.92-2.12c-.32.01-.64.01-.96,0-1.51-.09-3.01-.39-4.42-.94-.64-.25-1.24-.54-1.77-.9,1.63-1.76,2.53-4.22,3.09-6.55.09-.38.17-.78.23-1.18.39.3.79.57,1.19.82,1.97,1.21,4.23,2.27,6.54,2.43-.13.56-.32,1.12-.57,1.67-.61,1.39-1.46,2.65-2.46,3.79-.27.3-.56.59-.87.86Zm11.47-8.22c-.41,2.52-.61,4.92-.23,7.4-2.48-.37-4.88-.18-7.4.23-.43.07-.86.15-1.29.23.12-.14.23-.29.35-.44,1.03-1.33,1.86-2.84,2.39-4.43.13-.38.22-.76.29-1.15.47-.06.94-.17,1.41-.33,1.59-.54,3.11-1.37,4.44-2.39.08-.06.15-.13.23-.19-.07.35-.13.7-.19,1.06Zm.56-3.57c-.21.24-.44.47-.68.68-1.13,1-2.4,1.85-3.79,2.46-.63.28-1.25.49-1.88.61-.1-2.4-1.19-4.77-2.45-6.82-.21-.34-.43-.66-.67-.99.49-.06.96-.15,1.42-.26,2.25-.54,4.6-1.39,6.34-2.91.31.48.56,1.01.79,1.58.55,1.42.84,2.91.94,4.42.02.41.01.82-.02,1.22Zm7.37-8.52c-2.01,1.49-3.57,3.33-5.06,5.4-.26.35-.51.72-.75,1.08-.02-.19-.04-.37-.06-.56-.21-1.67-.7-3.33-1.45-4.83-.17-.36-.38-.7-.6-1.01.29-.39.55-.79.77-1.23.74-1.51,1.23-3.16,1.44-4.83.01-.1.02-.19.03-.3.21.3.41.59.62.88,1.49,2.07,3.05,3.91,5.06,5.4Z"/>
    </g>
  </g>
</svg>