<?xml version="1.0" encoding="UTF-8"?>
<svg id="_Слой_2" data-name="Слой 2" xmlns="http://www.w3.org/2000/svg" viewBox="0 0 135.03 135.03">
  <defs>
    <style>
      .cls-1, .cls-2 {
        fill: #262626;
      }

      .cls-3 {
        stroke: #262626;
      }

      .cls-3, .cls-4 {
        fill: none;
        stroke-miterlimit: 10;
        stroke-width: .75px;
      }

      .cls-5 {
        fill: #dab8ac;
      }

      .cls-4 {
        stroke: #faf8f8;
      }

      .cls-2 {
        font-family: CourierNewPSMT, 'Courier New';
        font-size: 15.09px;
      }
    </style>
  </defs>
  <g id="_Слой_1-2" data-name="Слой 1">
    <g>
      <g>
        <circle class="cls-5" cx="67.52" cy="67.52" r="67.5"/>
        <text class="cls-2" transform="translate(24.18 76.54) rotate(-96.04)"><tspan x="0" y="0">☼</tspan></text>
        <text class="cls-2" transform="translate(23.23 67.86) rotate(-84.67)"><tspan x="0" y="0"> </tspan></text>
        <text class="cls-2" transform="translate(24.01 59.16) rotate(-73.27)"><tspan x="0" y="0">R</tspan></text>
        <text class="cls-2" transform="translate(26.5 50.78) rotate(-61.95)"><tspan x="0" y="0">E</tspan></text>
        <text class="cls-2" transform="translate(30.57 43.07) rotate(-50.72)"><tspan x="0" y="0">D</tspan></text>
        <text class="cls-2" transform="translate(36.08 36.28) rotate(-39.38)"><tspan x="0" y="0"> </tspan></text>
        <text class="cls-2" transform="translate(42.8 30.72) rotate(-28)"><tspan x="0" y="0">T</tspan></text>
        <text class="cls-2" transform="translate(50.49 26.6) rotate(-16.64)"><tspan x="0" y="0">E</tspan></text>
        <text class="cls-2" transform="translate(58.87 24.06) rotate(-5.43)"><tspan x="0" y="0">A</tspan></text>
        <text class="cls-2" transform="translate(67.54 23.2) rotate(5.93)"><tspan x="0" y="0"> </tspan></text>
        <text class="cls-2" transform="translate(76.24 24.08) rotate(17.34)"><tspan x="0" y="0">☼</tspan></text>
        <text class="cls-2" transform="translate(84.6 26.65) rotate(28.65)"><tspan x="0" y="0"> </tspan></text>
        <text class="cls-2" transform="translate(92.27 30.81) rotate(39.91)"><tspan x="0" y="0">R</tspan></text>
        <text class="cls-2" transform="translate(98.99 36.39) rotate(51.22)"><tspan x="0" y="0">E</tspan></text>
        <text class="cls-2" transform="translate(104.49 43.17) rotate(62.62)"><tspan x="0" y="0">D</tspan></text>
        <text class="cls-2" transform="translate(108.53 50.92) rotate(73.99)"><tspan x="0" y="0"> </tspan></text>
        <text class="cls-2" transform="translate(110.97 59.31) rotate(85.18)"><tspan x="0" y="0">☼</tspan></text>
        <text class="cls-2" transform="translate(111.74 68) rotate(96.55)"><tspan x="0" y="0"> </tspan></text>
        <text class="cls-2" transform="translate(110.77 76.68) rotate(107.94)"><tspan x="0" y="0">T</tspan></text>
        <text class="cls-2" transform="translate(108.11 85) rotate(119.24)"><tspan x="0" y="0">H</tspan></text>
        <text class="cls-2" transform="translate(103.87 92.64) rotate(130.53)"><tspan x="0" y="0">A</tspan></text>
        <text class="cls-2" transform="translate(98.22 99.3) rotate(141.83)"><tspan x="0" y="0"> </tspan></text>
        <text class="cls-2" transform="translate(91.37 104.72) rotate(153.25)"><tspan x="0" y="0">C</tspan></text>
        <text class="cls-2" transform="translate(83.6 108.68) rotate(164.58)"><tspan x="0" y="0">H</tspan></text>
        <text class="cls-2" transform="translate(75.19 111.03) rotate(175.78)"><tspan x="0" y="0">A</tspan></text>
        <text class="cls-2" transform="translate(66.46 111.71) rotate(-172.81)"><tspan x="0" y="0">I</tspan></text>
        <text class="cls-2" transform="translate(57.8 110.65) rotate(-161.43)"><tspan x="0" y="0"> </tspan></text>
        <text class="cls-2" transform="translate(49.51 107.9) rotate(-150.14)"><tspan x="0" y="0">T</tspan></text>
        <text class="cls-2" transform="translate(41.92 103.57) rotate(-138.87)"><tspan x="0" y="0">E</tspan></text>
        <text class="cls-2" transform="translate(35.33 97.86) rotate(-127.56)"><tspan x="0" y="0">A</tspan></text>
        <circle class="cls-4" cx="67.52" cy="67.52" r="62.5"/>
        <circle class="cls-3" cx="67.52" cy="67.52" r="58.92"/>
      </g>
      <g>
        <path class="cls-1" d="m64.42,48.21c.72.57,2.04.33,2.87.31.58-.01,1.15-.06,1.72-.13.42-.05.83-.01,1.25-.05.84-.1,1.47-.68,1.44-1.54-.02-.79-.76-1.62-1.17-2.24-.3-.46-.59-.92-.88-1.39-.33-.53-.76-.99-1.09-1.52-.19-.29-.48-.36-.74-.28-.23-.05-.48.01-.68.24-1.24,1.47-2.65,3.03-3.19,4.91-.18.6-.05,1.28.45,1.68Zm.94-1.31c.04-.22.13-.43.22-.63.52-1.17,1.37-2.2,2.2-3.18.31.43.64.85.93,1.3.39.62.8,1.25,1.2,1.86.12.18.28.39.34.61-.02,0-.05.02-.08.04-.17.04-.36.03-.53.03-.73,0-1.46.11-2.19.14-.41.02-.82.02-1.23.02-.28,0-.61.05-.88-.03.03,0,0-.04.03-.17Z"/>
        <path class="cls-1" d="m90.61,88.01c1.9-.31,3.78-.4,5.65-.93,1.38-.4,2.76-1.24,2.57-2.85-.13-1.2-1.05-2.22-1.68-3.19-1.09-1.69-2.01-3.48-3.04-5.2-1.06-1.74-2.29-3.37-3.6-4.94-1.29-1.54-2.61-3.11-4.13-4.44-2.66-2.34-6.29-2.88-9.65-2.06.28-.31.54-.64.79-.99,2.19-3.14,1.88-7.23,1.21-10.83-.37-1.98-.98-3.9-1.9-5.69-.91-1.77-2.05-3.38-3.23-4.97-1.14-1.55-2.09-3.18-3.42-4.59-.99-1.05-2.36-1.88-3.71-.99-1.01.67-1.49,1.95-2.07,2.96-.99,1.74-2.17,3.37-3.22,5.09-1.04,1.69-1.9,3.49-2.67,5.32-.02.05-.05.1-.07.15-.42.98-.83,1.98-1.2,3-.33.89-.62,1.79-.85,2.71-.85,3.41.3,6.85,2.53,9.45-.24-.06-.49-.1-.73-.15-3.78-.62-7.34,1.42-10.29,3.58-1.62,1.18-3.1,2.58-4.31,4.17-1.2,1.58-2.16,3.3-3.09,5.05-.9,1.7-1.96,3.26-2.66,5.07-.52,1.35-.67,2.94.71,3.77,1.04.62,2.41.5,3.56.59,2,.15,3.98.51,5.98.71,2.03.21,4.08.21,6.12.11,2.01-.09,4.06-.2,6.03-.61,3.78-.77,6.55-3.74,7.79-7.28.39-1.12.51-2.27.44-3.43-.13-2.22-1.01-4.41-2.28-6.23-.01-.02-.03-.04-.05-.06-.02-.03-.03-.05-.05-.08-.27-.38-.56-.75-.85-1.11-.27-.32-.55-.62-.84-.92.15.03.3.04.45.07.96.15,1.94.19,2.9.13.45-.04.9-.08,1.34-.15.03,0,.05-.01.08-.02.03,0,.06,0,.09-.01.79-.13,1.57-.32,2.32-.57-1.03,1.25-1.8,2.74-2.29,4.26,0,0,0,.02-.01.02-.01.03-.01.05-.02.08-.01.03-.02.05-.03.08-.48,1.5-.74,3.07-.71,4.62.03,1.7.39,3.37,1.21,4.93.43.82.98,1.52,1.6,2.14,1.06,1.05,2.34,1.86,3.72,2.51,1.21.57,2.5,1.02,3.75,1.4,1.92.58,3.92.91,5.93.92,1.98,0,3.94-.28,5.89-.59Zm-24.67-15.21c.76,1.56,1.22,3.26,1.11,4.99-.12,1.79-1.07,3.61-2.17,4.99-1.24,1.57-2.89,2.61-4.82,3.09-1.99.48-4.11.53-6.14.62-2.04.09-4.08.06-6.11-.15-1.95-.2-3.89-.55-5.85-.69-.8-.06-2.47.15-3-.63-.36-.54.15-1.63.36-2.14.34-.84.78-1.63,1.21-2.43.93-1.66,1.87-3.34,2.85-4.98,1.01-1.67,2.21-3.15,3.65-4.47,1.47-1.36,3.16-2.45,4.92-3.39,1.62-.88,3.26-1.5,5.12-1.43,1.19.04,2.32.36,3.36.87-1.05-.06-2.11.06-3.11.26-3.26.66-6.02,2.66-6.97,5.95-.9,3.12.23,6.81,2.75,8.86,2.5,2.03,6.69,2.23,8.7-.56,2.08-2.88-.09-7.59-3.38-8.32-1.8-.4-3.62.78-3.97,2.61-.35,1.81,1.65,2.77,3.08,3.16.91.25,1.25-1.15.35-1.39-.6-.16-1.22-.37-1.7-.79-.62-.54-.13-1.31.33-1.79,1.13-1.16,3.05.02,3.75,1.08.76,1.16,1.08,2.64.66,3.99-.52,1.65-2.32,2.17-3.87,2.09-3.54-.21-5.6-3.72-5.53-6.98.04-1.65.73-3.22,1.88-4.39,1.16-1.19,2.74-1.78,4.33-2.13,1.62-.35,3.47-.36,4.98.37,1.51.75,2.52,2.27,3.23,3.73Zm1.16-5.82s-.07,0-.1,0c-.99,0-1.97-.11-2.92-.36-.71-.18-1.41-.43-2.06-.8-1.55-.88-2.8-2.53-3.57-4.1-.87-1.8-1.11-3.74-.7-5.68.1-.5.24-.99.39-1.48.34-1.09.78-2.16,1.22-3.22.16-.37.32-.75.48-1.12.8-1.88,1.71-3.71,2.77-5.45,1.03-1.67,2.17-3.27,3.15-4.98.4-.7.93-2.3,1.86-2.43.64-.09,1.41.84,1.78,1.25.61.67,1.14,1.4,1.66,2.14,1.1,1.55,2.21,3.12,3.26,4.72,1.07,1.63,1.89,3.36,2.46,5.22.59,1.91.84,3.91.93,5.91.09,1.85-.06,3.59-.92,5.24-.55,1.05-1.33,1.94-2.24,2.66.5-.91.86-1.93,1.11-2.92.81-3.22.19-6.58-2.36-8.85-2.42-2.16-6.24-2.74-9.17-1.34-1.33.63-2.45,1.76-3.13,3.07-.82,1.56-1.02,3.38-.12,5.02.76,1.4,2.24,2.15,3.81,2.35,1.93.25,4.01-.36,5.15-1.82,1.14-1.45.86-3.6-.64-4.7-1.49-1.1-3.22.3-4.18,1.41-.61.71.49,1.61,1.1.91.41-.47.86-.94,1.44-1.19.76-.32,1.24.45,1.47,1.07.56,1.52-1.34,2.75-2.59,2.92-.89.12-1.8-.01-2.63-.36-.45-.19-.89-.43-1.25-.77-.91-.84-1-2.05-.7-3.16.12-.43.28-.85.49-1.22,1.72-3.11,5.77-3.45,8.68-1.98,1.47.74,2.59,2.04,3.15,3.58.57,1.56.42,3.25.05,4.83-.38,1.61-1.17,3.28-2.49,4.33-1.29,1.03-3.05,1.28-4.66,1.3Zm14.24,19.84c-1.97-.36-3.86-1.04-5.68-1.87-.49-.23-.96-.47-1.41-.74-1.09-.64-2.06-1.41-2.82-2.49-.69-.98-1.12-2.07-1.34-3.21.58.87,1.32,1.65,2.09,2.33.35.32.73.6,1.12.86,2.31,1.58,5.1,2.16,7.83,1.11,3.03-1.17,5.29-4.29,5.4-7.54.1-3.22-2.26-6.68-5.7-6.6-3.55.08-5.99,4.65-4.59,7.72.77,1.68,2.8,2.41,4.47,1.59,1.66-.82,1.21-3,.66-4.36-.35-.87-1.66-.3-1.31.56.23.58.44,1.19.39,1.83-.06.82-.96.9-1.62.82-1.61-.2-1.83-2.45-1.4-3.64.46-1.31,1.45-2.46,2.78-2.94,1.62-.59,3.14.54,4,1.83,1.98,2.94.42,6.7-2.22,8.62-1.33.97-3,1.36-4.63,1.16-1.65-.21-3.07-1.12-4.31-2.17-.3-.26-.6-.54-.88-.85-.87-.95-1.58-2.09-1.83-3.35-.09-.43-.1-.87-.07-1.3.08-1.23.55-2.45,1.09-3.53.78-1.54,1.86-2.94,3.31-3.89,1.5-.98,3.53-1.33,5.28-1.29,2,.05,3.83.72,5.37,1.99,1.59,1.29,2.91,2.96,4.21,4.52,1.3,1.57,2.51,3.21,3.57,4.96,1.02,1.68,1.91,3.43,2.98,5.07.44.67,1.61,1.88,1.31,2.77-.21.61-1.39.87-1.93,1.01-.88.24-1.77.37-2.67.5-1.89.27-3.79.54-5.69.73-1.94.2-3.85.14-5.77-.21Z"/>
        <path class="cls-1" d="m89.67,84.08c.54-.06,1.09-.11,1.63-.15.62-.05,1.23-.22,1.85-.27.35-.03.54-.26.59-.53.15-.18.21-.43.1-.71-.74-1.77-1.48-3.75-2.9-5.09-.46-.43-1.11-.63-1.7-.37-.84.38-1.22,1.66-1.59,2.42-.25.52-.48,1.05-.67,1.59-.15.39-.37.75-.53,1.14-.3.78-.07,1.61.7,1.99.71.35,1.79.06,2.53-.01Zm-1.91-1.41c.05-.17.14-.34.22-.49.33-.65.57-1.35.88-2.02.18-.37.36-.74.55-1.1.12-.24.23-.57.43-.77-.02.03.03.03.13.1.18.13.32.32.46.48.8,1,1.33,2.22,1.81,3.42-.53.08-1.05.18-1.58.22-.74.06-1.47.14-2.2.22-.22.02-.47.06-.7.02,0-.02,0-.05,0-.09Z"/>
        <path class="cls-1" d="m48.31,79.01c-.23-.35-.37-.75-.59-1.1-.44-.71-1.24-1.03-2-.64-.7.36-1.13,1.39-1.52,2.02-.28.47-.58.92-.87,1.39-.33.53-.56,1.11-.9,1.64-.19.3-.12.58.07.79.05.23.21.42.51.5,1.86.48,3.88,1.08,5.81.76.63-.1,1.18-.5,1.32-1.14.21-.9-.59-1.98-.97-2.72-.26-.52-.55-1.01-.86-1.5Zm.23,3.95c-.21.06-.44.06-.66.07-1.28.04-2.57-.28-3.82-.61.26-.47.49-.95.78-1.4.39-.63.78-1.26,1.16-1.88.11-.19.23-.42.4-.57.02.02.04.04.07.06.1.14.18.31.26.47.32.66.73,1.27,1.08,1.92.19.36.37.73.55,1.1.12.25.32.53.35.81,0-.03-.03.01-.16.05Z"/>
      </g>
    </g>
  </g>
</svg>