<?xml version="1.0" encoding="UTF-8"?>
<svg id="_Слой_2" data-name="Слой 2" xmlns="http://www.w3.org/2000/svg" viewBox="0 0 35 35">
  <defs>
    <style>
      .cls-1 {
        stroke-width: .75px;
      }

      .cls-1, .cls-2 {
        fill: none;
        stroke: #262626;
        stroke-miterlimit: 10;
      }

      .cls-2 {
        stroke-width: .5px;
      }

      .cls-3 {
        fill: #dac2a0;
      }
    </style>
  </defs>
  <g id="_Слой_1-2" data-name="Слой 1">
    <g>
      <g>
        <circle class="cls-3" cx="17.5" cy="17.5" r="17.5"/>
        <circle class="cls-2" cx="17.5" cy="17.5" r="14"/>
      </g>
      <g>
        <g>
          <path class="cls-1" d="m15.77,21.78s2.08,2.11,5.57,3.26c3.14,1.04,4.11-.45,4.04-1.37-.3-3.86-8.07-3.98-8.07-3.98h-.23s-7.78.12-8.07,3.98c-.07.93.9,2.41,4.04,1.37,3.49-1.15,5.57-3.26,5.57-3.26"/>
          <path class="cls-1" d="m12.91,17.98v-1.83c0-2.54,2.06-4.59,4.59-4.59s4.59,2.06,4.59,4.59v1.83"/>
          <path class="cls-1" d="m12.91,17.35v.63c0,1.08-.87,1.95-1.95,1.95s-1.95-.87-1.95-1.95v-.63"/>
          <path class="cls-1" d="m22.09,17.35v.63c0,1.08.87,1.95,1.95,1.95s1.95-.87,1.95-1.95v-.63"/>
          <path class="cls-1" d="m19.62,9.58c0,1.09-.89,1.98-1.98,1.98s-1.98-.89-1.98-1.98.89-1.98,1.98-1.98,1.98.89,1.98,1.98Z"/>
        </g>
        <g>
          <path class="cls-1" d="m17.5,18.02s.55-2.38,3.23-2.24c0,0-.28,2.29-3.23,2.24Z"/>
          <path class="cls-1" d="m17.5,18.02s-.55-2.38-3.23-2.24c0,0,.28,2.29,3.23,2.24Z"/>
          <path class="cls-1" d="m16.92,16.89c-.57-1.76.64-2.8.64-2.8.78,1.04.79,2,.59,2.7"/>
        </g>
      </g>
    </g>
  </g>
</svg>