<?xml version="1.0" encoding="UTF-8"?>
<svg id="_Слой_2" data-name="Слой 2" xmlns="http://www.w3.org/2000/svg" viewBox="0 0 35 35">
  <defs>
    <style>
      .cls-1 {
        fill: #262626;
      }

      .cls-2 {
        fill: none;
        stroke: #262626;
        stroke-miterlimit: 10;
        stroke-width: .5px;
      }

      .cls-3 {
        fill: #e8dedf;
      }
    </style>
  </defs>
  <g id="_Слой_1-2" data-name="Слой 1">
    <g>
      <g>
        <circle class="cls-3" cx="17.5" cy="17.5" r="17.5"/>
        <circle class="cls-2" cx="17.5" cy="17.5" r="14"/>
      </g>
      <g>
        <path class="cls-1" d="m18.33,25.92s.07.02.1.03c.53.14,1.13-.2,1.58-.89.53-.81,1.03-1.64,1.5-2.49,1.89-3.42,3.25-7.1,4.06-10.95.02-.09,0-.19-.05-.26-.12-.2-.32-.31-.55-.33-.41-.02-.84.28-1.09.59-2.03,2.5-3.66,5.3-4.85,8.32-.09.24-.21.5-.33.78-.24.57-.51,1.2-.72,1.83-.36-1.87-1-3.51-1.91-4.92-1.49-2.29-3.75-4.03-5.76-5.56-.09-.07-.22-.09-.33-.05-.11.04-.2.13-.23.25-1.28,4.92,1.44,10.65,6.07,12.76.5.23,1.14.46,1.78.31.05.94.04,1.93-.02,2.98l.68.49c.07-1.01.1-1.97.07-2.88Zm6.47-14.15c-1,4.61-2.81,8.94-5.39,12.9-.29.45-.62.64-.8.59-.03,0-.05-.03-.08-.05,1.33-3.45,2.92-6.83,4.74-10.07l.1-.17c.56-1,1.14-2.03,1.37-3.16.02-.01.05-.03.07-.04Zm-5.45,9.23c.12-.29.24-.56.33-.8.49-1.25,1.06-2.46,1.71-3.63.88-1.59,1.89-3.09,3.03-4.5.03-.04.06-.07.1-.1-.25,1.03-.79,1.98-1.31,2.91l-.1.17c-1.79,3.2-3.37,6.55-4.7,9.97-.05-.12-.08-.27-.09-.46-.06-1,.55-2.42,1.03-3.57Zm-3.88-2.98c.86,1.34,1.47,2.89,1.81,4.67-1.45-2.47-2.88-4.99-4.27-7.5.92.85,1.77,1.77,2.45,2.82Zm-5.15-5.04c.78.6,1.56,1.2,2.29,1.85,1.54,2.8,3.13,5.6,4.75,8.35.05.29.09.58.12.87-.55-1.09-1.31-2.14-2.06-3.16-.26-.35-.51-.7-.75-1.04-.51-.72-.95-1.5-1.38-2.26-.3-.52-.61-1.06-.94-1.58-.63-1-1.36-1.96-2.07-2.89,0-.05.02-.1.03-.16Zm5.8,11.4c-3.3-1.5-5.56-4.97-5.92-8.57.41,1.18.87,2.36,1.51,3.45.62,1.04,1.45,2.08,2.54,3.16.81.8,1.67,1.54,2.58,2.21-.25-.05-.5-.15-.71-.25Zm1.41.23c-.11.04-.23.06-.34.06-.99-.72-1.94-1.52-2.81-2.38-1.08-1.07-1.9-2.09-2.51-3.12-.75-1.26-1.25-2.67-1.71-4.04-.02-.59.01-1.17.1-1.75.68.89,1.36,1.8,1.96,2.75.33.52.63,1.06.93,1.58.43.76.88,1.54,1.39,2.27.24.34.49.69.75,1.04.85,1.16,1.72,2.35,2.26,3.6,0,0,0,0-.01,0Z"/>
        <path class="cls-1" d="m16.03,15.17c.65.05,1.3-.32,1.61-.88.06-.1.1-.21.13-.32.17-.6-.02-1.3-.49-1.87-.28-.34-.6-.56-.94-.64-.42-.09-.84.05-1.2.4-.51.49-.8,1.31-.68,1.9.15.76.82,1.35,1.57,1.41Zm-.39-2.8c.13-.13.33-.26.55-.21.18.04.37.17.55.39.25.3.48.78.35,1.22-.12.42-.57.72-1,.69-.43-.03-.84-.4-.93-.84-.06-.31.12-.9.48-1.25Z"/>
        <path class="cls-1" d="m19.81,11.23c.03.21.1.4.19.56.33.56,1.08.81,1.71.57.35-.13.65-.4.84-.74.12-.21.19-.44.21-.69.02-.23,0-.44-.08-.62-.15-.41-.54-.72-1.01-.82-.59-.12-1.11,0-1.47.33-.35.33-.49.83-.4,1.4Zm.89-.88c.18-.17.48-.23.84-.15.23.05.42.19.49.37.03.08.04.19.03.31-.03.37-.27.71-.59.82-.31.11-.7-.01-.85-.27-.05-.08-.08-.18-.1-.31-.05-.34.02-.61.19-.77Z"/>
        <path class="cls-1" d="m16.38,8.4c.22.07.47,0,.68-.11.17-.09.34-.2.43-.38.11-.22.06-.51-.08-.71-.14-.21-.36-.35-.59-.46-.88-.44-1.23.93-.72,1.47.08.08.17.15.28.19Z"/>
      </g>
    </g>
  </g>
</svg>