<?xml version="1.0" encoding="UTF-8"?>
<svg id="_Слой_2" data-name="Слой 2" xmlns="http://www.w3.org/2000/svg" viewBox="0 0 35 35">
  <defs>
    <style>
      .cls-1 {
        fill: #262626;
      }

      .cls-2 {
        fill: none;
        stroke: #262626;
        stroke-miterlimit: 10;
        stroke-width: .5px;
      }

      .cls-3 {
        fill: #dab8ac;
      }
    </style>
  </defs>
  <g id="_Слой_1-2" data-name="Слой 1">
    <g>
      <g>
        <circle class="cls-3" cx="17.5" cy="17.5" r="17.5"/>
        <circle class="cls-2" cx="17.5" cy="17.5" r="14"/>
      </g>
      <g>
        <path class="cls-1" d="m16.09,10.19c.27.22.77.12,1.08.12.22,0,.43-.02.65-.05.16-.02.31,0,.47-.02.32-.04.55-.26.54-.58,0-.3-.29-.61-.44-.85-.11-.17-.22-.35-.33-.52-.12-.2-.29-.37-.41-.57-.07-.11-.18-.13-.28-.1-.09-.02-.18,0-.26.09-.47.55-1,1.14-1.2,1.85-.07.23-.02.48.17.63Zm.35-.5c.01-.08.05-.16.08-.24.2-.44.52-.83.83-1.2.12.16.24.32.35.49.15.24.3.47.45.7.05.07.1.15.13.23,0,0-.02,0-.03.01-.07.01-.13.01-.2.01-.28,0-.55.04-.83.05-.15,0-.31,0-.46,0-.1,0-.23.02-.33-.01.01,0,0-.01.01-.06Z"/>
        <path class="cls-1" d="m25.97,25.2c.72-.12,1.43-.15,2.13-.35.52-.15,1.04-.47.97-1.07-.05-.45-.39-.84-.63-1.21-.41-.64-.76-1.31-1.15-1.96-.4-.66-.87-1.27-1.36-1.86-.49-.58-.98-1.17-1.56-1.67-1-.88-2.37-1.09-3.64-.78.11-.12.2-.24.3-.38.83-1.18.71-2.73.46-4.08-.14-.75-.37-1.47-.72-2.15-.34-.67-.77-1.27-1.22-1.87-.43-.58-.79-1.2-1.29-1.73-.37-.39-.89-.71-1.4-.37-.38.25-.56.74-.78,1.12-.37.66-.82,1.27-1.21,1.92-.39.64-.72,1.32-1.01,2.01,0,.02-.02.04-.03.06-.16.37-.31.75-.45,1.13-.12.33-.23.68-.32,1.02-.32,1.29.11,2.58.95,3.56-.09-.02-.18-.04-.28-.06-1.43-.24-2.77.54-3.88,1.35-.61.45-1.17.97-1.63,1.57-.45.59-.81,1.25-1.17,1.9-.34.64-.74,1.23-1,1.91-.2.51-.25,1.11.27,1.42.39.23.91.19,1.34.22.76.06,1.5.19,2.25.27.77.08,1.54.08,2.31.04.76-.03,1.53-.07,2.28-.23,1.42-.29,2.47-1.41,2.94-2.75.15-.42.19-.86.17-1.29-.05-.84-.38-1.66-.86-2.35,0,0-.01-.02-.02-.02,0,0-.01-.02-.02-.03-.1-.14-.21-.28-.32-.42-.1-.12-.21-.24-.32-.35.06.01.11.02.17.03.36.06.73.07,1.1.05.17-.01.34-.03.51-.06,0,0,.02,0,.03,0,.01,0,.02,0,.03,0,.3-.05.59-.12.88-.22-.39.47-.68,1.03-.86,1.61,0,0,0,0,0,0,0,.01,0,.02,0,.03,0,.01,0,.02-.01.03-.18.57-.28,1.16-.27,1.74,0,.64.15,1.27.46,1.86.16.31.37.57.6.81.4.4.88.7,1.4.95.46.21.94.38,1.41.53.72.22,1.48.34,2.24.35.75,0,1.49-.1,2.22-.22Zm-9.3-5.74c.29.59.46,1.23.42,1.88-.05.67-.4,1.36-.82,1.88-.47.59-1.09.98-1.82,1.17-.75.18-1.55.2-2.32.23-.77.03-1.54.02-2.31-.06-.74-.08-1.47-.21-2.21-.26-.3-.02-.93.06-1.13-.24-.13-.2.06-.62.13-.81.13-.32.29-.62.46-.92.35-.63.7-1.26,1.08-1.88.38-.63.83-1.19,1.38-1.69.56-.51,1.19-.92,1.86-1.28.61-.33,1.23-.57,1.93-.54.45.02.88.13,1.27.33-.39-.02-.8.02-1.17.1-1.23.25-2.27,1-2.63,2.24-.34,1.18.08,2.57,1.04,3.34.94.76,2.52.84,3.28-.21.78-1.09-.03-2.86-1.28-3.14-.68-.15-1.37.3-1.5.98-.13.68.62,1.05,1.16,1.19.34.09.47-.43.13-.52-.23-.06-.46-.14-.64-.3-.23-.2-.05-.49.12-.67.42-.44,1.15,0,1.41.41.29.44.41,1,.25,1.5-.19.62-.88.82-1.46.79-1.34-.08-2.11-1.4-2.09-2.63.01-.62.28-1.21.71-1.66.44-.45,1.03-.67,1.63-.8.61-.13,1.31-.14,1.88.14.57.28.95.85,1.22,1.41Zm.44-2.2s-.03,0-.04,0c-.37,0-.74-.04-1.1-.13-.27-.07-.53-.16-.78-.3-.59-.33-1.06-.95-1.35-1.55-.33-.68-.42-1.41-.26-2.14.04-.19.09-.37.15-.56.13-.41.29-.82.46-1.21.06-.14.12-.28.18-.42.3-.71.64-1.4,1.05-2.05.39-.63.82-1.23,1.19-1.88.15-.26.35-.87.7-.92.24-.03.53.32.67.47.23.25.43.53.63.81.42.59.83,1.18,1.23,1.78.4.62.71,1.27.93,1.97.22.72.32,1.48.35,2.23.03.7-.02,1.35-.35,1.98-.21.4-.5.73-.84,1,.19-.34.32-.73.42-1.1.31-1.21.07-2.48-.89-3.34-.91-.81-2.36-1.03-3.46-.51-.5.24-.92.66-1.18,1.16-.31.59-.38,1.28-.04,1.89.29.53.84.81,1.44.89.73.1,1.51-.13,1.94-.69.43-.55.32-1.36-.24-1.77-.56-.42-1.21.11-1.58.53-.23.27.19.61.42.34.15-.18.33-.35.54-.45.29-.12.47.17.55.4.21.58-.5,1.04-.98,1.1-.34.04-.68,0-.99-.13-.17-.07-.33-.16-.47-.29-.34-.32-.38-.77-.26-1.19.04-.16.11-.32.18-.46.65-1.17,2.18-1.3,3.27-.75.56.28.98.77,1.19,1.35.22.59.16,1.22.02,1.82-.14.61-.44,1.24-.94,1.63-.49.39-1.15.48-1.76.49Zm5.37,7.48c-.74-.13-1.46-.39-2.14-.71-.19-.09-.36-.18-.53-.28-.41-.24-.78-.53-1.06-.94-.26-.37-.42-.78-.5-1.21.22.33.5.62.79.88.13.12.28.23.42.32.87.59,1.92.81,2.95.42,1.14-.44,2-1.62,2.04-2.84.04-1.21-.85-2.52-2.15-2.49-1.34.03-2.26,1.76-1.73,2.91.29.63,1.06.91,1.69.6.63-.31.46-1.13.25-1.65-.13-.33-.63-.11-.49.21.09.22.16.45.15.69-.02.31-.36.34-.61.31-.61-.08-.69-.92-.53-1.37.18-.5.55-.93,1.05-1.11.61-.22,1.18.2,1.51.69.75,1.11.16,2.53-.84,3.25-.5.36-1.13.51-1.75.44-.62-.08-1.16-.42-1.63-.82-.11-.1-.23-.2-.33-.32-.33-.36-.6-.79-.69-1.26-.03-.16-.04-.33-.03-.49.03-.47.21-.93.41-1.33.29-.58.7-1.11,1.25-1.47.56-.37,1.33-.5,1.99-.49.75.02,1.44.27,2.03.75.6.49,1.1,1.12,1.59,1.71.49.59.95,1.21,1.35,1.87.38.63.72,1.29,1.12,1.91.16.25.61.71.49,1.04-.08.23-.53.33-.73.38-.33.09-.67.14-1.01.19-.71.1-1.43.2-2.15.28-.73.08-1.45.05-2.18-.08Z"/>
        <path class="cls-1" d="m25.62,23.72c.21-.02.41-.04.62-.06.23-.02.46-.08.7-.1.13-.01.2-.1.22-.2.06-.07.08-.16.04-.27-.28-.67-.56-1.41-1.1-1.92-.17-.16-.42-.24-.64-.14-.32.14-.46.63-.6.91-.1.2-.18.39-.25.6-.06.15-.14.28-.2.43-.11.29-.03.61.27.75.27.13.67.02.95,0Zm-.72-.53c.02-.06.05-.13.08-.18.13-.25.21-.51.33-.76.07-.14.14-.28.21-.42.05-.09.09-.21.16-.29,0,.01.01,0,.05.04.07.05.12.12.17.18.3.38.5.84.68,1.29-.2.03-.4.07-.6.08-.28.02-.55.05-.83.08-.08,0-.18.02-.26,0,0,0,0-.02,0-.03Z"/>
        <path class="cls-1" d="m10.01,21.81c-.09-.13-.14-.28-.22-.42-.17-.27-.47-.39-.76-.24-.26.13-.43.52-.57.76-.11.18-.22.35-.33.52-.13.2-.21.42-.34.62-.07.11-.04.22.02.3.02.08.08.16.19.19.7.18,1.46.41,2.19.29.24-.04.44-.19.5-.43.08-.34-.22-.75-.36-1.03-.1-.19-.21-.38-.32-.57Zm.09,1.49c-.08.02-.17.02-.25.03-.48.01-.97-.11-1.44-.23.1-.18.19-.36.29-.53.15-.24.29-.47.44-.71.04-.07.09-.16.15-.22,0,0,.02.01.03.02.04.05.07.12.1.18.12.25.28.48.41.72.07.14.14.28.21.41.05.09.12.2.13.31,0-.01-.01,0-.06.02Z"/>
      </g>
    </g>
  </g>
</svg>