<?xml version="1.0" encoding="UTF-8"?>
<svg id="_Слой_2" data-name="Слой 2" xmlns="http://www.w3.org/2000/svg" viewBox="0 0 219.53 244.98">
  <defs>
    <style>
      .cls-1 {
        fill: #bee396;
      }

      .cls-2 {
        stroke: #262626;
      }

      .cls-2, .cls-3 {
        fill: none;
        stroke-miterlimit: 10;
        stroke-width: .75px;
      }

      .cls-4 {
        font-size: 17.66px;
      }

      .cls-4, .cls-5 {
        font-family: CourierNewPSMT, 'Courier New';
      }

      .cls-4, .cls-5, .cls-6, .cls-7 {
        fill: #262626;
      }

      .cls-3 {
        stroke: #faf8f8;
      }

      .cls-5 {
        font-size: 18.86px;
      }

      .cls-6 {
        fill-rule: evenodd;
      }

      .cls-8 {
        fill: #f4d555;
      }

      .cls-7 {
        font-family: CourierNewPS-BoldMT, 'Courier New';
        font-size: 50.57px;
        font-weight: 700;
        letter-spacing: -.05em;
      }
    </style>
  </defs>
  <g id="_Слой_1-2" data-name="Слой 1">
    <g>
      <g>
        <g>
          <circle class="cls-8" cx="84.34" cy="84.34" r="84.34"/>
          <text class="cls-5" transform="translate(30.23 72.93) rotate(-72.3)"><tspan x="0" y="0">☼</tspan></text>
          <text class="cls-5" transform="translate(33.5 62.54) rotate(-60.96)"><tspan x="0" y="0"> </tspan></text>
          <text class="cls-5" transform="translate(38.77 52.96) rotate(-49.54)"><tspan x="0" y="0">T</tspan></text>
          <text class="cls-5" transform="translate(45.84 44.63) rotate(-38.22)"><tspan x="0" y="0">H</tspan></text>
          <text class="cls-5" transform="translate(54.36 37.86) rotate(-26.98)"><tspan x="0" y="0">A</tspan></text>
          <text class="cls-5" transform="translate(64.08 32.87) rotate(-15.65)"><tspan x="0" y="0"> </tspan></text>
          <text class="cls-5" transform="translate(74.57 29.88) rotate(-4.27)"><tspan x="0" y="0">C</tspan></text>
          <text class="cls-5" transform="translate(85.44 29.03) rotate(7.09)"><tspan x="0" y="0">H</tspan></text>
          <text class="cls-5" transform="translate(96.27 30.34) rotate(18.28)"><tspan x="0" y="0">A</tspan></text>
          <text class="cls-5" transform="translate(106.65 33.73) rotate(29.66)"><tspan x="0" y="0">I</tspan></text>
          <text class="cls-5" transform="translate(116.16 39.1) rotate(41.07)"><tspan x="0" y="0"> </tspan></text>
          <text class="cls-5" transform="translate(124.42 46.25) rotate(52.38)"><tspan x="0" y="0">B</tspan></text>
          <text class="cls-5" transform="translate(131.1 54.84) rotate(63.62)"><tspan x="0" y="0">A</tspan></text>
          <text class="cls-5" transform="translate(135.99 64.62) rotate(74.96)"><tspan x="0" y="0">L</tspan></text>
          <text class="cls-5" transform="translate(138.87 75.15) rotate(86.36)"><tspan x="0" y="0">I</tspan></text>
          <text class="cls-5" transform="translate(139.59 86.05) rotate(97.73)"><tspan x="0" y="0"> </tspan></text>
          <text class="cls-5" transform="translate(138.17 96.86) rotate(108.91)"><tspan x="0" y="0">☼</tspan></text>
          <text class="cls-5" transform="translate(134.68 107.19) rotate(120.29)"><tspan x="0" y="0"> </tspan></text>
          <text class="cls-5" transform="translate(129.21 116.63) rotate(131.68)"><tspan x="0" y="0">T</tspan></text>
          <text class="cls-5" transform="translate(121.98 124.81) rotate(142.98)"><tspan x="0" y="0">H</tspan></text>
          <text class="cls-5" transform="translate(113.28 131.42) rotate(154.26)"><tspan x="0" y="0">A</tspan></text>
          <text class="cls-5" transform="translate(103.48 136.19) rotate(165.57)"><tspan x="0" y="0"> </tspan></text>
          <text class="cls-5" transform="translate(92.91 138.95) rotate(176.98)"><tspan x="0" y="0">C</tspan></text>
          <text class="cls-5" transform="translate(82.03 139.57) rotate(-171.69)"><tspan x="0" y="0">H</tspan></text>
          <text class="cls-5" transform="translate(71.22 138.03) rotate(-160.49)"><tspan x="0" y="0">A</tspan></text>
          <text class="cls-5" transform="translate(60.9 134.41) rotate(-149.07)"><tspan x="0" y="0">I</tspan></text>
          <text class="cls-5" transform="translate(51.53 128.84) rotate(-137.7)"><tspan x="0" y="0"> </tspan></text>
          <text class="cls-5" transform="translate(43.44 121.53) rotate(-126.41)"><tspan x="0" y="0">B</tspan></text>
          <text class="cls-5" transform="translate(36.92 112.76) rotate(-115.14)"><tspan x="0" y="0">A</tspan></text>
          <text class="cls-5" transform="translate(32.26 102.92) rotate(-103.82)"><tspan x="0" y="0">L</tspan></text>
          <text class="cls-5" transform="translate(29.61 92.35) rotate(-92.44)"><tspan x="0" y="0">I</tspan></text>
          <circle class="cls-3" cx="84.34" cy="84.34" r="78.09"/>
          <circle class="cls-2" cx="84.34" cy="84.34" r="73.62"/>
        </g>
        <path class="cls-6" d="m110.42,117.39c-.01-.15-.09-.3-.18-.42-.78-1.01-1.54-2.03-2.35-3.02-.89-1.08-1.9-2.04-3-2.91-1.07-.84-2.09-1.72-3.16-2.56-1.2-.95-2.42-1.88-3.65-2.79-1.09-.8-2.18-1.63-3.35-2.31-1.68-.98-3.42-1.83-5.14-2.74-.23-.12-.46-.23-.68-.36-.1-.06-.19-.15-.28-.22.81.11,1.58.28,2.36.32,1.47.07,2.94.09,4.41.11,1.4.02,2.79-.02,4.18-.22,1.48-.21,2.94-.53,4.36-.98,1.05-.34,2.1-.69,3.1-1.14,1.22-.55,2.39-1.19,3.56-1.83,2.13-1.16,4.22-2.37,5.97-4.07.66-.64,1.3-1.3,1.93-1.98.29-.31.55-.66.79-1.02.23-.35.1-.75-.27-.93-.16-.08-.33-.12-.5-.18-1.2-.39-2.39-.77-3.59-1.16-.41-.13-.44-.22-.28-.59.03-.07.08-.13.12-.2.44-.88.88-1.76,1.07-2.73.03-.17.06-.35.05-.53-.03-.49-.18-.68-.67-.73-.42-.05-.86-.04-1.29-.04-.22,0-.45.02-.78.05.14-.28.21-.45.31-.62.39-.7.8-1.4,1.17-2.11.2-.38.4-.77.53-1.18.22-.63,0-.92-.65-.96-1.49-.09-2.98,0-4.47.15-.3.03-.6.03-.97.04.19-.62.38-1.14.51-1.67.17-.7.3-1.41.43-2.13.11-.63-.21-1.08-1.01-.97-.96.13-1.94.21-2.97.32.03-.16.07-.33.1-.49.17-.85.35-1.69.5-2.54.04-.21.03-.44-.04-.64-.14-.44-.44-.56-.87-.38-.81.34-1.63.69-2.44,1.02-.32.13-.64.24-1.03.38.03-.92.14-1.75.08-2.56-.06-.82-.29-1.63-.43-2.38-2.01.18-3.94.61-5.81,1.44-.26-1.82-.51-3.54-.75-5.27-.03-.23-.11-.4-.27-.51-.19-.05-.37,0-.56.14-1.44.99-2.88,1.97-4.4,3-.64-1.94-1.62-3.65-2.85-5.26-.65.4-1.4.77-2.05,1.28-.64.5-1.18,1.14-1.84,1.78-.16-.38-.3-.69-.42-1.02-.3-.83-.59-1.66-.89-2.49-.16-.44-.45-.59-.87-.39-.19.09-.37.24-.5.4-.53.69-1.03,1.39-1.54,2.09-.1.13-.2.27-.3.41-.61-.83-1.21-1.6-1.77-2.4-.46-.66-1-.6-1.39-.09-.44.57-.88,1.15-1.28,1.75-.31.45-.56.94-.89,1.5-.23-.28-.44-.5-.62-.74-.89-1.2-1.83-2.35-2.91-3.4-.47-.46-.83-.42-1.15.17-.2.38-.37.78-.51,1.19-.27.76-.51,1.53-.77,2.29-.06.18-.14.36-.25.64-.21-.26-.34-.44-.49-.6-.29-.32-.57-.65-.9-.93-.37-.32-.61-.31-.99,0-.14.11-.25.25-.35.39-.59.8-.95,1.72-1.3,2.63-.03.07-.05.15-.07.22-.16.37-.25.41-.62.19-1.09-.62-2.19-1.24-3.28-1.87-.15-.09-.31-.18-.47-.25-.38-.15-.77.02-.87.43-.1.42-.18.85-.22,1.27-.07.92-.13,1.84-.16,2.76-.07,2.44.44,4.8,1.02,7.16.32,1.3.64,2.6,1.05,3.86.34,1.04.79,2.05,1.25,3.06.62,1.36,1.37,2.65,2.21,3.88.79,1.16,1.69,2.22,2.65,3.23,1.01,1.07,2.01,2.15,3.06,3.18.55.55,1.2,1,1.83,1.52-.12-.02-.24-.02-.36-.06-.24-.08-.48-.17-.72-.26-1.83-.65-3.64-1.37-5.49-1.95-1.29-.4-2.63-.64-3.96-.91-1.5-.31-3.01-.57-4.52-.82-1.33-.22-2.68-.38-4.02-.6-1.39-.23-2.78-.32-4.17-.25-1.27.07-2.54.19-3.81.3-.15.01-.32.06-.44.15-.33.26-.3.7.04.95,1.71,1.26,3.54,2.32,5.41,3.31,1.53.81,3.08,1.56,4.63,2.33,1.73.85,3.52,1.56,5.34,2.2,1.95.69,3.96,1.11,5.97,1.56,2.17.49,4.37.8,6.6.77,1.62-.03,3.26-.01,4.87-.36.94-.21,1.78-.63,2.58-1.11.42-.25.41-.68-.05-.85-1.03-.39-1.87-1.07-2.82-1.58-.32-.17-.62-.39-.89-.68.35.13.71.24,1.05.39.97.45,1.94.92,2.82,1.55.2.14.49.18.76.2.2.18.42.38.66.43,1.07.22,2.06.63,3.05,1.04.34.14.67.34,1,.51-.4,0-.76-.07-1.1-.19-1.02-.36-2.09-.52-3.07-1.01-.44-.22-.76.05-.66.54.19.92.44,1.83.92,2.66.82,1.42,1.94,2.62,3.01,3.84,1.48,1.67,3.19,3.08,5.01,4.35,1.69,1.18,3.36,2.38,5.18,3.36,1.7.91,3.43,1.76,5.22,2.46,1.61.63,3.22,1.27,4.84,1.85,1.99.71,4.01,1.35,6.1,1.76.42.08.77-.19.73-.61Zm-5.45-4.41c.15.13.28.29.41.44-.02.02-.04.04-.06.07-.75-.49-1.51-.97-2.26-1.46-.85-.56-1.69-1.14-2.56-1.67-1.73-1.06-3.47-2.08-5.2-3.12-.84-.5-1.71-.97-2.54-1.49-1.13-.7-2.25-1.44-3.37-2.14-.86-.55-1.74-1.07-2.6-1.61-.18-.11-.34-.25-.46-.47.35.18.7.36,1.05.54.57.3,1.14.6,1.71.91,1.61.86,3.23,1.7,4.82,2.59,1.29.71,2.54,1.49,3.8,2.24.52.31,1.05.62,1.57.93,1.32.77,2.6,1.6,3.73,2.65.62.57,1.31,1.06,1.96,1.6Zm-2.18-2.52c.41.33.81.66,1.22.99-.03.04-.05.08-.08.12-.41-.34-.81-.68-1.22-1.02.02-.03.05-.06.07-.09Zm14.26-20.02c-.14.18-.26.38-.43.53-1.48,1.33-3.03,2.56-4.78,3.52-1.1.6-2.18,1.26-3.27,1.87-1.62.92-3.36,1.5-5.11,2.1-1.4.48-2.85.54-4.29.63-1.21.07-2.43.15-3.65.15-.74,0-1.49-.08-2.22-.23-1.21-.24-2.4-.56-3.6-.86-.06-.02-.12-.07-.17-.22.32,0,.63-.03.95,0,2.54.16,5.07.03,7.58-.39,2.3-.38,4.58-.89,6.83-1.54,1.49-.43,2.98-.88,4.39-1.54,1.47-.69,2.91-1.46,4.35-2.23.79-.43,1.54-.94,2.32-1.4.33-.19.69-.33,1.03-.5.02.04.04.07.07.1Zm-20.48,5.8c2.91-.43,5.81-.96,8.66-1.73,1.25-.34,2.47-.79,3.69-1.23,1.16-.42,2.32-.87,3.47-1.32.66-.26,1.29-.58,1.94-.86.13-.06.28-.08.42-.12.02.05.03.1.05.15-.65.36-1.29.74-1.95,1.08-1.31.67-2.64,1.31-3.96,1.96-1.31.65-2.71,1.05-4.11,1.45-2.45.71-4.95,1.24-7.48,1.6-1.24.18-2.5.28-3.76.3-1.9.03-3.81-.04-5.71-.07-.51,0-1-.11-1.43-.47.67-.03,1.34-.05,2.01-.09,2.73-.15,5.45-.26,8.16-.66Zm-3.27-.18c.92-.24,1.84-.42,2.73-.73,1.6-.54,3.17-1.15,4.75-1.74,1.17-.44,2.29-1.04,3.54-1.27.93-.17,1.85-.35,2.77-.54,1.23-.24,2.47-.47,3.69-.73,1.15-.24,2.3-.51,3.45-.74.31-.06.61-.32,1.01-.08-3.48,1.69-7,3.16-10.72,4.04-6.37,1.51-10.38,2.07-11.23,1.79Zm24.23-7.15c-2.09.85-4.32,1.09-6.46,1.67-2.14.58-4.32.93-6.64,1.31,1.14-1.18,2.37-1.89,3.85-2.17,2.92-.55,5.85-.88,8.82-.92.14,0,.29.04.43.11Zm-3.16-4.17c-.16.36-.28.65-.41.93-.08.17-.18.35-.28.51-.22.35-.24.36-.74.15.25-.55.9-1.28,1.44-1.6Zm-.65-.17c-.44.49-.85,1-1.31,1.47-.27.28-.57.07-.94-.04.69-.64,1.38-1.15,2.15-1.54.03.04.07.07.1.11Zm-.66-1.5c.24,0,.49-.01.74-.02,0,.04.01.07.02.11-.47.19-.95.38-1.47.58.18-.67.17-.67.71-.67Zm-.8,1.18c.24-.07.46-.21.7-.31.19-.08.39-.13.59-.19.02.04.04.09.06.13-.76.53-1.51,1.06-2.27,1.59-.04-.04-.07-.08-.1-.12.18-.51.45-.93,1.03-1.09Zm1.19,3.17c.77.23,1.54.44,2.31.67.13.04.25.09.38.14,0,.05,0,.1-.01.16-1.44.12-2.88.21-4.31.38-1.41.17-2.81.42-4.33.65.13-.18.19-.28.27-.36.64-.66,1.29-1.32,1.93-1.98.2-.21.41-.26.72-.27,1.06,0,2.05.32,3.04.61Zm-.21-7.38s.05.05.07.07c-.61,1.01-1.25,2.02-1.84,3.05-.48.84-1.01,1.63-1.65,2.35-1.11,1.25-2.27,2.45-3.53,3.54-1.08.94-2.22,1.79-3.45,2.54-.44.27-.92.39-1.43.5-.92.2-1.84.44-2.7.8-1.2.5-2.41.95-3.66,1.26-.9.22-1.8.43-2.69.65-.17.04-.34.06-.53.05.3-.32.73-.38,1.1-.55,1.22-.55,2.45-1.05,3.66-1.62,1.06-.5,2.1-1.05,3.14-1.61,2.29-1.25,4.55-2.56,6.58-4.22,1.53-1.24,2.9-2.63,4.24-4.07.8-.86,1.62-1.71,2.44-2.56.07-.08.17-.13.26-.2Zm-.07-.77c-.09.12-.16.26-.26.38-.67.74-1.34,1.49-2.03,2.22-.94,1-1.88,2.01-2.87,2.96-1.51,1.44-3.16,2.7-4.92,3.82-1.99,1.27-4.07,2.37-6.18,3.43-1.58.8-3.18,1.56-4.86,2.12-1.1.36-2.23.6-3.36.89-.35.09-.71.16-1.06.24l-.05-.15c.98-.53,1.96-1.08,2.96-1.59,2.52-1.29,4.96-2.72,7.3-4.32,1.65-1.13,3.34-2.21,5.01-3.31,2.05-1.35,4.1-2.71,6.14-4.06,1.21-.8,2.42-1.62,3.62-2.42.15-.1.32-.19.55-.19Zm-.27-.57c-.41.31-.81.65-1.24.94-2.23,1.47-4.48,2.92-6.7,4.39-1.07.7-2.1,1.46-3.17,2.16-1.44.95-2.9,1.88-4.35,2.82-.64.42-1.27.86-1.93,1.25-1.42.84-2.85,1.67-4.29,2.47-1.25.69-2.54,1.33-3.81,1.99-.35.18-.7.35-1.07.49-.19.07-.4.06-.6.08,0-.04-.02-.07-.03-.11.11-.08.2-.17.31-.22.39-.18.77-.39,1.18-.53,1.7-.58,2.99-1.79,4.4-2.81.65-.48,1.27-.99,1.89-1.5,1.56-1.28,3.15-2.53,4.54-4.01.38-.4.77-.8,1.09-1.24.99-1.36,2.44-2.08,3.9-2.74,1.29-.58,2.61-1.1,3.94-1.59,1.77-.65,3.56-1.24,5.35-1.85.17-.06.37-.06.6,0Zm-4.99-2.43c.23-.46.44-.95.85-1.3l.12.05c-.26.74-.51,1.48-.77,2.21-.12.36-.35.56-.79.46.04-.54.35-.97.58-1.43Zm.11-.94c-.49.84-.94,1.6-1.4,2.36-.05.08-.13.17-.21.19-.52.14-1.04.26-1.61.28.37-.7,2.41-2.5,3.22-2.83Zm-3.83,2.57s-.08-.05-.12-.07c.36-.81.44-1.77,1.44-2.21.68-.3,1.33-.68,2-1.01.13-.07.29-.09.49-.05-1.27,1.12-2.53,2.23-3.8,3.34Zm1.8-3.78c.47-.14.94-.26,1.42-.35.2-.04.41,0,.64.1-.93.46-1.86.92-2.81,1.4.01-.72.18-.97.75-1.14Zm-4.56,7.88c.44-.65.9-1.28,1.32-1.95.24-.38.47-.63.97-.71,1.32-.2,2.61-.54,3.93-.74,1.28-.19,2.57-.27,3.86-.39.11-.01.22.04.34.11-3.59,1.33-7.23,2.52-10.72,4.16.1-.16.19-.32.3-.48Zm-9.23,1.85c.12-.35.43-.64.69-.92.94-1.02,1.88-2.05,2.87-3.04.87-.87,1.8-1.69,2.7-2.54,1-.94,2-1.88,3.01-2.82.99-.92,1.97-1.84,2.96-2.76-3.43,7.09-12.24,16.04-15.73,18.48.3-.42.61-.84.9-1.28,1.08-1.6,1.96-3.3,2.61-5.12Zm11.79-12.36c-.34.37-.59.68-.88.94-1.95,1.82-3.93,3.61-5.87,5.45-1.04.98-2.03,2.02-3.04,3.03-.33.33-.65.67-.97,1-.04-.02-.07-.04-.1-.05.04-.16.07-.32.13-.47.28-.73.57-1.46.88-2.19.08-.19.2-.39.33-.54,1.06-1.22,2.29-2.27,3.6-3.2,1.87-1.33,3.78-2.6,5.68-3.9.03-.02.07-.02.24-.07Zm-.35-.73c.1-.04.21-.03.35.03-.45.35-.9.73-1.37,1.06-1.04.73-2.11,1.43-3.15,2.16-1.12.79-2.23,1.61-3.32,2.44-.46.35-.88.76-1.32,1.15-.03-.02-.06-.03-.09-.05.04-.23.07-.46.13-.68.21-.73.45-1.46.66-2.2.07-.26.22-.42.42-.6,1.06-.93,2.38-1.36,3.64-1.87,1.33-.54,2.69-.97,4.05-1.44Zm-4.6.46c.99-1.32,1.27-2.98,2.08-4.39.03-.05.09-.07.23-.17.04.53.12.96.09,1.38-.04.82-.13,1.64-.23,2.46-.01.12-.13.29-.24.34-.67.26-1.35.49-2.11.77.08-.19.11-.3.17-.39Zm.96-2.78c-.45,1.18-1.08,2.26-1.82,3.29-.09.12-.2.25-.33.32-.55.26-1.1.5-1.66.74-.03-.03-.06-.06-.09-.09,1.08-1.7,2.44-3.16,3.95-4.55-.02.1-.01.2-.05.29Zm-.18-.91c-1.21,1.4-2.42,2.8-3.69,4.26.01-.66.02-1.28.05-1.9,0-.11.13-.25.23-.31.8-.53,1.6-1.06,2.41-1.58.31-.2.63-.36,1-.47Zm-3.46.37c1.05-.53,2.14-.96,3.3-1.14.03,0,.06.04.15.1-1.14.81-2.39,1.4-3.6,2.28-.03-.38-.06-.68-.05-.98,0-.09.11-.22.2-.26Zm-8.54-6.37c.65.99,1.07,2.08,1.38,3.21.03.1,0,.26-.06.32-.21.2-.46.38-.76.62-.17-1.48-.58-2.8-.74-4.19.1.02.16.02.17.04Zm-.35,1.47c.16.94.32,1.89.46,2.84.02.12,0,.3-.08.38-.43.44-.88.86-1.36,1.32.22-1.91.44-3.75.66-5.59.17.35.26.7.32,1.06Zm-1.12-.58c.04-.09.12-.16.18-.23,0,2.04-.16,4.04-.7,5.98-.04,0-.09,0-.13,0-.19-.57-.39-1.14-.57-1.72-.04-.14-.02-.31.01-.46.26-1.23.64-2.43,1.2-3.56Zm-2.34.49c.54-.62,1.09-1.24,1.66-1.83.3-.3.66-.53,1.08-.86.02.17.05.23.03.28-.49,1.55-1.52,2.88-1.84,4.5-.02.11-.09.2-.17.39-.31-.75-.6-1.41-.85-2.08-.04-.11,0-.31.09-.41Zm-1.83-1.62c.56,1.32,1.17,2.62,1.67,3.96.48,1.28,1.05,2.54,1.08,3.95,0,.27-.02.49-.16.72-.4.65-.78,1.31-1.18,1.97-.12.2-.27.37-.41.55-.03-.01-.06-.03-.09-.04-.01-.58,0-1.17-.05-1.75-.12-1.36-.27-2.73-.44-4.09-.16-1.26-.36-2.52-.53-3.79-.07-.57-.09-1.15-.14-1.73.14.06.22.14.26.24Zm-.66.46c.32,2.27.66,4.54.95,6.82.2,1.6.25,3.21.07,4.82-.02.21-.08.42-.17.61-.33.71-.68,1.42-1.02,2.12-.07.15-.17.28-.26.41-.04-.01-.07-.03-.11-.04.03-.46.06-.93.08-1.39.07-1.43.17-2.86.19-4.28.04-2.67.04-5.34.07-8.01,0-.39.06-.78.1-1.29.08.16.11.19.12.22Zm-.66,3.7c-.02,1.37-.04,2.75-.05,4.12-.01,1.23,0,2.47-.06,3.7-.06,1.39-.19,2.78-.31,4.17-.03.38-.04.81-.22,1.13-.91,1.71-1.57,3.51-2.02,5.38-.12.51-.22,1.02-.34,1.52-.55-4.22.13-16.76,3.04-24.07-.02,1.35-.03,2.7-.05,4.05Zm-3.43-4.91c.25.42.48.85.69,1.29.26.54.18.83-.34,1.32-.29-1.02-.58-2.01-.86-3.01.23.1.4.23.5.4Zm-.69.5c.2.72.37,1.45.6,2.16.34,1.03-.31,1.74-.67,2.55-.04-.01-.09-.03-.13-.04-.03-1.69-.06-3.37-.09-5.06.17.12.25.25.29.39Zm-.8,4.38c-.37-.44-.63-.9-.88-1.38-.04-.07-.02-.2,0-.28.25-.85.51-1.69.79-2.62.31.82.36,3.54.09,4.28Zm-1.56-3.07c.37-.68.74-1.37,1.12-2.06l.12.05c.02.54-.2,1.02-.38,1.51-.18.48-.29,1-.67,1.39-.37-.26-.38-.56-.19-.89Zm-3.01-1.84c.78,1.03,1.59,2.04,2.31,3.11.74,1.11,1.36,2.3,2.11,3.4.29.43.25.77.13,1.2-.21.76-.37,1.53-.55,2.29-.05.18-.1.36-.15.54-1.14-3.68-2.72-7.17-4.16-10.72.13.04.24.09.31.18Zm-.87-.26c.75,1.73,1.53,3.45,2.24,5.19.54,1.31,1.04,2.63,1.48,3.98.5,1.53.95,3.08.61,4.73-.11.54-.14,1.09-.18,1.64-.15,2.02,0,4.04.1,6.05.04.81.08,1.61.17,2.41.19,1.73.17,3.5.89,5.14.17.39.28.82.41,1.23.03.12.03.25.04.38-.03.02-.06.03-.1.05-.12-.17-.27-.32-.35-.5-.15-.37-.26-.74-.36-1.12-.38-1.38-.76-2.76-1.1-4.15-.39-1.6-.73-3.22-1.07-4.84-.16-.75-.26-1.51-.38-2.26-.28-1.71-.58-3.41-.85-5.12-.2-1.26-.34-2.53-.54-3.8-.42-2.64-.86-5.27-1.28-7.91-.08-.51-.1-1.03-.15-1.55.21.13.34.27.41.44Zm-10.72,6.47c.06.13.15.25.19.39.23.67.42,1.35.67,2.01.44,1.16.88,2.31,1.36,3.45.5,1.2.99,2.4,1.59,3.55,1.35,2.62,2.92,5.11,4.56,7.56,1.53,2.27,3.29,4.36,5.01,6.47.42.52.86,1.03,1.29,1.55-.56-.07-.96-.36-1.31-.74-1.3-1.39-2.64-2.75-3.9-4.18-.83-.94-1.6-1.94-2.31-2.98-1.44-2.11-2.73-4.31-3.86-6.6-.64-1.3-1.29-2.61-1.7-4.02-.41-1.42-.83-2.83-1.22-4.25-.2-.72-.35-1.44-.52-2.17.05-.02.1-.04.15-.06Zm.22-.87c.45.14.46.53.62.8.61,1.01,1.18,2.04,1.78,3.05.64,1.08,1.3,2.15,1.95,3.22.49.81.98,1.61,1.47,2.41.67,1.08.98,2.31,1.45,3.47.63,1.56,1.24,3.14,1.91,4.68.37.86.86,1.66,1.31,2.51-.79-.43-3.07-3.78-6.25-9.5-1.86-3.34-3.14-6.93-4.25-10.64Zm9.73-5.32c.22,1.43.43,2.87.65,4.31.38,2.42.76,4.85,1.14,7.27.31,1.98.65,3.95.93,5.93.4,2.81,1,5.57,1.74,8.31.29,1.08.55,2.17.82,3.25l-.15.06c-.18-.31-.37-.62-.54-.94-.54-1.02-1.14-2.02-1.61-3.08-.72-1.62-1.23-3.31-1.71-5.02-.64-2.27-1.23-4.55-1.63-6.88-.36-2.05-.55-4.13-.5-6.21.03-1.37.15-2.74.25-4.11.07-1,.18-1.99.27-2.99.02-.15.07-.3.1-.45.15.17.2.35.23.54Zm-.85-.07c.01.11.04.22.03.32-.08,1.17-.15,2.35-.25,3.52-.16,1.96-.26,3.91-.15,5.88.15,2.63.7,5.17,1.33,7.71.28,1.14.58,2.28.92,3.41.39,1.27.86,2.53,1.27,3.8.12.39.37.74.34,1.18-.13-.13-.23-.28-.32-.43-.45-.81-.89-1.62-1.34-2.43-.62-1.14-1.1-2.33-1.54-3.56-.31-.88-.76-1.72-1.23-2.54-.26-.45-.5-.88-.6-1.39-.27-1.41-.41-2.83-.45-4.26-.05-1.67.05-3.34.23-5,.1-.96.33-1.89.63-2.81.36-1.13.68-2.28,1.01-3.42.03,0,.07,0,.1,0Zm-2.6,1.62c.16.19.32.38.48.56.36.4.37.39-.02.98-.2-.52-.38-1-.56-1.47.03-.02.06-.04.09-.06Zm-.35.66c.08.19.18.37.25.56.09.24.14.5.25.72.26.54.13,1.02-.12,1.49-.05,0-.11,0-.16,0-.12-.92-.24-1.83-.36-2.75.05-.01.09-.03.14-.04Zm-.57.42c.23.83.31,1.68.31,2.63-.32-.2-.68-.28-.66-.67.04-.66.13-1.31.2-1.96.05,0,.1,0,.15,0Zm-.71-.36c.13.61.02,1.58-.21,2.14-.49-.23-.5-.25-.39-.65.05-.19.12-.37.19-.55.12-.29.25-.57.41-.93Zm-3.77,1.04c.12.06.25.11.36.18.68.42,1.36.84,2.05,1.26.89.54,1.79,1.05,2.5,1.84.2.22.31.42.29.71-.06.92-.11,1.84-.17,2.76,0,.11-.04.22-.08.44-.85-1.27-1.61-2.48-2.44-3.63-.84-1.17-1.74-2.29-2.62-3.44.03-.04.07-.08.11-.12Zm-1.07-.32c1.97,2.22,3.71,4.61,5.27,7.14.79,1.28,1.09,2.66.99,4.3-1.28-1.97-2.49-3.82-3.51-5.79-1.02-1.97-2.34-3.78-3.12-5.9.15.06.27.14.37.25Zm11.56,26.55c-1.03-.69-2.07-1.35-3.06-2.08-.59-.44-1.16-.94-1.66-1.48-.82-.9-1.58-1.85-2.35-2.8-.91-1.13-1.84-2.24-2.43-3.6-.73-1.7-1.48-3.38-1.89-5.19-.28-1.22-.52-2.46-.82-3.68-.47-1.94-.61-3.91-.62-5.9,0-.23.07-.45.1-.67.04,0,.08-.01.12-.02.11.36.25.73.33,1.1.19.88.31,1.78.53,2.66.4,1.58.8,3.16,1.28,4.71.46,1.48,1.13,2.88,1.82,4.28,1.04,2.1,2.2,4.12,3.47,6.08,1.38,2.13,2.99,4.09,4.83,5.86.22.22.42.47.63.71-.14.07-.22.07-.28.03Zm-17.91-1.38s-.01.08-.02.12c-.52-.07-1.05-.14-1.58-.21.01-.05.02-.09.04-.14.52.08,1.04.15,1.56.23Zm-3.33.09c.84.12,1.67.3,2.51.37,1.54.13,3.01.51,4.47.97.58.18,1.16.36,1.75.53,1.41.43,2.82.83,4.22,1.3,1.73.58,3.44,1.21,5.16,1.82.61.21,1.22.43,1.82.65.37.13.73.27,1.1.41-.24.06-.45.03-.66-.02-.98-.27-1.96-.56-2.94-.83-1.29-.36-2.58-.68-3.86-1.05-.94-.27-1.87-.59-2.81-.87-1.93-.59-3.87-1.18-5.81-1.74-.98-.29-1.97-.51-2.96-.77-.87-.22-1.74-.45-2.6-.68,0-.03,0-.06,0-.09.2,0,.41-.02.6.01Zm21.85,8.46c-1,.1-2,.06-3,0-1.71-.1-3.4-.3-5.06-.72-2.28-.57-4.56-1.15-6.84-1.76-.95-.25-1.9-.51-2.78-.95-1.22-.62-2.48-1.19-3.69-1.83-1.48-.77-2.93-1.59-4.39-2.4-.15-.08-.27-.2-.4-.3.02-.03.05-.07.07-.11.27.12.53.24.8.35,1.12.47,2.24.96,3.37,1.42,1.51.62,2.93,1.43,4.5,1.92,1.09.33,2.14.76,3.22,1.14.78.28,1.55.57,2.33.81.92.28,1.85.52,2.78.77.72.19,1.44.43,2.17.53,2,.27,4.01.48,6.02.72.52.06,1.04.11,1.56.17-.21.15-.43.21-.65.23Zm3.11-.51c-.51-.02-1.02-.04-1.53-.08-1.17-.11-2.35-.23-3.52-.36-1.13-.12-2.26-.21-3.39-.37-.89-.12-1.78-.3-2.66-.5-.67-.15-1.33-.33-1.99-.53-1.09-.32-2.18-.65-3.26-1-.77-.24-1.52-.54-2.29-.78-1.48-.46-2.93-1.02-4.35-1.66-1.49-.67-3-1.28-4.49-1.93-.57-.24-1.12-.52-1.76-.82.42-.19.74-.12,1.07-.05,1.22.28,2.45.55,3.67.84,1.2.29,2.41.58,3.6.92,1.3.37,2.59.78,3.88,1.18.96.29,1.92.56,2.89.85,1.6.48,3.19.97,4.79,1.43,1.23.35,2.49.58,3.7.99,1.6.54,3.25.87,4.88,1.3.39.11.87.08,1.2.5-.18.02-.31.06-.44.05Zm-.49-1.49c.41.24.8.5,1.2.75-.15.05-.27.06-.37.01-.83-.3-1.67-.6-2.49-.91-1.58-.6-3.14-1.25-4.72-1.82-1.79-.64-3.61-1.22-5.42-1.81-1.74-.56-3.49-1.08-5.23-1.63-.78-.25-1.56-.51-2.35-.76,0-.03.02-.06.03-.09,1.16.22,2.31.45,3.47.65,2.15.35,4.28.81,6.35,1.49,1.71.57,3.41,1.19,5.08,1.86,1.54.63,3.02,1.41,4.46,2.25Zm2.54-5.79c-.33-1.13-.66-2.26-.98-3.39-.1-.36-.22-.72-.25-1.09-.14-1.8-.26-3.6-.37-5.41-.09-1.55-.06-3.1.15-4.64.15-1.09.32-2.17.45-3.26.21-1.73.63-3.41,1.27-5.01.59-1.52,1.31-2.99,2.01-4.46.31-.65.69-1.25,1.04-1.88.06.03.12.05.18.08-.4,1.35-.83,2.69-1.21,4.05-.87,3.13-1.4,6.33-1.71,9.56-.18,1.9-.3,3.8-.4,5.7-.09,1.92-.19,3.85-.02,5.77.12,1.32.31,2.65.13,3.98-.01.1-.05.2-.11.4-.1-.21-.16-.3-.19-.41Zm2.31,5.38c-.05-.47-.1-.82-.12-1.17-.05-.8-.07-1.61-.13-2.41-.12-1.67-.1-3.34.23-4.99.18-.9.39-1.81.54-2.72.26-1.54.82-2.97,1.44-4.4.6-1.38,1.41-2.62,2.14-3.93.93-1.66,1.78-3.36,2.77-4.99.59-.97,1.35-1.83,2.07-2.71.89-1.09,2.06-1.93,2.84-3.13.04-.06.11-.1.18-.15.47-.32.94-.64,1.42-.96.11-.07.21-.16.32-.24.03.05.06.11.08.16-.16.24-.3.51-.48.72-1.67,1.94-3.07,4.07-4.49,6.2-.78,1.18-1.47,2.42-2.14,3.66-.9,1.66-1.8,3.32-2.59,5.03-.61,1.32-1.13,2.68-1.44,4.11-.26,1.21-.59,2.4-.85,3.61-.26,1.25-.48,2.5-.71,3.76-.15.83-.33,1.66-.39,2.5-.05.63-.31,1.17-.47,1.75-.02.07-.09.13-.21.28Zm7.09-13.13c-.75,1.65-1.54,3.27-2.3,4.91-.51,1.1-1.01,2.21-1.52,3.32-.16.36-.34.71-.51,1.06-.26.53-.52,1.05-.79,1.57-.37.71-.73,1.43-1.12,2.13-.05.08-.1.16-.14.24.02-.09.05-.18.08-.27.25-.76.54-1.51.81-2.26.2-.55.41-1.1.62-1.64.14-.37.29-.73.44-1.09.48-1.12.96-2.23,1.43-3.36.7-1.67,1.37-3.35,2.08-5.01.65-1.52,1.34-3.01,2.01-4.51.23-.5.45-1.01.69-1.5.94-1.9,1.88-3.81,2.85-5.69.34-.66.69-1.32,1.03-1.97-.25.7-.5,1.4-.76,2.09-.74,1.99-1.52,3.96-2.28,5.94-.2.51-.43,1.02-.65,1.52-.66,1.51-1.3,3.03-1.98,4.53Zm7.36-17.63c.07-.23.14-.47.19-.71-.14.2-.28.41-.4.62-.75,1.34-1.5,2.67-2.21,4.03-.96,1.85-1.88,3.72-2.8,5.59-.47.95-.89,1.92-1.34,2.88-.39.82-.82,1.61-1.18,2.44-1.03,2.4-2.03,4.82-3.04,7.23-.3.72-.59,1.46-.91,2.18-.47,1.08-.95,2.16-1.45,3.3.13-.84.23-1.61.38-2.38.28-1.42.62-2.84.89-4.27.29-1.49.69-2.94,1.24-4.35.64-1.65,1.34-3.27,2.22-4.82.99-1.74,1.94-3.5,2.98-5.21.72-1.19,1.55-2.32,2.36-3.45.99-1.37,2.03-2.7,3.05-4.05.27-.35.52-.72.78-1.08h0s0,0,0,0c-.09.43-.19.87-.27,1.3-.31,1.66-.59,3.33-.93,4.98-.28,1.36-.56,2.73-.95,4.07-.56,1.92-1.22,3.81-1.84,5.72-.55,1.69-1.28,3.3-2.06,4.89-.67,1.36-1.47,2.63-2.38,3.85-.87,1.17-1.69,2.37-2.55,3.54-.46.63-.97,1.23-1.5,1.89.5-1.14.98-2.22,1.46-3.3.32-.72.67-1.43,1-2.14,1.1-2.37,2.21-4.74,3.29-7.12.37-.82.67-1.68,1.01-2.51.4-.98.84-1.95,1.22-2.94.76-1.94,1.52-3.88,2.24-5.84.53-1.44,1.01-2.9,1.49-4.35Zm-10.37,29.09c-.63.5-1.24,1.02-1.87,1.53-.27.22-.56.42-.94.7.03-.19.03-.28.06-.34.32-.51.55-1.07.98-1.53.57-.62,1.07-1.31,1.58-1.98.77-1.02,1.55-2.02,2.3-3.06.72-1,1.38-2.05,2.1-3.06.85-1.2,1.5-2.5,2.07-3.84.73-1.74,1.35-3.52,1.97-5.3.46-1.34.92-2.68,1.26-4.05.62-2.47,1.25-4.95,1.55-7.49.04-.28.14-.56.21-.85.06-.01.12-.03.18-.04.01.13.02.27.04.4.08.56.16,1.13.25,1.69,0,.08.03.16.01.23-.36,1.38-.2,2.81-.4,4.2-.16,1.13-.29,2.27-.61,3.36-.54,1.83-1.22,3.61-1.82,5.41-.47,1.42-.84,2.86-1.46,4.23-.64,1.42-1.31,2.8-2.28,4.03-.57.73-1.1,1.48-1.64,2.23-.99,1.36-2.21,2.5-3.52,3.53Zm2.72.31c-.1.05-.22.07-.43.14.11-.18.16-.28.23-.35.86-1.04,1.97-1.79,3.03-2.59,1.54-1.17,2.89-2.54,4.25-3.91,1.34-1.35,2.66-2.73,3.94-4.14,2.18-2.41,4.19-4.95,5.91-7.71.75-1.2,1.45-2.42,2.18-3.63.06.03.12.06.18.08-.22.68-.41,1.37-.68,2.03-.62,1.51-1.22,3.03-1.94,4.49-.76,1.55-1.72,3-2.85,4.31-.72.83-1.4,1.69-2.1,2.53-1,1.2-2.12,2.26-3.33,3.24-1.4,1.14-2.82,2.26-4.24,3.37-.29.23-.64.38-.97.55-1.05.53-2.11,1.05-3.17,1.56Zm-2.56,5.78c1.59.5,3.16,1.06,4.67,1.78,1.63.78,3.23,1.61,4.8,2.49,1.9,1.06,3.68,2.33,5.39,3.68.92.73,1.88,1.42,2.82,2.12-.02.03-.03.06-.05.09-.71-.41-1.43-.81-2.14-1.22-1.58-.92-3.14-1.86-4.73-2.76-1.65-.94-3.31-1.89-4.99-2.78-1.49-.79-3.02-1.51-4.53-2.26-.79-.4-1.57-.81-2.35-1.23-.1-.05-.18-.14-.24-.29.45.13.92.24,1.36.38Zm23.31,17.15c-1.58-.53-3.17-1.05-4.73-1.62-1.29-.47-2.55-1.01-3.84-1.5-.93-.36-1.76-.88-2.58-1.41-1.98-1.27-3.94-2.57-5.91-3.87-1.43-.94-2.72-2.06-3.94-3.25-.72-.7-1.42-1.41-2.02-2.22-.13-.18-.23-.38-.27-.64.4.35.79.7,1.18,1.04,1.53,1.32,3.04,2.66,4.59,3.96.57.48,1.23.84,1.86,1.25.81.52,1.61,1.05,2.44,1.53.71.42,1.45.79,2.18,1.18,1.01.53,2.03,1.03,3.01,1.61,1.41.83,2.97,1.33,4.45,2.03,1.1.52,2.21,1.02,3.32,1.53.26.12.53.24.79.35-.01.04-.02.09-.03.12-.17-.03-.34-.04-.5-.09Zm-.9-1.07c-1.49-.67-2.96-1.37-4.45-2.02-1.43-.62-2.81-1.3-4.16-2.09-.69-.41-1.42-.76-2.11-1.17-.99-.57-1.97-1.14-2.94-1.73-.59-.35-1.17-.72-1.73-1.11-.74-.52-1.47-1.05-2.16-1.63-.87-.73-1.71-1.5-2.56-2.25-.88-.78-1.76-1.57-2.64-2.36-.38-.34-.73-.71-1.09-1.07-.09-.09-.15-.21-.25-.36.54-.04.84.33,1.18.55,1.42.91,2.77,1.91,4.25,2.72,1.12.62,2.14,1.39,3.22,2.06,1.42.88,2.85,1.72,4.28,2.58.86.52,1.71,1.04,2.57,1.56,1.16.69,2.34,1.36,3.49,2.08,1.05.65,2.08,1.34,3.1,2.04,1.04.7,2.07,1.43,3.1,2.14.27.19.54.38.68.82-.65-.27-1.22-.49-1.79-.75Z"/>
      </g>
      <g>
        <g>
          <circle class="cls-1" cx="140.53" cy="165.98" r="78.98"/>
          <text class="cls-4" transform="translate(89.74 176.16) rotate(-95.52)"><tspan x="0" y="0">%</tspan></text>
          <text class="cls-4" transform="translate(88.72 166.01) rotate(-84.17)"><tspan x="0" y="0"> </tspan></text>
          <text class="cls-4" transform="translate(89.72 155.82) rotate(-72.76)"><tspan x="0" y="0">F</tspan></text>
          <text class="cls-4" transform="translate(92.72 146.04) rotate(-61.44)"><tspan x="0" y="0">I</tspan></text>
          <text class="cls-4" transform="translate(97.56 137.06) rotate(-50.2)"><tspan x="0" y="0">R</tspan></text>
          <text class="cls-4" transform="translate(104.09 129.18) rotate(-38.87)"><tspan x="0" y="0">S</tspan></text>
          <text class="cls-4" transform="translate(112.01 122.74) rotate(-27.48)"><tspan x="0" y="0">T</tspan></text>
          <text class="cls-4" transform="translate(121.09 117.98) rotate(-16.08)"><tspan x="0" y="0"> </tspan></text>
          <text class="cls-4" transform="translate(130.9 115.11) rotate(-4.89)"><tspan x="0" y="0">O</tspan></text>
          <text class="cls-4" transform="translate(141.08 114.2) rotate(6.49)"><tspan x="0" y="0">R</tspan></text>
          <text class="cls-4" transform="translate(151.21 115.32) rotate(17.85)"><tspan x="0" y="0">D</tspan></text>
          <text class="cls-4" transform="translate(160.95 118.42) rotate(29.17)"><tspan x="0" y="0">E</tspan></text>
          <text class="cls-4" transform="translate(169.91 123.37) rotate(40.44)"><tspan x="0" y="0">R</tspan></text>
          <text class="cls-4" transform="translate(177.72 129.99) rotate(51.78)"><tspan x="0" y="0"> </tspan></text>
          <text class="cls-4" transform="translate(184.05 137.96) rotate(63.14)"><tspan x="0" y="0">%</tspan></text>
          <text class="cls-4" transform="translate(188.71 147.07) rotate(74.51)"><tspan x="0" y="0"> </tspan></text>
          <text class="cls-4" transform="translate(191.47 156.9) rotate(85.7)"><tspan x="0" y="0">D</tspan></text>
          <text class="cls-4" transform="translate(192.28 167.12) rotate(97.11)"><tspan x="0" y="0">I</tspan></text>
          <text class="cls-4" transform="translate(191.05 177.26) rotate(108.5)"><tspan x="0" y="0">S</tspan></text>
          <text class="cls-4" transform="translate(187.84 186.97) rotate(119.8)"><tspan x="0" y="0">C</tspan></text>
          <text class="cls-4" transform="translate(182.78 195.87) rotate(131.09)"><tspan x="0" y="0">O</tspan></text>
          <text class="cls-4" transform="translate(176.1 203.59) rotate(142.39)"><tspan x="0" y="0">U</tspan></text>
          <text class="cls-4" transform="translate(168.02 209.86) rotate(153.81)"><tspan x="0" y="0">N</tspan></text>
          <text class="cls-4" transform="translate(158.88 214.4) rotate(165.14)"><tspan x="0" y="0">T</tspan></text>
          <text class="cls-4" transform="translate(149.02 217.05) rotate(176.34)"><tspan x="0" y="0"> </tspan></text>
          <text class="cls-4" transform="translate(138.8 217.75) rotate(-172.25)"><tspan x="0" y="0">%</tspan></text>
          <text class="cls-4" transform="translate(128.68 216.41) rotate(-160.87)"><tspan x="0" y="0"> </tspan></text>
          <text class="cls-4" transform="translate(119.02 213.09) rotate(-149.58)"><tspan x="0" y="0">N</tspan></text>
          <text class="cls-4" transform="translate(110.18 207.95) rotate(-138.31)"><tspan x="0" y="0">E</tspan></text>
          <text class="cls-4" transform="translate(102.53 201.19) rotate(-127)"><tspan x="0" y="0">W</tspan></text>
          <text class="cls-4" transform="translate(96.34 193.03) rotate(-115.57)"><tspan x="0" y="0">S</tspan></text>
          <text class="cls-4" transform="translate(91.98 183.65) rotate(-105.84)"><tspan x="0" y="0"> </tspan></text>
          <circle class="cls-3" cx="140.53" cy="165.98" r="73.13"/>
          <circle class="cls-2" cx="140.53" cy="165.98" r="68.95"/>
        </g>
        <text class="cls-7" transform="translate(100.02 182.44)"><tspan x="0" y="0">10%</tspan></text>
      </g>
    </g>
  </g>
</svg>