<?xml version="1.0" encoding="UTF-8"?>
<svg id="_Слой_2" data-name="Слой 2" xmlns="http://www.w3.org/2000/svg" viewBox="0 0 35 35">
  <defs>
    <style>
      .cls-1 {
        fill: #262626;
      }

      .cls-2 {
        fill: none;
        stroke: #262626;
        stroke-miterlimit: 10;
        stroke-width: .5px;
      }

      .cls-3 {
        fill: #d0c7bc;
      }
    </style>
  </defs>
  <g id="_Слой_1-2" data-name="Слой 1">
    <g>
      <g>
        <circle class="cls-3" cx="17.5" cy="17.5" r="17.5"/>
        <circle class="cls-2" cx="17.5" cy="17.5" r="14"/>
      </g>
      <path class="cls-1" d="m27.83,19.93c-1.36-.7-2.9-1.06-4.44-1.06.85-.42,1.75-.71,2.7-.74.1,0,.21,0,.33-.07.23-.12.33-.4.27-.76-.21-1.29-1.47-2.32-2.92-2.4-1.19-.07-2.49.47-3.56,1.46-.02.02-.04.04-.06.06.35-.95.85-1.9,1.28-2.68l.07-.12c.35-.62.74-1.33.62-2.1-.01-.07-.05-.13-.12-.17-.06-.03-.14-.04-.2,0-1.37.61-2.59,1.59-3.51,2.8,0-.05,0-.1-.02-.15-.06-.55-.13-1.1-.22-1.65-.04-.3-.09-.56-.23-.81-.12-.22-.28-.23-.36-.22-.14.01-.22.1-.26.14-.31.34-.56.73-.75,1.15-.05-.1-.11-.2-.16-.29-.04-.07-.11-.11-.19-.12-.07,0-.16.04-.2.11-.32.5-.54,1.06-.67,1.65-.05-.08-.09-.15-.14-.22-.5-.75-1.1-1.43-1.67-2.09-.05-.05-.14-.16-.28-.18-.11-.02-.23.02-.31.1-.14.15-.15.39-.12.56.28,1.45.63,3.09,1.25,4.63-1.32-1.11-2.86-1.95-4.34-2.71-.28-.14-.51-.14-.67,0-.11.1-.15.24-.16.34-.11.79.36,1.49.84,2.08.79.95,1.99,2.02,2.91,2.8-1.56-.44-3.34-.59-5.43-.47-.62.04-.98.24-1.09.61-.15.5.26.94,1.08,1.19,1.03.31,2.01.81,2.96,1.29.67.34,1.36.69,2.06.98.77.31,1.57.55,2.39.72.27.05.61.09.96.09.71,0,1.45-.15,1.71-.62.03-.06.05-.12.07-.19.35.19.78.29,1.26.29.11,0,.21,0,.32-.01.89-.08,1.73-.42,2.54-.74.35-.14.71-.29,1.07-.41,1.86-.63,3.92-.67,5.8-.13.11.03.41.12.61-.09.07-.08.11-.18.13-.31.06-.58-.36-1.13-1.17-1.54Zm.68,1.23c-1.14-.49-2.52-.66-4.01-.48-1.42.18-2.8.64-4.09,1.12h-.02c-.83.32-1.69.63-2.53.55.1-.03.21-.06.31-.11.85-.09,1.87-.55,2.95-1.03.98-.44,2-.9,2.88-1.06.52-.09,1.09-.14,1.79-.12.52,0,1.13.04,1.69.24.05.02.09.04.14.07.3.15.76.44.89.82Zm-1.63-1.16c-.37-.06-.74-.08-1.08-.08-.71-.01-1.29.03-1.81.12-.9.16-1.92.62-2.91,1.07-.91.41-1.78.8-2.53.96.53-.28,1.05-.67,1.42-.94l.36-.27c.7-.52,1.42-1.04,2.16-1.49,1.48-.15,3.01.07,4.4.63Zm-6.35-3.31c.98-.91,2.15-1.41,3.22-1.34,1.22.07,2.31.96,2.49,2.02.03.15,0,.26-.04.28-.02.01-.08.01-.14.02-2.27.08-4.17,1.48-6.01,2.82l-.36.27c-.56.42-1.86,1.39-2.46,1.17-.07-.03-.09-.06-.1-.09-.11-.37.62-1.37.93-1.8.11-.16.21-.29.26-.38.64-1.05,1.3-2.13,2.21-2.97Zm-4.36,4.39c-.36-.67-.78-1.18-1.19-1.63-.32-.36-.68-.7-1-.99-1.43-1.35-2.74-2.57-3.99-3.71,1.4.74,2.83,1.56,4.02,2.65,1.3,1.18,2.17,2.59,2.51,4-.11-.11-.23-.21-.35-.31Zm5.35-8.51c-.63.82-1.2,1.7-1.71,2.6-.81,1.46-1.46,3.02-2.08,4.54-.01.02-.02.03-.04.05-.15.21-.3.42-.44.63.11-.57.23-1.14.4-1.69.44-1.4,1.25-2.69,2.05-3.87.64-.93,1.31-1.86,1.97-2.76-.03.17-.08.34-.15.51Zm-.48.94c-.58,1.05-1.28,2.41-1.61,3.7-.52.64-.95,1.33-1.38,2.02.55-1.35,1.14-2.71,1.86-3.99.41-.73.86-1.44,1.35-2.12-.05.09-.1.18-.15.27l-.07.13Zm.58-1.57c-.67.92-1.36,1.87-2.01,2.83-.81,1.19-1.62,2.48-2.06,3.9-.2.65-.33,1.33-.46,1.99-.07.12-.14.24-.2.35-.03-.11-.06-.21-.1-.32,0-.02,0-.04,0-.06-.09-1.38.14-2.78.65-4.06,0,0,0,0,0,0,.17-.43.37-.84.6-1.23.85-1.45,2.11-2.64,3.57-3.38Zm-4.14-.09c.07.16.1.34.13.56.08.54.15,1.09.21,1.63.03.28.05.54-.01.76,0,.01,0,.03,0,.04-.05.08-.1.16-.15.25-.05.09-.1.17-.15.26-.04-.35-.12-.71-.25-1.09-.14-.4-.31-.77-.5-1.14.15-.46.4-.9.72-1.28Zm-.66,2.57c.25.72.31,1.38.2,1.98-.15.37-.27.75-.37,1.14-.05-.27-.11-.54-.19-.8.04-.51-.07-1.01-.17-1.5-.03-.15-.06-.3-.09-.45-.11-.59-.15-1.2-.14-1.8.02-.03.03-.06.05-.09.27.49.54,1,.72,1.54Zm-.88-1.18c0,.52.05,1.05.14,1.56.03.15.06.3.09.46.08.36.15.73.17,1.09-.19-.61-.44-1.21-.74-1.77.04-.46.15-.91.33-1.34Zm-2.78-1.22c.54.62,1.1,1.26,1.56,1.95.16.23.3.48.44.73,0,.03.03.06.05.09.7,1.32,1.11,2.81,1.16,4.3,0,0,0,0,0,0-.02.17-.03.35-.04.52-.38-.73-.9-1.44-1.53-2.09-.88-1.76-1.31-3.76-1.64-5.5,0,0,0,0,0,0Zm-3.91,2.37s.07.01.16.06c.06.03.12.06.18.1,1.34,1.22,2.75,2.53,4.31,4,.31.3.67.63.99.99.35.39.71.82,1.04,1.36-.16-.13-.33-.24-.5-.35-.09-.09-.17-.19-.25-.28-.08-.1-.17-.19-.26-.29-.4-.43-.83-.82-1.26-1.19l-2.19-1.94c-.81-.71-1.64-1.45-2.22-2.39,0,0,0,0,0,0,0,0,0,0,0,0,0-.03,0-.05,0-.06Zm.74,1.78c-.37-.45-.75-.99-.76-1.53.58.89,1.38,1.6,2.16,2.29l2.19,1.94c.42.37.86.76,1.25,1.18.08.09.16.18.24.27-.43-.25-.86-.46-1.27-.63-.81-.63-2.73-2.2-3.82-3.52Zm-2.85,3.08c.47-.03.92-.04,1.35-.04,1.66,0,3.1.21,4.37.62,1.01.33,2.44.96,3.51,2.07.16.17.27.32.35.45,0,.03.02.07.05.09,0,0,0,0,0,0,.04.09.06.16.05.23-.19,0-.38-.07-.55-.15-.35-.16-.68-.36-1.01-.55-.44-.27-.9-.54-1.4-.71-.41-.13-.84-.2-1.25-.25l-.15-.02c-1.2-.17-2.41-.42-3.58-.66-.5-.1-1.01-.21-1.49-.38-.27-.1-.63-.26-.81-.57.14-.09.37-.13.56-.14Zm7.47,3.88c-.79-.16-1.57-.39-2.31-.69-.69-.28-1.37-.63-2.03-.96-.97-.49-1.97-1.01-3.04-1.32-.09-.03-.87-.27-.77-.62,0-.02.02-.04.03-.06.2.32.58.49.86.6.49.18,1.01.29,1.51.39,1.17.24,2.38.49,3.58.66l.15.02c.41.06.84.12,1.23.25.49.16.94.43,1.38.7.33.2.67.4,1.02.56.17.08.37.15.58.16,0,0,0,.02,0,.03-.2.36-1.22.5-2.19.31Zm13.92-1.72s0,.03,0,.03c-.02,0-.06,0-.14-.03-1.97-.57-4.13-.53-6.08.13-.37.13-.74.27-1.09.42-.81.33-1.58.64-2.41.71-.29.03-.92.03-1.39-.27,0,0,0,0,0,0,.03,0,.06,0,.09,0,.21.05.41.07.62.07.78,0,1.55-.29,2.31-.57h.02c1.28-.48,2.66-.94,4.06-1.12,1.5-.19,2.89-.01,4.02.5,0,.04,0,.09,0,.13Z"/>
    </g>
  </g>
</svg>