<?xml version="1.0" encoding="UTF-8"?>
<svg id="_Слой_2" data-name="Слой 2" xmlns="http://www.w3.org/2000/svg" viewBox="0 0 28.29 27">
  <defs>
    <style>
      .cls-1 {
        fill: #7a937e;
      }
    </style>
  </defs>
  <g id="_Слой_1-2" data-name="Слой 1">
    <g>
      <path class="cls-1" d="m19.56,27h-10.84c-4.81,0-8.72-3.91-8.72-8.72v-9.55C0,3.91,3.91,0,8.72,0h10.84c4.81,0,8.72,3.91,8.72,8.72v9.55c0,4.81-3.91,8.72-8.72,8.72ZM8.72,1.94c-3.74,0-6.79,3.04-6.79,6.79v9.55c0,3.74,3.04,6.79,6.79,6.79h10.84c3.74,0,6.79-3.04,6.79-6.79v-9.55c0-3.74-3.04-6.79-6.79-6.79h-10.84Z"/>
      <path class="cls-1" d="m14.14,21.27c-4.28,0-7.77-3.48-7.77-7.77s3.48-7.77,7.77-7.77,7.77,3.48,7.77,7.77-3.48,7.77-7.77,7.77Zm0-13.59c-3.21,0-5.83,2.61-5.83,5.83s2.61,5.83,5.83,5.83,5.83-2.61,5.83-5.83-2.61-5.83-5.83-5.83Z"/>
      <path class="cls-1" d="m23.4,5.97c0,.89-.72,1.61-1.61,1.61s-1.61-.72-1.61-1.61.72-1.61,1.61-1.61,1.61.72,1.61,1.61Z"/>
    </g>
  </g>
</svg>