<?xml version="1.0" encoding="UTF-8"?>
<svg id="_Слой_2" data-name="Слой 2" xmlns="http://www.w3.org/2000/svg" viewBox="0 0 42 42">
  <defs>
    <style>
      .cls-1 {
        fill: none;
        stroke: #ecf0e5;
        stroke-miterlimit: 10;
        stroke-width: 2px;
      }

      .cls-2 {
        fill: #ecf0e5;
      }
    </style>
  </defs>
  <g id="_Слой_1-2" data-name="Слой 1">
    <g>
      <g>
        <path class="cls-2" d="m25.82,33h-9.63c-4.28,0-7.75-3.48-7.75-7.75v-8.49c0-4.28,3.48-7.75,7.75-7.75h9.63c4.28,0,7.75,3.48,7.75,7.75v8.49c0,4.28-3.48,7.75-7.75,7.75Zm-9.63-22.28c-3.33,0-6.03,2.71-6.03,6.03v8.49c0,3.33,2.71,6.03,6.03,6.03h9.63c3.33,0,6.03-2.71,6.03-6.03v-8.49c0-3.33-2.71-6.03-6.03-6.03h-9.63Z"/>
        <path class="cls-2" d="m21,27.9c-3.81,0-6.9-3.1-6.9-6.9s3.1-6.9,6.9-6.9,6.9,3.1,6.9,6.9-3.1,6.9-6.9,6.9Zm0-12.08c-2.86,0-5.18,2.32-5.18,5.18s2.32,5.18,5.18,5.18,5.18-2.32,5.18-5.18-2.32-5.18-5.18-5.18Z"/>
        <path class="cls-2" d="m29.23,14.31c0,.79-.64,1.43-1.43,1.43s-1.43-.64-1.43-1.43.64-1.43,1.43-1.43,1.43.64,1.43,1.43Z"/>
      </g>
      <rect class="cls-1" x="1" y="1" width="40" height="40" rx="3" ry="3"/>
    </g>
  </g>
</svg>