<?xml version="1.0" encoding="UTF-8"?>
<svg id="_Слой_2" data-name="Слой 2" xmlns="http://www.w3.org/2000/svg" viewBox="0 0 251 105">
  <defs>
    <style>
      .cls-1, .cls-2, .cls-3, .cls-4 {
        fill: #262626;
      }

      .cls-2 {
        font-family: KozGoPr6N-Regular-90ms-RKSJ-H, 'Kozuka Gothic Pr6N';
        font-size: 24px;
      }

      .cls-5 {
        fill: #e8dedf;
      }

      .cls-3 {
        font-family: Dreamcast, Dreamcast;
      }

      .cls-4 {
        font-family: CourierNewPSMT, 'Courier New';
        font-size: 11.14px;
      }

      .cls-6 {
        fill: none;
      }

      .cls-6, .cls-7 {
        stroke: #262626;
        stroke-miterlimit: 10;
        stroke-width: 2px;
      }

      .cls-8 {
        font-size: 30px;
      }

      .cls-9 {
        font-size: 12px;
      }

      .cls-7 {
        fill: #fff;
      }
    </style>
  </defs>
  <g id="_Слой_1-2" data-name="Слой 1">
    <g>
      <g>
        <rect class="cls-7" x="1" y="1" width="249" height="103"/>
        <text class="cls-3" transform="translate(12.53 39.31)"><tspan class="cls-8" x="0" y="0">PICK UP </tspan><tspan class="cls-9" x="103.17" y="0"> </tspan><tspan class="cls-9"><tspan x="0" y="14.4">WHICH TEA SUITS YOU</tspan></tspan></text>
        <text class="cls-2" transform="translate(63.53 90.31)"><tspan x="0" y="0">拿起茶</tspan></text>
        <g>
          <circle class="cls-5" cx="190.78" cy="53.32" r="46"/>
          <text class="cls-4" transform="translate(161.43 45.56) rotate(-72.31)"><tspan x="0" y="0">☼</tspan></text>
          <text class="cls-4" transform="translate(163.36 39.42) rotate(-60.96)"><tspan x="0" y="0"> </tspan></text>
          <text class="cls-4" transform="translate(166.48 33.76) rotate(-49.54)"><tspan x="0" y="0">T</tspan></text>
          <text class="cls-4" transform="translate(170.63 28.85) rotate(-38.26)"><tspan x="0" y="0">H</tspan></text>
          <text class="cls-4" transform="translate(175.68 24.84) rotate(-26.99)"><tspan x="0" y="0">A</tspan></text>
          <text class="cls-4" transform="translate(181.41 21.89) rotate(-15.69)"><tspan x="0" y="0"> </tspan></text>
          <text class="cls-4" transform="translate(187.6 20.13) rotate(-4.31)"><tspan x="0" y="0">C</tspan></text>
          <text class="cls-4" transform="translate(194.02 19.62) rotate(7.05)"><tspan x="0" y="0">H</tspan></text>
          <text class="cls-4" transform="translate(200.42 20.39) rotate(18.24)"><tspan x="0" y="0">A</tspan></text>
          <text class="cls-4" transform="translate(206.53 22.37) rotate(29.58)"><tspan x="0" y="0">I</tspan></text>
          <text class="cls-4" transform="translate(212.16 25.54) rotate(40.98)"><tspan x="0" y="0"> </tspan></text>
          <text class="cls-4" transform="translate(217.03 29.74) rotate(52.25)"><tspan x="0" y="0">B</tspan></text>
          <text class="cls-4" transform="translate(221 34.83) rotate(63.53)"><tspan x="0" y="0">A</tspan></text>
          <text class="cls-4" transform="translate(223.89 40.58) rotate(74.83)"><tspan x="0" y="0">L</tspan></text>
          <text class="cls-4" transform="translate(225.6 46.79) rotate(86.22)"><tspan x="0" y="0">I</tspan></text>
          <text class="cls-4" transform="translate(226.05 53.23) rotate(97.59)"><tspan x="0" y="0"> </tspan></text>
          <text class="cls-4" transform="translate(225.23 59.6) rotate(108.73)"><tspan x="0" y="0">☼</tspan></text>
          <text class="cls-4" transform="translate(223.18 65.7) rotate(120.11)"><tspan x="0" y="0"> </tspan></text>
          <text class="cls-4" transform="translate(219.96 71.3) rotate(131.5)"><tspan x="0" y="0">T</tspan></text>
          <text class="cls-4" transform="translate(215.71 76.14) rotate(142.81)"><tspan x="0" y="0">H</tspan></text>
          <text class="cls-4" transform="translate(210.6 80.05) rotate(154.05)"><tspan x="0" y="0">A</tspan></text>
          <text class="cls-4" transform="translate(204.82 82.89) rotate(165.35)"><tspan x="0" y="0"> </tspan></text>
          <text class="cls-4" transform="translate(198.58 84.54) rotate(176.76)"><tspan x="0" y="0">C</tspan></text>
          <text class="cls-4" transform="translate(192.16 84.93) rotate(-171.91)"><tspan x="0" y="0">H</tspan></text>
          <text class="cls-4" transform="translate(185.77 84.05) rotate(-160.7)"><tspan x="0" y="0">A</tspan></text>
          <text class="cls-4" transform="translate(179.68 81.94) rotate(-149.32)"><tspan x="0" y="0">I</tspan></text>
          <text class="cls-4" transform="translate(174.12 78.68) rotate(-137.95)"><tspan x="0" y="0"> </tspan></text>
          <text class="cls-4" transform="translate(169.32 74.38) rotate(-126.65)"><tspan x="0" y="0">B</tspan></text>
          <text class="cls-4" transform="translate(165.45 69.21) rotate(-115.38)"><tspan x="0" y="0">A</tspan></text>
          <text class="cls-4" transform="translate(162.67 63.41) rotate(-104.07)"><tspan x="0" y="0">L</tspan></text>
          <text class="cls-4" transform="translate(161.08 57.17) rotate(-92.69)"><tspan x="0" y="0">I</tspan></text>
          <circle class="cls-6" cx="193.38" cy="52.31" r="43.5"/>
        </g>
      </g>
      <path class="cls-1" d="m201.63,69.5c1.54-.13,2.9-.67,4.21-1.47,1.33-.81,2.73-1.67,3.87-2.75,1.12-1.07,1.9-2.3,2.71-3.6.85-1.36,1.79-2.54,3-3.59.77-.66,1.84-1.37,2.18-2.37.39-1.14-.56-2-1.66-2.08-1.18-.1-2.38.35-3.39.93-.24.14-.46.28-.67.45.34-.62.63-1.25.96-1.86.47-.88.98-1.74,1.56-2.54.54-.76,1.14-1.46,1.64-2.25.5-.79.93-1.59,1.27-2.45.28-.7.66-1.49.37-2.25-.29-.77-1-1.26-1.75-1.54-.34-.13-.77-.32-1.19-.38.23-.46.41-.92.43-1.46.03-.56-.05-1.08-.22-1.6,0-.01,0-.02,0-.04-.15-.66-.75-.99-1.38-1.08-.6-.08-1.3-.18-1.88.02-.77.25-1.31,1.08-1.79,1.71-.08-.11-.17-.23-.24-.33-.42-.53-.96-1.04-1.67-1.14-1.5-.2-2.55.73-3.27,1.97-.92,1.59-1.66,3.33-2.3,5.05-.23.61-.48,1.2-.75,1.78.02-.24.05-.48.06-.72.07-.88.11-1.75-.15-2.6-.46-1.5-2.19-2.63-3.69-1.71-.78.48-1.14,1.32-1.32,2.21-.12.57-.17,1.17-.21,1.69-.2,2.47-.42,5.05-1.29,7.4-.03.09-.04.18-.03.26-.27.29-.51.61-.75.93,0,0,0,0,0,0-.23-.33-.48-.65-.75-.94,0-.08,0-.17-.04-.26-.87-2.34-1.09-4.92-1.29-7.4-.11-1.35-.25-3.12-1.53-3.91-1.5-.92-3.23.21-3.69,1.71-.26.85-.22,1.72-.15,2.6.02.24.04.48.06.72-.27-.58-.52-1.18-.75-1.78-.64-1.72-1.39-3.45-2.31-5.05-.71-1.24-1.77-2.17-3.27-1.97-.7.09-1.25.61-1.67,1.14-.08.1-.17.21-.24.33-.47-.63-1.01-1.46-1.78-1.71-.58-.19-1.29-.1-1.88-.02-.64.09-1.24.42-1.39,1.08,0,.01,0,.02,0,.04-.17.51-.25,1.04-.22,1.6.03.54.21,1,.44,1.46-.41.06-.85.25-1.19.38-.75.28-1.45.77-1.75,1.54-.29.76.09,1.55.37,2.25.34.86.78,1.67,1.27,2.45.5.79,1.1,1.48,1.64,2.25.58.81,1.09,1.66,1.56,2.54.33.61.63,1.24.96,1.86-.21-.16-.44-.31-.67-.45-1.01-.57-2.21-1.02-3.39-.93-1.1.08-2.05.95-1.66,2.08.34,1,1.42,1.71,2.18,2.37,1.21,1.05,2.15,2.23,3.01,3.59.81,1.3,1.6,2.54,2.72,3.6,1.13,1.08,2.54,1.94,3.87,2.75,1.31.8,2.67,1.34,4.21,1.47,1.27.11,2.56-.01,3.76-.46,1.28-.48,2.4-1.35,3.58-2.03.15.08.29.18.44.27.71.43,1.41.91,2.15,1.3.33.18.65.33,1,.46,1.19.45,2.49.57,3.76.46Zm-11.94-1.32c-1.41.4-3.08.28-4.46-.19-1.52-.52-2.88-1.55-4.18-2.46-1.25-.88-2.3-1.9-3.12-3.19-.85-1.34-1.63-2.71-2.71-3.88-.86-.93-1.96-1.62-2.79-2.57-.18-.21-.6-.67-.29-.91.47-.36,1.19-.21,1.71-.08,1.23.3,2.38,1.03,3.19,1.99.33.38.61.8.89,1.22.18.28.47.29.7.18.38.06.84-.28.69-.76-.43-1.39-1.39-2.53-2.02-3.84-.74-1.53-1.58-3.04-2.64-4.37-1.02-1.28-1.86-2.64-2.45-4.17-.11-.3-.24-.59-.27-.91-.04-.39.36-.69.64-.87.26-.17.6-.26.89-.36.19-.07.46-.19.65-.13.13.04.24.04.33,0l.85,1.52c.41.73.7,1.51,1.02,2.28.61,1.48,1.41,2.87,2.3,4.2.89,1.34,1.66,2.76,2.57,4.1.41.61,1.36-.06.95-.66-.83-1.23-1.52-2.55-2.35-3.77-.85-1.24-1.64-2.54-2.24-3.92-.28-.63-.52-1.27-.8-1.9-.32-.71-.72-1.38-1.1-2.07-.69-1.23-1.5-2.36-.9-3.81.01-.02.02-.05.03-.08.19-.17,1.07-.15,1.2-.16.76-.06,1.1.53,1.53,1.07.98,1.23,1.9,2.56,2.66,3.94.75,1.36,1.13,2.9,1.74,4.32.64,1.49,1.4,2.96,2.23,4.35.37.63,1.32-.04.95-.66-.94-1.59-1.79-3.27-2.46-4.98-.33-.84-.58-1.71-.95-2.54-.39-.88-.86-1.69-1.38-2.5-.26-.4-.53-.8-.8-1.2.12-.13.17-.31.1-.49.04-.07.1-.14.15-.2.16-.21.33-.42.54-.59.41-.33,1.05-.3,1.48-.02,1.01.63,1.5,2.02,1.99,3.03.63,1.3,1.13,2.64,1.65,3.98.54,1.38,1.28,2.66,1.94,3.97.27.54,1.21.45,1.12-.25-.14-1.08-.29-2.17-.4-3.26-.09-.83-.21-1.69-.08-2.52.09-.6.31-1.17.84-1.51.51-.33,1.22-.18,1.58.29.35.46.47,1.09.55,1.65.12.81.15,1.64.23,2.46.16,1.63.36,3.3.78,4.9-.78-.44-1.68-.66-2.71-.55-2.43.27-4.29,2.27-4.8,4.59-.55,2.54.61,5.09,2.4,6.85,1.73,1.7,4.06,2.67,6.28,3.62-1.11.68-2.19,1.45-3.46,1.8Zm4.93-2.71c-.11.05-.22.09-.32.14-3.86-1.66-9.11-3.78-8.78-8.83.13-2,1.54-3.84,3.54-4.26,2.19-.46,3.65,1.17,4.71,2.86.14.22.35.28.54.23.01,0,.02,0,.03,0,.19.03.38-.02.51-.23.43-.69.93-1.36,1.52-1.89.85-.77,1.89-1.24,3.18-.97,2,.42,3.41,2.26,3.54,4.26.27,4.07-3.11,6.24-6.45,7.8-.68.32-1.36.61-2.01.89Zm4.29,2.71c-.76-.21-1.44-.57-2.11-.97-.45-.27-.9-.55-1.35-.83.42-.18.84-.36,1.26-.54,1.82-.8,3.62-1.69,5.02-3.07,1.78-1.76,2.94-4.31,2.39-6.85-.51-2.32-2.37-4.32-4.8-4.59-1.03-.11-1.92.11-2.71.55.42-1.6.62-3.26.78-4.9.08-.82.11-1.65.24-2.46.08-.56.2-1.19.55-1.65.36-.47,1.06-.61,1.58-.29.53.33.76.91.84,1.51.12.83,0,1.69-.09,2.52-.11,1.09-.26,2.17-.4,3.26-.09.69.85.78,1.12.25.66-1.32,1.4-2.6,1.94-3.97.52-1.34,1.03-2.68,1.66-3.98.49-1.02.98-2.41,1.99-3.03.43-.27,1.07-.3,1.48.02.21.17.38.37.54.59.05.06.11.13.15.2-.07.18-.01.36.1.49-.27.4-.54.8-.8,1.2-.52.81-.99,1.62-1.38,2.5-.37.82-.62,1.69-.95,2.54-.67,1.71-1.52,3.39-2.46,4.98-.38.63.58,1.29.95.66.83-1.39,1.58-2.86,2.22-4.35.62-1.42.99-2.97,1.74-4.32.76-1.38,1.68-2.71,2.66-3.94.43-.54.77-1.13,1.53-1.07.13,0,1.02,0,1.2.16,0,.02.02.05.03.08.6,1.45-.22,2.58-.9,3.81-.38.68-.78,1.35-1.1,2.07-.28.63-.53,1.27-.8,1.9-.61,1.38-1.4,2.68-2.24,3.92-.83,1.23-1.51,2.54-2.34,3.77-.41.61.54,1.27.95.66.91-1.34,1.68-2.76,2.57-4.1.88-1.33,1.69-2.73,2.3-4.2.32-.77.62-1.55,1.02-2.28l.85-1.52c.09.04.2.04.33,0,.19-.06.47.06.66.13.29.11.63.19.89.36.28.18.68.48.64.87-.03.31-.16.61-.27.91-.59,1.53-1.42,2.89-2.45,4.17-1.06,1.33-1.9,2.84-2.64,4.37-.63,1.3-1.58,2.44-2.02,3.84-.15.48.31.82.69.76.23.12.52.1.7-.18.28-.42.56-.84.89-1.22.81-.95,1.96-1.69,3.19-1.99.52-.13,1.24-.28,1.71.08.31.24-.12.7-.29.91-.83.95-1.93,1.64-2.79,2.57-1.08,1.17-1.86,2.54-2.71,3.88-.82,1.29-1.87,2.31-3.11,3.19-1.3.91-2.66,1.95-4.18,2.46-1.38.46-3.04.59-4.46.19Z"/>
    </g>
  </g>
</svg>