<?xml version="1.0" encoding="UTF-8"?>
<svg id="_Слой_2" data-name="Слой 2" xmlns="http://www.w3.org/2000/svg" viewBox="0 0 251 105">
  <defs>
    <style>
      .cls-1, .cls-2, .cls-3, .cls-4 {
        fill: #262626;
      }

      .cls-2 {
        font-family: KozGoPr6N-Regular-90ms-RKSJ-H, 'Kozuka Gothic Pr6N';
        font-size: 24px;
      }

      .cls-5 {
        fill: #dab8ac;
      }

      .cls-3 {
        font-family: Dreamcast, Dreamcast;
      }

      .cls-4 {
        font-family: CourierNewPSMT, 'Courier New';
        font-size: 11.14px;
      }

      .cls-6 {
        fill: none;
      }

      .cls-6, .cls-7 {
        stroke: #262626;
        stroke-miterlimit: 10;
        stroke-width: 2px;
      }

      .cls-8 {
        font-size: 30px;
      }

      .cls-9 {
        font-size: 12px;
      }

      .cls-10 {
        letter-spacing: -.03em;
      }

      .cls-7 {
        fill: #fff;
      }
    </style>
  </defs>
  <g id="_Слой_1-2" data-name="Слой 1">
    <g>
      <rect class="cls-7" x="1" y="1" width="249" height="103"/>
      <text class="cls-3" transform="translate(12.52 39.31)"><tspan class="cls-8"><tspan x="0" y="0">TEA BALI </tspan></tspan><tspan class="cls-9"><tspan x="0" y="14.4">TEA</tspan></tspan></text>
      <text class="cls-2" transform="translate(67.72 85.99)"><tspan class="cls-10" x="0" y="0">自</tspan><tspan x="23.28" y="0">然茶</tspan></text>
      <circle class="cls-5" cx="186" cy="50" r="44"/>
      <g>
        <path class="cls-1" d="m211.24,42.56c-.75-2.64-2.24-4.92-3.92-7.04-1.64-2.06-3.53-4.26-5.94-5.37-2.55-1.18-5.29-.86-8-.65-2.71-.21-5.45-.53-8,.65-1.2.56-2.28,1.38-3.25,2.32-.51.49-1,1.02-1.46,1.56-.43.49-.83,1-1.23,1.49-1.68,2.12-3.17,4.4-3.92,7.04-.77,2.71-.57,5.79.33,8.44,1.13,3.35,3.46,5.88,6.5,7.5,1.56.84,3.27,1.47,4.96,1.96,1.69.49,3.52.9,5.29.75v13.66c0,.47.5.55.79.33.29.22.79.13.79-.33v-13.66c.22.02.45,0,.68,0,.73,0,1.47-.06,2.2-.19.82-.14,1.63-.34,2.41-.57,1.69-.49,3.39-1.13,4.96-1.96,3.03-1.63,5.37-4.16,6.49-7.5.89-2.65,1.1-5.73.33-8.44Zm-2.92,11.35c-1.57,2.18-3.76,3.45-6.13,4.49-1.31.57-2.67,1.04-4.06,1.36-.56.13-1.11.24-1.68.33-.74.11-1.49.18-2.25.11,0,0-.02,0-.03,0v-4.75c.14-.04.26-.12.34-.28.23-.49.82-.87,1.19-1.24.46-.45.88-.94,1.33-1.41,1-1.04,2.12-1.97,3.19-2.92,1.13-1,2.23-2.02,3.28-3.09,1.02-1.04,2.11-1.98,3.13-3.02.45-.46-.2-1.25-.65-.79-1.06,1.08-2.19,2.07-3.25,3.15-1.1,1.12-2.26,2.17-3.43,3.21-1.11.98-2.26,1.93-3.25,3.04-.47.53-.98,1-1.48,1.51-.13.13-.27.26-.4.4v-7.8c.08-.02.17-.06.25-.14,1.05-1.06,2.29-1.87,3.36-2.89.56-.53,1.11-1.08,1.7-1.57.29-.24.6-.43.92-.64.21-.13.44-.45.69-.49.64-.1.44-1.1-.19-1-.41.06-.58.33-.9.55-.3.2-.63.37-.92.59-.61.47-1.14,1.03-1.71,1.55-1.03.95-2.18,1.77-3.2,2.73v-6.95s.01,0,.02,0c.51-.19.99-.64,1.39-1.01.51-.46,1.02-.92,1.67-1.18.6-.24.16-1.17-.43-.93-.67.27-1.23.73-1.76,1.21-.26.24-.56.54-.88.76v-3.72c0-.46-.5-.65-.79-.48-.29-.16-.79.02-.79.48v3.72c-.32-.22-.62-.52-.88-.76-.53-.48-1.09-.94-1.76-1.21-.59-.24-1.03.69-.43.93.65.26,1.15.72,1.66,1.18.4.37.87.82,1.39,1.01,0,0,.01,0,.02,0v6.95c-1.02-.96-2.17-1.78-3.2-2.73-.57-.52-1.1-1.08-1.71-1.55-.29-.22-.62-.39-.92-.59-.32-.21-.49-.48-.9-.55-.22-.04-.38.07-.48.22-.18.28-.12.72.29.79.03,0,.06.02.09.04.21.09.41.34.6.45.32.2.63.39.92.64.59.49,1.14,1.04,1.7,1.57,1.07,1.03,2.32,1.84,3.36,2.89.08.08.17.12.25.14v7.8c-.13-.14-.27-.27-.4-.4-.5-.5-1.01-.98-1.48-1.51-.76-.84-1.61-1.59-2.46-2.34-.26-.23-.52-.46-.79-.69-1.17-1.04-2.33-2.09-3.43-3.21-1.06-1.08-2.2-2.07-3.26-3.15-.45-.46-1.1.33-.65.79,1.01,1.03,2.11,1.98,3.13,3.02,1.06,1.08,2.16,2.09,3.28,3.09,1.08.96,2.19,1.88,3.19,2.92.02.02.04.04.06.06.43.45.82.92,1.27,1.35.37.36.96.75,1.19,1.24.08.16.2.25.34.28v4.75c-1.33.12-2.66-.14-3.96-.43-1.39-.31-2.75-.79-4.06-1.36-2.38-1.05-4.57-2.32-6.13-4.49-1.62-2.25-2.38-5.05-2.38-7.83s1.03-5.52,2.63-7.85c.75-1.1,1.57-2.15,2.43-3.16.1-.12.19-.24.3-.36.37-.42.75-.83,1.15-1.23.63-.64,1.3-1.24,2.04-1.75,2.63-1.79,5.65-1.46,8.63-1.23.05,0,.1,0,.14,0,.05,0,.09.01.14,0,2.98-.23,6-.56,8.63,1.23,1.2.83,2.22,1.88,3.19,2.98.98,1.11,1.89,2.29,2.73,3.51,1.6,2.33,2.63,4.98,2.63,7.85s-.76,5.57-2.38,7.83Z"/>
        <text class="cls-4" transform="translate(161.43 45.56) rotate(-72.31)"><tspan x="0" y="0">☼</tspan></text>
        <text class="cls-4" transform="translate(163.36 39.42) rotate(-60.96)"><tspan x="0" y="0"> </tspan></text>
        <text class="cls-4" transform="translate(166.48 33.76) rotate(-49.54)"><tspan x="0" y="0">T</tspan></text>
        <text class="cls-4" transform="translate(170.63 28.85) rotate(-38.26)"><tspan x="0" y="0">H</tspan></text>
        <text class="cls-4" transform="translate(175.68 24.84) rotate(-26.99)"><tspan x="0" y="0">A</tspan></text>
        <text class="cls-4" transform="translate(181.41 21.89) rotate(-15.69)"><tspan x="0" y="0"> </tspan></text>
        <text class="cls-4" transform="translate(187.6 20.13) rotate(-4.31)"><tspan x="0" y="0">C</tspan></text>
        <text class="cls-4" transform="translate(194.02 19.62) rotate(7.05)"><tspan x="0" y="0">H</tspan></text>
        <text class="cls-4" transform="translate(200.42 20.39) rotate(18.24)"><tspan x="0" y="0">A</tspan></text>
        <text class="cls-4" transform="translate(206.53 22.37) rotate(29.58)"><tspan x="0" y="0">I</tspan></text>
        <text class="cls-4" transform="translate(212.16 25.54) rotate(40.98)"><tspan x="0" y="0"> </tspan></text>
        <text class="cls-4" transform="translate(217.03 29.74) rotate(52.25)"><tspan x="0" y="0">B</tspan></text>
        <text class="cls-4" transform="translate(221 34.83) rotate(63.53)"><tspan x="0" y="0">A</tspan></text>
        <text class="cls-4" transform="translate(223.89 40.58) rotate(74.83)"><tspan x="0" y="0">L</tspan></text>
        <text class="cls-4" transform="translate(225.6 46.79) rotate(86.22)"><tspan x="0" y="0">I</tspan></text>
        <text class="cls-4" transform="translate(226.05 53.23) rotate(97.59)"><tspan x="0" y="0"> </tspan></text>
        <text class="cls-4" transform="translate(225.23 59.6) rotate(108.73)"><tspan x="0" y="0">☼</tspan></text>
        <text class="cls-4" transform="translate(223.18 65.7) rotate(120.11)"><tspan x="0" y="0"> </tspan></text>
        <text class="cls-4" transform="translate(219.96 71.3) rotate(131.5)"><tspan x="0" y="0">T</tspan></text>
        <text class="cls-4" transform="translate(215.71 76.14) rotate(142.81)"><tspan x="0" y="0">H</tspan></text>
        <text class="cls-4" transform="translate(210.6 80.05) rotate(154.05)"><tspan x="0" y="0">A</tspan></text>
        <text class="cls-4" transform="translate(204.82 82.89) rotate(165.35)"><tspan x="0" y="0"> </tspan></text>
        <text class="cls-4" transform="translate(198.58 84.54) rotate(176.76)"><tspan x="0" y="0">C</tspan></text>
        <text class="cls-4" transform="translate(192.16 84.93) rotate(-171.91)"><tspan x="0" y="0">H</tspan></text>
        <text class="cls-4" transform="translate(185.77 84.05) rotate(-160.7)"><tspan x="0" y="0">A</tspan></text>
        <text class="cls-4" transform="translate(179.68 81.94) rotate(-149.32)"><tspan x="0" y="0">I</tspan></text>
        <text class="cls-4" transform="translate(174.12 78.68) rotate(-137.95)"><tspan x="0" y="0"> </tspan></text>
        <text class="cls-4" transform="translate(169.32 74.38) rotate(-126.65)"><tspan x="0" y="0">B</tspan></text>
        <text class="cls-4" transform="translate(165.45 69.21) rotate(-115.38)"><tspan x="0" y="0">A</tspan></text>
        <text class="cls-4" transform="translate(162.67 63.41) rotate(-104.07)"><tspan x="0" y="0">L</tspan></text>
        <text class="cls-4" transform="translate(161.08 57.17) rotate(-92.69)"><tspan x="0" y="0">I</tspan></text>
        <circle class="cls-6" cx="193.38" cy="52.31" r="43.5"/>
      </g>
    </g>
  </g>
</svg>