<?xml version="1.0" encoding="UTF-8"?>
<svg id="_Слой_2" data-name="Слой 2" xmlns="http://www.w3.org/2000/svg" viewBox="0 0 251 105">
  <defs>
    <style>
      .cls-1 {
        fill: #090909;
      }

      .cls-2 {
        font-family: KozGoPr6N-Regular-90ms-RKSJ-H, 'Kozuka Gothic Pr6N';
        font-size: 24px;
      }

      .cls-2, .cls-3, .cls-4 {
        fill: #262626;
      }

      .cls-3 {
        font-family: Dreamcast, Dreamcast;
      }

      .cls-4 {
        font-family: CourierNewPSMT, 'Courier New';
        font-size: 11.14px;
      }

      .cls-5 {
        fill: none;
      }

      .cls-5, .cls-6 {
        stroke: #262626;
        stroke-miterlimit: 10;
        stroke-width: 2px;
      }

      .cls-7 {
        font-size: 30px;
      }

      .cls-8 {
        font-size: 12px;
      }

      .cls-6 {
        fill: #fff;
      }

      .cls-9 {
        fill: #d7da93;
      }
    </style>
  </defs>
  <g id="_Слой_1-2" data-name="Слой 1">
    <g>
      <g>
        <rect class="cls-6" x="1" y="1" width="249" height="103"/>
        <text class="cls-3" transform="translate(12.52 39.31)"><tspan class="cls-7" x="0" y="0">UTENSILS</tspan><tspan class="cls-8" x="125.88" y="0"> </tspan><tspan class="cls-8"><tspan x="0" y="14.4">FOR TEA</tspan></tspan></text>
        <text class="cls-2" transform="translate(82.13 85.99)"><tspan x="0" y="0">茶具</tspan></text>
        <g>
          <circle class="cls-9" cx="199.26" cy="54" r="45"/>
          <text class="cls-4" transform="translate(161.43 45.56) rotate(-72.31)"><tspan x="0" y="0">☼</tspan></text>
          <text class="cls-4" transform="translate(163.36 39.42) rotate(-60.96)"><tspan x="0" y="0"> </tspan></text>
          <text class="cls-4" transform="translate(166.48 33.76) rotate(-49.54)"><tspan x="0" y="0">T</tspan></text>
          <text class="cls-4" transform="translate(170.63 28.85) rotate(-38.26)"><tspan x="0" y="0">H</tspan></text>
          <text class="cls-4" transform="translate(175.68 24.84) rotate(-26.99)"><tspan x="0" y="0">A</tspan></text>
          <text class="cls-4" transform="translate(181.41 21.89) rotate(-15.69)"><tspan x="0" y="0"> </tspan></text>
          <text class="cls-4" transform="translate(187.6 20.13) rotate(-4.31)"><tspan x="0" y="0">C</tspan></text>
          <text class="cls-4" transform="translate(194.02 19.62) rotate(7.05)"><tspan x="0" y="0">H</tspan></text>
          <text class="cls-4" transform="translate(200.42 20.39) rotate(18.24)"><tspan x="0" y="0">A</tspan></text>
          <text class="cls-4" transform="translate(206.53 22.37) rotate(29.58)"><tspan x="0" y="0">I</tspan></text>
          <text class="cls-4" transform="translate(212.16 25.54) rotate(40.98)"><tspan x="0" y="0"> </tspan></text>
          <text class="cls-4" transform="translate(217.03 29.74) rotate(52.25)"><tspan x="0" y="0">B</tspan></text>
          <text class="cls-4" transform="translate(221 34.83) rotate(63.53)"><tspan x="0" y="0">A</tspan></text>
          <text class="cls-4" transform="translate(223.89 40.58) rotate(74.83)"><tspan x="0" y="0">L</tspan></text>
          <text class="cls-4" transform="translate(225.6 46.79) rotate(86.22)"><tspan x="0" y="0">I</tspan></text>
          <text class="cls-4" transform="translate(226.05 53.23) rotate(97.59)"><tspan x="0" y="0"> </tspan></text>
          <text class="cls-4" transform="translate(225.23 59.6) rotate(108.73)"><tspan x="0" y="0">☼</tspan></text>
          <text class="cls-4" transform="translate(223.18 65.7) rotate(120.11)"><tspan x="0" y="0"> </tspan></text>
          <text class="cls-4" transform="translate(219.96 71.3) rotate(131.5)"><tspan x="0" y="0">T</tspan></text>
          <text class="cls-4" transform="translate(215.71 76.14) rotate(142.81)"><tspan x="0" y="0">H</tspan></text>
          <text class="cls-4" transform="translate(210.6 80.05) rotate(154.05)"><tspan x="0" y="0">A</tspan></text>
          <text class="cls-4" transform="translate(204.82 82.89) rotate(165.35)"><tspan x="0" y="0"> </tspan></text>
          <text class="cls-4" transform="translate(198.58 84.54) rotate(176.76)"><tspan x="0" y="0">C</tspan></text>
          <text class="cls-4" transform="translate(192.16 84.93) rotate(-171.91)"><tspan x="0" y="0">H</tspan></text>
          <text class="cls-4" transform="translate(185.77 84.05) rotate(-160.7)"><tspan x="0" y="0">A</tspan></text>
          <text class="cls-4" transform="translate(179.68 81.94) rotate(-149.32)"><tspan x="0" y="0">I</tspan></text>
          <text class="cls-4" transform="translate(174.12 78.68) rotate(-137.95)"><tspan x="0" y="0"> </tspan></text>
          <text class="cls-4" transform="translate(169.32 74.38) rotate(-126.65)"><tspan x="0" y="0">B</tspan></text>
          <text class="cls-4" transform="translate(165.45 69.21) rotate(-115.38)"><tspan x="0" y="0">A</tspan></text>
          <text class="cls-4" transform="translate(162.67 63.41) rotate(-104.07)"><tspan x="0" y="0">L</tspan></text>
          <text class="cls-4" transform="translate(161.08 57.17) rotate(-92.69)"><tspan x="0" y="0">I</tspan></text>
          <circle class="cls-5" cx="193.38" cy="52.31" r="43.5"/>
        </g>
      </g>
      <path class="cls-1" d="m205.78,67.8c.05.53-.03,1-.23,1.46-.44,1.01-.75,1.21-1.85,1.23-3.74.06-7.48.03-11.21.23-2.22.12-4.43-.01-6.64.01-1.27.01-2.56-.1-3.82-.34-1.24-.23-1.54-.78-1.49-1.78.05-.86-.26-1.12-1.02-.94-1,.24-1.5-.36-1.99-1.05-1.06-1.49-1.25-3.17-1.09-4.92.18-2.05.8-3.97,1.54-5.88.53-1.37.39-2.87.28-4.31-.1-1.47-.38-2.92-.73-4.36-.36-1.47-1.21-2.65-2.16-3.8-1.08-1.31-2.42-2.1-4.06-2.44-.2-.04-.46-.09-.47-.39,0-.32.21-.51.48-.58.45-.11.92-.21,1.38-.22,1.68-.05,3.36-.04,5.04-.1.59-.02.95.18,1.11.73.15.51.43.94.83,1.28,1.18.99,2.37,1.98,3.42,3.16,1.08-2.5,2.08-4.92,2.33-7.57.12-1.27.18-1.31,1.44-1.28.55.01.92-.1,1.3-.57.78-.96,1.95-1.37,3.07-1.81.66-.26,1.33-.53,2.05-.58.29-.02.29-.16.28-.38-.04-1.19.56-1.91,1.65-1.99.96-.06,2.03.9,2.03,1.91,0,.39.16.4.45.48,1.78.51,3.34,1.41,4.64,2.74.38.38,1.38.56,1.86.3.26-.14.51-.26.92.02-.8.15-.75.69-.7,1.17.16,1.52.08,3.08.54,4.69.89-1.18,1.76-2.27,2.54-3.41.62-.92,1.44-1.52,2.46-1.9,1.29-.48,2.44-.08,3.21,1.04,1.17,1.71,1.78,3.51,1.68,5.65-.1,1.88-.32,3.65-1.01,5.44-.53,1.37-.56,2.93-.83,4.4-.33,1.81-.54,3.63-.74,5.46-.17,1.54-.79,2.97-1.13,4.47-.28,1.25-.9,2.38-1.36,3.56-.25.65-1.01.93-1.69,1.01-.75.09-1.51.27-2.3.17Zm-17.24-30.83s0,.1,0,.14c-.67,0-1.33.01-2,0-.27,0-.36.07-.41.36-.14.87-.36,1.73-.49,2.6-.21,1.39-.96,2.57-1.41,3.86-.72,2.03-1.36,4.1-2.32,6.02-1.14,2.28-2.57,4.4-3.51,6.79-.82,2.08-1.34,4.21-1.27,6.45.05,1.76,1.13,2.79,2.91,2.84,1.52.04,3.06,0,4.57.1,1.56.1,3.13.22,4.69.26,1.84.04,3.68.02,5.52.22.72.08,1.47.29,2.2.12,1.07-.25,2.15-.28,3.23-.27,1.24.01,2.47.01,3.71,0,1.53-.01,3.05-.11,4.44-.87.54-.29.97-.59,1.08-1.28.38-2.51.04-4.98-.67-7.36-.66-2.21-1.48-4.39-2.41-6.52-1.4-3.23-1.88-6.73-2.45-10.18-.14-.85-.19-1.71-.3-2.56-.07-.56-.27-.91-.97-.78-.72.13-1.46.18-2.2.18-1.67.01-3.34.22-5.02.03-.66-.07-1.32-.16-1.98-.17-1.65-.02-3.3,0-4.95,0Zm20.67,18.64c.75-1.85,1.29-3.75,1.64-5.7.28-1.59,1.13-3.01,1.35-4.61.27-2,.46-3.97-1.87-5.02-.27-.12-.44-.21-.72-.09-.37.16-.69.36-.92.7-.69,1.01-1.44,2-2.08,3.04-.46.75-.86,1.58-.71,2.49.13.79.37,1.58.62,2.34.56,1.72,1.48,3.3,2,5.04.19.62.32,1.28.69,1.82Zm-30.11-2.08c.15-.28.28-.57.45-.83,1.27-2.05,2.34-4.18,3.1-6.48.19-.58.04-.92-.35-1.29-.98-.92-1.96-1.86-3.01-2.71-.34-.28-.7-.58-.83-1.02-.23-.76-.68-1.03-1.46-.85-.35.08-.74.02-1.11.02-1.09,0-2.18,0-3.43,0,.82.54,1.67.68,2.25,1.23,2.08,1.98,3.58,4.27,3.9,7.22.17,1.55.48,3.09.48,4.7Zm3.59,14.14c-.47,0-.94,0-1.41,0-.24,0-.33.04-.32.32.04.91.39,1.31,1.29,1.39.1,0,.2,0,.3.01,4.09.16,8.18.23,12.27.25.96,0,1.91.17,2.87.1,1.96-.14,3.92-.37,5.89-.29.95.04,1.13-.12,1.36-1.04.11-.43.09-.64-.44-.6-.95.06-1.9.07-2.84.12-1.45.08-2.9.28-4.34.23-2.21-.07-4.4-.4-6.63-.36-1.17.02-2.34.24-3.5.15-1.5-.11-2.99-.23-4.49-.27Zm27.73-4.76c.24-2.4.21-4.8.79-7.14.05-.21.06-.43.16-.63.47-.88.53-1.86.75-2.81.46-1.96.77-3.95,1.59-5.84.32-.74.74-1.74-.11-2.57-.2-.19-.33-.55.19-.44.39.08.32-.12.35-.34.26-1.96-.53-3.58-1.58-5.14-.53-.79-1.37-1.07-2.29-.76-.92.3-1.65.82-2.2,1.63-.71,1.03-1.4,2.1-2.25,3.01-.66.71-.69,1.4-.42,2.31.53-1,1.18-1.82,1.75-2.7.7-1.08,1.37-2.16,2.61-2.73.43-.2.86-.28,1.26-.02.75.48,1.43,1.03,1.69,1.95.56,1.92.41,3.84.07,5.77-.14.79-.27,1.62-.61,2.33-.25.54-.63,1.03-.69,1.65-.08.82-.28,1.61-.51,2.4-.22.75-.36,1.54-.69,2.24-.74,1.56.04,3.12-.11,4.68-.09,1.04.22,2.1.24,3.16Zm-8.76-26.76c-3.42-4.16-10.57-2.87-13.14-.17,1.17.23,11.64.36,13.14.17Zm-6.32-3.33h0c.22,0,.44,0,.66,0,.52,0,.75-.31.49-.76-.24-.43-.65-.77-1.18-.72-.48.04-.97.17-1.18.71-.26.65-.13.83.55.79.22-.01.44,0,.66,0Z"/>
    </g>
  </g>
</svg>