<?xml version="1.0" encoding="UTF-8"?>
<svg id="_Слой_2" data-name="Слой 2" xmlns="http://www.w3.org/2000/svg" viewBox="0 0 252.01 108.26">
  <defs>
    <style>
      .cls-1 {
        fill: #bee396;
      }

      .cls-2, .cls-3, .cls-4, .cls-5 {
        fill: #262626;
      }

      .cls-3 {
        font-family: KozGoPr6N-Regular-90ms-RKSJ-H, 'Kozuka Gothic Pr6N';
        font-size: 24px;
      }

      .cls-4 {
        font-family: Dreamcast, Dreamcast;
      }

      .cls-5 {
        font-family: CourierNewPSMT, 'Courier New';
        font-size: 11.14px;
      }

      .cls-6 {
        fill: none;
      }

      .cls-6, .cls-7 {
        stroke: #262626;
        stroke-miterlimit: 10;
        stroke-width: 2px;
      }

      .cls-8 {
        font-size: 30px;
      }

      .cls-9 {
        font-size: 12px;
      }

      .cls-7 {
        fill: #fff;
      }
    </style>
  </defs>
  <g id="_Слой_1-2" data-name="Слой 1">
    <g>
      <g>
        <rect class="cls-7" x="1.5" y="2.21" width="249" height="103" transform="translate(-.51 1.22) rotate(-.55)"/>
        <text class="cls-4" transform="translate(9.43 48.4) rotate(-.55)"><tspan class="cls-8" x="0" y="0">BREWING </tspan><tspan class="cls-9" x="133.17" y="0"> </tspan><tspan class="cls-9"><tspan x="0" y="14.4">TIPS</tspan></tspan></text>
        <text class="cls-3" transform="translate(72.43 94.48) rotate(-.55)"><tspan x="0" y="0">尖端</tspan></text>
        <g>
          <circle class="cls-1" cx="187.02" cy="53.62" r="45"/>
          <text class="cls-5" transform="translate(158.38 53.22) rotate(-72.86)"><tspan x="0" y="0">☼</tspan></text>
          <text class="cls-5" transform="translate(160.25 47.07) rotate(-61.51)"><tspan x="0" y="0"> </tspan></text>
          <text class="cls-5" transform="translate(163.29 41.4) rotate(-50.14)"><tspan x="0" y="0">T</tspan></text>
          <text class="cls-5" transform="translate(167.41 36.43) rotate(-38.81)"><tspan x="0" y="0">H</tspan></text>
          <text class="cls-5" transform="translate(172.43 32.36) rotate(-27.54)"><tspan x="0" y="0">A</tspan></text>
          <text class="cls-5" transform="translate(178.12 29.37) rotate(-16.25)"><tspan x="0" y="0"> </tspan></text>
          <text class="cls-5" transform="translate(184.3 27.54) rotate(-4.87)"><tspan x="0" y="0">C</tspan></text>
          <text class="cls-5" transform="translate(190.72 26.97) rotate(6.49)"><tspan x="0" y="0">H</tspan></text>
          <text class="cls-5" transform="translate(197.12 27.68) rotate(17.68)"><tspan x="0" y="0">A</tspan></text>
          <text class="cls-5" transform="translate(203.25 29.6) rotate(29.02)"><tspan x="0" y="0">I</tspan></text>
          <text class="cls-5" transform="translate(208.91 32.71) rotate(40.43)"><tspan x="0" y="0"> </tspan></text>
          <text class="cls-5" transform="translate(213.82 36.86) rotate(51.7)"><tspan x="0" y="0">B</tspan></text>
          <text class="cls-5" transform="translate(217.84 41.92) rotate(62.98)"><tspan x="0" y="0">A</tspan></text>
          <text class="cls-5" transform="translate(220.78 47.64) rotate(74.27)"><tspan x="0" y="0">L</tspan></text>
          <text class="cls-5" transform="translate(222.55 53.84) rotate(85.67)"><tspan x="0" y="0">I</tspan></text>
          <text class="cls-5" transform="translate(223.06 60.27) rotate(97.03)"><tspan x="0" y="0"> </tspan></text>
          <text class="cls-5" transform="translate(222.31 66.64) rotate(108.18)"><tspan x="0" y="0">☼</tspan></text>
          <text class="cls-5" transform="translate(220.32 72.77) rotate(119.56)"><tspan x="0" y="0"> </tspan></text>
          <text class="cls-5" transform="translate(217.16 78.39) rotate(130.95)"><tspan x="0" y="0">T</tspan></text>
          <text class="cls-5" transform="translate(212.95 83.28) rotate(142.25)"><tspan x="0" y="0">H</tspan></text>
          <text class="cls-5" transform="translate(207.88 87.24) rotate(153.49)"><tspan x="0" y="0">A</tspan></text>
          <text class="cls-5" transform="translate(202.13 90.13) rotate(164.79)"><tspan x="0" y="0"> </tspan></text>
          <text class="cls-5" transform="translate(195.91 91.85) rotate(176.2)"><tspan x="0" y="0">C</tspan></text>
          <text class="cls-5" transform="translate(189.49 92.3) rotate(-172.47)"><tspan x="0" y="0">H</tspan></text>
          <text class="cls-5" transform="translate(183.09 91.48) rotate(-161.26)"><tspan x="0" y="0">A</tspan></text>
          <text class="cls-5" transform="translate(176.98 89.43) rotate(-149.88)"><tspan x="0" y="0">I</tspan></text>
          <text class="cls-5" transform="translate(171.39 86.22) rotate(-138.5)"><tspan x="0" y="0"> </tspan></text>
          <text class="cls-5" transform="translate(166.55 81.96) rotate(-127.21)"><tspan x="0" y="0">B</tspan></text>
          <text class="cls-5" transform="translate(162.63 76.84) rotate(-115.93)"><tspan x="0" y="0">A</tspan></text>
          <text class="cls-5" transform="translate(159.79 71.06) rotate(-104.63)"><tspan x="0" y="0">L</tspan></text>
          <text class="cls-5" transform="translate(158.14 64.84) rotate(-93.24)"><tspan x="0" y="0">I</tspan></text>
          <circle class="cls-6" cx="193.88" cy="52.87" r="43.5"/>
        </g>
      </g>
      <path class="cls-2" d="m219.09,51.2c-.59.24-1.35.27-1.98.35-.86.12-1.77.14-2.63.09-.11,0-.22,0-.31.03-.06-1.07-.18-2.15-.36-3.2.08,0,.17-.01.26-.03,1.59-.45,3.16-.95,4.77-1.34.42-.1.62-.64.49-1.01-.16-.44-.6-.56-1.01-.46-1.6.39-3.17.89-4.77,1.33-.01,0-.02,0-.04.01-.28-1.16-.66-2.29-1.17-3.37.24.18.57.23.9.02,1.1-.71,2.29-1.21,3.41-1.87.88-.52-.02-1.79-.91-1.27-1.11.67-2.31,1.16-3.41,1.87-.23.14-.33.34-.34.54-.43-.82-.96-1.59-1.52-2.33-.2-.25-.38-.53-.59-.77.29-.12.53-.39.53-.77,0-.24.84-.9,1.1-1.18.14-.16.29-.3.44-.46.47-.47.94-.93,1.3-1.5.23-.36.27-.81-.1-1.1t0,0c-.31-.24-.87-.23-1.1.13-.54.84-1.31,1.56-2.03,2.25-.48.46-.97.95-1.13,1.58,0,0,0,0,0-.01-.04-.03-.08-.07-.12-.1-.85-.81-1.79-1.55-2.79-2.18.08-.09.14-.19.19-.3.01-.02.04-.07.1-.17.11-.2.23-.38.36-.56.24-.34.49-.66.74-1,.43-.58.9-1.11,1.02-1.84.17-1.01-1.39-1.24-1.56-.24-.1.56-.66,1.1-.99,1.54-.43.57-.92,1.14-1.15,1.81-1.12-.6-2.3-1.09-3.5-1.48.04-.08.08-.18.1-.28.06-.32.25-.63.37-.94.13-.34.24-.68.35-1.02.22-.66.46-1.29.6-1.97.2-1.01-1.36-1.24-1.56-.25-.14.7-.39,1.34-.61,2-.21.64-.58,1.27-.7,1.93,0,.04,0,.08,0,.11-1.32-.32-2.66-.5-4-.55.15-.63.03-1.37.04-2.01,0-.7.15-1.4.16-2.12,0-1.02-1.56-.84-1.58.16,0,.64-.12,1.27-.15,1.9-.03.6.11,1.31-.05,1.88-.02.07-.03.13-.03.19-1.14.04-2.28.18-3.41.4.05-.15.04-.32-.05-.51-.3-.58-.62-1.22-.76-1.87-.13-.65-.21-1.33-.38-1.92-.27-.98-1.76-.41-1.49.55.02.06.15.48.14.39.09.45.11.91.2,1.36.15.71.47,1.38.8,2.03.05.11.12.2.2.27-1.33.34-2.63.8-3.88,1.37-.1-.54-.51-1.02-.8-1.47-.48-.75-.88-1.5-1.51-2.16-.7-.72-1.71.5-1.01,1.22.46.48.78,1.1,1.12,1.68.19.32.66.76.65,1.14,0,.13.03.24.07.33-.28.15-.55.29-.81.45-.69.41-1.36.87-1.99,1.36-.05-.05-.1-.11-.16-.16-.53-.38-1.04-.79-1.53-1.21-.18-.15-.41-.3-.56-.49-.19-.24-.39-.42-.68-.53-.94-.36-1.62,1.07-.67,1.43.13.05.21.24.32.32.24.2.48.4.72.61.43.37.88.73,1.34,1.06-1.03.98-1.94,2.08-2.69,3.3-.1-.09-.22-.17-.39-.21-1.1-.29-2.08-.97-3.25-1.01-.43-.01-.84.19-.92.65-.07.39.21.89.64.9,1.13.04,2.12.71,3.2.99-.56,1.2-.93,2.48-1.14,3.79-.71-.04-1.41-.16-2.13-.15s-1.57-.11-2.26.12c-.96.34-.44,1.81.53,1.48.29-.1.69-.03.99-.03h1.1c.53-.02,1.06.07,1.59.12-.1,1.29-.06,2.59.07,3.86.02.12.03.23.04.34-.07-.01-.16-.02-.24-.03-.46-.02-.91-.12-1.37-.12h-1.5c-.27.02-.74.15-.98.03-.9-.45-1.58.98-.67,1.44.64.32,1.5.11,2.19.11.43,0,.86-.03,1.28.03.22.03.43.06.65.07.17,0,.52.13.25-.05.22.13.44.16.65.11.22,1.14.52,2.28.89,3.41-.83.33-1.67.64-2.48,1.02-.8.37-1.68.66-2.43,1.12-.88.53.03,1.8.9,1.28.68-.42,1.52-.68,2.25-1.01.75-.35,1.53-.62,2.3-.93.38.92.81,1.82,1.3,2.69-.74.45-1.44.96-2.19,1.38-.78.44-1.44,1.03-2.18,1.53-.85.57.05,1.85.9,1.27.75-.49,1.41-1.08,2.19-1.53.71-.41,1.39-.89,2.09-1.32.66,1,1.4,1.95,2.23,2.81-.3.17-.52.47-.75.72-.27.3-.6.55-.91.82-.59.52-1,1.33-1.67,1.73-.88.54.03,1.8.9,1.28.64-.39,1.02-1.06,1.53-1.59.28-.3.62-.56.93-.83.3-.26.54-.67.89-.86.09-.06.16-.12.23-.18.79.69,1.66,1.31,2.58,1.83-.42.6-.53,1.34-.89,1.99-.41.76-.88,1.43-1.13,2.26-.29.98,1.28,1.2,1.56.25.19-.68.66-1.28,1.01-1.88.33-.57.38-1.32.8-1.82.04-.04.06-.07.08-.1,1.04.42,2.13.69,3.23.85-.01.04-.02.06-.03.06-.03.16,0,.32-.02.49-.06.39-.21.77-.27,1.17,0,.02,0,.03,0,.05-.14.86-.4,1.66-.35,2.54.04.63.65.8,1.1.61.26-.11.45-.35.47-.68,0-.03.01-.05.01-.08-.08-1.3.63-2.54.64-3.82.03-.06.05-.13.08-.21.67.03,1.36.01,2.04-.04.67-.05,1.35-.14,2-.26,0,.04,0,.09,0,.12,0,.88.03,1.75.01,2.62-.02.66-.2,1.48.07,2.11.39.94,1.89.38,1.49-.55-.09-.22-.02-.54-.02-.77,0-.39.03-.79.04-1.18.02-.7,0-1.41-.02-2.11.05-.18.02-.38-.08-.56,1.13-.28,2.25-.65,3.34-1.1.05.59.27,1.14.5,1.68.32.75.43,1.51.44,2.32.03,1.02,1.6.84,1.58-.15-.02-.74-.12-1.45-.31-2.16-.19-.74-.66-1.33-.65-2.12,0-.11-.01-.2-.04-.29.72-.38,1.42-.8,2.08-1.27.16.42.26.86.47,1.26.22.41.5.74.82,1.08.34.36.57.74.8,1.17.22.39.45.71.56,1.16.23.98,1.72.42,1.49-.55-.2-.82-.79-1.71-1.28-2.4-.26-.37-.63-.65-.89-1.02-.27-.39-.34-.9-.51-1.33-.06-.14-.14-.25-.24-.32.04-.03.08-.07.11-.09,5.04-4.45,6.81-12.5,4.14-18.67-.33-.76-.74-1.47-1.2-2.15-.49-.74-1.05-1.42-1.65-2.05-2.6-2.73-6.16-4.57-9.81-5.44-4.76-1.12-10.16-.49-13.74,3.11-4.56,4.59-4.28,12.14-1.54,17.57,1.41,2.79,3.56,5.2,6.39,6.57,1.78.86,3.77,1.23,5.75,1.19.93-.01,1.85-.11,2.74-.3.11-.02.22-.06.33-.09,2.72-.66,5.18-2.12,7.02-4.25,1.91-2.21,2.93-5.16,3.06-8.05.07-1.49-.11-2.99-.54-4.41-.29-.97-.71-1.91-1.27-2.78-.15-.24-.31-.47-.48-.71-1.5-1.98-3.68-3.43-6.04-4.2-2.35-.77-4.89-.83-7.25-.08-2.6.83-4.73,2.8-5.91,5.25-2.5,5.16-.65,13.18,5.11,15.3,1.87.69,4.01.5,5.98-.16,1.3-.45,2.54-1.1,3.55-1.87.26-.2.5-.41.71-.62.85-.86,1.41-1.89,1.74-3.01.29-.97.41-2,.37-3.05-.03-.68-.14-1.38-.3-2.06-.37-1.58-1.07-3.09-2.16-4.26-1.64-1.77-3.94-2.4-6.27-1.86-4.6,1.08-8.41,7.29-4.71,11.26,2,2.14,5.47,3.06,7.95,1.17,2.17-1.64,2.83-5.33.67-7.24-2.08-1.84-5.73-.04-6.22,2.48-.27,1.37.78,2.39,2.03,2.64.84.17,3.16-.08,2.99-1.38-.1-.78-.85-1.21-1.49-1.53-.58-.3-1.03.42-.76.91.1.17.24.25.43.3.18.1.34.2.5.34-.01,0-.04,0-.06.02-.12.06-.25.1-.39.13-.59.13-1.26.09-1.74-.3-.52-.41-.32-1.19-.01-1.66.38-.58.99-1.02,1.63-1.28,1.32-.56,2.59.12,3.06,1.42.49,1.37-.11,2.96-1.07,3.96-2.16,2.27-6.17.57-7.38-1.88-1.1-2.23.09-4.74,1.7-6.36,1.68-1.67,4.26-2.54,6.51-1.57,2.05.88,3.24,3.13,3.69,5.22.08.4.14.81.17,1.21.18,1.99-.25,4.03-1.68,5.51-.66.69-1.49,1.2-2.37,1.61-.63.3-1.29.55-1.93.74-1.75.54-3.62.55-5.31-.21-2.75-1.24-4.2-4.37-4.63-7.2-.48-3.13.33-6.34,2.54-8.66,3.57-3.75,9.66-3.15,13.5-.19,1.15.88,2.03,1.98,2.67,3.19.52.98.87,2.03,1.08,3.12.56,3.01-.06,6.29-1.75,8.91-1.43,2.2-3.58,3.76-5.99,4.6-1.03.36-2.12.58-3.21.67-2.16.17-4.38-.22-6.34-1.2-2.87-1.44-4.87-4.23-6.08-7.12-1.27-3.07-1.66-6.53-.9-9.77.64-2.73,2.29-5.18,4.66-6.68,2.04-1.3,4.52-1.75,6.91-1.73,4.87.04,10.04,2.23,13.32,5.9.17.19.36.37.53.58.4.5.75,1.03,1.06,1.58,3.13,5.39,2.14,12.72-1.88,17.43-2.29,2.7-5.69,4.29-9.06,5.13-.76.19-1.52.32-2.28.41-.97.13-1.95.17-2.93.12-1.87-.1-3.72-.53-5.42-1.4-2.93-1.51-5.07-4.18-6.64-7.02-1.76-3.17-2.75-6.85-2.87-10.46-.12-3.44.81-6.84,2.96-9.54,1.83-2.3,4.38-3.96,7.05-5.1,2.73-1.17,5.71-1.84,8.68-1.83,3.24.01,6.47.94,9.29,2.51,1.4.77,2.67,1.76,3.81,2.89.62.62,1.19,1.28,1.69,1.99.08.11.17.21.25.32,1.49,2.22,2.29,4.85,2.64,7.49.36,2.75.28,5.6-.25,8.32-.28,1.46-.74,2.88-1.31,4.25-.59,1.4-1.28,2.78-2.34,3.88-.5.53.27,1.21.82.86.4.4.85.73,1.32,1.04.58.38,1.04.9,1.59,1.32.79.61,1.82-.6,1.01-1.22-.49-.38-.93-.83-1.42-1.21-.5-.39-1.03-.7-1.48-1.14.63-.9,1.12-1.91,1.55-2.92.62.32,1.27.61,1.89.92.83.42,1.7.74,2.63.87.99.14,1.29-1.41.28-1.55-.8-.1-1.52-.4-2.24-.75-.65-.32-1.34-.62-1.97-.97.29-.83.54-1.68.73-2.54.02.01.05.02.07.03.55.2,1.09.23,1.67.29.78.08,1.55.23,2.33.34,1,.15,1.3-1.4.28-1.55-.62-.09-1.24-.19-1.86-.28-.57-.08-1.21-.05-1.75-.24-.16-.06-.31-.06-.45-.03.01-.09.03-.18.05-.27.2-1.26.3-2.54.31-3.84.94.06,1.89.03,2.83-.05.81-.07,1.83-.17,2.59-.47.95-.37.43-1.85-.53-1.47Z"/>
    </g>
  </g>
</svg>