<?xml version="1.0" encoding="UTF-8"?>
<svg id="_Слой_2" data-name="Слой 2" xmlns="http://www.w3.org/2000/svg" viewBox="0 0 110.94 57">
  <defs>
    <style>
      .cls-1, .cls-2, .cls-3 {
        fill: #262626;
      }

      .cls-4 {
        font-size: 14px;
      }

      .cls-5 {
        fill: none;
        stroke-width: .5px;
      }

      .cls-5, .cls-6 {
        stroke: #262626;
        stroke-miterlimit: 10;
      }

      .cls-7 {
        fill: #beda9f;
      }

      .cls-2 {
        font-family: KozGoPr6N-Regular-90ms-RKSJ-H, 'Kozuka Gothic Pr6N';
        font-size: 13.13px;
      }

      .cls-3 {
        font-family: Dreamcast, Dreamcast;
      }

      .cls-6 {
        fill: #fff;
        stroke-width: 2px;
      }

      .cls-8 {
        font-size: 7px;
      }
    </style>
  </defs>
  <g id="_Слой_1-2" data-name="Слой 1">
    <g>
      <g>
        <rect class="cls-6" x="1" y="1" width="108.94" height="45.06"/>
        <text class="cls-3" transform="translate(9.54 19.68)"><tspan class="cls-4"><tspan x="0" y="0">GREEN</tspan></tspan><tspan class="cls-8"><tspan x="0" y="8.4" xml:space="preserve"> TEA</tspan></tspan></text>
        <text class="cls-2" transform="translate(26.87 35.56)"><tspan x="0" y="0">綠色</tspan></text>
      </g>
      <g>
        <g>
          <circle class="cls-7" cx="83.77" cy="24.01" r="17.5"/>
          <circle class="cls-5" cx="83.77" cy="24.01" r="14"/>
        </g>
        <path class="cls-1" d="m93.87,28.21c-.3-.39-.62-.76-.93-1.14-.35-.43-.7-.87-1.06-1.3-.64-.75-1.32-1.5-2.24-1.91-.53-.23-1.09-.34-1.66-.41-.4-.05-.81-.07-1.21-.08-.63-.01-1.26.02-1.89.11.11-.14.23-.28.34-.42.24-.33.43-.68.59-1.05.12-.28.23-.57.33-.86,0-.02.02-.05.02-.08.23-.7.45-1.42.59-2.14.14-.75.09-1.48-.07-2.22-.16-.74-.45-1.45-.78-2.12-.33-.68-.7-1.33-1.14-1.95-.33-.47-.85-.9-1.42-.53-.23.15-.37.43-.51.66-.21.34-.35.71-.5,1.07-.4.97-.78,1.95-1.14,2.93-.13.35-.26.71-.36,1.08-.09.33-.16.67-.19,1.01-.02.26-.03.53,0,.8.1.97.53,1.88.99,2.73.21.39.45.77.7,1.14-.29-.05-.57-.09-.87-.12-.71-.06-1.42.05-2.11.2-.75.17-1.5.35-2.22.62-.71.27-1.31.69-1.86,1.21-.55.52-1,1.14-1.41,1.77-.41.64-.78,1.29-1.08,1.99-.23.53-.33,1.19.28,1.49.25.12.56.09.83.1.39,0,.79-.06,1.18-.12,1.04-.16,2.07-.34,3.1-.54.97-.19,1.96-.42,2.75-1.02.78-.59,1.34-1.43,1.83-2.26.36-.61.66-1.24.91-1.9.07,0,.13-.04.16-.09.02-.03.04-.06.06-.09.18.47.33.96.54,1.42.29.65.73,1.22,1.21,1.74.51.57,1.04,1.14,1.62,1.63.58.49,1.24.81,1.96,1.04.72.23,1.48.32,2.23.37.76.05,1.51.05,2.26-.02.57-.06,1.2-.29,1.17-.97-.02-.28-.19-.54-.32-.77-.19-.35-.44-.66-.68-.97Zm-12.5-.34c-.5.61-1.09,1.05-1.83,1.33-.73.27-1.52.38-2.29.53-.78.14-1.56.27-2.34.39-.36.06-.72.11-1.09.11-.24,0-.69.05-.68-.29,0-.29.17-.59.28-.85.16-.37.36-.72.57-1.07.39-.65.82-1.28,1.33-1.85.49-.56,1.08-1.03,1.76-1.34.71-.32,1.49-.5,2.24-.67.67-.16,1.37-.28,2.07-.23.47.04.93.13,1.39.21,0,0,0,.01.01.02-.65.39-1.28.81-1.92,1.21-.24-.08-.52-.09-.75-.13-.5-.09-1.03-.09-1.54-.1-.35,0-.28.54.06.54.41,0,.82.03,1.22.07.11.01.21.03.32.05-.21.13-.42.26-.64.39-.42.25-.85.5-1.27.74-.11,0-.23-.06-.34-.09-.18-.05-.37-.06-.55-.06-.38-.02-.78-.04-1.15.04-.34.08-.28.61.06.54.35-.08.74-.06,1.1-.04.06,0,.12,0,.18.02-.67.39-1.33.78-2,1.17-.3.18.03.62.32.44.64-.37,1.27-.75,1.91-1.12-.12.35-.27.68-.5.96-.23.27.2.61.43.35.41-.49.59-1.14.8-1.73.42-.24.83-.49,1.25-.73.23-.13.45-.27.67-.41-.14.31-.27.63-.42.93-.15.29-.51.72-.39,1.06.11.33.63.14.51-.19.04.1.04-.02.08-.09.03-.06.07-.12.11-.18.1-.17.19-.35.27-.53.23-.47.41-.95.64-1.41.02-.04.02-.07.02-.11.62-.39,1.23-.79,1.86-1.17.01.02.02.03.04.04-.43,1.17-1.03,2.3-1.82,3.26Zm2.53-4.23c0-.71-.02-1.41-.04-2.12.17-.14.31-.33.44-.5.02-.02.04-.05.06-.07.19-.22.36-.46.52-.71.12-.18.24-.37.35-.55.19-.3-.31-.52-.49-.22-.1.17-.22.32-.33.49-.12.17-.23.35-.36.52-.06.09-.14.17-.21.25,0-.25,0-.5,0-.75,0-.13,0-.25,0-.38,0-.36.01-.73.02-1.09.06-.1.17-.17.25-.25.13-.13.24-.29.34-.44.21-.31.43-.65.55-1.01.11-.33-.38-.55-.49-.22-.12.34-.33.66-.53.96-.03.05-.07.1-.11.15.01-.77.02-1.55.03-2.32,0-.35-.54-.3-.55.05,0,.74-.02,1.47-.03,2.21-.23-.29-.44-.59-.56-.93-.11-.33-.63-.14-.52.18.21.61.67,1.09,1.07,1.58,0,.27,0,.53-.01.79,0,.22,0,.44-.01.66,0,.16,0,.32,0,.48,0,.1,0,.2,0,.31-.12-.17-.24-.35-.36-.53-.07-.1-.15-.21-.22-.32-.18-.28-.35-.81-.71-.88-.34-.07-.45.46-.1.53-.07-.01-.05.01-.01.05.02.02.03.04.05.06.04.06.07.12.1.19.1.17.21.34.31.51.28.43.6.84.87,1.28.02.03.05.06.08.08.02.66.04,1.31.04,1.97-.09,0-.17-.02-.26-.03-.69-.91-1.27-1.91-1.65-2.98-.17-.49-.26-.99-.25-1.49,0-.25.02-.51.07-.77.02-.1.05-.19.07-.29.16-.66.42-1.31.66-1.94.28-.74.57-1.47.87-2.2.14-.34.29-.67.47-.99.12-.2.31-.62.6-.44.25.16.42.45.58.68.23.33.43.68.62,1.04.35.68.67,1.37.9,2.1.22.71.32,1.45.23,2.19-.09.75-.33,1.49-.56,2.21,0,.02-.01.04-.02.06-.09.3-.2.59-.33.88-.15.35-.33.69-.55,1.01-.22.32-.48.6-.73.9-.06.01-.12.02-.18.04Zm10.29,6.6c-.26.14-.59.14-.88.17-.4.04-.81.03-1.21.02-.76-.02-1.52-.09-2.27-.26-.73-.16-1.42-.44-2.02-.88-.62-.46-1.16-1.06-1.68-1.63-.47-.51-.91-1.06-1.21-1.69-.21-.44-.35-.9-.51-1.35.66.38,1.34.74,2.02,1.1.05.25.17.5.25.71.17.48.43.95.67,1.39.17.31.6-.02.44-.32-.19-.36-.37-.73-.54-1.1-.04-.1-.08-.2-.11-.3.22.12.43.24.65.37.42.25.85.5,1.27.75.06.1.07.23.09.34.04.18.13.35.21.51.17.34.35.7.6.98.23.26.67-.06.44-.32-.24-.27-.41-.61-.58-.93-.03-.05-.05-.11-.07-.17.67.39,1.33.79,2,1.18.3.18.52-.32.23-.5-.64-.38-1.27-.75-1.91-1.12.36-.06.73-.1,1.09-.03.34.07.44-.48.1-.54-.63-.12-1.28.04-1.9.15-.42-.25-.83-.49-1.25-.74-.23-.13-.45-.26-.68-.39.34-.03.68-.07,1.02-.08.33-.02.87.09,1.12-.18.23-.26-.18-.62-.42-.35.07-.08-.04-.03-.11-.03-.07,0-.14,0-.21,0-.2,0-.4.01-.6.02-.52.03-1.03.11-1.54.12-.04,0-.07.02-.1.03-.67-.36-1.34-.71-1.99-1.09,1.26-.2,2.56-.24,3.82-.02.29.05.56.13.83.24.44.17.85.4,1.22.72.23.19.43.41.64.63.33.36.63.74.94,1.11.5.61,1,1.22,1.48,1.85.23.29.44.58.63.89.12.21.38.58.08.74Z"/>
      </g>
    </g>
  </g>
</svg>