<?xml version="1.0" encoding="UTF-8"?>
<svg id="_Слой_2" data-name="Слой 2" xmlns="http://www.w3.org/2000/svg" viewBox="0 0 110.94 57">
  <defs>
    <style>
      .cls-1, .cls-2, .cls-3 {
        fill: #262626;
      }

      .cls-4 {
        font-size: 14px;
      }

      .cls-5 {
        fill: none;
        stroke-width: .5px;
      }

      .cls-5, .cls-6 {
        stroke: #262626;
        stroke-miterlimit: 10;
      }

      .cls-2 {
        font-family: Dreamcast, Dreamcast;
      }

      .cls-3 {
        font-family: KozGoPr6N-Regular-90ms-RKSJ-H, 'Kozuka Gothic Pr6N';
        font-size: 13.13px;
        letter-spacing: 0em;
      }

      .cls-7 {
        fill: #d5b987;
      }

      .cls-6 {
        fill: #fff;
        stroke-width: 2px;
      }

      .cls-8 {
        font-size: 7px;
      }
    </style>
  </defs>
  <g id="_Слой_1-2" data-name="Слой 1">
    <g>
      <g>
        <rect class="cls-6" x="1" y="1" width="108.94" height="45.06"/>
        <text class="cls-2" transform="translate(9.6 19.66)"><tspan class="cls-4"><tspan x="0" y="0">GABA</tspan></tspan><tspan class="cls-8"><tspan x="0" y="8.4">TEA</tspan></tspan></text>
        <text class="cls-3" transform="translate(26.87 35.56)"><tspan x="0" y="0">加巴</tspan></text>
      </g>
      <g>
        <circle class="cls-7" cx="83.26" cy="23.01" r="17.5"/>
        <circle class="cls-5" cx="83.26" cy="23.01" r="14"/>
        <g>
          <path class="cls-1" d="m91.82,23.57c-.29.55-.51,1.11-.92,1.59-.39.46-.87.79-1.39,1.07-.94.5-1.99.8-2.97,1.21-1.01.43-1.95,1-2.61,1.89-.26.35-.5.73-.66,1.14-.16-.41-.4-.79-.66-1.14-.37-.5-.84-.9-1.35-1.23-.27-.18-.56-.34-.86-.48-.13-.06-.26-.13-.39-.19-.98-.42-2.03-.71-2.97-1.21-.52-.28-1.01-.61-1.39-1.07-.41-.48-.63-1.04-.92-1.59-.12-.22-.51-.2-.52.09-.03,1.29.06,2.6.34,3.85.24,1.12.68,2.21,1.56,2.98.74.65,1.67,1.1,2.61,1.44.19.07.37.14.56.2.12.04.24.08.37.12.5.15,1,.3,1.5.42.63.15,1.26.28,1.87.48.11.04.21,0,.27-.06.07.07.16.09.27.06.61-.21,1.24-.33,1.87-.48.63-.15,1.26-.34,1.87-.54,1.11-.36,2.28-.86,3.17-1.64.88-.77,1.31-1.86,1.56-2.98.27-1.25.36-2.57.34-3.85,0-.29-.4-.31-.52-.09Zm-10.44,8.62c-.53-.13-1.06-.28-1.58-.44-.07-.02-.14-.04-.21-.06-.24-.08-.48-.16-.72-.25-.82-.3-1.63-.68-2.3-1.23-.88-.72-1.31-1.77-1.53-2.87-.1-.48-.17-.96-.22-1.45.03.06.06.13.09.19.23.45.5.89.82,1.28.61.76,1.36,1.41,2.21,1.9.45.26.93.46,1.4.68.03.02.06.04.1.05.3.14.58.31.86.48.15.1.31.19.46.3.44.32.91.62,1.29,1.01.19.19.45.45.61.72-.42-.12-.85-.2-1.27-.31Zm1.51-.27c-.09-.11-.18-.22-.27-.31-.36-.38-.77-.7-1.19-1.01-.31-.22-.62-.44-.94-.64-.17-.11-.33-.21-.5-.3-.12-.06-.24-.11-.36-.17-.37-.17-.75-.33-1.11-.52-.89-.48-1.69-1.11-2.32-1.89-.32-.4-.61-.83-.83-1.3-.03-.06-.06-.13-.08-.19.32.35.69.67,1.11.91.9.53,1.9.86,2.87,1.24.31.12.62.25.92.4.3.14.58.3.86.49.31.2.61.43.85.71.38.43.79.99.94,1.55.09.34.1.69.06,1.04Zm.79-1.04c.15-.56.56-1.12.94-1.55.69-.78,1.68-1.22,2.63-1.59.97-.38,1.97-.71,2.87-1.24.42-.24.79-.56,1.11-.91-.03.06-.06.13-.08.19-.21.47-.5.9-.83,1.3-.63.79-1.44,1.41-2.32,1.89-.48.26-.99.44-1.47.69-.52.26-.98.6-1.45.94-.42.3-.84.62-1.19,1.01-.09.09-.18.2-.27.31-.04-.35-.03-.7.06-1.04Zm7.79-3.53c-.22,1.09-.65,2.15-1.53,2.87-.87.71-1.97,1.14-3.02,1.47-.59.19-1.18.36-1.78.5-.42.1-.85.19-1.27.31.16-.27.42-.53.61-.72.39-.38.85-.69,1.29-1.01.45-.32.91-.6,1.42-.83.47-.22.95-.42,1.4-.68.84-.49,1.6-1.14,2.21-1.9.32-.39.59-.83.82-1.28.03-.06.06-.13.09-.19-.05.49-.13.97-.22,1.45Z"/>
          <path class="cls-1" d="m80.51,27.32s.01,0,.02,0c.29.13.6.23.9.31,1.91.52,4.05.15,5.51-1.22.98-.92,1.57-2.21,1.68-3.54.12-1.47-.32-2.85-1.04-4.11-.31-.54-.65-1.06-1-1.57-.21-.29-.42-.58-.63-.87-.83-1.11-1.7-2.2-2.46-3.35-.11-.17-.31-.13-.42-.02-.06,0-.11.04-.16.1-.97,1.25-1.97,2.48-2.88,3.77-.87,1.24-1.64,2.52-2.1,3.97-.43,1.33-.54,2.79.04,4.09.5,1.12,1.44,1.92,2.54,2.42Zm-2.04-6.43c.46-1.47,1.31-2.77,2.19-4.02.81-1.14,1.69-2.23,2.56-3.33.77,1.14,1.62,2.21,2.44,3.32,0,0,0,0,0,0,.21.29.43.58.63.87.64.92,1.23,1.89,1.56,2.95.43,1.36.32,2.85-.33,4.11-.57,1.1-1.56,1.9-2.73,2.28-.98.32-2.1.33-3.14.07-.32-.08-.63-.19-.92-.32-.87-.39-1.63-1.01-2.11-1.84-.73-1.26-.57-2.76-.15-4.09Z"/>
        </g>
      </g>
    </g>
  </g>
</svg>