<?xml version="1.0" encoding="UTF-8"?>
<svg id="_Слой_2" data-name="Слой 2" xmlns="http://www.w3.org/2000/svg" viewBox="0 0 119.94 57">
  <defs>
    <style>
      .cls-1, .cls-2, .cls-3 {
        fill: #262626;
      }

      .cls-4 {
        font-size: 14px;
      }

      .cls-5 {
        fill: none;
        stroke-width: .5px;
      }

      .cls-5, .cls-6 {
        stroke: #262626;
        stroke-miterlimit: 10;
      }

      .cls-7 {
        font-size: 5.3px;
      }

      .cls-2 {
        font-family: KozGoPr6N-Regular-90ms-RKSJ-H, 'Kozuka Gothic Pr6N';
      }

      .cls-2, .cls-8 {
        font-size: 13.13px;
      }

      .cls-3 {
        font-family: Dreamcast, Dreamcast;
      }

      .cls-9 {
        fill: #cfd29d;
      }

      .cls-6 {
        fill: #fff;
        stroke-width: 2px;
      }

      .cls-10 {
        font-size: 7px;
      }
    </style>
  </defs>
  <g id="_Слой_1-2" data-name="Слой 1">
    <g>
      <g>
        <rect class="cls-6" x="1" y="1" width="117.94" height="45.06"/>
        <text class="cls-3" transform="translate(9.85 19.68)"><tspan class="cls-4" x="0" y="0">OOLONG</tspan><tspan class="cls-8" x="60.77" y="0"> </tspan><tspan class="cls-7" x="63.4" y="0"> </tspan><tspan class="cls-10"><tspan x="0" y="8.4">TEA</tspan></tspan></text>
        <text class="cls-2" transform="translate(30.87 35.56)"><tspan x="0" y="0">烏龍茶</tspan></text>
      </g>
      <g>
        <g>
          <circle class="cls-9" cx="93.43" cy="23.64" r="17.5"/>
          <circle class="cls-5" cx="93.43" cy="23.64" r="14"/>
        </g>
        <path class="cls-1" d="m100.83,20.66c-.02-.22-.05-.45-.09-.68-.08-.46-.1-1.16-.11-1.82,0-.42,0-.82-.01-1.11,0-.28-.02-.47-.05-.49-.1-.12-2.4,0-3.42-.17-.19-.04-.39-.06-.58-.08-.17-.14-.35-.28-.54-.41-.85-.59-2.39-2.31-2.54-2.3-.15,0-1.69,1.71-2.54,2.3-.16.11-.32.23-.47.35-.23.02-.45.05-.68.09-1.02.18-3.32.06-3.42.17-.11.1.01,2.4-.17,3.42-.04.19-.06.39-.08.58-.15.17-.28.35-.41.54-.59.85-2.31,2.39-2.3,2.55,0,.15,1.71,1.69,2.3,2.54.11.16.22.31.34.46,0,0,0,0,0,0,.02.23.05.45.09.68.02.12.04.27.06.43.1,1.12.02,2.91.12,2.99.1.11,2.4,0,3.42.17.19.04.39.06.58.08.17.14.35.28.54.41.85.59,2.39,2.3,2.55,2.3.15,0,1.69-1.7,2.54-2.3.16-.11.32-.23.47-.35.22-.02.45-.05.68-.09,1.02-.18,3.32-.06,3.42-.17.11-.1-.01-2.4.17-3.42.03-.2.06-.39.08-.58.15-.17.28-.35.41-.54.59-.85,2.31-2.39,2.3-2.54,0-.15-1.71-1.69-2.3-2.54-.11-.16-.23-.32-.35-.47Zm-6.81,4.13c.2.38.31.79.36,1.21-.24-.32-.43-.67-.55-1.05-.01-.04-.04-.08-.06-.1-.09.03-.18.05-.27.06,0,0-.02,0-.03,0-.02,0-.05,0-.07,0-.01,0-.03,0-.04,0-.11,0-.22-.01-.32-.04h0c-.13.41-.34.78-.6,1.11.05-.39.17-.78.35-1.13.01-.02.02-.04.02-.06-.09-.04-.17-.09-.25-.16,0,0-.02-.01-.02-.02-.02-.02-.04-.04-.06-.06-.09-.09-.16-.19-.22-.3-.37.19-.77.3-1.18.35.32-.24.67-.43,1.05-.55.01,0,.03,0,.04-.02-.03-.12-.05-.24-.05-.36v-.05c0-.09.02-.17.04-.26,0-.04,0-.08.02-.12-.32-.11-.61-.27-.89-.46-.06-.04-.13-.08-.19-.12.09.01.18.04.28.06.3.06.59.15.85.29.01,0,.03.01.04.02.06-.1.13-.19.21-.28.02-.03.05-.05.08-.07h0c.09-.07.18-.13.28-.18-.1-.19-.18-.39-.24-.6-.06-.19-.1-.39-.12-.6.11.15.22.31.31.48.1.18.18.38.25.57,0,.03.02.05.03.07.09-.02.19-.04.29-.04.04,0,.07,0,.11,0h0s.08.02.12.03c.08.01.15.03.22.05,0-.01.01-.03.02-.05.03-.08.07-.15.1-.23.13-.31.29-.61.5-.88-.03.22-.09.44-.15.65-.05.17-.11.33-.2.48-.03.05-.03.1-.03.14.07.05.13.1.19.16,0,0,0,0,0,0h0c.1.1.18.21.23.34.03,0,.07,0,.1-.03.37-.2.78-.31,1.21-.36-.32.24-.67.43-1.05.55-.1.03-.14.09-.16.16,0,.05.01.1.02.15,0,.02.02.03.02.05,0,0-.02.01-.02.02v.05c0,.11-.01.21-.04.31.02.03.06.04.1.06.4.13.77.34,1.11.6-.39-.05-.78-.17-1.13-.35-.07-.04-.14-.04-.19-.01-.04.07-.09.14-.14.2-.02.02-.04.05-.07.08-.07.07-.15.13-.24.19,0,.02.01.04.02.06Zm.38,2.07c-.02.25-.06.5-.11.74-.11.5-.31,1-.55,1.46-.1.19-.22.36-.36.5-.12-.13-.22-.27-.31-.44-.24-.46-.44-.95-.55-1.46-.06-.26-.1-.54-.11-.82.43-.41.78-.9,1.01-1.43.21.54.56,1.03.98,1.45Zm3.18-6.95s-.02.08-.03.12c-.15.49-.36.99-.64,1.42-.15.23-.31.45-.5.66-.59-.01-1.19.08-1.72.3.12-.28.2-.58.26-.88.05-.28.07-.56.07-.84.19-.16.39-.31.6-.45.44-.28.93-.49,1.42-.64.21-.07.41-.09.6-.1,0,.13-.03.27-.07.41Zm-3.59,1.06c-.22.28-.41.58-.54.9-.06-.14-.12-.28-.2-.41-.21-.38-.48-.72-.79-1.03.02-.25.05-.5.11-.74.11-.5.31-1,.55-1.46.1-.19.22-.36.36-.5.12.13.22.28.31.44.24.46.44.95.55,1.46.06.27.1.54.11.82-.17.16-.33.34-.47.53Zm-1.8,1.41c-.07-.03-.15-.05-.22-.08-.47-.17-.98-.25-1.5-.25-.16-.19-.32-.39-.45-.6-.28-.44-.49-.93-.64-1.42-.06-.21-.09-.41-.1-.6.17,0,.35.04.53.1.49.15.98.36,1.42.64.23.15.45.31.66.5-.01.52.06,1.05.23,1.54.02.06.04.12.06.18Zm-1.96.24c.17.18.36.34.56.49.27.21.56.39.87.52-.53.21-1.03.56-1.45.98-.25-.02-.5-.05-.74-.11-.16-.03-.31-.08-.46-.13-.34-.11-.68-.26-.99-.42-.19-.1-.35-.22-.5-.36.13-.12.27-.22.44-.31.46-.24.95-.44,1.46-.55.27-.06.54-.1.81-.11Zm.21,2.56c.59.01,1.19-.08,1.72-.3-.23.53-.33,1.13-.33,1.72-.19.16-.39.31-.6.45-.44.28-.93.49-1.42.64-.21.06-.41.09-.6.1,0-.17.04-.35.09-.53.15-.5.36-.99.64-1.42.15-.23.31-.45.5-.66Zm5.94.06c.16.19.31.39.45.6.28.44.49.92.64,1.42.06.2.09.4.1.6-.17,0-.35-.04-.53-.1-.49-.15-.99-.36-1.42-.64-.23-.14-.45-.31-.66-.5.01-.59-.08-1.19-.3-1.72.53.23,1.13.33,1.72.33Zm.24-.56c-.41-.43-.9-.79-1.43-1.01.53-.21,1.03-.56,1.44-.98.25.02.5.06.74.11.5.11,1,.31,1.46.55.19.1.36.22.5.36-.13.12-.27.22-.44.31-.46.24-.95.44-1.46.55-.26.06-.54.1-.81.11Zm.86-2.43c-.13-.03-.26-.06-.4-.08.1-.13.19-.27.27-.4.41-.66.77-1.43.82-2.2.19.04.38.11.56.19.47.21.9.49,1.28.83.1.09.2.19.29.3,0,.11,0,.22,0,.32-.03.51-.13,1.01-.32,1.49-.08.22-.18.42-.3.59-.6-.55-1.42-.85-2.21-1.04Zm.06-5.23c.85.14,1.66.2,2.49.08-.02.1-.02.2-.03.31-.04.38-.04.75-.01,1.13.02.35.07.7.12,1.06.02.15.05.29.08.44-.05-.04-.1-.08-.15-.12-.38-.29-.8-.53-1.25-.71-.08-.03-.16-.07-.25-.1-.13-.04-.26-.07-.39-.1-.02-.16-.06-.32-.11-.48,0,0,0-.01,0-.02-.18-.53-.46-1.04-.8-1.48-.02-.03-.04-.05-.06-.08.12.02.24.04.36.06Zm-1.2-.19c.08.07.16.15.23.23.34.38.62.81.83,1.28.07.15.12.31.16.46.02.06.03.12.05.17-.15,0-.29.03-.44.06-.66.12-1.29.42-1.86.77-.11.07-.23.14-.33.22-.02-.16-.05-.32-.09-.48-.18-.76-.47-1.55-.98-2.14.16-.1.34-.19.53-.26.48-.18.98-.29,1.49-.31.14,0,.28,0,.41,0Zm-4.69-.78c.7-.5,1.32-1.03,1.82-1.71.5.68,1.12,1.21,1.82,1.71.12.09.24.17.36.25-.06,0-.13,0-.19.02-.56.07-1.12.24-1.63.49-.12.06-.24.13-.34.2-.13-.1-.27-.18-.41-.26-.51-.25-1.07-.41-1.63-.49-.03,0-.07,0-.1,0,.1-.07.2-.14.3-.21Zm-.99.72c.11,0,.22,0,.33,0,.51.03,1.01.13,1.49.31.22.08.42.18.6.3-.55.59-.85,1.42-1.04,2.21-.03.13-.06.26-.08.39-.13-.1-.26-.19-.4-.27-.66-.41-1.43-.77-2.21-.82.04-.19.11-.38.19-.56.21-.47.49-.89.83-1.28.09-.1.19-.2.3-.29Zm-3.87,2.77c.14-.85.2-1.66.08-2.49.83.12,1.65.06,2.49-.08.15-.02.29-.05.44-.08-.04.05-.08.1-.12.15-.35.45-.63.96-.81,1.49-.04.13-.08.26-.1.39-.16.02-.32.06-.48.11-.54.18-1.05.46-1.5.81-.03.02-.05.04-.08.06.02-.12.04-.24.06-.36Zm-.19,1.2c.07-.08.15-.16.23-.23.38-.34.81-.62,1.28-.83.21-.09.42-.16.64-.21.03.81.4,1.61.82,2.3.07.12.14.23.23.34-.16.02-.33.05-.48.09-.76.18-1.55.47-2.14.98-.1-.16-.19-.34-.26-.53-.19-.48-.28-.98-.31-1.49-.01-.14,0-.28,0-.41Zm-.78,4.69c-.5-.7-1.03-1.32-1.71-1.82.68-.5,1.2-1.12,1.71-1.82.09-.12.17-.24.25-.36,0,.06.01.12.02.19.07.56.24,1.12.49,1.63.06.12.13.24.2.34-.1.13-.18.27-.26.42-.25.51-.42,1.07-.49,1.63,0,.03,0,.07-.01.1-.07-.1-.14-.2-.21-.3Zm.72.66c.03-.51.13-1.01.32-1.49.09-.22.18-.42.3-.6.37.34.83.58,1.31.76.3.11.6.21.9.28.1.02.2.04.29.06.04,0,.07.01.1.02-.1.13-.19.26-.28.4-.41.67-.76,1.43-.82,2.21-.19-.04-.38-.11-.56-.19-.34-.15-.65-.35-.94-.58-.11-.08-.23-.16-.34-.26-.1-.09-.2-.19-.29-.3,0-.07,0-.13,0-.2,0-.04,0-.08,0-.12Zm2.77,4.19c-.85-.14-1.66-.2-2.49-.08.12-.83.06-1.64-.08-2.49-.02-.12-.04-.24-.06-.36,0-.03,0-.05-.01-.07.02.02.04.03.05.04.03.03.06.05.09.08.45.34.96.63,1.5.81.13.04.26.08.39.1.02.16.06.32.11.48.18.54.46,1.05.81,1.49.02.03.04.05.06.08-.12-.02-.24-.05-.36-.07Zm1.2.19c-.08-.07-.16-.15-.23-.23-.34-.38-.62-.81-.83-1.28-.09-.21-.16-.42-.21-.64.81-.03,1.61-.4,2.3-.83.11-.07.23-.15.34-.23.02.16.05.32.09.48.18.76.47,1.55.98,2.14-.16.1-.34.19-.53.26-.48.19-.98.29-1.49.32-.14,0-.28,0-.41,0Zm4.69.78c-.7.5-1.32,1.03-1.82,1.71-.5-.68-1.12-1.2-1.82-1.71-.12-.09-.24-.17-.36-.25.06,0,.12-.01.19-.02.56-.07,1.12-.24,1.63-.49.12-.06.23-.13.34-.21.13.1.27.19.42.26.51.25,1.07.42,1.63.49.03,0,.07,0,.1.01-.1.07-.2.14-.3.21Zm.99-.72c-.11,0-.22,0-.32,0-.51-.03-1.01-.13-1.49-.32-.22-.08-.42-.18-.6-.3.55-.59.85-1.42,1.04-2.21.03-.13.06-.26.08-.4.13.1.27.19.4.28.66.41,1.43.77,2.2.82-.04.19-.11.38-.19.56-.21.47-.49.89-.83,1.28-.09.1-.19.2-.29.29Zm3.87-2.77c-.14.85-.2,1.66-.08,2.5-.83-.12-1.65-.06-2.49.08-.14.02-.29.05-.44.08.04-.05.08-.1.12-.15.35-.45.63-.96.81-1.49.04-.13.07-.26.1-.39.16-.02.32-.06.48-.11.54-.18,1.05-.46,1.5-.81.03-.02.05-.04.08-.06-.02.12-.04.24-.06.36Zm.19-1.2c-.07.08-.15.16-.23.23-.38.34-.81.62-1.28.83-.21.09-.42.16-.63.21-.03-.81-.4-1.61-.83-2.3-.07-.11-.14-.22-.23-.33.16-.02.32-.05.48-.09.76-.18,1.55-.47,2.14-.98.1.16.19.34.26.53.18.48.28.98.32,1.49,0,.14,0,.28,0,.41Zm2.48-2.87c-.68.5-1.2,1.12-1.71,1.82-.09.12-.17.24-.25.36,0-.06-.01-.12-.02-.19-.07-.56-.24-1.12-.49-1.63-.06-.12-.13-.24-.2-.34.1-.13.18-.27.26-.42.25-.51.41-1.07.49-1.63,0-.03,0-.07,0-.1.07.1.14.2.21.3.5.7,1.03,1.32,1.71,1.82Z"/>
      </g>
    </g>
  </g>
</svg>