<?xml version="1.0" encoding="UTF-8"?>
<svg id="_Слой_2" data-name="Слой 2" xmlns="http://www.w3.org/2000/svg" viewBox="0 0 110.94 57">
  <defs>
    <style>
      .cls-1, .cls-2, .cls-3 {
        fill: #262626;
      }

      .cls-4 {
        font-size: 14px;
      }

      .cls-5 {
        fill: none;
        stroke-width: .5px;
      }

      .cls-5, .cls-6 {
        stroke: #262626;
        stroke-miterlimit: 10;
      }

      .cls-7 {
        fill: #dbacbe;
      }

      .cls-8 {
        font-size: 5.3px;
      }

      .cls-2 {
        font-family: KozGoPr6N-Regular-90ms-RKSJ-H, 'Kozuka Gothic Pr6N';
        font-size: 13.13px;
      }

      .cls-3 {
        font-family: Dreamcast, Dreamcast;
      }

      .cls-6 {
        fill: #fff;
        stroke-width: 2px;
      }

      .cls-9 {
        font-size: 7px;
      }
    </style>
  </defs>
  <g id="_Слой_1-2" data-name="Слой 1">
    <g>
      <g>
        <rect class="cls-6" x="1" y="1" width="108.94" height="45.06"/>
        <text class="cls-3" transform="translate(9.54 19.68)"><tspan class="cls-4" x="0" y="0">FLOWER</tspan><tspan class="cls-8" x="53.63" y="0"> </tspan><tspan class="cls-9"><tspan x="0" y="8.4">TEA</tspan></tspan></text>
        <text class="cls-2" transform="translate(26.87 35.56)"><tspan x="0" y="0">花茶</tspan></text>
      </g>
      <g>
        <circle class="cls-7" cx="83.75" cy="23.27" r="17.5"/>
        <g>
          <circle class="cls-5" cx="83.75" cy="23.27" r="14"/>
          <g>
            <path class="cls-1" d="m80.72,15.9c.07.21.13.4.29.55.11.1.34.03.35-.13.02-.26-.07-.46-.17-.69,0-.02-.02-.04-.03-.05-.03-.13-.09-.26-.15-.37-.02-.07-.08-.12-.15-.14-.07-.03-.14-.03-.2.02-.16.13-.13.3-.04.45.03.11.07.23.1.35Z"/>
            <path class="cls-1" d="m83.51,14.32c.02.13.12.19.23.19.1,0,.21-.06.23-.19.03-.24.05-.48.06-.72,0-.16,0-.34-.15-.44-.05-.03-.09-.04-.13-.04-.04,0-.09,0-.13.04-.15.1-.15.28-.15.44,0,.24.03.48.06.72Z"/>
            <path class="cls-1" d="m90.53,18.17c-.16,0-.31-.04-.47-.06-.14-.02-.27-.01-.41-.03-.28-.03-.54-.05-.82-.03-.44.03-.87.12-1.27.29.06-.62.18-1.26.76-1.57.25-.13.06-.52-.18-.39-.02,0-.04,0-.06.01-.11.05-.25.08-.37.14-.12.06-.26.1-.39.16-.27.12-.54.26-.79.41-.19.1-.37.22-.54.35-.09-.16-.2-.31-.3-.47-.17-.28-.36-.55-.59-.79-.23-.24-.5-.45-.77-.64-.04-.03-.07-.06-.11-.08-.13-.09-.26-.19-.4-.27v-.09s-.06.03-.09.04c-.03-.01-.06-.03-.1-.04v.09c-.06.03-.12.08-.18.12-.07.05-.15.1-.22.15-.31.22-.62.45-.88.72-.23.24-.41.51-.59.79-.1.16-.21.31-.3.47-.17-.13-.35-.25-.54-.35-.26-.15-.52-.29-.8-.41-.13-.06-.26-.1-.39-.16-.12-.06-.26-.1-.37-.14-.02,0-.04-.01-.06-.01-.24-.13-.43.26-.18.39.59.31.71.95.76,1.57-.4-.17-.84-.26-1.27-.29-.28-.02-.54,0-.82.03-.13.01-.27.01-.41.03-.16.02-.31.06-.47.06-.21,0-.29.34-.08.41.46.16.78.42,1.02.85.24.44.37.94.49,1.42.12.48.21.96.39,1.43.15.4.36.79.58,1.16.41.7.94,1.34,1.64,1.76.74.45,1.64.45,2.48.37v4.03c-.05-.1-.09-.21-.13-.33-.12-.39-.22-.77-.41-1.14-.19-.38-.51-.65-.75-.99-.24-.32-.49-.59-.82-.82-.37-.27-.73-.52-1.13-.73-.37-.2-.75-.37-1.12-.55-.36-.18-.54-.55-.73-.88-.18-.32-.37-.69-.64-.94-.07-.06-.15-.07-.21-.04-.12,0-.23.08-.2.23.19.96.4,1.91.71,2.84.16.47.35.92.53,1.39.17.45.35.89.61,1.29.25.38.56.73.88,1.05.32.33.65.68,1.05.9.41.23.91.3,1.36.41.33.08.67.1,1,.05v.89s0,1.93,0,1.93c0,.17.16.22.28.17.12.05.28,0,.28-.17v-2.82c.12.02.25.02.37.02.21,0,.42-.02.63-.07.46-.11.95-.18,1.36-.41.4-.22.73-.57,1.05-.9.32-.32.63-.67.88-1.05.26-.41.43-.85.6-1.29.18-.46.38-.92.53-1.39.3-.93.52-1.88.71-2.84.03-.14-.08-.23-.2-.23-.06-.03-.14-.02-.21.04-.28.25-.46.62-.65.94-.19.33-.37.7-.73.88-.37.18-.75.35-1.12.55-.4.21-.76.47-1.13.73-.32.23-.58.5-.82.82-.23.31-.52.58-.71.91-.01.03-.03.05-.05.08-.19.36-.29.75-.41,1.14-.04.11-.08.22-.13.33v-4.03c.22.02.44.04.66.04.64.01,1.27-.08,1.82-.41.7-.42,1.23-1.06,1.64-1.76.22-.37.43-.76.58-1.16.17-.46.27-.95.39-1.43.12-.48.25-.99.49-1.42.23-.43.56-.69,1.02-.85.21-.07.13-.41-.08-.41Zm-9.46,6.57c-.66-.43-1.13-1.12-1.51-1.8-.21-.39-.4-.78-.52-1.21-.14-.47-.23-.96-.36-1.43-.12-.45-.29-.89-.54-1.29-.12-.2-.27-.35-.45-.49,0,0,0,0,.02,0,.26,0,.52-.06.79-.05.5.02,1,.14,1.46.37.04.48.07.96.09,1.45.02.52,0,1.05.04,1.57.07.92.55,1.8,1.18,2.46.39.4.88.69,1.41.85-.56,0-1.11-.11-1.6-.43Zm.25-1.01c-.29-.35-.49-.76-.65-1.19-.17-.48-.18-.96-.18-1.46,0-.97-.06-1.94-.16-2.9-.04-.36-.11-.72-.27-1.04.19.1.38.2.58.3.26.13.49.29.7.48.02.05.06.08.11.1.15.14.29.29.42.46.34.44.68.87.99,1.34.16.24.32.49.42.77.07.18.13.36.19.54,0,.02-.01.05-.01.08v3.67c-.84-.04-1.6-.48-2.14-1.14Zm2.11,6.79c-.32-.17-.57-.38-.83-.64-.32-.31-.62-.65-.96-.93-.35-.29-.66-.55-.71-1.03-.03-.28-.47-.24-.44.04.05.42.23.78.55,1.07.17.16.37.29.54.45.16.16.31.34.48.49.31.28.58.6.95.82.08.05.17.09.26.14-.28.02-.57-.03-.86-.1-.42-.1-.88-.16-1.24-.43-.34-.24-.63-.56-.93-.85-.31-.31-.59-.67-.82-1.05-.23-.38-.36-.81-.52-1.22-.16-.42-.33-.82-.47-1.25-.19-.57-.34-1.15-.47-1.73.03.06.07.11.1.17.19.33.39.67.71.87.15.1.32.17.49.24.2.08.4.2.59.3.41.21.79.46,1.17.73.32.23.57.47.8.78.25.34.57.62.76,1,.18.37.26.77.39,1.15.07.2.17.37.27.56.06.13.12.28.21.39,0,0,.01.02.02.02v.02s-.02-.01-.03-.02Zm.36-10.05s-.03.08-.05.12c-.12-.31-.26-.61-.44-.9-.32-.51-.7-.97-1.07-1.45-.13-.17-.27-.33-.43-.48.08-.19.23-.36.34-.53.15-.24.32-.48.51-.69.21-.24.47-.42.72-.61.04-.03.09-.07.14-.1.07-.06.15-.11.23-.17.13.08.25.19.37.27.1.07.19.14.29.22.15.12.3.24.43.39.19.21.35.45.51.69.11.17.26.34.34.53-.15.15-.29.31-.43.48-.22.29-.44.58-.65.87-.14.19-.28.38-.41.59-.16.25-.28.51-.39.78Zm.25,10.03c.09-.11.15-.26.21-.39.09-.19.2-.36.27-.56h0c.13-.39.21-.78.39-1.15.18-.38.51-.66.76-1,.23-.31.48-.56.8-.78.38-.27.75-.52,1.17-.73.19-.1.39-.22.59-.3.17-.07.33-.14.49-.24.33-.21.53-.55.71-.87.03-.06.07-.11.1-.17-.13.58-.28,1.16-.47,1.73-.14.42-.31.83-.47,1.25-.16.41-.3.84-.52,1.22-.23.38-.51.74-.82,1.05-.3.3-.59.61-.93.85-.36.26-.82.32-1.24.43-.22.05-.44.08-.66.09-.07,0-.13.01-.2,0,.07-.04.14-.08.21-.11.01,0,.03-.02.04-.02.37-.22.64-.54.95-.82.17-.15.32-.33.48-.49.17-.16.36-.3.53-.45.31-.29.5-.64.55-1.07.03-.28-.4-.32-.43-.04-.06.48-.36.74-.72,1.03-.34.28-.64.62-.96.93-.13.13-.27.25-.41.36-.13.1-.27.19-.42.28-.01,0-.02.01-.03.02v-.02s.02-.01.02-.02Zm-.02-5.63v-3.67s0-.05-.01-.08c.06-.18.12-.36.19-.54.1-.27.26-.52.42-.77h0c.31-.46.65-.9.99-1.34.13-.17.27-.32.42-.46.05-.02.09-.05.11-.1.21-.18.44-.34.7-.48.19-.1.38-.21.58-.3-.16.31-.23.67-.27,1.04-.1.96-.16,1.94-.16,2.9,0,.5-.01.98-.18,1.46-.15.43-.36.83-.65,1.19-.39.48-.89.84-1.46,1.02-.22.07-.44.11-.67.12Zm5.32-5.86c-.24.4-.41.84-.54,1.29-.13.47-.21.96-.36,1.43-.13.42-.31.82-.52,1.21-.38.68-.85,1.37-1.51,1.8-.49.32-1.04.42-1.6.43.53-.16,1.03-.45,1.41-.85.63-.66,1.11-1.54,1.18-2.46.04-.52.02-1.05.04-1.57.02-.48.05-.96.09-1.45.45-.23.95-.35,1.46-.37.27-.01.52.04.79.05,0,0,0,0,.01,0-.18.13-.33.29-.45.49Z"/>
            <path class="cls-1" d="m86.46,16.46c.16-.15.22-.35.29-.55.04-.12.08-.23.1-.35.09-.16.12-.32-.04-.45-.06-.05-.14-.05-.2-.02-.07.02-.12.07-.15.14-.07.1-.12.23-.15.37,0,.02-.02.04-.03.05-.1.23-.19.43-.17.69.01.16.24.24.35.13Z"/>
          </g>
        </g>
      </g>
    </g>
  </g>
</svg>