<?xml version="1.0" encoding="UTF-8"?>
<svg id="_Слой_2" data-name="Слой 2" xmlns="http://www.w3.org/2000/svg" viewBox="0 0 143.54 143.54">
  <defs>
    <style>
      .cls-1, .cls-2 {
        fill: #262626;
      }

      .cls-3 {
        fill: #e8dedf;
      }

      .cls-2 {
        font-family: CourierNewPSMT, 'Courier New';
        font-size: 16.33px;
      }

      .cls-4 {
        fill: none;
        stroke: #262626;
        stroke-miterlimit: 10;
        stroke-width: 2px;
      }
    </style>
  </defs>
  <g id="_Слой_1-2" data-name="Слой 1">
    <g>
      <g>
        <circle class="cls-3" cx="71.98" cy="72.32" r="67.42"/>
        <text class="cls-2" transform="translate(24.95 61.92) rotate(-72.31)"><tspan x="0" y="0">☼</tspan></text>
        <text class="cls-2" transform="translate(27.78 52.91) rotate(-60.93)"><tspan x="0" y="0"> </tspan></text>
        <text class="cls-2" transform="translate(32.34 44.64) rotate(-49.54)"><tspan x="0" y="0">T</tspan></text>
        <text class="cls-2" transform="translate(38.46 37.41) rotate(-38.22)"><tspan x="0" y="0">H</tspan></text>
        <text class="cls-2" transform="translate(45.84 31.55) rotate(-26.98)"><tspan x="0" y="0">A</tspan></text>
        <text class="cls-2" transform="translate(54.26 27.23) rotate(-15.65)"><tspan x="0" y="0"> </tspan></text>
        <text class="cls-2" transform="translate(63.34 24.65) rotate(-4.27)"><tspan x="0" y="0">C</tspan></text>
        <text class="cls-2" transform="translate(72.76 23.91) rotate(7.09)"><tspan x="0" y="0">H</tspan></text>
        <text class="cls-2" transform="translate(82.14 25.04) rotate(18.28)"><tspan x="0" y="0">A</tspan></text>
        <text class="cls-2" transform="translate(91.13 27.97) rotate(29.67)"><tspan x="0" y="0">I</tspan></text>
        <text class="cls-2" transform="translate(99.36 32.63) rotate(41.07)"><tspan x="0" y="0"> </tspan></text>
        <text class="cls-2" transform="translate(106.51 38.82) rotate(52.38)"><tspan x="0" y="0">B</tspan></text>
        <text class="cls-2" transform="translate(112.3 46.26) rotate(63.62)"><tspan x="0" y="0">A</tspan></text>
        <text class="cls-2" transform="translate(116.54 54.73) rotate(74.96)"><tspan x="0" y="0">L</tspan></text>
        <text class="cls-2" transform="translate(119.02 63.85) rotate(86.36)"><tspan x="0" y="0">I</tspan></text>
        <text class="cls-2" transform="translate(119.66 73.25) rotate(97.68)"><tspan x="0" y="0"> </tspan></text>
        <text class="cls-2" transform="translate(118.42 82.65) rotate(108.92)"><tspan x="0" y="0">☼</tspan></text>
        <text class="cls-2" transform="translate(115.4 91.59) rotate(120.29)"><tspan x="0" y="0"> </tspan></text>
        <text class="cls-2" transform="translate(110.66 99.77) rotate(131.68)"><tspan x="0" y="0">T</tspan></text>
        <text class="cls-2" transform="translate(104.4 106.85) rotate(142.98)"><tspan x="0" y="0">H</tspan></text>
        <text class="cls-2" transform="translate(96.89 112.56) rotate(154.22)"><tspan x="0" y="0">A</tspan></text>
        <text class="cls-2" transform="translate(88.38 116.71) rotate(165.57)"><tspan x="0" y="0"> </tspan></text>
        <text class="cls-2" transform="translate(79.26 119.09) rotate(176.93)"><tspan x="0" y="0">C</tspan></text>
        <text class="cls-2" transform="translate(69.8 119.63) rotate(-171.69)"><tspan x="0" y="0">H</tspan></text>
        <text class="cls-2" transform="translate(60.45 118.3) rotate(-160.49)"><tspan x="0" y="0">A</tspan></text>
        <text class="cls-2" transform="translate(51.54 115.18) rotate(-149.11)"><tspan x="0" y="0">I</tspan></text>
        <text class="cls-2" transform="translate(43.42 110.37) rotate(-137.74)"><tspan x="0" y="0"> </tspan></text>
        <text class="cls-2" transform="translate(36.38 104.01) rotate(-126.41)"><tspan x="0" y="0">B</tspan></text>
        <text class="cls-2" transform="translate(30.76 96.45) rotate(-115.18)"><tspan x="0" y="0">A</tspan></text>
        <text class="cls-2" transform="translate(26.7 87.89) rotate(-103.82)"><tspan x="0" y="0">L</tspan></text>
        <text class="cls-2" transform="translate(24.41 78.74) rotate(-92.44)"><tspan x="0" y="0">I</tspan></text>
        <circle class="cls-4" cx="71.8" cy="71.84" r="63.76"/>
      </g>
      <path class="cls-1" d="m83.89,97.03c2.26-.19,4.25-.98,6.18-2.15,1.95-1.18,4.01-2.45,5.67-4.03,1.64-1.56,2.79-3.38,3.98-5.28,1.24-1.99,2.63-3.72,4.4-5.26,1.12-.96,2.7-2,3.2-3.47.56-1.67-.82-2.93-2.43-3.05-1.73-.14-3.49.52-4.97,1.36-.35.2-.67.41-.99.65.49-.9.93-1.83,1.41-2.73.69-1.3,1.44-2.55,2.29-3.73.79-1.12,1.67-2.14,2.4-3.29.73-1.15,1.37-2.34,1.86-3.6.41-1.02.96-2.18.54-3.29-.43-1.12-1.46-1.85-2.56-2.26-.5-.18-1.13-.47-1.74-.55.34-.67.6-1.35.64-2.13.04-.82-.07-1.59-.32-2.34,0-.02,0-.04,0-.05-.22-.97-1.1-1.45-2.03-1.59-.88-.12-1.91-.26-2.76.02-1.13.37-1.92,1.58-2.62,2.5-.11-.17-.24-.33-.36-.48-.62-.78-1.41-1.53-2.45-1.67-2.2-.3-3.74,1.07-4.79,2.88-1.35,2.34-2.44,4.88-3.38,7.4-.33.89-.71,1.76-1.1,2.61.03-.35.07-.71.09-1.06.11-1.29.16-2.56-.22-3.81-.67-2.21-3.21-3.86-5.41-2.51-1.14.7-1.67,1.94-1.94,3.24-.18.84-.25,1.71-.31,2.48-.29,3.62-.62,7.4-1.89,10.84-.05.13-.06.26-.05.38-.39.42-.75.89-1.09,1.37,0,0,0,0-.01.01-.34-.48-.7-.95-1.1-1.38.01-.12,0-.25-.05-.38-1.27-3.44-1.6-7.22-1.89-10.84-.16-1.98-.37-4.57-2.25-5.73-2.2-1.35-4.74.3-5.41,2.51-.38,1.25-.33,2.52-.22,3.81.03.35.06.71.09,1.06-.39-.85-.77-1.72-1.1-2.61-.94-2.52-2.04-5.06-3.38-7.4-1.05-1.82-2.59-3.18-4.79-2.88-1.03.14-1.83.89-2.45,1.67-.12.15-.24.31-.36.48-.69-.92-1.48-2.13-2.61-2.5-.86-.28-1.88-.15-2.76-.02-.94.14-1.81.62-2.03,1.59,0,.02,0,.04-.01.05-.25.75-.36,1.53-.32,2.34.04.79.3,1.47.64,2.13-.6.08-1.24.37-1.74.55-1.1.41-2.13,1.13-2.56,2.26-.42,1.11.14,2.27.54,3.29.5,1.26,1.14,2.44,1.86,3.6.73,1.15,1.61,2.18,2.4,3.29.85,1.18,1.6,2.43,2.29,3.73.49.9.92,1.82,1.41,2.73-.31-.24-.64-.45-.99-.65-1.48-.84-3.24-1.5-4.96-1.36-1.61.12-3,1.39-2.43,3.05.5,1.47,2.08,2.51,3.19,3.47,1.78,1.54,3.16,3.26,4.4,5.26,1.19,1.91,2.34,3.72,3.98,5.28,1.66,1.58,3.72,2.85,5.67,4.03,1.92,1.18,3.92,1.96,6.18,2.15,1.85.16,3.76-.02,5.51-.68,1.88-.7,3.51-1.97,5.24-2.97.22.12.43.26.64.39,1.04.64,2.07,1.33,3.14,1.91.48.26.96.49,1.46.67,1.75.66,3.65.83,5.51.68Zm-17.51-1.94c-2.07.58-4.51.4-6.53-.28-2.23-.76-4.22-2.27-6.13-3.61-1.83-1.28-3.37-2.79-4.57-4.67-1.24-1.96-2.39-3.97-3.97-5.68-1.26-1.37-2.87-2.38-4.09-3.77-.26-.3-.88-.98-.43-1.33.68-.53,1.74-.31,2.5-.11,1.8.43,3.48,1.51,4.68,2.91.48.56.89,1.18,1.3,1.79.26.4.69.43,1.03.26.55.08,1.23-.4,1.01-1.11-.63-2.04-2.03-3.71-2.96-5.62-1.08-2.24-2.31-4.45-3.87-6.4-1.5-1.88-2.72-3.86-3.59-6.11-.17-.43-.35-.87-.4-1.33-.06-.56.53-1.01.94-1.27.39-.25.87-.38,1.31-.53.27-.1.67-.27.96-.19.18.06.35.05.48,0l1.24,2.23c.6,1.07,1.03,2.21,1.5,3.34.9,2.17,2.07,4.21,3.37,6.16,1.31,1.97,2.44,4.05,3.77,6.01.6.89,2-.08,1.4-.97-1.22-1.8-2.22-3.73-3.45-5.53-1.24-1.82-2.4-3.72-3.28-5.74-.4-.92-.76-1.86-1.17-2.79-.47-1.04-1.06-2.03-1.61-3.03-1.01-1.8-2.2-3.47-1.33-5.59.02-.04.03-.08.04-.11.28-.25,1.57-.22,1.77-.24,1.12-.08,1.61.78,2.24,1.57,1.43,1.8,2.79,3.75,3.9,5.77,1.1,1.99,1.65,4.25,2.55,6.34.94,2.18,2.05,4.34,3.27,6.37.55.92,1.94-.05,1.39-.97-1.38-2.33-2.62-4.79-3.61-7.3-.48-1.23-.86-2.51-1.4-3.72-.58-1.29-1.26-2.48-2.03-3.67-.38-.59-.77-1.17-1.18-1.76.17-.19.25-.45.15-.72.06-.11.14-.2.22-.3.24-.31.48-.61.79-.86.6-.48,1.54-.43,2.17-.04,1.48.92,2.19,2.95,2.91,4.44.92,1.91,1.66,3.87,2.42,5.84.79,2.02,1.87,3.89,2.84,5.82.39.79,1.78.66,1.64-.36-.21-1.59-.42-3.18-.59-4.78-.13-1.22-.3-2.48-.12-3.7.13-.88.46-1.72,1.23-2.21.75-.48,1.79-.26,2.32.42.52.67.69,1.6.81,2.42.18,1.19.22,2.41.34,3.6.24,2.39.53,4.83,1.15,7.18-1.15-.65-2.47-.97-3.97-.81-3.56.39-6.29,3.33-7.03,6.73-.81,3.72.9,7.46,3.51,10.04,2.53,2.49,5.94,3.92,9.21,5.3-1.63,1-3.21,2.12-5.07,2.64Zm7.23-3.97c-.16.07-.32.14-.48.2-5.66-2.43-13.36-5.55-12.87-12.94.19-2.94,2.26-5.63,5.19-6.25,3.21-.67,5.35,1.72,6.9,4.19.2.32.51.4.79.34.02,0,.03,0,.04,0,.28.05.56-.04.75-.34.63-1.01,1.37-1.99,2.23-2.77,1.25-1.13,2.77-1.82,4.67-1.42,2.93.62,5,3.31,5.19,6.25.39,5.97-4.56,9.15-9.45,11.43-1,.47-2,.9-2.95,1.3Zm6.28,3.97c-1.11-.31-2.12-.84-3.1-1.42-.67-.4-1.32-.81-1.98-1.22.62-.27,1.23-.53,1.85-.8,2.67-1.17,5.3-2.48,7.36-4.5,2.61-2.57,4.32-6.32,3.51-10.04-.74-3.4-3.47-6.33-7.03-6.73-1.51-.16-2.82.16-3.97.81.62-2.34.91-4.78,1.14-7.18.12-1.2.17-2.41.35-3.6.12-.82.29-1.75.81-2.42.52-.69,1.56-.9,2.31-.42.77.49,1.11,1.33,1.24,2.21.18,1.22,0,2.48-.13,3.7-.17,1.6-.38,3.19-.59,4.78-.14,1.02,1.25,1.15,1.64.36.97-1.93,2.05-3.81,2.84-5.82.77-1.97,1.51-3.93,2.43-5.84.72-1.49,1.43-3.53,2.91-4.44.64-.4,1.57-.44,2.17.04.31.24.55.55.79.86.07.09.16.19.21.3-.1.26-.02.53.15.72-.4.58-.79,1.17-1.17,1.76-.77,1.19-1.45,2.38-2.03,3.67-.54,1.21-.91,2.48-1.4,3.72-.99,2.51-2.22,4.97-3.6,7.3-.55.92.84,1.89,1.39.97,1.21-2.04,2.32-4.19,3.26-6.37.9-2.08,1.45-4.35,2.55-6.34,1.11-2.02,2.47-3.97,3.9-5.77.63-.79,1.13-1.66,2.24-1.57.2.01,1.49-.01,1.77.24.01.04.02.08.04.11.87,2.12-.32,3.78-1.32,5.59-.56,1-1.15,1.98-1.61,3.03-.41.92-.77,1.86-1.17,2.79-.89,2.02-2.05,3.92-3.29,5.74-1.22,1.8-2.22,3.73-3.44,5.53-.61.89.79,1.86,1.4.97,1.33-1.96,2.46-4.05,3.77-6.01,1.3-1.95,2.47-4,3.37-6.16.47-1.13.91-2.28,1.5-3.34l1.24-2.23c.14.06.29.06.48,0,.29-.08.69.09.96.19.43.15.92.28,1.3.53.41.26,1,.7.94,1.27-.05.46-.23.89-.4,1.33-.87,2.24-2.09,4.23-3.59,6.11-1.56,1.95-2.79,4.16-3.87,6.4-.92,1.91-2.32,3.58-2.95,5.62-.21.71.46,1.2,1.01,1.11.33.17.76.15,1.03-.26.41-.62.82-1.24,1.31-1.79,1.19-1.4,2.88-2.48,4.68-2.91.76-.19,1.82-.42,2.5.11.45.35-.17,1.03-.43,1.33-1.21,1.39-2.83,2.4-4.09,3.77-1.59,1.72-2.72,3.72-3.97,5.68-1.2,1.89-2.74,3.39-4.56,4.67-1.91,1.34-3.9,2.85-6.13,3.61-2.02.68-4.46.86-6.53.28Z"/>
    </g>
  </g>
</svg>