<?xml version="1.0" encoding="UTF-8"?>
<svg id="_Слой_2" data-name="Слой 2" xmlns="http://www.w3.org/2000/svg" viewBox="0 0 257.93 122.86">
  <defs>
    <style>
      .cls-1, .cls-2, .cls-3, .cls-4 {
        fill: #262626;
      }

      .cls-2 {
        font-family: KozGoPr6N-Regular-90ms-RKSJ-H, 'Kozuka Gothic Pr6N';
        font-size: 24px;
      }

      .cls-5 {
        fill: #e8dedf;
      }

      .cls-3 {
        font-family: Dreamcast, Dreamcast;
      }

      .cls-4 {
        font-family: CourierNewPSMT, 'Courier New';
        font-size: 11.14px;
      }

      .cls-6 {
        fill: none;
      }

      .cls-6, .cls-7 {
        stroke: #262626;
        stroke-miterlimit: 10;
        stroke-width: 2px;
      }

      .cls-8 {
        font-size: 30px;
      }

      .cls-9 {
        font-size: 12px;
      }

      .cls-7 {
        fill: #fff;
      }
    </style>
  </defs>
  <g id="_Слой_1-2" data-name="Слой 1">
    <g>
      <g>
        <rect class="cls-7" x="4.47" y="9.93" width="249" height="103" transform="translate(-4.1 9.48) rotate(-4.14)"/>
        <text class="cls-3" transform="translate(15.33 56.5) rotate(-4.14)"><tspan class="cls-8" x="0" y="0">PICK UP </tspan><tspan class="cls-9" x="103.17" y="0"> </tspan><tspan class="cls-9"><tspan x="0" y="14.4">WHICH TEA SUITS YOU</tspan></tspan></text>
        <text class="cls-2" transform="translate(69.88 103.68) rotate(-4.14)"><tspan x="0" y="0">拿起茶</tspan></text>
        <g>
          <circle class="cls-5" cx="194.13" cy="57.53" r="46"/>
          <text class="cls-4" transform="translate(164.3 51.96) rotate(-76.45)"><tspan x="0" y="0">☼</tspan></text>
          <text class="cls-4" transform="translate(165.78 45.7) rotate(-65.1)"><tspan x="0" y="0"> </tspan></text>
          <text class="cls-4" transform="translate(168.48 39.83) rotate(-53.68)"><tspan x="0" y="0">T</tspan></text>
          <text class="cls-4" transform="translate(172.27 34.64) rotate(-42.4)"><tspan x="0" y="0">H</tspan></text>
          <text class="cls-4" transform="translate(177.03 30.27) rotate(-31.13)"><tspan x="0" y="0">A</tspan></text>
          <text class="cls-4" transform="translate(182.52 26.92) rotate(-19.84)"><tspan x="0" y="0"> </tspan></text>
          <text class="cls-4" transform="translate(188.57 24.71) rotate(-8.46)"><tspan x="0" y="0">C</tspan></text>
          <text class="cls-4" transform="translate(194.94 23.74) rotate(2.9)"><tspan x="0" y="0">H</tspan></text>
          <text class="cls-4" transform="translate(201.38 24.04) rotate(14.09)"><tspan x="0" y="0">A</tspan></text>
          <text class="cls-4" transform="translate(207.61 25.58) rotate(25.43)"><tspan x="0" y="0">I</tspan></text>
          <text class="cls-4" transform="translate(213.45 28.33) rotate(36.84)"><tspan x="0" y="0"> </tspan></text>
          <text class="cls-4" transform="translate(218.61 32.17) rotate(48.11)"><tspan x="0" y="0">B</tspan></text>
          <text class="cls-4" transform="translate(222.94 36.96) rotate(59.39)"><tspan x="0" y="0">A</tspan></text>
          <text class="cls-4" transform="translate(226.24 42.48) rotate(70.68)"><tspan x="0" y="0">L</tspan></text>
          <text class="cls-4" transform="translate(228.39 48.56) rotate(82.08)"><tspan x="0" y="0">I</tspan></text>
          <text class="cls-4" transform="translate(229.31 54.95) rotate(93.45)"><tspan x="0" y="0"> </tspan></text>
          <text class="cls-4" transform="translate(228.95 61.35) rotate(104.59)"><tspan x="0" y="0">☼</tspan></text>
          <text class="cls-4" transform="translate(227.35 67.6) rotate(115.97)"><tspan x="0" y="0"> </tspan></text>
          <text class="cls-4" transform="translate(224.55 73.4) rotate(127.36)"><tspan x="0" y="0">T</tspan></text>
          <text class="cls-4" transform="translate(220.65 78.55) rotate(138.67)"><tspan x="0" y="0">H</tspan></text>
          <text class="cls-4" transform="translate(215.83 82.81) rotate(149.9)"><tspan x="0" y="0">A</tspan></text>
          <text class="cls-4" transform="translate(210.28 86.06) rotate(161.2)"><tspan x="0" y="0"> </tspan></text>
          <text class="cls-4" transform="translate(204.18 88.16) rotate(172.61)"><tspan x="0" y="0">C</tspan></text>
          <text class="cls-4" transform="translate(197.8 89.01) rotate(-176.06)"><tspan x="0" y="0">H</tspan></text>
          <text class="cls-4" transform="translate(191.36 88.6) rotate(-164.84)"><tspan x="0" y="0">A</tspan></text>
          <text class="cls-4" transform="translate(185.14 86.94) rotate(-153.47)"><tspan x="0" y="0">I</tspan></text>
          <text class="cls-4" transform="translate(179.36 84.08) rotate(-142.09)"><tspan x="0" y="0"> </tspan></text>
          <text class="cls-4" transform="translate(174.26 80.14) rotate(-130.8)"><tspan x="0" y="0">B</tspan></text>
          <text class="cls-4" transform="translate(170.03 75.27) rotate(-119.53)"><tspan x="0" y="0">A</tspan></text>
          <text class="cls-4" transform="translate(166.83 69.68) rotate(-108.22)"><tspan x="0" y="0">L</tspan></text>
          <text class="cls-4" transform="translate(164.8 63.57) rotate(-96.84)"><tspan x="0" y="0">I</tspan></text>
          <circle class="cls-6" cx="196.66" cy="56.34" r="43.5"/>
        </g>
      </g>
      <path class="cls-1" d="m206.13,72.89c1.53-.24,2.85-.87,4.1-1.77,1.27-.9,2.61-1.86,3.66-3.02,1.04-1.15,1.73-2.44,2.45-3.79.75-1.42,1.6-2.66,2.74-3.79.72-.71,1.74-1.5,2-2.52.3-1.16-.7-1.95-1.8-1.96-1.18-.01-2.35.53-3.32,1.17-.23.15-.44.31-.64.49.29-.64.54-1.29.83-1.93.41-.92.86-1.8,1.37-2.65.49-.8,1.03-1.54,1.47-2.36.44-.82.81-1.66,1.09-2.54.23-.72.55-1.53.2-2.27-.35-.74-1.09-1.18-1.85-1.41-.35-.1-.8-.26-1.21-.29.2-.47.34-.95.33-1.48-.01-.56-.12-1.08-.34-1.58,0-.01,0-.02,0-.04-.2-.65-.82-.93-1.46-.98-.6-.04-1.31-.08-1.88.15-.75.31-1.23,1.17-1.66,1.83-.09-.11-.18-.21-.27-.31-.46-.5-1.04-.97-1.75-1.01-1.51-.09-2.49.91-3.12,2.2-.8,1.66-1.42,3.44-1.93,5.2-.18.62-.4,1.23-.62,1.83,0-.24.01-.48.01-.73,0-.88-.02-1.75-.34-2.58-.57-1.47-2.37-2.47-3.81-1.44-.74.53-1.04,1.4-1.16,2.3-.08.58-.08,1.18-.09,1.7-.02,2.48-.05,5.07-.75,7.47-.03.09-.03.18-.01.26-.24.31-.47.64-.68.98,0,0,0,0,0,0-.25-.31-.53-.61-.81-.88,0-.08-.01-.17-.05-.26-1.03-2.27-1.45-4.83-1.82-7.28-.2-1.34-.48-3.09-1.81-3.79-1.56-.81-3.21.44-3.56,1.97-.2.87-.1,1.73.04,2.6.04.24.08.48.12.72-.31-.56-.61-1.14-.88-1.72-.77-1.67-1.64-3.35-2.67-4.87-.8-1.18-1.92-2.04-3.4-1.73-.7.15-1.2.69-1.58,1.26-.07.1-.15.22-.22.34-.52-.59-1.12-1.38-1.9-1.57-.6-.15-1.29,0-1.88.12-.63.14-1.2.51-1.3,1.18,0,.01,0,.02,0,.04-.14.52-.17,1.06-.1,1.61.07.53.28.98.54,1.42-.41.09-.83.31-1.16.46-.72.33-1.39.88-1.63,1.66-.23.78.2,1.54.53,2.21.4.83.9,1.61,1.45,2.36.56.75,1.2,1.4,1.79,2.12.64.76,1.21,1.58,1.74,2.42.37.59.72,1.2,1.09,1.79-.22-.15-.46-.27-.7-.4-1.05-.5-2.28-.86-3.45-.68-1.09.16-1.97,1.09-1.51,2.2.41.98,1.54,1.61,2.35,2.21,1.29.96,2.31,2.06,3.26,3.36.91,1.24,1.78,2.42,2.97,3.4,1.21.99,2.67,1.75,4.06,2.46,1.37.71,2.76,1.14,4.31,1.16,1.27.02,2.55-.2,3.71-.73,1.25-.57,2.29-1.52,3.42-2.28.15.07.3.15.46.24.74.38,1.47.8,2.23,1.14.34.15.68.29,1.03.39,1.22.36,2.52.39,3.78.19Zm-12.01-.46c-1.38.5-3.05.5-4.46.13-1.56-.4-2.98-1.34-4.35-2.15-1.31-.78-2.43-1.73-3.34-2.96-.94-1.27-1.82-2.58-2.98-3.67-.92-.87-2.07-1.48-2.97-2.36-.19-.19-.65-.62-.36-.89.44-.4,1.17-.29,1.7-.2,1.25.21,2.45.86,3.33,1.75.35.36.67.76.97,1.16.2.26.49.26.71.13.38.03.81-.34.63-.81-.53-1.36-1.57-2.43-2.29-3.68-.85-1.47-1.79-2.91-2.95-4.16-1.11-1.2-2.04-2.5-2.74-3.98-.13-.29-.28-.57-.34-.88-.07-.38.31-.71.58-.91.25-.19.58-.3.86-.43.18-.08.44-.22.64-.18.13.03.24.02.33-.03l.96,1.46c.46.7.81,1.46,1.18,2.2.72,1.43,1.62,2.76,2.6,4.03.99,1.27,1.86,2.64,2.86,3.91.46.58,1.35-.15.9-.73-.92-1.17-1.7-2.43-2.62-3.59-.93-1.18-1.81-2.41-2.52-3.75-.32-.61-.61-1.23-.94-1.84-.37-.69-.82-1.33-1.24-1.98-.77-1.18-1.67-2.25-1.18-3.74.01-.03.01-.05.02-.08.18-.18,1.06-.23,1.19-.25.76-.11,1.13.45,1.6.96,1.06,1.15,2.08,2.42,2.94,3.73.85,1.3,1.33,2.81,2.05,4.19.75,1.44,1.61,2.85,2.54,4.17.42.6,1.32-.13.9-.73-1.06-1.52-2.02-3.13-2.81-4.79-.39-.82-.71-1.66-1.13-2.46-.46-.85-.98-1.62-1.56-2.4-.29-.38-.58-.76-.89-1.14.11-.14.15-.32.07-.49.03-.07.09-.14.13-.21.15-.22.3-.44.49-.62.39-.35,1.03-.37,1.48-.13,1.05.55,1.64,1.9,2.2,2.88.72,1.25,1.32,2.55,1.94,3.85.64,1.33,1.46,2.56,2.22,3.82.31.52,1.24.36,1.1-.33-.22-1.07-.45-2.14-.64-3.22-.15-.82-.33-1.67-.27-2.51.04-.6.23-1.19.73-1.56.49-.36,1.21-.27,1.6.17.38.43.55,1.05.67,1.6.18.8.27,1.63.41,2.44.28,1.62.6,3.26,1.14,4.83-.81-.38-1.73-.54-2.74-.36-2.41.44-4.12,2.58-4.45,4.92-.37,2.57.98,5.03,2.88,6.66,1.85,1.57,4.24,2.37,6.53,3.15-1.06.76-2.08,1.6-3.32,2.05Zm4.72-3.06c-.1.06-.21.11-.31.16-3.97-1.37-9.36-3.12-9.4-8.17-.02-2.01,1.26-3.94,3.22-4.51,2.15-.62,3.73.91,4.9,2.51.15.21.37.25.55.2.01,0,.02,0,.03,0,.19.02.38-.05.5-.27.38-.72.83-1.42,1.38-1.99.79-.83,1.79-1.38,3.11-1.19,2.03.28,3.57,2.01,3.84,4,.56,4.04-2.65,6.45-5.87,8.24-.66.37-1.32.71-1.94,1.03Zm4.47,2.39c-.77-.16-1.48-.47-2.18-.82-.47-.24-.94-.49-1.41-.73.41-.21.81-.42,1.22-.63,1.76-.93,3.49-1.95,4.79-3.43,1.65-1.88,2.63-4.51,1.89-7-.67-2.27-2.67-4.14-5.12-4.23-1.03-.03-1.91.25-2.66.75.31-1.63.38-3.3.42-4.94.02-.82,0-1.65.06-2.47.04-.56.11-1.2.43-1.68.32-.49,1.02-.69,1.55-.4.55.29.82.85.95,1.44.18.82.12,1.69.1,2.52-.03,1.1-.1,2.19-.17,3.28-.04.7.91.72,1.14.16.56-1.36,1.21-2.69,1.64-4.1.43-1.38.83-2.75,1.36-4.09.42-1.05.8-2.47,1.76-3.17.41-.3,1.04-.38,1.48-.08.22.15.4.34.58.55.05.06.12.12.16.19-.05.18.01.36.14.48-.24.42-.48.83-.71,1.25-.46.85-.87,1.69-1.2,2.6-.31.85-.5,1.73-.77,2.6-.55,1.76-1.27,3.49-2.09,5.15-.33.65.67,1.25,1,.59.73-1.45,1.37-2.97,1.91-4.5.51-1.46.77-3.03,1.43-4.44.66-1.43,1.48-2.83,2.37-4.12.39-.57.69-1.18,1.45-1.18.13,0,1.01-.08,1.21.07.01.02.02.05.03.08.7,1.4-.03,2.59-.63,3.87-.33.71-.68,1.41-.95,2.14-.23.65-.43,1.31-.66,1.95-.51,1.42-1.2,2.77-1.95,4.07-.74,1.28-1.32,2.65-2.07,3.93-.37.63.63,1.23,1,.59.81-1.4,1.47-2.88,2.27-4.28.79-1.39,1.48-2.84,1.99-4.36.26-.79.51-1.59.85-2.35l.73-1.58c.1.03.2.03.33-.02.19-.07.47.03.66.08.3.08.64.15.91.3.29.16.72.43.7.82-.01.32-.11.62-.21.92-.48,1.57-1.21,2.98-2.14,4.33-.96,1.4-1.69,2.97-2.32,4.55-.53,1.34-1.4,2.55-1.73,3.97-.11.49.37.79.74.71.24.1.53.06.69-.23.25-.44.5-.88.8-1.29.74-1.01,1.84-1.83,3.04-2.21.51-.17,1.22-.37,1.71-.05.32.22-.06.71-.23.93-.76,1.01-1.81,1.77-2.6,2.77-.99,1.25-1.67,2.67-2.42,4.06-.72,1.34-1.7,2.44-2.88,3.41-1.23,1-2.51,2.13-3.99,2.76-1.34.56-2.99.8-4.43.51Z"/>
    </g>
  </g>
</svg>