<?xml version="1.0" encoding="UTF-8"?>
<svg id="_Слой_2" data-name="Слой 2" xmlns="http://www.w3.org/2000/svg" viewBox="0 0 67.6 67.57">
  <defs>
    <style>
      .cls-1, .cls-2 {
        fill: #262626;
      }

      .cls-2 {
        font-family: CourierNewPSMT, 'Courier New';
        font-size: 7.55px;
      }

      .cls-3 {
        stroke: #262626;
      }

      .cls-3, .cls-4 {
        fill: none;
        stroke-miterlimit: 10;
        stroke-width: .75px;
      }

      .cls-5 {
        fill: #e8dedf;
      }

      .cls-4 {
        stroke: #faf8f8;
      }
    </style>
  </defs>
  <g id="_Слой_1-2" data-name="Слой 1">
    <g>
      <g>
        <ellipse class="cls-5" cx="33.8" cy="33.78" rx="33.79" ry="33.77"/>
        <text class="cls-2" transform="translate(11.71 34.79) rotate(-86.63)"><tspan x="0" y="0">☼</tspan></text>
        <text class="cls-2" transform="translate(11.94 30.45) rotate(-75.33)"><tspan x="0" y="0"> </tspan></text>
        <text class="cls-2" transform="translate(13.04 26.21) rotate(-63.9)"><tspan x="0" y="0">W</tspan></text>
        <text class="cls-2" transform="translate(14.96 22.26) rotate(-52.54)"><tspan x="0" y="0">H</tspan></text>
        <text class="cls-2" transform="translate(17.58 18.8) rotate(-41.34)"><tspan x="0" y="0">I</tspan></text>
        <text class="cls-2" transform="translate(20.87 15.89) rotate(-29.98)"><tspan x="0" y="0">T</tspan></text>
        <text class="cls-2" transform="translate(24.63 13.7) rotate(-18.64)"><tspan x="0" y="0">E</tspan></text>
        <text class="cls-2" transform="translate(28.78 12.28) rotate(-7.23)"><tspan x="0" y="0"> </tspan></text>
        <text class="cls-2" transform="translate(33.12 11.72) rotate(3.95)"><tspan x="0" y="0">T</tspan></text>
        <text class="cls-2" transform="translate(37.47 12) rotate(15.28)"><tspan x="0" y="0">E</tspan></text>
        <text class="cls-2" transform="translate(41.69 13.14) rotate(26.68)"><tspan x="0" y="0">A</tspan></text>
        <text class="cls-2" transform="translate(45.62 15.1) rotate(38.03)"><tspan x="0" y="0"> </tspan></text>
        <text class="cls-2" transform="translate(49.08 17.78) rotate(49.31)"><tspan x="0" y="0">☼</tspan></text>
        <text class="cls-2" transform="translate(51.94 21.08) rotate(60.61)"><tspan x="0" y="0"> </tspan></text>
        <text class="cls-2" transform="translate(54.09 24.88) rotate(72.02)"><tspan x="0" y="0">W</tspan></text>
        <text class="cls-2" transform="translate(55.46 29.03) rotate(83.39)"><tspan x="0" y="0">H</tspan></text>
        <text class="cls-2" transform="translate(55.98 33.39) rotate(94.63)"><tspan x="0" y="0">I</tspan></text>
        <text class="cls-2" transform="translate(55.65 37.74) rotate(106)"><tspan x="0" y="0">T</tspan></text>
        <text class="cls-2" transform="translate(54.46 41.94) rotate(117.39)"><tspan x="0" y="0">E</tspan></text>
        <text class="cls-2" transform="translate(52.47 45.82) rotate(128.66)"><tspan x="0" y="0"> </tspan></text>
        <text class="cls-2" transform="translate(49.74 49.25) rotate(139.94)"><tspan x="0" y="0">☼</tspan></text>
        <text class="cls-2" transform="translate(46.41 52.07) rotate(151.24)"><tspan x="0" y="0"> </tspan></text>
        <text class="cls-2" transform="translate(42.57 54.2) rotate(162.7)"><tspan x="0" y="0">T</tspan></text>
        <text class="cls-2" transform="translate(38.4 55.51) rotate(174.03)"><tspan x="0" y="0">H</tspan></text>
        <text class="cls-2" transform="translate(34.06 55.98) rotate(-174.79)"><tspan x="0" y="0">A</tspan></text>
        <text class="cls-2" transform="translate(29.71 55.6) rotate(-163.42)"><tspan x="0" y="0"> </tspan></text>
        <text class="cls-2" transform="translate(25.52 54.37) rotate(-152.05)"><tspan x="0" y="0">C</tspan></text>
        <text class="cls-2" transform="translate(21.64 52.33) rotate(-140.72)"><tspan x="0" y="0">H</tspan></text>
        <text class="cls-2" transform="translate(18.24 49.57) rotate(-129.45)"><tspan x="0" y="0">A</tspan></text>
        <text class="cls-2" transform="translate(15.46 46.21) rotate(-118.13)"><tspan x="0" y="0">I</tspan></text>
        <ellipse class="cls-4" cx="33.8" cy="33.78" rx="31.29" ry="31.27"/>
        <ellipse class="cls-3" cx="33.8" cy="33.78" rx="29.5" ry="29.48"/>
      </g>
      <g>
        <path class="cls-1" d="m33.49,47.02c.05.03.1.05.14.07.78.31,1.77-.1,2.58-1.07.96-1.15,1.87-2.32,2.73-3.53,3.51-4.89,6.25-10.25,8.18-15.99.05-.14.04-.28-.03-.41-.16-.32-.43-.54-.78-.6-.62-.11-1.34.28-1.78.7-3.55,3.45-6.55,7.43-8.91,11.83-.19.35-.4.73-.64,1.14-.47.82-.99,1.74-1.43,2.66-.22-2.93-.89-5.54-2.03-7.86-1.86-3.77-5.01-6.83-7.79-9.52-.13-.13-.32-.18-.5-.14-.18.04-.33.16-.39.34-2.85,7.29.28,16.53,6.97,20.59.72.44,1.66.91,2.66.79-.09,1.44-.29,2.96-.57,4.54l.96.87c.29-1.53.5-2.99.63-4.39Zm12.45-20.44c-2.36,6.86-5.92,13.15-10.57,18.73-.53.63-1.07.86-1.33.75-.04-.02-.08-.06-.11-.09,2.66-5.03,5.7-9.91,9.06-14.52l.18-.25c1.04-1.42,2.1-2.9,2.67-4.58.04-.02.08-.03.11-.04Zm-10,13.11c.24-.42.46-.81.65-1.16.98-1.82,2.07-3.57,3.27-5.24,1.63-2.26,3.44-4.38,5.44-6.32.05-.05.11-.1.17-.14-.57,1.52-1.56,2.89-2.53,4.21l-.18.25c-3.32,4.56-6.34,9.4-8.99,14.38-.05-.19-.07-.43-.06-.72.09-1.53,1.27-3.6,2.23-5.27Zm-5.4-5.26c1.08,2.2,1.72,4.67,1.93,7.47-1.77-4.04-3.5-8.14-5.16-12.22,1.26,1.46,2.38,3.02,3.24,4.75Zm-6.96-8.63c1.08,1.05,2.16,2.12,3.17,3.25,1.85,4.55,3.78,9.12,5.75,13.62.02.44.03.9.03,1.36-.64-1.77-1.62-3.5-2.58-5.19-.33-.58-.66-1.16-.96-1.72-.64-1.19-1.18-2.47-1.7-3.7-.36-.85-.74-1.74-1.14-2.59-.78-1.64-1.72-3.24-2.64-4.79.02-.08.04-.16.07-.23Zm6.8,18.46c-4.77-2.89-7.6-8.59-7.5-14.16.42,1.88.9,3.77,1.69,5.54.75,1.71,1.84,3.43,3.31,5.28,1.09,1.36,2.27,2.65,3.54,3.85-.37-.13-.73-.32-1.04-.51Zm2.12.61c-.17.04-.35.05-.54.03-1.39-1.28-2.69-2.67-3.87-4.14-1.46-1.83-2.53-3.54-3.28-5.22-.91-2.06-1.42-4.3-1.89-6.48.08-.9.23-1.79.47-2.66.87,1.47,1.75,2.99,2.5,4.55.4.85.78,1.73,1.14,2.58.52,1.24,1.07,2.51,1.72,3.72.3.56.63,1.14.96,1.72,1.09,1.92,2.21,3.9,2.8,5.91,0,0-.01,0-.02,0Z"/>
        <path class="cls-1" d="m31.92,30.18c.99.2,2.05-.25,2.62-1.05.1-.15.19-.3.26-.47.36-.88.21-1.98-.41-2.95-.37-.58-.82-.96-1.32-1.14-.62-.22-1.3-.08-1.91.39-.86.66-1.46,1.86-1.39,2.78.1,1.19,1,2.21,2.15,2.44Zm-.09-4.35c.22-.17.55-.34.88-.23.27.1.53.33.77.7.33.51.59,1.28.32,1.93-.26.62-1,1-1.66.87-.66-.13-1.22-.77-1.27-1.45-.04-.48.35-1.35.96-1.82Z"/>
        <path class="cls-1" d="m38.41,24.86c.01.33.08.63.2.89.4.91,1.51,1.43,2.52,1.19.57-.14,1.07-.5,1.42-.98.21-.3.37-.64.45-1.01.07-.34.07-.67,0-.96-.16-.65-.7-1.2-1.39-1.43-.88-.3-1.7-.21-2.31.24-.59.44-.9,1.17-.86,2.06Zm1.52-1.18c.31-.23.77-.26,1.3-.08.34.11.61.37.68.66.03.13.03.29,0,.48-.12.56-.54,1.03-1.05,1.15-.49.12-1.07-.14-1.26-.57-.06-.13-.09-.3-.1-.49-.02-.52.14-.93.42-1.14Z"/>
        <path class="cls-1" d="m33.68,19.91c.33.15.72.07,1.06-.05.28-.1.56-.25.73-.49.21-.32.18-.76,0-1.1-.18-.34-.49-.6-.81-.81-1.26-.84-2.04,1.21-1.37,2.12.1.14.24.27.4.34Z"/>
      </g>
    </g>
  </g>
</svg>