<?xml version="1.0" encoding="UTF-8"?>
<svg id="_Слой_2" data-name="Слой 2" xmlns="http://www.w3.org/2000/svg" viewBox="0 0 68.03 68">
  <defs>
    <style>
      .cls-1 {
        stroke: #000;
      }

      .cls-1, .cls-2, .cls-3 {
        fill: none;
        stroke-miterlimit: 10;
      }

      .cls-2 {
        stroke: #262626;
      }

      .cls-2, .cls-3 {
        stroke-width: .75px;
      }

      .cls-3 {
        stroke: #faf8f8;
      }

      .cls-4 {
        fill: #262626;
        font-family: CourierNewPSMT, 'Courier New';
        font-size: 7.6px;
      }

      .cls-5 {
        fill: #d7da93;
      }
    </style>
  </defs>
  <g id="_Слой_1-2" data-name="Слой 1">
    <g>
      <g>
        <ellipse class="cls-5" cx="34.02" cy="34" rx="34.01" ry="33.99"/>
        <text class="cls-4" transform="translate(12.19 38.62) rotate(-96.04) skewX(-.01)"><tspan x="0" y="0">☼</tspan></text>
        <text class="cls-4" transform="translate(11.71 34.26) rotate(-84.69)"><tspan x="0" y="0"> </tspan></text>
        <text class="cls-4" transform="translate(12.1 29.87) rotate(-73.27)"><tspan x="0" y="0">S</tspan></text>
        <text class="cls-4" transform="translate(13.36 25.63) rotate(-61.9)"><tspan x="0" y="0">H</tspan></text>
        <text class="cls-4" transform="translate(15.42 21.74) rotate(-50.61)"><tspan x="0" y="0">E</tspan></text>
        <text class="cls-4" transform="translate(18.19 18.33) rotate(-39.33)"><tspan x="0" y="0">N</tspan></text>
        <text class="cls-4" transform="translate(21.6 15.53) rotate(-27.9)"><tspan x="0" y="0">G</tspan></text>
        <text class="cls-4" transform="translate(25.46 13.46) rotate(-16.59) skewX(.01)"><tspan x="0" y="0"> </tspan></text>
        <text class="cls-4" transform="translate(29.69 12.19) rotate(-5.35) skewX(.01)"><tspan x="0" y="0">P</tspan></text>
        <text class="cls-4" transform="translate(34.07 11.76) rotate(6.02)"><tspan x="0" y="0">U</tspan></text>
        <text class="cls-4" transform="translate(38.45 12.2) rotate(17.42)"><tspan x="0" y="0">E</tspan></text>
        <text class="cls-4" transform="translate(42.64 13.5) rotate(28.68)"><tspan x="0" y="0">R</tspan></text>
        <text class="cls-4" transform="translate(46.51 15.6) rotate(39.96)"><tspan x="0" y="0">H</tspan></text>
        <text class="cls-4" transform="translate(49.91 18.43) rotate(51.34)"><tspan x="0" y="0"> </tspan></text>
        <text class="cls-4" transform="translate(52.67 21.84) rotate(62.7)"><tspan x="0" y="0">T</tspan></text>
        <text class="cls-4" transform="translate(54.7 25.75) rotate(74.08) skewX(-.01)"><tspan x="0" y="0">E</tspan></text>
        <text class="cls-4" transform="translate(55.92 29.97) rotate(85.27) skewX(-.01)"><tspan x="0" y="0">A</tspan></text>
        <text class="cls-4" transform="translate(56.3 34.38) rotate(96.73)"><tspan x="0" y="0"> </tspan></text>
        <text class="cls-4" transform="translate(55.8 38.75) rotate(108.12)"><tspan x="0" y="0">☼</tspan></text>
        <text class="cls-4" transform="translate(54.45 42.92) rotate(119.38)"><tspan x="0" y="0"> </tspan></text>
        <text class="cls-4" transform="translate(52.31 46.77) rotate(130.67)"><tspan x="0" y="0">S</tspan></text>
        <text class="cls-4" transform="translate(49.45 50.11) rotate(141.97)"><tspan x="0" y="0">H</tspan></text>
        <text class="cls-4" transform="translate(45.98 52.85) rotate(153.43)"><tspan x="0" y="0">E</tspan></text>
        <text class="cls-4" transform="translate(42.06 54.83) rotate(164.77) skewX(.01)"><tspan x="0" y="0">N</tspan></text>
        <text class="cls-4" transform="translate(37.82 56) rotate(175.95) skewX(.01)"><tspan x="0" y="0">G</tspan></text>
        <text class="cls-4" transform="translate(33.44 56.33) rotate(-172.68)"><tspan x="0" y="0"> </tspan></text>
        <text class="cls-4" transform="translate(29.05 55.78) rotate(-161.24)"><tspan x="0" y="0">P</tspan></text>
        <text class="cls-4" transform="translate(24.89 54.38) rotate(-149.99)"><tspan x="0" y="0">U</tspan></text>
        <text class="cls-4" transform="translate(21.07 52.19) rotate(-138.72)"><tspan x="0" y="0">E</tspan></text>
        <text class="cls-4" transform="translate(17.74 49.28) rotate(-127.32)"><tspan x="0" y="0">R</tspan></text>
        <text class="cls-4" transform="translate(15.06 45.8) rotate(-115.93)"><tspan x="0" y="0">H</tspan></text>
        <ellipse class="cls-3" cx="34.02" cy="34" rx="31.49" ry="31.47"/>
        <ellipse class="cls-2" cx="34.02" cy="34" rx="29.69" ry="29.67"/>
      </g>
      <g>
        <g>
          <path class="cls-1" d="m34.4,44.91s-9.91.86-10.41-8.3c-.5-9.15,10.6-9.08,10.41-19.2v27.5Z"/>
          <path class="cls-1" d="m24.11,37.74c0,3.13,10.55,2.8,10.29,7.16"/>
          <path class="cls-1" d="m24.48,33.03c0,4.72,10.18,2.8,9.92,7.16"/>
          <path class="cls-1" d="m26.85,29.44c-1.56,3.58,7.55,2.34,7.55,6.34"/>
          <path class="cls-1" d="m30.29,26.27s-1,1.68.43,2.35c1.43.68,3.69,1.19,3.69,2.53"/>
        </g>
        <g>
          <path class="cls-1" d="m34.41,44.91s9.91.86,10.41-8.3c.5-9.15-10.59-9.08-10.41-19.2"/>
          <path class="cls-1" d="m44.7,37.74c0,3.13-10.55,2.8-10.3,7.16"/>
          <path class="cls-1" d="m44.33,33.03c0,4.72-10.18,2.8-9.92,7.16"/>
          <path class="cls-1" d="m41.96,29.44c1.56,3.58-7.55,2.34-7.55,6.34"/>
          <path class="cls-1" d="m38.52,26.27s1,1.68-.43,2.35c-1.43.68-3.69,1.19-3.69,2.53"/>
        </g>
      </g>
    </g>
  </g>
</svg>