<?xml version="1.0" encoding="UTF-8"?>
<svg id="_Слой_2" data-name="Слой 2" xmlns="http://www.w3.org/2000/svg" viewBox="0 0 67.58 67.58">
  <defs>
    <style>
      .cls-1, .cls-2 {
        fill: #262626;
      }

      .cls-3 {
        stroke: #262626;
      }

      .cls-3, .cls-4 {
        fill: none;
        stroke-miterlimit: 10;
        stroke-width: .75px;
      }

      .cls-2 {
        font-family: CourierNewPSMT, 'Courier New';
        font-size: 7.55px;
      }

      .cls-5 {
        fill: #beda9f;
      }

      .cls-4 {
        stroke: #faf8f8;
      }
    </style>
  </defs>
  <g id="_Слой_1-2" data-name="Слой 1">
    <g>
      <g>
        <circle class="cls-5" cx="33.79" cy="33.79" r="33.78"/>
        <text class="cls-2" transform="translate(12.16 38.35) rotate(-95.99)"><tspan x="0" y="0">☼</tspan></text>
        <text class="cls-2" transform="translate(11.68 34.03) rotate(-84.69)"><tspan x="0" y="0"> </tspan></text>
        <text class="cls-2" transform="translate(12.07 29.67) rotate(-73.27)"><tspan x="0" y="0">G</tspan></text>
        <text class="cls-2" transform="translate(13.31 25.49) rotate(-62)"><tspan x="0" y="0">R</tspan></text>
        <text class="cls-2" transform="translate(15.36 21.62) rotate(-50.72)"><tspan x="0" y="0">E</tspan></text>
        <text class="cls-2" transform="translate(18.1 18.23) rotate(-39.43)"><tspan x="0" y="0">E</tspan></text>
        <text class="cls-2" transform="translate(21.48 15.44) rotate(-28)"><tspan x="0" y="0">N</tspan></text>
        <text class="cls-2" transform="translate(25.35 13.36) rotate(-16.59)"><tspan x="0" y="0"> </tspan></text>
        <text class="cls-2" transform="translate(29.51 12.1) rotate(-5.45)"><tspan x="0" y="0">T</tspan></text>
        <text class="cls-2" transform="translate(33.86 11.67) rotate(5.93)"><tspan x="0" y="0">E</tspan></text>
        <text class="cls-2" transform="translate(38.22 12.11) rotate(17.34)"><tspan x="0" y="0">A</tspan></text>
        <text class="cls-2" transform="translate(42.38 13.39) rotate(28.61)"><tspan x="0" y="0"> </tspan></text>
        <text class="cls-2" transform="translate(46.23 15.47) rotate(39.89)"><tspan x="0" y="0">☼</tspan></text>
        <text class="cls-2" transform="translate(49.62 18.28) rotate(51.27)"><tspan x="0" y="0"> </tspan></text>
        <text class="cls-2" transform="translate(52.35 21.67) rotate(62.62)"><tspan x="0" y="0">G</tspan></text>
        <text class="cls-2" transform="translate(54.37 25.53) rotate(73.95)"><tspan x="0" y="0">R</tspan></text>
        <text class="cls-2" transform="translate(55.6 29.74) rotate(85.18)"><tspan x="0" y="0">E</tspan></text>
        <text class="cls-2" transform="translate(55.98 34.09) rotate(96.55)"><tspan x="0" y="0">E</tspan></text>
        <text class="cls-2" transform="translate(55.5 38.43) rotate(107.94)"><tspan x="0" y="0">N</tspan></text>
        <text class="cls-2" transform="translate(54.16 42.61) rotate(119.29)"><tspan x="0" y="0"> </tspan></text>
        <text class="cls-2" transform="translate(52.03 46.44) rotate(130.57)"><tspan x="0" y="0">☼</tspan></text>
        <text class="cls-2" transform="translate(49.21 49.77) rotate(141.88)"><tspan x="0" y="0"> </tspan></text>
        <text class="cls-2" transform="translate(45.79 52.47) rotate(153.25)"><tspan x="0" y="0">T</tspan></text>
        <text class="cls-2" transform="translate(41.9 54.45) rotate(164.59)"><tspan x="0" y="0">H</tspan></text>
        <text class="cls-2" transform="translate(37.69 55.63) rotate(175.78)"><tspan x="0" y="0">A</tspan></text>
        <text class="cls-2" transform="translate(33.34 55.97) rotate(-172.85)"><tspan x="0" y="0"> </tspan></text>
        <text class="cls-2" transform="translate(28.97 55.43) rotate(-161.39)"><tspan x="0" y="0">C</tspan></text>
        <text class="cls-2" transform="translate(24.84 54.06) rotate(-150.14)"><tspan x="0" y="0">H</tspan></text>
        <text class="cls-2" transform="translate(21.04 51.89) rotate(-138.87)"><tspan x="0" y="0">A</tspan></text>
        <text class="cls-2" transform="translate(17.74 49.04) rotate(-127.56)"><tspan x="0" y="0">I</tspan></text>
        <text class="cls-2" transform="translate(15.06 45.59) rotate(-116.17)"><tspan x="0" y="0"> </tspan></text>
        <circle class="cls-4" cx="33.79" cy="33.79" r="31.28"/>
        <circle class="cls-3" cx="33.79" cy="33.79" r="29.49"/>
      </g>
      <path class="cls-1" d="m48.07,40.11c-.42-.54-.86-1.06-1.29-1.59-.49-.6-.97-1.22-1.47-1.81-.89-1.05-1.84-2.1-3.12-2.66-.73-.32-1.52-.48-2.31-.57-.56-.06-1.12-.1-1.68-.11-.88-.02-1.76.03-2.63.15.16-.19.32-.39.47-.59.33-.45.59-.95.82-1.46.17-.39.32-.8.46-1.2.01-.03.02-.07.03-.1.33-.98.63-1.97.82-2.99.19-1.04.13-2.06-.1-3.1-.23-1.03-.63-2.02-1.09-2.96-.46-.95-.97-1.86-1.59-2.72-.47-.65-1.19-1.26-1.98-.74-.33.21-.52.6-.71.92-.29.47-.49.99-.7,1.49-.56,1.35-1.09,2.71-1.59,4.09-.18.49-.36.99-.5,1.5-.13.46-.23.93-.27,1.41-.03.37-.04.74,0,1.11.14,1.35.74,2.62,1.38,3.81.29.55.62,1.08.97,1.59-.4-.07-.8-.13-1.21-.17-.99-.09-1.98.07-2.94.28-1.04.23-2.09.49-3.09.87-.99.38-1.83.96-2.6,1.68-.77.73-1.4,1.59-1.97,2.47-.57.89-1.09,1.8-1.51,2.77-.32.73-.47,1.66.39,2.08.35.17.78.13,1.15.13.55,0,1.1-.09,1.64-.17,1.45-.22,2.89-.48,4.32-.76,1.35-.26,2.72-.58,3.84-1.43,1.09-.82,1.86-1.99,2.55-3.15.5-.85.91-1.73,1.26-2.65.09-.01.18-.05.23-.13.02-.04.05-.08.08-.12.25.66.46,1.33.75,1.98.4.91,1.02,1.7,1.68,2.43.71.8,1.45,1.59,2.26,2.28.81.68,1.73,1.13,2.74,1.45,1.01.32,2.06.45,3.11.52,1.06.07,2.1.07,3.15-.03.8-.08,1.68-.41,1.63-1.35-.02-.39-.26-.75-.45-1.07-.26-.48-.61-.92-.95-1.35Zm-17.42-.48c-.69.85-1.52,1.47-2.55,1.85-1.02.38-2.12.54-3.18.73-1.09.2-2.17.38-3.26.55-.5.08-1.01.15-1.52.15-.33,0-.96.07-.95-.4,0-.41.23-.82.39-1.19.23-.51.51-1.01.8-1.49.55-.91,1.15-1.79,1.86-2.58.69-.78,1.5-1.44,2.45-1.86.99-.44,2.07-.69,3.12-.94.94-.23,1.91-.39,2.88-.32.65.05,1.3.18,1.94.29,0,0,.01.02.02.02-.91.54-1.79,1.12-2.68,1.69-.34-.11-.73-.13-1.04-.19-.7-.13-1.44-.13-2.14-.13-.49,0-.39.75.09.75.57,0,1.14.04,1.7.09.15.01.3.04.44.07-.29.18-.59.36-.89.54-.59.35-1.18.69-1.77,1.03-.15,0-.33-.08-.47-.12-.25-.07-.51-.08-.77-.09-.52-.03-1.09-.05-1.6.06-.48.11-.39.86.09.75.49-.11,1.03-.09,1.53-.06.08,0,.17.01.25.03-.93.54-1.86,1.09-2.79,1.63-.42.25.04.86.45.62.89-.52,1.77-1.04,2.66-1.56-.17.48-.38.95-.7,1.34-.32.38.28.86.59.48.57-.69.82-1.58,1.12-2.41.58-.34,1.16-.68,1.74-1.02.31-.19.63-.38.94-.57-.19.44-.38.88-.59,1.3-.2.41-.71,1-.54,1.48.16.46.87.2.71-.27.05.14.06-.02.11-.12.05-.09.1-.17.15-.25.14-.24.26-.49.38-.74.31-.65.57-1.32.89-1.97.03-.05.03-.1.03-.15.86-.55,1.71-1.1,2.59-1.63.02.02.03.04.05.06-.6,1.63-1.43,3.2-2.53,4.55Zm3.52-5.89c0-.98-.03-1.97-.06-2.95.23-.2.43-.47.61-.69.03-.03.06-.07.08-.1.27-.31.5-.64.73-.99.17-.26.33-.52.49-.77.26-.42-.43-.72-.69-.31-.14.23-.31.45-.46.68-.17.24-.32.49-.5.73-.09.12-.19.24-.29.35,0-.35,0-.69,0-1.04,0-.18,0-.35,0-.53,0-.51.01-1.02.02-1.52.08-.13.24-.24.35-.34.19-.18.33-.4.47-.61.29-.43.6-.9.77-1.4.16-.46-.53-.77-.69-.31-.16.48-.46.92-.73,1.34-.05.07-.1.14-.16.2.02-1.08.03-2.16.05-3.23,0-.49-.75-.42-.76.07-.01,1.03-.03,2.06-.04,3.08-.32-.4-.62-.82-.78-1.29-.16-.46-.88-.2-.72.26.29.85.93,1.52,1.49,2.2,0,.37-.01.74-.02,1.1,0,.3,0,.61-.02.92,0,.22,0,.45,0,.67,0,.14,0,.28,0,.43-.17-.24-.33-.49-.5-.73-.1-.15-.21-.29-.3-.44-.24-.39-.49-1.12-.98-1.23-.47-.1-.62.64-.14.74-.1-.02-.07.02-.02.07.02.03.05.06.06.09.05.09.1.17.14.26.13.24.29.48.44.71.39.6.84,1.17,1.22,1.78.03.05.07.08.11.11.02.91.05,1.83.06,2.75-.12,0-.24-.03-.36-.04-.96-1.27-1.77-2.66-2.3-4.16-.24-.69-.36-1.37-.35-2.07,0-.35.02-.71.09-1.07.03-.13.07-.27.1-.4.23-.93.59-1.82.93-2.71.39-1.03.8-2.05,1.22-3.07.19-.47.4-.94.65-1.38.17-.28.44-.86.84-.61.35.22.58.62.81.95.32.46.6.95.86,1.45.49.94.94,1.91,1.25,2.93.31.99.45,2.03.32,3.06-.13,1.05-.46,2.07-.79,3.08,0,.03-.02.05-.03.08-.13.42-.28.83-.46,1.23-.21.49-.45.97-.76,1.4-.31.44-.67.84-1.02,1.25-.09.02-.17.03-.26.05Zm14.34,9.19c-.36.2-.83.2-1.23.24-.56.05-1.13.05-1.69.03-1.06-.03-2.12-.13-3.16-.36-1.01-.22-1.98-.61-2.82-1.23-.87-.65-1.61-1.47-2.34-2.27-.65-.71-1.27-1.48-1.68-2.36-.29-.61-.49-1.25-.72-1.88.92.53,1.87,1.02,2.81,1.53.07.35.24.7.34.99.23.67.59,1.32.93,1.94.23.43.84-.02.61-.45-.27-.5-.52-1.01-.75-1.53-.06-.14-.11-.28-.16-.42.3.17.6.34.9.51.59.35,1.18.69,1.77,1.04.08.13.09.33.13.47.06.25.18.49.3.71.23.47.49.97.84,1.37.32.36.93-.08.61-.44-.34-.38-.58-.85-.8-1.3-.04-.07-.07-.16-.1-.24.93.55,1.86,1.1,2.79,1.64.42.25.73-.45.32-.69-.89-.52-1.77-1.05-2.66-1.56.51-.09,1.02-.13,1.51-.04.48.09.61-.66.13-.76-.88-.16-1.78.06-2.65.2-.58-.34-1.16-.69-1.74-1.03-.32-.19-.63-.36-.95-.54.47-.04.95-.1,1.42-.12.46-.02,1.22.13,1.56-.25.33-.36-.25-.86-.58-.49.1-.12-.05-.04-.16-.04-.1,0-.2,0-.3,0-.28,0-.56.02-.83.03-.72.04-1.43.15-2.15.17-.05,0-.1.02-.14.05-.93-.5-1.87-.99-2.78-1.52,1.76-.28,3.57-.34,5.33-.02.4.07.78.19,1.15.33.61.24,1.18.56,1.7,1,.32.27.6.57.89.88.45.5.88,1.03,1.31,1.55.7.85,1.39,1.71,2.07,2.58.31.4.62.81.87,1.25.16.29.53.81.11,1.03Z"/>
    </g>
  </g>
</svg>