<?xml version="1.0" encoding="UTF-8"?>
<svg id="_Слой_2" data-name="Слой 2" xmlns="http://www.w3.org/2000/svg" viewBox="0 0 68.03 68">
  <defs>
    <style>
      .cls-1, .cls-2 {
        fill: #262626;
      }

      .cls-3 {
        stroke: #262626;
      }

      .cls-3, .cls-4 {
        fill: none;
        stroke-miterlimit: 10;
        stroke-width: .75px;
      }

      .cls-4 {
        stroke: #faf8f8;
      }

      .cls-2 {
        font-family: CourierNewPSMT, 'Courier New';
        font-size: 7.55px;
      }

      .cls-5 {
        fill: #d0c7bc;
      }
    </style>
  </defs>
  <g id="_Слой_1-2" data-name="Слой 1">
    <g>
      <g>
        <ellipse class="cls-5" cx="34.02" cy="34" rx="34.01" ry="33.99"/>
        <text class="cls-2" transform="translate(12.24 38.62) rotate(-96.09) skewX(-.01)"><tspan x="0" y="0">☼</tspan></text>
        <text class="cls-2" transform="translate(11.76 34.38) rotate(-85.04)"><tspan x="0" y="0"> </tspan></text>
        <text class="cls-2" transform="translate(12.1 30.12) rotate(-73.96)"><tspan x="0" y="0"> </tspan></text>
        <text class="cls-2" transform="translate(13.25 26.02) rotate(-63.01)"><tspan x="0" y="0">S</tspan></text>
        <text class="cls-2" transform="translate(15.17 22.2) rotate(-52.07)"><tspan x="0" y="0">H</tspan></text>
        <text class="cls-2" transform="translate(17.78 18.81) rotate(-41.06)"><tspan x="0" y="0">U</tspan></text>
        <text class="cls-2" transform="translate(20.98 15.98) rotate(-30.03)"><tspan x="0" y="0"> </tspan></text>
        <text class="cls-2" transform="translate(24.65 13.83) rotate(-19.03) skewX(.01)"><tspan x="0" y="0">P</tspan></text>
        <text class="cls-2" transform="translate(28.68 12.42) rotate(-8.16) skewX(.01)"><tspan x="0" y="0">U</tspan></text>
        <text class="cls-2" transform="translate(32.89 11.79) rotate(2.82) skewX(.01)"><tspan x="0" y="0">E</tspan></text>
        <text class="cls-2" transform="translate(37.18 11.97) rotate(13.93)"><tspan x="0" y="0">R</tspan></text>
        <text class="cls-2" transform="translate(41.33 12.98) rotate(24.92)"><tspan x="0" y="0"> </tspan></text>
        <text class="cls-2" transform="translate(45.2 14.75) rotate(35.81)"><tspan x="0" y="0">T</tspan></text>
        <text class="cls-2" transform="translate(48.67 17.22) rotate(46.75)"><tspan x="0" y="0">E</tspan></text>
        <text class="cls-2" transform="translate(51.63 20.32) rotate(57.83)"><tspan x="0" y="0">A</tspan></text>
        <text class="cls-2" transform="translate(53.92 23.92) rotate(68.88) skewX(-.01)"><tspan x="0" y="0"> </tspan></text>
        <text class="cls-2" transform="translate(55.47 27.88) rotate(79.74) skewX(-.01)"><tspan x="0" y="0"> </tspan></text>
        <text class="cls-2" transform="translate(56.26 32.09) rotate(90.76) skewX(-.01)"><tspan x="0" y="0">☼</tspan></text>
        <text class="cls-2" transform="translate(56.23 36.34) rotate(101.8)"><tspan x="0" y="0"> </tspan></text>
        <text class="cls-2" transform="translate(55.39 40.52) rotate(112.79)"><tspan x="0" y="0">S</tspan></text>
        <text class="cls-2" transform="translate(53.76 44.46) rotate(123.75)"><tspan x="0" y="0">H</tspan></text>
        <text class="cls-2" transform="translate(51.4 48.03) rotate(134.7)"><tspan x="0" y="0">U</tspan></text>
        <text class="cls-2" transform="translate(48.41 51.09) rotate(145.74)"><tspan x="0" y="0"> </tspan></text>
        <text class="cls-2" transform="translate(44.92 53.5) rotate(156.74) skewX(.01)"><tspan x="0" y="0">P</tspan></text>
        <text class="cls-2" transform="translate(40.98 55.21) rotate(167.46) skewX(.01)"><tspan x="0" y="0">U</tspan></text>
        <text class="cls-2" transform="translate(36.84 56.15) rotate(178.6) skewX(.01)"><tspan x="0" y="0">E</tspan></text>
        <text class="cls-2" transform="translate(32.57 56.28) rotate(-170.34)"><tspan x="0" y="0">R</tspan></text>
        <text class="cls-2" transform="translate(28.37 55.59) rotate(-159.35)"><tspan x="0" y="0"> </tspan></text>
        <text class="cls-2" transform="translate(24.35 54.1) rotate(-148.37)"><tspan x="0" y="0">T</tspan></text>
        <text class="cls-2" transform="translate(20.7 51.88) rotate(-137.42)"><tspan x="0" y="0">E</tspan></text>
        <text class="cls-2" transform="translate(17.54 49.01) rotate(-126.41)"><tspan x="0" y="0">A</tspan></text>
        <ellipse class="cls-4" cx="34.02" cy="34" rx="31.49" ry="31.47"/>
        <ellipse class="cls-3" cx="34.02" cy="34" rx="29.69" ry="29.67"/>
      </g>
      <path class="cls-1" d="m47.96,36.84c-1.84-.94-3.92-1.43-5.99-1.43,1.15-.57,2.36-.96,3.64-1,.13,0,.29-.01.45-.1.31-.17.45-.54.37-1.03-.29-1.74-1.98-3.13-3.94-3.24-1.61-.1-3.36.63-4.81,1.98-.03.03-.05.05-.08.08.48-1.28,1.15-2.57,1.73-3.61l.09-.17c.47-.84,1-1.8.84-2.83-.02-.1-.07-.18-.16-.22-.09-.05-.19-.05-.27-.01-1.85.83-3.49,2.15-4.75,3.79,0-.07-.01-.14-.02-.21-.08-.74-.18-1.49-.29-2.23-.06-.4-.12-.76-.31-1.09-.16-.29-.38-.31-.48-.3-.18.01-.3.14-.35.19-.42.46-.76.98-1.01,1.55-.07-.13-.15-.27-.22-.4-.05-.1-.15-.16-.26-.16-.1,0-.21.05-.27.14-.43.68-.74,1.44-.9,2.23-.06-.1-.13-.2-.19-.3-.67-1.01-1.48-1.93-2.26-2.82-.06-.07-.18-.21-.38-.24-.15-.02-.31.03-.42.14-.19.2-.21.53-.17.75.38,1.96.85,4.17,1.68,6.26-1.79-1.5-3.87-2.63-5.86-3.65-.38-.19-.68-.19-.9,0-.15.14-.2.33-.22.46-.15,1.07.49,2.02,1.14,2.81,1.06,1.29,2.68,2.73,3.94,3.78-2.11-.59-4.52-.8-7.34-.63-.83.05-1.33.33-1.47.83-.2.67.35,1.27,1.46,1.6,1.39.41,2.71,1.09,4,1.75.9.46,1.83.94,2.79,1.32,1.04.42,2.13.75,3.23.97.37.07.83.12,1.3.12.96,0,1.96-.21,2.32-.84.05-.08.07-.17.1-.26.47.26,1.05.4,1.7.4.14,0,.29,0,.44-.02,1.21-.11,2.34-.56,3.43-1,.47-.19.96-.39,1.44-.55,2.51-.85,5.29-.91,7.84-.17.15.05.55.16.82-.12.1-.1.15-.24.17-.42.08-.78-.48-1.52-1.58-2.08Zm.92,1.66c-1.54-.67-3.41-.89-5.41-.65-1.91.24-3.78.87-5.52,1.51h-.03c-1.12.43-2.28.85-3.42.75.14-.04.28-.09.42-.14,1.15-.12,2.53-.74,3.99-1.39,1.33-.6,2.7-1.21,3.9-1.43.7-.13,1.47-.18,2.42-.16.7.01,1.52.06,2.28.32.06.03.12.06.18.09.4.21,1.02.6,1.2,1.11Zm-2.2-1.56c-.5-.08-1-.1-1.46-.11-.96-.02-1.74.04-2.45.17-1.22.22-2.6.84-3.93,1.44-1.23.55-2.4,1.08-3.41,1.29.72-.38,1.42-.9,1.91-1.27l.49-.36c.95-.7,1.92-1.4,2.92-2.01,2-.21,4.07.09,5.94.85Zm-8.58-4.46c1.32-1.23,2.91-1.9,4.35-1.81,1.65.1,3.13,1.29,3.37,2.73.03.2,0,.35-.05.38-.03.02-.11.02-.19.02-3.07.11-5.63,1.99-8.12,3.81l-.49.36c-.75.56-2.52,1.88-3.32,1.57-.09-.04-.12-.08-.13-.12-.15-.49.83-1.85,1.25-2.43.16-.21.28-.39.35-.51.87-1.41,1.76-2.87,2.98-4.01Zm-5.89,5.93c-.49-.9-1.06-1.59-1.61-2.21-.43-.48-.92-.94-1.34-1.34-1.93-1.82-3.7-3.47-5.39-5.01,1.9.99,3.82,2.11,5.43,3.57,1.76,1.6,2.94,3.49,3.39,5.41-.15-.15-.31-.29-.47-.42Zm7.22-11.49c-.85,1.11-1.63,2.29-2.31,3.51-1.1,1.97-1.97,4.07-2.81,6.13-.02.02-.03.05-.05.07-.21.29-.41.57-.59.85.14-.76.31-1.54.54-2.29.6-1.89,1.68-3.63,2.77-5.22.86-1.26,1.77-2.51,2.66-3.73-.04.23-.11.46-.2.69Zm-.65,1.27c-.78,1.42-1.73,3.26-2.17,4.99-.7.86-1.29,1.79-1.86,2.72.75-1.82,1.54-3.66,2.51-5.39.55-.99,1.16-1.94,1.82-2.86-.07.12-.13.25-.2.37l-.09.17Zm.79-2.12c-.91,1.24-1.84,2.52-2.72,3.82-1.09,1.6-2.18,3.35-2.79,5.26-.28.88-.45,1.8-.62,2.69-.1.16-.19.32-.26.47-.04-.14-.09-.29-.13-.43,0-.03.01-.06.01-.09-.12-1.87.19-3.76.87-5.49,0,0,0,0,0,0,.23-.58.5-1.13.81-1.66,1.15-1.96,2.85-3.56,4.82-4.57Zm-5.59-.12c.09.22.13.46.18.75.11.73.21,1.47.29,2.21.04.38.07.73-.02,1.03,0,.02,0,.04,0,.06-.07.11-.14.22-.2.33-.07.12-.13.24-.2.36-.05-.47-.16-.96-.34-1.47-.18-.54-.42-1.04-.67-1.54.21-.62.54-1.21.97-1.73Zm-.89,3.46c.33.97.42,1.87.27,2.67-.2.5-.37,1.02-.5,1.54-.07-.37-.15-.73-.25-1.09.05-.68-.1-1.37-.24-2.03-.04-.2-.09-.41-.12-.61-.15-.8-.21-1.62-.18-2.44.02-.04.04-.08.06-.13.37.67.72,1.35.97,2.08Zm-1.19-1.59c0,.71.06,1.41.19,2.11.04.21.08.41.13.61.1.48.21.98.23,1.47-.26-.83-.59-1.63-1-2.39.06-.62.21-1.23.44-1.81Zm-3.75-1.64c.73.84,1.48,1.7,2.1,2.63.21.32.41.65.59.98.01.04.03.08.06.12.94,1.78,1.5,3.8,1.57,5.81,0,0,0,0,0,.01-.02.23-.04.47-.05.71-.52-.99-1.21-1.94-2.06-2.82-1.19-2.38-1.77-5.08-2.22-7.43,0,0,0,0,0,0Zm-5.28,3.2s.09.01.21.08c.08.04.17.09.25.13,1.82,1.65,3.72,3.42,5.82,5.4.42.4.91.85,1.34,1.33.47.53.96,1.11,1.4,1.84-.22-.17-.44-.33-.67-.48-.12-.13-.23-.25-.34-.38-.11-.13-.23-.26-.35-.39-.54-.58-1.13-1.1-1.7-1.61l-2.96-2.62c-1.09-.97-2.22-1.96-3-3.22,0,0,0,0,0,0,0,0,0,0,0,0,0-.04.01-.07.01-.08Zm1,2.4c-.51-.61-1.01-1.33-1.02-2.07.79,1.2,1.87,2.16,2.92,3.09l2.96,2.62c.57.5,1.16,1.03,1.69,1.6.11.12.22.24.32.36-.58-.34-1.17-.62-1.71-.85-1.09-.86-3.69-2.97-5.16-4.76Zm-3.84,4.16c.63-.04,1.24-.06,1.83-.06,2.24,0,4.18.28,5.91.84,1.37.45,3.3,1.29,4.74,2.8.21.22.37.43.47.61.01.05.03.09.06.12,0,0,0,0,0,0,.05.12.07.22.07.31-.26,0-.52-.1-.75-.2-.47-.21-.92-.48-1.36-.75-.6-.36-1.22-.73-1.89-.96-.55-.18-1.13-.26-1.69-.34l-.2-.03c-1.62-.23-3.26-.57-4.83-.89-.67-.14-1.36-.28-2.02-.52-.36-.13-.85-.35-1.1-.77.19-.13.49-.18.76-.19Zm10.09,5.24c-1.07-.21-2.12-.53-3.12-.94-.93-.38-1.85-.85-2.74-1.3-1.31-.67-2.66-1.36-4.1-1.79-.12-.04-1.18-.37-1.04-.83,0-.03.02-.06.04-.08.28.44.79.67,1.16.8.67.24,1.36.39,2.04.52,1.58.32,3.22.66,4.84.89l.2.03c.56.08,1.13.16,1.67.34.66.22,1.27.59,1.86.94.44.27.9.54,1.38.76.23.1.5.2.78.21,0,.01,0,.02-.01.04-.27.48-1.65.67-2.95.41Zm18.81-2.32s0,.04,0,.04c-.03,0-.08,0-.2-.04-2.67-.77-5.58-.71-8.21.18-.5.17-1,.37-1.48.56-1.1.44-2.14.86-3.25.96-.39.04-1.24.05-1.88-.37,0,0,0,0,0,0,.04,0,.08,0,.12,0,.28.06.56.09.84.09,1.05,0,2.1-.39,3.11-.76h.03c1.73-.65,3.59-1.28,5.49-1.51,2.02-.25,3.9-.02,5.43.68,0,.06,0,.11,0,.17Z"/>
    </g>
  </g>
</svg>