<?xml version="1.0" encoding="UTF-8"?>
<svg id="_Слой_2" data-name="Слой 2" xmlns="http://www.w3.org/2000/svg" viewBox="0 0 68.02 68.02">
  <defs>
    <style>
      .cls-1 {
        stroke: #262626;
      }

      .cls-1, .cls-2 {
        stroke-miterlimit: 10;
        stroke-width: .75px;
      }

      .cls-1, .cls-2, .cls-3 {
        fill: none;
      }

      .cls-4 {
        fill: #262626;
        font-family: CourierNewPSMT, 'Courier New';
        font-size: 7.6px;
      }

      .cls-2 {
        stroke: #faf8f8;
      }

      .cls-3 {
        stroke: #333;
        stroke-linecap: round;
        stroke-linejoin: round;
      }

      .cls-5 {
        fill: #d7da93;
      }
    </style>
  </defs>
  <g id="_Слой_1-2" data-name="Слой 1">
    <g>
      <g>
        <circle class="cls-5" cx="34.01" cy="34.01" r="34"/>
        <text class="cls-4" transform="translate(11.74 34.39) rotate(-85.24)"><tspan x="0" y="0">☼</tspan></text>
        <text class="cls-4" transform="translate(12.09 30.01) rotate(-73.89)"><tspan x="0" y="0"> </tspan></text>
        <text class="cls-4" transform="translate(13.29 25.78) rotate(-62.47)"><tspan x="0" y="0">T</tspan></text>
        <text class="cls-4" transform="translate(15.31 21.88) rotate(-51.19)"><tspan x="0" y="0">H</tspan></text>
        <text class="cls-4" transform="translate(18.06 18.44) rotate(-39.91)"><tspan x="0" y="0">A</tspan></text>
        <text class="cls-4" transform="translate(21.44 15.59) rotate(-28.54)"><tspan x="0" y="0"> </tspan></text>
        <text class="cls-4" transform="translate(25.28 13.48) rotate(-17.2)"><tspan x="0" y="0">C</tspan></text>
        <text class="cls-4" transform="translate(29.49 12.16) rotate(-5.8)"><tspan x="0" y="0">H</tspan></text>
        <text class="cls-4" transform="translate(33.88 11.7) rotate(5.44)"><tspan x="0" y="0">A</tspan></text>
        <text class="cls-4" transform="translate(38.26 12.1) rotate(16.82)"><tspan x="0" y="0">I</tspan></text>
        <text class="cls-4" transform="translate(42.48 13.36) rotate(28.22)"><tspan x="0" y="0"> </tspan></text>
        <text class="cls-4" transform="translate(46.35 15.42) rotate(39.49)"><tspan x="0" y="0">B</tspan></text>
        <text class="cls-4" transform="translate(49.76 18.21) rotate(50.77)"><tspan x="0" y="0">A</tspan></text>
        <text class="cls-4" transform="translate(52.55 21.6) rotate(62.07)"><tspan x="0" y="0">L</tspan></text>
        <text class="cls-4" transform="translate(54.64 25.49) rotate(73.52)"><tspan x="0" y="0">I</tspan></text>
        <text class="cls-4" transform="translate(55.9 29.7) rotate(84.84)"><tspan x="0" y="0"> </tspan></text>
        <text class="cls-4" transform="translate(56.31 34.09) rotate(96.07)"><tspan x="0" y="0">☼</tspan></text>
        <text class="cls-4" transform="translate(55.86 38.46) rotate(107.45)"><tspan x="0" y="0"> </tspan></text>
        <text class="cls-4" transform="translate(54.56 42.66) rotate(118.83)"><tspan x="0" y="0">T</tspan></text>
        <text class="cls-4" transform="translate(52.44 46.54) rotate(130.18)"><tspan x="0" y="0">H</tspan></text>
        <text class="cls-4" transform="translate(49.63 49.89) rotate(141.37)"><tspan x="0" y="0">A</tspan></text>
        <text class="cls-4" transform="translate(46.18 52.67) rotate(152.77)"><tspan x="0" y="0"> </tspan></text>
        <text class="cls-4" transform="translate(42.29 54.69) rotate(164.13)"><tspan x="0" y="0">C</tspan></text>
        <text class="cls-4" transform="translate(38.07 55.91) rotate(175.47)"><tspan x="0" y="0">H</tspan></text>
        <text class="cls-4" transform="translate(33.69 56.27) rotate(-173.33)"><tspan x="0" y="0">A</tspan></text>
        <text class="cls-4" transform="translate(29.29 55.77) rotate(-161.88)"><tspan x="0" y="0">I</tspan></text>
        <text class="cls-4" transform="translate(25.11 54.42) rotate(-150.51)"><tspan x="0" y="0"> </tspan></text>
        <text class="cls-4" transform="translate(21.26 52.26) rotate(-139.18)"><tspan x="0" y="0">B</tspan></text>
        <text class="cls-4" transform="translate(17.94 49.42) rotate(-127.99)"><tspan x="0" y="0">A</tspan></text>
        <text class="cls-4" transform="translate(15.2 45.94) rotate(-116.59)"><tspan x="0" y="0">L</tspan></text>
        <text class="cls-4" transform="translate(13.22 42.02) rotate(-105.2)"><tspan x="0" y="0">I</tspan></text>
        <circle class="cls-2" cx="34.01" cy="34.01" r="31.48"/>
        <circle class="cls-1" cx="34.01" cy="34.01" r="29.68"/>
      </g>
      <g>
        <path class="cls-3" d="m45.07,44.95c0,1.21-.98,2.2-2.2,2.2h-16.66c-1.21,0-2.2-.98-2.2-2.2s.98-2.2,2.2-2.2h16.66c1.21,0,2.2.98,2.2,2.2Z"/>
        <path class="cls-3" d="m46.29,34.46c0,4.58-3.71,8.29-8.29,8.29h-6.93c-4.58,0-8.29-3.71-8.29-8.29v-4.7h23.5v4.7Z"/>
        <path class="cls-3" d="m31.08,39.85c-2.97,0-5.39-2.42-5.39-5.39v-1.8"/>
        <path class="cls-3" d="m37.89,29.76l3.64-3.36s.79-.7.25-1.11c0,0-.7-.82.19-1.43,0,0,.39-.77,2.6,1.3.55.51,2.22,1.86,1.11,2.79-.23.2-.43.32-1.21-.21,0,0-.62-.53-1.01.02l-1.46,1.99"/>
        <path class="cls-3" d="m32.99,28.45c-2.53-7.78-10.19-7.1-10.19-7.1,0,0,.43,5.19,5.53,6.76"/>
        <path class="cls-3" d="m32.99,28.45c8.25-1.27,8-7.11,8-7.11,0,0-5.1-1.14-7.8,2.99"/>
        <path class="cls-3" d="m36.21,21.79s-1.13-3.17-3.23-3.65c-2.1.48-3.23,3.65-3.23,3.65"/>
      </g>
    </g>
  </g>
</svg>