<?xml version="1.0" encoding="UTF-8"?>
<svg id="_Слой_2" data-name="Слой 2" xmlns="http://www.w3.org/2000/svg" viewBox="0 0 135.01 135.01">
  <defs>
    <style>
      .cls-1 {
        fill: #090909;
      }

      .cls-2 {
        stroke: #262626;
      }

      .cls-2, .cls-3 {
        fill: none;
        stroke-miterlimit: 10;
        stroke-width: .75px;
      }

      .cls-3 {
        stroke: #faf8f8;
      }

      .cls-4 {
        fill: #262626;
        font-family: CourierNewPSMT, 'Courier New';
        font-size: 15.09px;
      }

      .cls-5 {
        fill: #d7da93;
      }
    </style>
  </defs>
  <g id="_Слой_1-2" data-name="Слой 1">
    <g>
      <g>
        <circle class="cls-5" cx="67.5" cy="67.5" r="67.5"/>
        <text class="cls-4" transform="translate(23.62 62.42) rotate(-77.63)"><tspan x="0" y="0">☼</tspan></text>
        <text class="cls-4" transform="translate(25.46 53.88) rotate(-66.26)"><tspan x="0" y="0"> </tspan></text>
        <text class="cls-4" transform="translate(28.94 45.88) rotate(-54.86)"><tspan x="0" y="0">T</tspan></text>
        <text class="cls-4" transform="translate(33.95 38.71) rotate(-43.54)"><tspan x="0" y="0">H</tspan></text>
        <text class="cls-4" transform="translate(40.25 32.68) rotate(-32.31)"><tspan x="0" y="0">A</tspan></text>
        <text class="cls-4" transform="translate(47.62 27.98) rotate(-20.97)"><tspan x="0" y="0"> </tspan></text>
        <text class="cls-4" transform="translate(55.76 24.83) rotate(-9.59)"><tspan x="0" y="0">C</tspan></text>
        <text class="cls-4" transform="translate(64.36 23.34) rotate(1.77)"><tspan x="0" y="0">H</tspan></text>
        <text class="cls-4" transform="translate(73.1 23.58) rotate(12.98)"><tspan x="0" y="0">A</tspan></text>
        <text class="cls-4" transform="translate(81.61 25.5) rotate(24.34)"><tspan x="0" y="0">I</tspan></text>
        <text class="cls-4" transform="translate(89.59 29.08) rotate(35.75)"><tspan x="0" y="0"> </tspan></text>
        <text class="cls-4" transform="translate(96.7 34.16) rotate(47.06)"><tspan x="0" y="0">B</tspan></text>
        <text class="cls-4" transform="translate(102.67 40.53) rotate(58.32)"><tspan x="0" y="0">A</tspan></text>
        <text class="cls-4" transform="translate(107.28 47.95) rotate(69.64)"><tspan x="0" y="0">L</tspan></text>
        <text class="cls-4" transform="translate(110.35 56.12) rotate(81.03)"><tspan x="0" y="0">I</tspan></text>
        <text class="cls-4" transform="translate(111.74 64.75) rotate(92.4)"><tspan x="0" y="0"> </tspan></text>
        <text class="cls-4" transform="translate(111.41 73.48) rotate(103.59)"><tspan x="0" y="0">☼</tspan></text>
        <text class="cls-4" transform="translate(109.39 81.96) rotate(114.96)"><tspan x="0" y="0"> </tspan></text>
        <text class="cls-4" transform="translate(105.74 89.9) rotate(126.35)"><tspan x="0" y="0">T</tspan></text>
        <text class="cls-4" transform="translate(100.58 96.95) rotate(137.65)"><tspan x="0" y="0">H</tspan></text>
        <text class="cls-4" transform="translate(94.14 102.87) rotate(148.94)"><tspan x="0" y="0">A</tspan></text>
        <text class="cls-4" transform="translate(86.69 107.39) rotate(160.24)"><tspan x="0" y="0"> </tspan></text>
        <text class="cls-4" transform="translate(78.47 110.38) rotate(171.66)"><tspan x="0" y="0">C</tspan></text>
        <text class="cls-4" transform="translate(69.84 111.68) rotate(-177.01)"><tspan x="0" y="0">H</tspan></text>
        <text class="cls-4" transform="translate(61.12 111.25) rotate(-165.81)"><tspan x="0" y="0">A</tspan></text>
        <text class="cls-4" transform="translate(52.63 109.14) rotate(-154.4)"><tspan x="0" y="0">I</tspan></text>
        <text class="cls-4" transform="translate(44.74 105.4) rotate(-143.02)"><tspan x="0" y="0"> </tspan></text>
        <text class="cls-4" transform="translate(37.75 100.17) rotate(-131.73)"><tspan x="0" y="0">B</tspan></text>
        <text class="cls-4" transform="translate(31.91 93.67) rotate(-120.46)"><tspan x="0" y="0">A</tspan></text>
        <text class="cls-4" transform="translate(27.46 86.17) rotate(-109.15)"><tspan x="0" y="0">L</tspan></text>
        <text class="cls-4" transform="translate(24.56 77.91) rotate(-97.72)"><tspan x="0" y="0">I</tspan></text>
        <circle class="cls-3" cx="67.5" cy="67.5" r="62.5"/>
        <circle class="cls-2" cx="67.5" cy="67.5" r="58.92"/>
      </g>
      <path class="cls-1" d="m81.19,93.48c-.07.77-.31,1.43-.72,2.04-.9,1.34-1.39,1.54-2.98,1.27-5.39-.9-10.75-1.94-16.17-2.63-3.22-.41-6.35-1.19-9.53-1.74-1.83-.32-3.64-.82-5.4-1.5-1.72-.66-2.01-1.52-1.66-2.95.3-1.23-.08-1.68-1.21-1.61-1.5.08-2.05-.91-2.57-2.04-1.12-2.42-.96-4.88-.27-7.36.8-2.89,2.2-5.49,3.76-8.04,1.12-1.82,1.31-4.02,1.55-6.11.24-2.14.22-4.3.1-6.45-.12-2.21-1.04-4.13-2.1-6.03-1.21-2.17-2.92-3.66-5.19-4.57-.28-.11-.64-.26-.57-.69.08-.46.43-.68.84-.7.68-.03,1.38-.06,2.05.05,2.42.37,4.83.83,7.26,1.19.85.13,1.32.51,1.4,1.34.08.78.37,1.46.85,2.06,1.43,1.74,2.87,3.47,4.08,5.44,2.21-3.31,4.29-6.52,5.34-10.26.5-1.79.6-1.83,2.41-1.45.79.17,1.35.1,2.02-.48,1.37-1.17,3.17-1.45,4.88-1.79,1.01-.2,2.05-.42,3.1-.29.43.05.45-.16.5-.47.25-1.72,1.32-2.6,2.89-2.42,1.4.16,2.68,1.82,2.42,3.27-.1.56.12.61.52.81,2.43,1.2,4.42,2.91,5.94,5.16.44.65,1.83,1.16,2.59.92.42-.13.8-.24,1.31.27-1.19,0-1.26.79-1.32,1.49-.17,2.23-.7,4.44-.46,6.87,1.59-1.47,3.13-2.79,4.55-4.23,1.14-1.15,2.47-1.81,4.03-2.08,1.97-.35,3.53.52,4.33,2.34,1.23,2.76,1.64,5.51.91,8.56-.64,2.68-1.43,5.16-2.88,7.55-1.12,1.83-1.58,4.06-2.35,6.1-.95,2.51-1.73,5.08-2.5,7.65-.65,2.17-1.92,4.06-2.8,6.12-.73,1.72-1.92,3.17-2.89,4.75-.54.87-1.7,1.07-2.7,1-1.11-.07-2.24,0-3.35-.37Zm-16.61-48.83c-.01.07-.03.14-.04.21-.96-.18-1.92-.34-2.87-.54-.39-.08-.54,0-.68.41-.43,1.22-.98,2.39-1.4,3.61-.66,1.94-2.05,3.44-3.05,5.17-1.56,2.73-3.03,5.52-4.93,8.03-2.24,2.97-4.86,5.65-6.83,8.83-1.72,2.77-3.04,5.69-3.53,8.92-.39,2.54.88,4.31,3.43,4.85,2.18.46,4.39.82,6.53,1.36,2.22.56,4.43,1.15,6.67,1.61,2.63.55,5.28,1,7.87,1.78,1.02.31,2.03.81,3.13.76,1.6-.08,3.16.17,4.71.47,1.77.34,3.55.67,5.32.98,2.2.38,4.4.64,6.61-.07.85-.28,1.55-.59,1.88-1.55,1.21-3.51,1.37-7.15.98-10.75-.36-3.35-.96-6.69-1.73-10-1.16-5.01-.93-10.16-.82-15.27.03-1.25.17-2.5.25-3.75.05-.82-.15-1.37-1.18-1.37-1.07,0-2.15-.13-3.2-.32-2.41-.42-4.86-.57-7.23-1.28-.92-.28-1.85-.58-2.8-.76-2.36-.46-4.73-.88-7.1-1.31Zm24.75,32.23c1.56-2.46,2.85-5.05,3.86-7.76.83-2.21,2.42-4.02,3.16-6.26.92-2.8,1.71-5.57-1.36-7.71-.36-.25-.58-.42-1.01-.32-.57.14-1.09.33-1.51.76-1.26,1.27-2.6,2.49-3.79,3.82-.85.95-1.65,2.04-1.68,3.38-.03,1.17.12,2.36.28,3.53.36,2.62,1.25,5.13,1.55,7.76.11.95.12,1.92.5,2.79Zm-42.7-10.95c.29-.36.56-.74.86-1.08,2.36-2.6,4.47-5.39,6.17-8.48.43-.78.31-1.32-.16-1.95-1.17-1.59-2.32-3.18-3.6-4.68-.42-.49-.85-1.02-.92-1.69-.13-1.15-.7-1.65-1.87-1.6-.53.02-1.07-.16-1.6-.26-1.57-.29-3.13-.58-4.92-.91,1.03.99,2.21,1.41,2.91,2.37,2.47,3.39,4.01,7.08,3.69,11.4-.17,2.28-.14,4.57-.55,6.87Zm1.42,21.25c-.67-.12-1.35-.24-2.02-.38-.34-.07-.49-.03-.55.38-.18,1.32.22,1.99,1.48,2.33.14.04.28.06.42.1,5.83,1.32,11.68,2.49,17.55,3.6,1.38.26,2.69.75,4.1.91,2.85.31,5.72.51,8.53,1.14,1.36.31,1.65.12,2.23-1.13.27-.58.3-.9-.47-.98-1.38-.16-2.74-.4-4.11-.58-2.1-.27-4.23-.37-6.29-.82-3.16-.69-6.22-1.74-9.42-2.28-1.69-.28-3.42-.28-5.07-.71-2.12-.55-4.24-1.12-6.38-1.57Zm41.08.5c.98-3.38,1.57-6.84,3.02-10.05.13-.29.2-.61.4-.87.91-1.14,1.25-2.54,1.82-3.84,1.17-2.7,2.15-5.47,3.82-7.97.66-.98,1.53-2.31.52-3.72-.24-.33-.32-.88.39-.58.54.22.49-.09.59-.4.9-2.74.18-5.29-.9-7.8-.55-1.28-1.69-1.89-3.09-1.7-1.4.19-2.58.75-3.59,1.76-1.29,1.3-2.57,2.65-4.03,3.73-1.14.85-1.36,1.83-1.21,3.21,1.02-1.29,2.17-2.31,3.22-3.42,1.29-1.37,2.54-2.74,4.47-3.23.67-.17,1.3-.17,1.82.31.95.89,1.78,1.85,1.92,3.24.3,2.9-.43,5.63-1.43,8.3-.41,1.1-.82,2.25-1.49,3.19-.51.71-1.17,1.31-1.42,2.18-.34,1.16-.83,2.24-1.37,3.31-.52,1.02-.92,2.12-1.59,3.04-1.48,2.04-.77,4.49-1.39,6.69-.41,1.47-.24,3.07-.48,4.6Zm-5.5-40.74c-3.82-6.88-14.42-6.91-18.83-3.71,1.62.64,16.63,3.59,18.83,3.71Zm-8.19-6.46h0c.32.05.63.11.95.17.75.13,1.15-.24.9-.97-.24-.68-.73-1.28-1.5-1.35-.7-.06-1.43,0-1.88.7-.54.86-.41,1.15.58,1.28.32.04.63.11.95.17Z"/>
    </g>
  </g>
</svg>