<?xml version="1.0" encoding="UTF-8"?>
<svg id="_Слой_2" data-name="Слой 2" xmlns="http://www.w3.org/2000/svg" viewBox="0 0 68.02 68.02">
  <defs>
    <style>
      .cls-1 {
        stroke: #262626;
      }

      .cls-1, .cls-2 {
        stroke-miterlimit: 10;
        stroke-width: .75px;
      }

      .cls-1, .cls-2, .cls-3 {
        fill: none;
      }

      .cls-4 {
        fill: #262626;
        font-family: CourierNewPSMT, 'Courier New';
        font-size: 7.6px;
      }

      .cls-2 {
        stroke: #faf8f8;
      }

      .cls-3 {
        stroke: #333;
        stroke-linecap: round;
        stroke-linejoin: round;
      }

      .cls-5 {
        fill: #d7da93;
      }
    </style>
  </defs>
  <g id="_Слой_1-2" data-name="Слой 1">
    <g>
      <g>
        <circle class="cls-5" cx="34.01" cy="34.01" r="34"/>
        <text class="cls-4" transform="translate(11.74 34.39) rotate(-85.24)"><tspan x="0" y="0">☼</tspan></text>
        <text class="cls-4" transform="translate(12.09 30.01) rotate(-73.89)"><tspan x="0" y="0"> </tspan></text>
        <text class="cls-4" transform="translate(13.29 25.78) rotate(-62.47)"><tspan x="0" y="0">T</tspan></text>
        <text class="cls-4" transform="translate(15.31 21.88) rotate(-51.19)"><tspan x="0" y="0">H</tspan></text>
        <text class="cls-4" transform="translate(18.06 18.44) rotate(-39.91)"><tspan x="0" y="0">A</tspan></text>
        <text class="cls-4" transform="translate(21.44 15.59) rotate(-28.54)"><tspan x="0" y="0"> </tspan></text>
        <text class="cls-4" transform="translate(25.28 13.48) rotate(-17.2)"><tspan x="0" y="0">C</tspan></text>
        <text class="cls-4" transform="translate(29.49 12.16) rotate(-5.8)"><tspan x="0" y="0">H</tspan></text>
        <text class="cls-4" transform="translate(33.88 11.7) rotate(5.44)"><tspan x="0" y="0">A</tspan></text>
        <text class="cls-4" transform="translate(38.26 12.1) rotate(16.82)"><tspan x="0" y="0">I</tspan></text>
        <text class="cls-4" transform="translate(42.48 13.36) rotate(28.22)"><tspan x="0" y="0"> </tspan></text>
        <text class="cls-4" transform="translate(46.35 15.42) rotate(39.49)"><tspan x="0" y="0">B</tspan></text>
        <text class="cls-4" transform="translate(49.76 18.21) rotate(50.77)"><tspan x="0" y="0">A</tspan></text>
        <text class="cls-4" transform="translate(52.55 21.6) rotate(62.07)"><tspan x="0" y="0">L</tspan></text>
        <text class="cls-4" transform="translate(54.64 25.49) rotate(73.52)"><tspan x="0" y="0">I</tspan></text>
        <text class="cls-4" transform="translate(55.9 29.7) rotate(84.84)"><tspan x="0" y="0"> </tspan></text>
        <text class="cls-4" transform="translate(56.31 34.09) rotate(96.07)"><tspan x="0" y="0">☼</tspan></text>
        <text class="cls-4" transform="translate(55.86 38.46) rotate(107.45)"><tspan x="0" y="0"> </tspan></text>
        <text class="cls-4" transform="translate(54.56 42.66) rotate(118.83)"><tspan x="0" y="0">T</tspan></text>
        <text class="cls-4" transform="translate(52.44 46.54) rotate(130.18)"><tspan x="0" y="0">H</tspan></text>
        <text class="cls-4" transform="translate(49.63 49.89) rotate(141.37)"><tspan x="0" y="0">A</tspan></text>
        <text class="cls-4" transform="translate(46.18 52.67) rotate(152.77)"><tspan x="0" y="0"> </tspan></text>
        <text class="cls-4" transform="translate(42.29 54.69) rotate(164.13)"><tspan x="0" y="0">C</tspan></text>
        <text class="cls-4" transform="translate(38.07 55.91) rotate(175.47)"><tspan x="0" y="0">H</tspan></text>
        <text class="cls-4" transform="translate(33.69 56.27) rotate(-173.33)"><tspan x="0" y="0">A</tspan></text>
        <text class="cls-4" transform="translate(29.29 55.77) rotate(-161.88)"><tspan x="0" y="0">I</tspan></text>
        <text class="cls-4" transform="translate(25.11 54.42) rotate(-150.51)"><tspan x="0" y="0"> </tspan></text>
        <text class="cls-4" transform="translate(21.26 52.26) rotate(-139.18)"><tspan x="0" y="0">B</tspan></text>
        <text class="cls-4" transform="translate(17.94 49.42) rotate(-127.99)"><tspan x="0" y="0">A</tspan></text>
        <text class="cls-4" transform="translate(15.2 45.94) rotate(-116.59)"><tspan x="0" y="0">L</tspan></text>
        <text class="cls-4" transform="translate(13.22 42.02) rotate(-105.2)"><tspan x="0" y="0">I</tspan></text>
        <circle class="cls-2" cx="34.01" cy="34.01" r="31.48"/>
        <circle class="cls-1" cx="34.01" cy="34.01" r="29.68"/>
      </g>
      <g>
        <g>
          <g>
            <path class="cls-3" d="m34.41,44.3s-8.39,4.22-12.42,1.35c-.95-.82-1.07-1.71,0-2.7,2.72-1.93,7.41-.65,10.18.39"/>
            <path class="cls-3" d="m36.82,45.32c2.79,1.03,7.35,2.22,10.01.33.94-.82,1.07-1.71,0-2.7-4.03-2.87-12.42,1.35-12.42,1.35"/>
          </g>
          <path class="cls-3" d="m33.24,42.12c-.19-.18-.41-.37-.64-.59-1.21-1.13-2.75-2.77-3.14-4.84-.76-4.07,2.82-5.88,2.82-5.88,0,0,1.97-1.11,4.27,0,0,0,3.57,1.81,2.82,5.88-.46,2.46-2.56,4.32-3.78,5.43"/>
          <path class="cls-3" d="m35.02,22.14s-.43-1.16-1.01,0c0,0-4.05,5.95.5,6.69,0,0,4.03-.32.5-6.69Z"/>
        </g>
        <g>
          <line class="cls-3" x1="24.93" y1="31.15" x2="21.42" y2="30.03"/>
          <line class="cls-3" x1="26.46" y1="34.37" x2="20.74" y2="34.4"/>
          <line class="cls-3" x1="26.64" y1="37.05" x2="21.44" y2="38.78"/>
          <line class="cls-3" x1="43.48" y1="40.6" x2="41.38" y2="39.1"/>
          <line class="cls-3" x1="48.35" y1="38.72" x2="42.25" y2="36.77"/>
          <line class="cls-3" x1="48.35" y1="34.34" x2="42.36" y2="34.38"/>
          <g>
            <line class="cls-3" x1="45.84" y1="30.8" x2="48.33" y2="29.97"/>
            <line class="cls-3" x1="43.5" y1="31.57" x2="41.8" y2="32.13"/>
          </g>
          <line class="cls-3" x1="47.93" y1="24.84" x2="40.64" y2="30.19"/>
          <g>
            <line class="cls-3" x1="43.08" y1="23.01" x2="44.36" y2="21.22"/>
            <line class="cls-3" x1="41.85" y1="24.72" x2="39.03" y2="28.67"/>
          </g>
          <line class="cls-3" x1="38.68" y1="22.62" x2="39.23" y2="20.91"/>
          <line class="cls-3" x1="31.01" y1="22.5" x2="30.48" y2="20.93"/>
          <g>
            <line class="cls-3" x1="25.94" y1="22.2" x2="24.99" y2="20.91"/>
            <line class="cls-3" x1="30.47" y1="28.24" x2="27.03" y2="23.68"/>
          </g>
          <line class="cls-3" x1="28.56" y1="29.74" x2="21.44" y2="24.59"/>
        </g>
      </g>
    </g>
  </g>
</svg>