<?xml version="1.0" encoding="UTF-8"?>
<svg id="_Слой_2" data-name="Слой 2" xmlns="http://www.w3.org/2000/svg" viewBox="0 0 42 42">
  <defs>
    <style>
      .cls-1 {
        fill: none;
        stroke: #ecf0e5;
        stroke-miterlimit: 10;
        stroke-width: 2px;
      }

      .cls-2 {
        fill: #ecf0e5;
        fill-rule: evenodd;
      }
    </style>
  </defs>
  <g id="_Слой_1-2" data-name="Слой 1">
    <g>
      <rect class="cls-1" x="1" y="1" width="40" height="40" rx="3" ry="3"/>
      <path id="Telegram" class="cls-2" d="m9.91,19.64c6.35-2.77,10.59-4.59,12.71-5.47,6.05-2.52,7.31-2.95,8.13-2.97.18,0,.58.04.84.25.22.18.28.42.31.59s.07.56.04.86c-.33,3.45-1.75,11.81-2.47,15.66-.31,1.63-.91,2.18-1.49,2.23-1.27.12-2.23-.84-3.45-1.64-1.92-1.26-3-2.04-4.86-3.27-2.15-1.42-.76-2.2.47-3.47.32-.33,5.9-5.4,6-5.86.01-.06.03-.27-.1-.39s-.32-.07-.45-.04c-.19.04-3.26,2.07-9.19,6.07-.87.6-1.66.89-2.36.87-.78-.02-2.27-.44-3.39-.8-1.36-.44-2.45-.68-2.35-1.43.05-.39.59-.79,1.62-1.2Z"/>
    </g>
  </g>
</svg>