<?xml version="1.0" encoding="UTF-8"?>
<svg id="_Слой_2" data-name="Слой 2" xmlns="http://www.w3.org/2000/svg" viewBox="0 0 42 42">
  <defs>
    <style>
      .cls-1 {
        stroke-width: 2px;
      }

      .cls-1, .cls-2 {
        fill: none;
        stroke: #ecf0e5;
        stroke-miterlimit: 10;
      }

      .cls-3 {
        fill: #ecf0e5;
        fill-rule: evenodd;
      }

      .cls-2 {
        stroke-width: 1.5px;
      }
    </style>
  </defs>
  <g id="_Слой_1-2" data-name="Слой 1">
    <g>
      <rect class="cls-1" x="1" y="1" width="40" height="40" rx="3" ry="3"/>
      <g id="WhatsApp">
        <path id="WhatsApp-2" data-name="WhatsApp" class="cls-2" d="m9.44,32.61l1.63-5.96c-1.01-1.75-1.54-3.72-1.54-5.75,0-6.34,5.16-11.51,11.51-11.51,3.08,0,5.97,1.2,8.14,3.37,2.17,2.18,3.37,5.07,3.37,8.14,0,6.34-5.17,11.51-11.51,11.51,0,0,0,0,0,0h0c-1.93,0-3.82-.48-5.5-1.4l-6.1,1.6Z"/>
        <path id="WhatsApp-3" data-name="WhatsApp" class="cls-3" d="m26.85,23.64c-.07-.12-.26-.19-.55-.34-.29-.14-1.7-.84-1.96-.94-.26-.1-.46-.14-.65.14-.19.29-.74.94-.91,1.13-.17.19-.34.22-.62.07-.29-.14-1.21-.45-2.31-1.43-.85-.76-1.43-1.7-1.6-1.99-.17-.29-.02-.44.13-.59.13-.13.29-.34.43-.5.14-.17.19-.29.29-.48.1-.19.05-.36-.02-.5-.07-.14-.65-1.56-.89-2.13-.23-.56-.47-.48-.65-.49-.17,0-.36-.01-.55-.01s-.5.07-.77.36c-.26.29-1.01.98-1.01,2.4s1.03,2.78,1.17,2.97c.14.19,2.03,3.1,4.91,4.34.69.3,1.22.47,1.64.61.69.22,1.32.19,1.81.11.55-.08,1.7-.7,1.94-1.37.24-.67.24-1.25.17-1.37Z"/>
      </g>
    </g>
  </g>
</svg>