<?xml version="1.0" encoding="UTF-8"?>
<svg id="_Слой_2" data-name="Слой 2" xmlns="http://www.w3.org/2000/svg" viewBox="0 0 135.03 135.03">
  <defs>
    <style>
      .cls-1, .cls-2 {
        fill: #262626;
      }

      .cls-3 {
        stroke: #262626;
      }

      .cls-3, .cls-4 {
        fill: none;
        stroke-miterlimit: 10;
        stroke-width: .75px;
      }

      .cls-5 {
        fill: #e8dedf;
      }

      .cls-4 {
        stroke: #faf8f8;
      }

      .cls-2 {
        font-family: CourierNewPSMT, 'Courier New';
        font-size: 15.09px;
      }
    </style>
  </defs>
  <g id="_Слой_1-2" data-name="Слой 1">
    <g>
      <g>
        <circle class="cls-5" cx="67.52" cy="67.52" r="67.5"/>
        <text class="cls-2" transform="translate(23.27 69.41) rotate(-86.68)"><tspan x="0" y="0">☼</tspan></text>
        <text class="cls-2" transform="translate(23.74 60.69) rotate(-75.31)"><tspan x="0" y="0"> </tspan></text>
        <text class="cls-2" transform="translate(25.92 52.23) rotate(-63.92)"><tspan x="0" y="0">W</tspan></text>
        <text class="cls-2" transform="translate(29.74 44.37) rotate(-52.59)"><tspan x="0" y="0">H</tspan></text>
        <text class="cls-2" transform="translate(35.01 37.42) rotate(-41.36)"><tspan x="0" y="0">I</tspan></text>
        <text class="cls-2" transform="translate(41.55 31.62) rotate(-30.03)"><tspan x="0" y="0">T</tspan></text>
        <text class="cls-2" transform="translate(49.09 27.22) rotate(-18.64)"><tspan x="0" y="0">E</tspan></text>
        <text class="cls-2" transform="translate(57.35 24.41) rotate(-7.28)"><tspan x="0" y="0"> </tspan></text>
        <text class="cls-2" transform="translate(66.02 23.26) rotate(3.93)"><tspan x="0" y="0">T</tspan></text>
        <text class="cls-2" transform="translate(74.72 23.83) rotate(15.29)"><tspan x="0" y="0">E</tspan></text>
        <text class="cls-2" transform="translate(83.16 26.1) rotate(26.69)"><tspan x="0" y="0">A</tspan></text>
        <text class="cls-2" transform="translate(90.99 30) rotate(38)"><tspan x="0" y="0"> </tspan></text>
        <text class="cls-2" transform="translate(97.9 35.36) rotate(49.28)"><tspan x="0" y="0">☼</tspan></text>
        <text class="cls-2" transform="translate(103.61 41.95) rotate(60.58)"><tspan x="0" y="0"> </tspan></text>
        <text class="cls-2" transform="translate(107.93 49.54) rotate(71.98)"><tspan x="0" y="0">W</tspan></text>
        <text class="cls-2" transform="translate(110.66 57.84) rotate(83.35)"><tspan x="0" y="0">H</tspan></text>
        <text class="cls-2" transform="translate(111.71 66.51) rotate(94.54)"><tspan x="0" y="0">I</tspan></text>
        <text class="cls-2" transform="translate(111.05 75.21) rotate(105.91)"><tspan x="0" y="0">T</tspan></text>
        <text class="cls-2" transform="translate(108.69 83.62) rotate(117.3)"><tspan x="0" y="0">E</tspan></text>
        <text class="cls-2" transform="translate(104.71 91.4) rotate(128.6)"><tspan x="0" y="0"> </tspan></text>
        <text class="cls-2" transform="translate(99.27 98.25) rotate(139.88)"><tspan x="0" y="0">☼</tspan></text>
        <text class="cls-2" transform="translate(92.62 103.9) rotate(151.19)"><tspan x="0" y="0"> </tspan></text>
        <text class="cls-2" transform="translate(84.98 108.14) rotate(162.6)"><tspan x="0" y="0">T</tspan></text>
        <text class="cls-2" transform="translate(76.67 110.78) rotate(173.94)"><tspan x="0" y="0">H</tspan></text>
        <text class="cls-2" transform="translate(67.98 111.73) rotate(-174.86)"><tspan x="0" y="0">A</tspan></text>
        <text class="cls-2" transform="translate(59.27 110.98) rotate(-163.45)"><tspan x="0" y="0"> </tspan></text>
        <text class="cls-2" transform="translate(50.89 108.52) rotate(-152.08)"><tspan x="0" y="0">C</tspan></text>
        <text class="cls-2" transform="translate(43.16 104.46) rotate(-140.78)"><tspan x="0" y="0">H</tspan></text>
        <text class="cls-2" transform="translate(36.37 98.96) rotate(-129.51)"><tspan x="0" y="0">A</tspan></text>
        <text class="cls-2" transform="translate(30.8 92.25) rotate(-118.2)"><tspan x="0" y="0">I</tspan></text>
        <circle class="cls-4" cx="67.52" cy="67.52" r="62.5"/>
        <circle class="cls-3" cx="67.52" cy="67.52" r="58.92"/>
      </g>
      <g>
        <path class="cls-1" d="m66.91,93.97c.1.06.2.1.28.13,1.56.62,3.53-.2,5.15-2.14,1.91-2.29,3.73-4.64,5.46-7.05,7.01-9.77,12.49-20.49,16.35-31.96.09-.27.07-.57-.05-.82-.31-.65-.87-1.07-1.57-1.19-1.23-.22-2.67.55-3.55,1.41-7.09,6.9-13.08,14.85-17.8,23.63-.37.69-.81,1.46-1.28,2.27-.94,1.64-1.99,3.47-2.86,5.32-.43-5.85-1.78-11.07-4.06-15.7-3.71-7.54-10.01-13.65-15.56-19.03-.26-.26-.64-.36-1-.28-.36.08-.65.33-.79.67-5.69,14.57.56,33.03,13.93,41.15,1.45.88,3.32,1.82,5.32,1.58-.18,2.87-.58,5.91-1.14,9.08l1.91,1.74c.58-3.05,1-5.98,1.25-8.78Zm24.86-40.84c-4.72,13.7-11.82,26.29-21.12,37.43-1.05,1.26-2.14,1.71-2.66,1.51-.08-.03-.15-.11-.22-.19,5.32-10.05,11.39-19.8,18.09-29.01l.36-.5c2.07-2.84,4.2-5.79,5.32-9.15.08-.03.15-.07.22-.09Zm-19.97,26.2c.48-.83.92-1.62,1.3-2.32,1.96-3.64,4.14-7.14,6.53-10.47,3.25-4.53,6.88-8.75,10.87-12.63.11-.1.22-.2.33-.28-1.14,3.05-3.12,5.77-5.05,8.42l-.36.5c-6.63,9.11-12.67,18.79-17.96,28.75-.1-.38-.14-.86-.11-1.43.18-3.07,2.54-7.2,4.45-10.52Zm-10.78-10.5c2.16,4.39,3.44,9.34,3.85,14.92-3.53-8.08-6.99-16.26-10.31-24.42,2.51,2.92,4.76,6.04,6.46,9.5Zm-13.9-17.24c2.16,2.1,4.31,4.24,6.34,6.49,3.69,9.09,7.54,18.23,11.49,27.22.04.89.06,1.79.06,2.71-1.27-3.53-3.23-7-5.15-10.38-.66-1.17-1.31-2.31-1.91-3.43-1.28-2.39-2.36-4.93-3.41-7.39-.72-1.71-1.47-3.47-2.29-5.17-1.57-3.29-3.43-6.47-5.27-9.57.05-.16.09-.31.14-.47Zm13.58,36.9c-9.52-5.78-15.18-17.18-14.98-28.3.83,3.75,1.8,7.53,3.37,11.07,1.5,3.41,3.67,6.86,6.62,10.56,2.17,2.72,4.54,5.29,7.07,7.69-.74-.25-1.46-.65-2.08-1.02Zm4.24,1.22c-.35.08-.71.1-1.07.06-2.78-2.56-5.38-5.33-7.73-8.28-2.92-3.66-5.06-7.07-6.54-10.44-1.82-4.13-2.84-8.59-3.77-12.96.15-1.79.46-3.57.94-5.31,1.74,2.95,3.51,5.98,4.99,9.09.81,1.69,1.55,3.45,2.27,5.15,1.05,2.47,2.13,5.03,3.43,7.44.6,1.12,1.25,2.27,1.92,3.44,2.18,3.84,4.41,7.8,5.6,11.8-.01,0-.03,0-.04,0Z"/>
        <path class="cls-1" d="m63.76,60.32c1.97.39,4.09-.51,5.24-2.11.21-.29.39-.61.53-.94.73-1.76.42-3.97-.82-5.89-.74-1.15-1.63-1.92-2.64-2.28-1.24-.44-2.59-.16-3.82.78-1.73,1.33-2.92,3.72-2.77,5.56.19,2.37,2,4.42,4.3,4.87Zm-.19-8.7c.44-.34,1.1-.69,1.75-.46.55.19,1.06.67,1.54,1.4.66,1.02,1.17,2.57.64,3.86-.51,1.23-1.99,2-3.31,1.74-1.31-.26-2.43-1.53-2.54-2.9-.08-.97.69-2.71,1.92-3.65Z"/>
        <path class="cls-1" d="m76.72,49.68c.02.66.16,1.26.39,1.79.81,1.82,3.02,2.86,5.03,2.37,1.13-.27,2.13-.99,2.83-1.96.43-.6.74-1.29.89-2.03.14-.69.14-1.33-.01-1.92-.32-1.3-1.39-2.39-2.78-2.86-1.76-.59-3.4-.42-4.62.49-1.18.88-1.79,2.34-1.73,4.12Zm3.04-2.36c.62-.46,1.55-.52,2.6-.17.68.23,1.22.75,1.36,1.31.07.27.06.59,0,.95-.23,1.11-1.09,2.05-2.09,2.3-.98.24-2.13-.28-2.51-1.14-.12-.27-.19-.59-.2-.97-.04-1.04.27-1.86.85-2.28Z"/>
        <path class="cls-1" d="m67.27,39.79c.66.3,1.43.14,2.11-.11.56-.21,1.13-.49,1.46-.99.43-.64.36-1.53,0-2.21-.36-.68-.98-1.19-1.62-1.62-2.52-1.67-4.08,2.41-2.74,4.24.21.28.47.53.79.68Z"/>
      </g>
    </g>
  </g>
</svg>