<?xml version="1.0" encoding="UTF-8"?>
<svg id="_Слой_2" data-name="Слой 2" xmlns="http://www.w3.org/2000/svg" viewBox="0 0 135 135">
  <defs>
    <style>
      .cls-1, .cls-2 {
        fill: #262626;
      }

      .cls-3 {
        stroke: #262626;
      }

      .cls-3, .cls-4 {
        fill: none;
        stroke-miterlimit: 10;
        stroke-width: .75px;
      }

      .cls-4 {
        stroke: #faf8f8;
      }

      .cls-2 {
        font-family: CourierNewPSMT, 'Courier New';
        font-size: 15.09px;
      }

      .cls-5 {
        fill: #f4d555;
      }
    </style>
  </defs>
  <g id="_Слой_1-2" data-name="Слой 1">
    <g>
      <g>
        <circle class="cls-5" cx="67.5" cy="67.5" r="67.5"/>
        <text class="cls-2" transform="translate(24.21 58.36) rotate(-72.31)"><tspan x="0" y="0">☼</tspan></text>
        <text class="cls-2" transform="translate(26.83 50.03) rotate(-60.93)"><tspan x="0" y="0"> </tspan></text>
        <text class="cls-2" transform="translate(31.05 42.38) rotate(-49.54)"><tspan x="0" y="0">T</tspan></text>
        <text class="cls-2" transform="translate(36.7 35.71) rotate(-38.22)"><tspan x="0" y="0">H</tspan></text>
        <text class="cls-2" transform="translate(43.52 30.29) rotate(-26.98)"><tspan x="0" y="0">A</tspan></text>
        <text class="cls-2" transform="translate(51.31 26.29) rotate(-15.65)"><tspan x="0" y="0"> </tspan></text>
        <text class="cls-2" transform="translate(59.7 23.91) rotate(-4.27)"><tspan x="0" y="0">C</tspan></text>
        <text class="cls-2" transform="translate(68.4 23.23) rotate(7.09)"><tspan x="0" y="0">H</tspan></text>
        <text class="cls-2" transform="translate(77.08 24.28) rotate(18.31)"><tspan x="0" y="0">A</tspan></text>
        <text class="cls-2" transform="translate(85.37 26.98) rotate(29.67)"><tspan x="0" y="0">I</tspan></text>
        <text class="cls-2" transform="translate(92.98 31.28) rotate(41.07)"><tspan x="0" y="0"> </tspan></text>
        <text class="cls-2" transform="translate(99.59 37) rotate(52.38)"><tspan x="0" y="0">B</tspan></text>
        <text class="cls-2" transform="translate(104.96 43.91) rotate(63.66)"><tspan x="0" y="0">A</tspan></text>
        <text class="cls-2" transform="translate(108.86 51.71) rotate(74.96)"><tspan x="0" y="0">L</tspan></text>
        <text class="cls-2" transform="translate(111.15 60.13) rotate(86.36)"><tspan x="0" y="0">I</tspan></text>
        <text class="cls-2" transform="translate(111.74 68.86) rotate(97.73)"><tspan x="0" y="0"> </tspan></text>
        <text class="cls-2" transform="translate(110.6 77.51) rotate(108.91)"><tspan x="0" y="0">☼</tspan></text>
        <text class="cls-2" transform="translate(107.8 85.77) rotate(120.29)"><tspan x="0" y="0"> </tspan></text>
        <text class="cls-2" transform="translate(103.43 93.33) rotate(131.68)"><tspan x="0" y="0">T</tspan></text>
        <text class="cls-2" transform="translate(97.64 99.88) rotate(142.98)"><tspan x="0" y="0">H</tspan></text>
        <text class="cls-2" transform="translate(90.67 105.17) rotate(154.26)"><tspan x="0" y="0">A</tspan></text>
        <text class="cls-2" transform="translate(82.83 108.99) rotate(165.57)"><tspan x="0" y="0"> </tspan></text>
        <text class="cls-2" transform="translate(74.37 111.2) rotate(176.98)"><tspan x="0" y="0">C</tspan></text>
        <text class="cls-2" transform="translate(65.67 111.69) rotate(-171.68)"><tspan x="0" y="0">H</tspan></text>
        <text class="cls-2" transform="translate(57.02 110.46) rotate(-160.49)"><tspan x="0" y="0">A</tspan></text>
        <text class="cls-2" transform="translate(48.76 107.56) rotate(-149.08)"><tspan x="0" y="0">I</tspan></text>
        <text class="cls-2" transform="translate(41.26 103.11) rotate(-137.7)"><tspan x="0" y="0"> </tspan></text>
        <text class="cls-2" transform="translate(34.78 97.26) rotate(-126.41)"><tspan x="0" y="0">B</tspan></text>
        <text class="cls-2" transform="translate(29.57 90.24) rotate(-115.14)"><tspan x="0" y="0">A</tspan></text>
        <text class="cls-2" transform="translate(25.83 82.36) rotate(-103.83)"><tspan x="0" y="0">L</tspan></text>
        <text class="cls-2" transform="translate(23.71 73.87) rotate(-92.39)"><tspan x="0" y="0">I</tspan></text>
        <circle class="cls-4" cx="67.5" cy="67.5" r="62.5"/>
        <circle class="cls-3" cx="67.5" cy="67.5" r="58.92"/>
      </g>
      <path class="cls-1" d="m90.54,62.7c-1.28-.87-3.02-.5-4.35-.02-.92.34-1.78.86-2.57,1.46.14-.22.29-.46.43-.69,2.24-3.56,4.17-7.55,4.49-11.8.11-1.45,0-3.14-1.09-4.22-1.11-1.12-2.7-.79-3.9,0-.85.55-1.6,1.29-2.28,2.08.66-1.5,1.33-2.99,1.93-4.51.58-1.47,1.08-3.15.83-4.74-.27-1.78-1.91-2.67-3.59-2.38-1.78.3-3.38,1.61-4.55,2.91-.5.56-.96,1.16-1.38,1.78-.19-1.53-1.26-2.75-2.84-2.93-1.78-.19-3.57,1.17-4.76,2.32-1.58,1.52-2.66,3.46-3.7,5.37-1.14,2.11-2.13,4.3-3.14,6.48-.77,1.66-1.52,3.34-2.21,5.03-.16-1.73-.56-3.41-1.36-4.93-.8-1.53-2.28-2.96-4.08-3.05-2.15-.1-2.82,2.02-2.84,3.77-.01,1.33.16,2.64.25,3.95.07.94.11,1.9,0,2.86-.01.1-.04.19-.05.28-.3,2.15-1.16,4.2-2.03,6.18-.92,2.09-1.89,4.15-2.47,6.37-.56,2.15-.64,4.31-.29,6.49.32,2.05,1.04,4.07,1.81,6.01.73,1.86,1.71,3.65,3.09,5.11,1.47,1.57,3.47,2.6,5.42,3.44,2.08.89,4.28,1.54,6.48,2.08,3.93.95,8.06,1.08,11.74-.82,3.86-1.99,5.94-5.83,7.81-9.55,1.43-2.84,2.72-5.74,4.1-8.61.43-.89.87-1.76,1.32-2.64.39-.74.77-1.49,1.18-2.23,1.14-2.01,2.49-3.87,3.37-6.04.65-1.61.82-3.74-.8-4.83Zm-5.85,13.91c-.18.37-.36.74-.54,1.12-.9,1.86-1.77,3.75-2.66,5.62-1.9,3.98-3.71,8.48-7.37,11.16-3.42,2.51-7.83,2.44-11.78,1.51-2.2-.52-4.39-1.2-6.48-2.08-2.05-.85-4.01-2-5.43-3.73-1.29-1.57-2.08-3.53-2.75-5.43-.72-2.06-1.35-4.17-1.39-6.38-.09-4.68,2.59-8.71,4.12-12.97.37-1.03.64-2.07.81-3.13.17-1.01.23-2.04.2-3.09,0-.1,0-.2,0-.29-.05-1.09-.19-2.18-.27-3.26-.07-.93-.24-2.35.5-3.07.65-.64,1.77.05,2.31.49.81.66,1.31,1.64,1.68,2.6.68,1.74.8,3.71.77,5.58,0,.23,0,.46-.01.69-.03.8-.12,1.61-.22,2.41-.15,1.32-.34,2.64-.57,3.94-.38,2.2-1.09,4.32-1.61,6.48-.91,3.84-.99,7.74,1.31,11.12,1.97,2.92,5.32,4.95,8.9,4.84,3.39-.11,6.41-2.05,7.98-5.04,1.68-3.21,1.03-7.47-1.98-9.64-3.11-2.23-8.11-1.83-10.6,1.12-1.07,1.26-1.23,3.13-.51,4.59.65,1.3,1.97,2.22,3.3,2.7,1.22.45,2.69.5,3.56-.61.95-1.2,0-2.9-.58-4.03-.43-.85-1.8-.21-1.37.65.34.67.72,1.33.82,2.09.11.82-.91.77-1.43.66-1.49-.34-3-1.47-3.24-3.06-.31-2.13,2.01-3.46,3.75-3.86,2.03-.47,4.18-.02,5.82,1.26,1.47,1.14,1.98,3.21,1.84,4.98-.14,1.73-1.01,3.37-2.24,4.56-2.53,2.44-6.37,2.74-9.39,1.08-3.31-1.8-5.19-5.44-5.06-9.15.08-2.25.71-4.44,1.29-6.59.57-2.08,1-4.15,1.32-6.27.06-.39.1-.81.15-1.22.07-.56.16-1.11.21-1.69.13-.41.3-.82.44-1.23,1.43-4.09,3.3-8.04,5.19-11.93,1.01-2.08,2.09-4.18,3.52-6.01,1.05-1.33,2.87-3.15,4.74-2.95,1.74.18,1.36,2.81,1.14,3.93-.44,2.25-1.37,4.41-2.36,6.46-1.05,2.17-2.25,4.25-3.36,6.38-1.12,2.16-1.99,4.4-2.98,6.61,0,.02-.02.04-.03.05-.32.72-.68,1.43-1.08,2.11-.13.21-.14.42-.08.61.14.44.68.73,1.08.48.09-.05.17-.13.23-.24.45-.76.84-1.54,1.2-2.35.63-1.38,1.2-2.78,1.81-4.17.97-2.2,2.17-4.29,3.3-6.41,1.14-2.12,2.2-4.27,2.99-6.53.17-.49.33-.99.47-1.49v-.02c.73-1.64,1.6-3.19,2.75-4.56,1.02-1.22,2.64-2.66,4.33-2.74,1.69-.07,1.53,2.01,1.32,3.11-.36,1.85-1.26,3.59-2.02,5.29-1.68,3.75-3.15,7.59-4.92,11.29-1.43,2.96-2.89,5.91-4.32,8.88-.38.79-.77,1.58-1.14,2.37-.05.12-.07.22-.06.32.03.51.71.81,1.16.56.09-.05.17-.12.23-.21.53-.73,1-1.49,1.45-2.27,1.97-3.42,3.27-7.19,5.02-10.74,1.03-2.09,2.11-4.15,3.48-6.04.89-1.23,2-2.62,3.35-3.38.53-.29,1.13-.45,1.65-.07.59.43.69,1.36.74,2.02.14,1.77-.35,3.68-.9,5.34-.74,2.24-1.81,4.36-3.04,6.37-1.23,2.01-2.55,3.96-3.5,6.12-.45,1.02-.92,2.04-1.39,3.06-.41.89-.85,1.78-1.28,2.66-.34.68-.66,1.38-1.01,2.05-.38.73.6,1.2,1.17.79.21,0,.43-.09.59-.33.34-.54.67-1.08.99-1.63.23-.41.47-.81.68-1.24.23-.45.42-.94.6-1.43.24-.64.48-1.28.75-1.89.95-2.12,2.31-3.85,4.18-5.22,1.09-.8,4.17-2.42,5.2-.73.48.77.11,1.92-.18,2.69-.42,1.1-1.02,2.15-1.61,3.15-.98,1.64-1.92,3.26-2.82,4.93-.27.5-.56,1-.81,1.51Z"/>
    </g>
  </g>
</svg>